<svg width="52" height="52" version="1.1" viewBox="0 0 13.758 13.758" xmlns="http://www.w3.org/2000/svg">
<g transform="matrix(.8267 0 0 1.0161 1.1464 1.532)" fill="#fff" stroke-width=".28868px" style="font-feature-settings:normal;font-variant-caps:normal;font-variant-ligatures:normal;font-variant-numeric:normal" aria-label="new">
<path d="m8.218 2.7771v1.359h-0.71738v-1.0402q0-0.28895-0.013949-0.39854-0.011956-0.1096-0.04384-0.16141-0.041847-0.069745-0.11359-0.10761-0.071738-0.039854-0.1634-0.039854-0.22319 0-0.35072 0.17337-0.12753 0.17137-0.12753 0.47626v1.098h-0.7134v-2.2319h0.7134v0.32681q0.16141-0.19529 0.34275-0.28695 0.18134-0.093658 0.40054-0.093658 0.38659 0 0.58586 0.23713 0.20127 0.23713 0.20127 0.68948z"/>
<path d="m11.111 3.0143v0.20326h-1.6679q0.025905 0.25108 0.18134 0.37662 0.15543 0.12554 0.43441 0.12554 0.22518 0 0.46032-0.06576 0.23713-0.067753 0.48622-0.20326v0.54999q-0.25308 0.095651-0.50615 0.14348-0.25308 0.049818-0.50615 0.049818-0.60579 0-0.94256-0.30688-0.33478-0.30887-0.33478-0.86484 0-0.54601 0.3288-0.85886 0.33079-0.31286 0.90868-0.31286 0.52608 0 0.84093 0.31684 0.31684 0.31684 0.31684 0.84691zm-0.73332-0.23713q0-0.20326-0.11956-0.32681-0.11757-0.12554-0.30887-0.12554-0.20724 0-0.33677 0.11757-0.12953 0.11558-0.16141 0.33478z"/>
<path d="m11.45 1.9043h0.69347l0.37463 1.5384 0.37662-1.5384h0.59582l0.37463 1.5224 0.37662-1.5224h0.69347l-0.58785 2.2319h-0.77916l-0.37662-1.5344-0.37463 1.5344h-0.77916z"/>
</g>
</svg>
