<svg version="1.1" viewBox="0 0 150.52 173.8" xmlns="http://www.w3.org/2000/svg">
<defs>
<style>.cls-1{fill:#a880af;}.cls-2{fill:#5e98a1;}.cls-3,.cls-7{fill:#fff;}.cls-4{fill:none;}.cls-5{fill:#4646ad;}.cls-6{fill:#2f157e;}.cls-7{stroke:#fff;stroke-miterlimit:10;stroke-width:4px;}.cls-8{fill:#37d8ad;}.cls-9{fill:#171866;}</style>
</defs>
<title>Asset 24</title>
<g transform="matrix(.79724 0 0 .79724 15.26 17.62)" stroke-width="1.2543" data-name="Layer 2">
<g data-name="Layer 1">
<path class="cls-1" d="m75.26 0-75.26 43.45v86.9l75.26 43.45 75.26-43.45v-86.9zm65.57 124.76-65.57 37.86-65.58-37.86v-75.76l65.58-37.82 65.57 37.82z" fill="#a880af" stroke-width="1.2543"/>
<polygon class="cls-2" points="19.65 119 19.65 54.8 75.26 22.69 130.86 54.8 130.86 119 75.26 151.11" fill="#5e98a1" stroke-width="1.2543"/>
<g fill="#fff" stroke-width="1.2543">
<path class="cls-3" d="m75.26 23.85 54.6 31.52v63.06l-54.6 31.57-54.61-31.57v-63.06l54.61-31.52m0-2.31-56.61 32.68v65.36l56.61 32.68 56.6-32.68v-65.36z"/>
<polygon class="cls-3" points="9.68 49.04 75.26 11.18 9.68 49.04 9.68 124.76 75.26 162.62 9.68 124.76"/>
<polygon class="cls-3" points="140.83 49.04 140.83 124.76 75.26 162.62 140.83 124.76 140.83 49.04 75.26 11.18"/>
</g>
<g stroke-width="1.2543">
<polygon class="cls-4" points="131.86 119.58 131.86 54.22 75.26 21.54 75.26 27.11 23.27 57.15 18.65 54.43 18.65 119.58 75.26 152.26" fill="none"/>
<polygon class="cls-5" points="75.26 11.18 75.26 21.54 131.86 54.22 131.86 119.58 75.26 152.26 18.65 119.58 18.65 54.43 9.68 49.15 9.68 124.76 75.26 162.62 140.83 124.76 140.83 49.04" fill="#4646ad"/>
<polygon class="cls-6" points="18.65 54.22 75.26 21.54 75.26 11.18 9.68 49.04 9.68 49.15 18.65 54.43" fill="#2f157e"/>
</g>
<g fill="#fff" stroke="#fff" stroke-miterlimit="10" stroke-width="5.0173px">
<path class="cls-7" d="m56.39 74.18c-3.2-0.37-5 0.67-5.81 3.56a12.3 12.3 0 0 0-0.41 3.26c0 4.86 0.06 9.73 0 14.6 0 2.28-0.39 4.55-0.61 6.94h10.7a5 5 0 0 0 0.33-1.12c0-7.52 0.08-15 0-22.56a4.44 4.44 0 0 0-4.2-4.68z"/>
<path class="cls-7" d="m82.24 70h3c0.36-0.4 0.5-0.48 0.5-0.56 0.07-8.08 0.15-16.16 0.16-24.24a4.08 4.08 0 0 0-2.4-3.73 10.07 10.07 0 0 0-4.09-1c-14.07-0.07-28.14 0-42.21 0-0.65 0-1.31 0.06-1.84 0.08 0.25 3.77 0.66 7.17 0.68 10.57 0.02 14.88-0.04 29.88-0.04 44.82v2c0.16 2.6 1.54 4.3 3.84 4.74 2.62 0.5 4.79-0.4 5.81-2.72a10.19 10.19 0 0 0 0.77-3.83q0.12-8.64 0-17.29a8.54 8.54 0 0 1 2.83-6.47 8.81 8.81 0 0 1 6.75-2.37h26.24zm-25.24-13.43-5.26 7.2-2.65 3.65-0.23-0.13 1-2.6 3.65-9-0.11-0.27-0.59-1.37-0.68-1.61-3.07-7.16-0.25-0.59 0.23-0.13 0.34 0.45 4.62 5.99 1 1.32 0.88 1.14 1.12 1.36 0.66 0.86zm7.52 0-0.65-0.89 0.66-0.86 7.87-10.22 0.24 0.13-4.28 10-0.43 1 2.76 6.78 0.67 1.63 0.56 1.39 0.72 1.76-0.23 0.13-0.05-0.07-1-1.35-0.85-1.16-1-1.36-4.39-6z"/>
<path class="cls-7" d="m26.79 40.5c-2.9-0.25-5 2.19-5.11 6.22h9.92c0.31-3.5-1.6-5.95-4.81-6.22z"/>
<path class="cls-7" d="m114.35 124c0.08-1.37 0.2-2.34 0.2-3.31q0-20.27 0-40.53v-1.66c-0.2-2.32-1.27-3.76-3.51-4.25a25.74 25.74 0 0 0-5.26-0.56h-42.67c2 3.61 1.56 7.07 1.57 10.46q0 20.78 0 41.53a27 27 0 0 0 0 3 5.1 5.1 0 0 0 8.18 3.63c1.69-1.14 2.07-2.76 2.25-4.54 0.12-1.16 0.16-2.33 0.24-3.74h38.94zm-33.12-14 1 2.56 0.89 2.19 1.12 2.77-0.36 0.19-0.07-0.1-1.54-2.13-1.27-1.79-1.56-2.14-6.91-9.49-1-1.38-1-1.4 1.05-1.35 12.4-16.09 0.37 0.21-6.79 15.74-0.68 1.57zm20.77-11.06-1-2.17-1-2.52-4.88-11.25-0.39-0.93 0.36-0.21 0.54 0.72 7.18 9.28 1.6 2.08 1.38 1.78 1.72 2.23 1 1.35-1 1.4-8.25 11.3-4.16 5.73-0.37-0.2 1.66-4.08 5.74-14.1z"/>
<path class="cls-7" d="m79.38 128.45-1.38 4.72c1.11 0.08 1.86 0.18 2.62 0.18q21.08 0 42.14 0a13.14 13.14 0 0 0 2-0.09c2.54-0.41 3.69-1.76 4.11-4.72-2.39-0.54-45.61-0.7-49.49-0.09z"/>
<path class="cls-7" d="m129.82 124h-11.19v-45.16c-0.16-5-3.54-8.6-8.55-8.76-5.54-0.17-11.08-0.08-16.62-0.08-1.08 0-2.15-0.1-3.5-0.16v-3.2c0-6.65 0.09-13.3-0.06-19.94a13 13 0 0 0-1.28-5.38c-1.9-3.78-5.39-5-9.41-5q-25.24 0-50.5 0a17.77 17.77 0 0 0-4.58 0.65 8.52 8.52 0 0 0-6 5.33 14.12 14.12 0 0 0-0.36 8.44c4.74 0.59 9.39-0.26 14.16 0.51v3.81q0.07 20.94 0.07 41.94a11.14 11.14 0 0 0 0.65 4.2 8.87 8.87 0 0 0 8.61 5.65c5.42 0.07 10.85 0 16.28 0 0.95 0 1.91 0.14 3.1 0.24v3.53c0 5.54 0.26 11.09-0.07 16.61-0.32 5.29 4.51 10.36 10.18 10.29 17.49-0.22 35-0.12 52.5-0.05 6.32 0 9.79-4 9.93-10 0.07-3.13-0.18-3.41-3.36-3.47zm-98.22-77.28h-9.92c0.08-4 2.21-6.47 5.11-6.22 3.21 0.27 5.12 2.72 4.81 6.22zm29 54.7a5 5 0 0 1-0.33 1.12h-10.75c0.22-2.39 0.57-4.66 0.61-6.94 0.1-4.87 0-9.74 0-14.6a12.3 12.3 0 0 1 0.41-3.26c0.82-2.89 2.61-3.93 5.81-3.56a4.44 4.44 0 0 1 4.2 4.68c0.12 7.52 0.06 15.04 0.04 22.56zm-4.6-31.42a8.81 8.81 0 0 0-6.67 2.37 8.54 8.54 0 0 0-2.83 6.47q0.1 8.64 0 17.29a10.19 10.19 0 0 1-0.77 3.83c-1 2.32-3.19 3.22-5.81 2.72-2.3-0.44-3.68-2.14-3.84-4.74v-46.87c0-3.4-0.43-6.8-0.68-10.57 0.53 0 1.19-0.08 1.84-0.08h42.21a10.07 10.07 0 0 1 4.09 1 4.08 4.08 0 0 1 2.4 3.73c0 8.08-0.09 16.16-0.16 24.24 0 0.08-0.14 0.16-0.5 0.56h-3c-8.79 0.05-17.55 0.05-26.28 0.05zm19.19 57.78c-0.18 1.78-0.56 3.4-2.25 4.54a5.1 5.1 0 0 1-8.18-3.63 27 27 0 0 1 0-3q0-20.76 0-41.53c0-3.39 0.47-6.85-1.57-10.46h42.65a25.74 25.74 0 0 1 5.26 0.56c2.24 0.49 3.31 1.93 3.51 4.25v1.66q0 20.27 0 40.53c0 1-0.12 1.94-0.2 3.31h-39c-0.08 1.43-0.12 2.6-0.24 3.76zm49.59 5.51a13.14 13.14 0 0 1-2 0.09q-21.08 0-42.14 0c-0.76 0-1.51-0.1-2.62-0.18l1.37-4.72c3.88-0.61 47.1-0.48 49.49 0.11-0.43 2.93-1.58 4.28-4.12 4.69z"/>
<polygon class="cls-7" points="84.28 117.54 83.16 114.77 82.27 112.58 81.23 110.02 76.88 99.36 77.56 97.79 84.28 82.05 83.91 81.84 71.51 97.93 70.46 99.28 71.48 100.68 72.49 102.06 79.41 111.55 80.96 113.69 82.3 115.51 83.84 117.64 83.91 117.74 84.27 117.55"/>
<polygon class="cls-7" points="95.12 82.98 99.95 94.25 101.02 96.77 101.95 98.94 102.13 99.36 96.39 113.46 94.73 117.54 95.1 117.74 99.26 112.01 107.53 100.68 108.55 99.28 107.51 97.93 105.79 95.7 104.41 93.92 102.81 91.84 95.63 82.56 95.09 81.84 94.73 82.05"/>
<polygon class="cls-7" points="72.4 44.6 64.52 54.83 63.85 55.68 64.5 56.57 65.14 57.45 69.53 63.48 70.52 64.84 71.37 66 72.35 67.35 72.4 67.42 72.63 67.29 72.64 67.29 71.92 65.53 71.36 64.14 70.69 62.51 67.93 55.73 68.36 54.74 72.64 44.73"/>
<polygon class="cls-7" points="48.84 67.29 49.07 67.42 51.72 63.77 56.98 56.57 57.62 55.68 56.96 54.83 55.87 53.41 54.99 52.27 53.97 50.95 49.41 45.05 49.06 44.6 48.84 44.73 49.09 45.32 52.16 52.48 52.84 54.09 53.43 55.47 53.54 55.73 49.89 64.69"/>
<path class="cls-7" d="m104 54.57-0.27 1.92a0.83 0.83 0 0 0 0.25 0.73l1.43 1.31a0.83 0.83 0 0 1-0.41 1.47l-1.91 0.34a0.83 0.83 0 0 0-0.61 0.47l-0.8 1.76a0.82 0.82 0 0 1-1.48 0l-0.91-1.71a0.84 0.84 0 0 0-0.64-0.44l-1.92-0.22a0.83 0.83 0 0 1-0.5-1.4l1.35-1.39a0.8 0.8 0 0 0 0.21-0.74l-0.38-1.9a0.83 0.83 0 0 1 1.18-0.9l1.74 0.85a0.84 0.84 0 0 0 0.77 0l1.69-0.95a0.82 0.82 0 0 1 1.21 0.8z"/>
<path class="cls-7" d="m40.64 113.7 1.9-0.39a0.85 0.85 0 0 0 0.6-0.49l0.75-1.78a0.83 0.83 0 0 1 1.48-0.09l1 1.69a0.84 0.84 0 0 0 0.65 0.41l1.93 0.17a0.83 0.83 0 0 1 0.54 1.38l-1.35 1.4a0.82 0.82 0 0 0-0.19 0.75l0.43 1.88a0.82 0.82 0 0 1-1.14 0.94l-1.77-0.8a0.84 0.84 0 0 0-0.77 0l-1.66 1a0.82 0.82 0 0 1-1.24-0.8l0.21-1.93a0.82 0.82 0 0 0-0.28-0.72l-1.46-1.27a0.82 0.82 0 0 1 0.37-1.35z"/>
<circle class="cls-7" cx="53.68" cy="123.06" r="1"/>
<circle class="cls-7" cx="109.55" cy="65.2" r="1"/>
</g>
<g stroke-width="1.2543">
<path class="cls-8" d="m56.39 74.18c-3.2-0.37-5 0.67-5.81 3.56a12.3 12.3 0 0 0-0.41 3.26c0 4.86 0.06 9.73 0 14.6 0 2.28-0.39 4.55-0.61 6.94h10.7a5 5 0 0 0 0.33-1.12c0-7.52 0.08-15 0-22.56a4.44 4.44 0 0 0-4.2-4.68z" fill="#37d8ad"/>
<path class="cls-3" d="m82.24 70h3c0.36-0.4 0.5-0.48 0.5-0.56 0.07-8.08 0.15-16.16 0.16-24.24a4.08 4.08 0 0 0-2.4-3.73 10.07 10.07 0 0 0-4.09-1c-14.07-0.07-28.14 0-42.21 0-0.65 0-1.31 0.06-1.84 0.08 0.25 3.77 0.66 7.17 0.68 10.57 0.02 14.88-0.04 29.88-0.04 44.82v2c0.16 2.6 1.54 4.3 3.84 4.74 2.62 0.5 4.79-0.4 5.81-2.72a10.19 10.19 0 0 0 0.77-3.83q0.12-8.64 0-17.29a8.54 8.54 0 0 1 2.83-6.47 8.81 8.81 0 0 1 6.75-2.37h26.24zm-25.24-13.43-5.26 7.2-2.65 3.65-0.23-0.13 1-2.6 3.65-9-0.11-0.27-0.59-1.37-0.68-1.61-3.07-7.16-0.25-0.59 0.23-0.13 0.34 0.45 4.62 5.99 1 1.32 0.88 1.14 1.12 1.36 0.66 0.86zm7.52 0-0.65-0.89 0.66-0.86 7.87-10.22 0.24 0.13-4.28 10-0.43 1 2.76 6.78 0.67 1.63 0.56 1.39 0.72 1.76-0.23 0.13-0.05-0.07-1-1.35-0.85-1.16-1-1.36-4.39-6z" fill="#fff"/>
<path class="cls-8" d="m26.79 40.5c-2.9-0.25-5 2.19-5.11 6.22h9.92c0.31-3.5-1.6-5.95-4.81-6.22z" fill="#37d8ad"/>
<path class="cls-3" d="m114.35 124c0.08-1.37 0.2-2.34 0.2-3.31q0-20.27 0-40.53v-1.66c-0.2-2.32-1.27-3.76-3.51-4.25a25.74 25.74 0 0 0-5.26-0.56h-42.67c2 3.61 1.56 7.07 1.57 10.46q0 20.78 0 41.53a27 27 0 0 0 0 3 5.1 5.1 0 0 0 8.18 3.63c1.69-1.14 2.07-2.76 2.25-4.54 0.12-1.16 0.16-2.33 0.24-3.74h38.94zm-33.12-14 1 2.56 0.89 2.19 1.12 2.77-0.36 0.19-0.07-0.1-1.54-2.13-1.27-1.79-1.56-2.14-6.91-9.49-1-1.38-1-1.4 1.05-1.35 12.4-16.09 0.37 0.21-6.79 15.74-0.68 1.57zm20.77-11.06-1-2.17-1-2.52-4.88-11.25-0.39-0.93 0.36-0.21 0.54 0.72 7.18 9.28 1.6 2.08 1.38 1.78 1.72 2.23 1 1.35-1 1.4-8.25 11.3-4.16 5.73-0.37-0.2 1.66-4.08 5.74-14.1z" fill="#fff"/>
<path class="cls-8" d="m79.38 128.45-1.38 4.72c1.11 0.08 1.86 0.18 2.62 0.18q21.08 0 42.14 0a13.14 13.14 0 0 0 2-0.09c2.54-0.41 3.69-1.76 4.11-4.72-2.39-0.54-45.61-0.7-49.49-0.09z" fill="#37d8ad"/>
</g>
<g fill="#171866" stroke-width="1.2543">
<path class="cls-9" d="m129.82 124h-11.19v-45.16c-0.16-5-3.54-8.6-8.55-8.76-5.54-0.17-11.08-0.08-16.62-0.08-1.08 0-2.15-0.1-3.5-0.16v-3.2c0-6.65 0.09-13.3-0.06-19.94a13 13 0 0 0-1.28-5.38c-1.9-3.78-5.39-5-9.41-5q-25.24 0-50.5 0a17.77 17.77 0 0 0-4.58 0.65 8.52 8.52 0 0 0-6 5.33 14.12 14.12 0 0 0-0.36 8.44c4.74 0.59 9.39-0.26 14.16 0.51v3.81q0.07 20.94 0.07 41.94a11.14 11.14 0 0 0 0.65 4.2 8.87 8.87 0 0 0 8.61 5.65c5.42 0.07 10.85 0 16.28 0 0.95 0 1.91 0.14 3.1 0.24v3.53c0 5.54 0.26 11.09-0.07 16.61-0.32 5.29 4.51 10.36 10.18 10.29 17.49-0.22 35-0.12 52.5-0.05 6.32 0 9.79-4 9.93-10 0.07-3.13-0.18-3.41-3.36-3.47zm-98.22-77.28h-9.92c0.08-4 2.21-6.47 5.11-6.22 3.21 0.27 5.12 2.72 4.81 6.22zm29 54.7a5 5 0 0 1-0.33 1.12h-10.75c0.22-2.39 0.57-4.66 0.61-6.94 0.1-4.87 0-9.74 0-14.6a12.3 12.3 0 0 1 0.41-3.26c0.82-2.89 2.61-3.93 5.81-3.56a4.44 4.44 0 0 1 4.2 4.68c0.12 7.52 0.06 15.04 0.04 22.56zm-4.6-31.42a8.81 8.81 0 0 0-6.67 2.37 8.54 8.54 0 0 0-2.83 6.47q0.1 8.64 0 17.29a10.19 10.19 0 0 1-0.77 3.83c-1 2.32-3.19 3.22-5.81 2.72-2.3-0.44-3.68-2.14-3.84-4.74v-46.87c0-3.4-0.43-6.8-0.68-10.57 0.53 0 1.19-0.08 1.84-0.08h42.21a10.07 10.07 0 0 1 4.09 1 4.08 4.08 0 0 1 2.4 3.73c0 8.08-0.09 16.16-0.16 24.24 0 0.08-0.14 0.16-0.5 0.56h-3c-8.79 0.05-17.55 0.05-26.28 0.05zm19.19 57.78c-0.18 1.78-0.56 3.4-2.25 4.54a5.1 5.1 0 0 1-8.18-3.63 27 27 0 0 1 0-3q0-20.76 0-41.53c0-3.39 0.47-6.85-1.57-10.46h42.65a25.74 25.74 0 0 1 5.26 0.56c2.24 0.49 3.31 1.93 3.51 4.25v1.66q0 20.27 0 40.53c0 1-0.12 1.94-0.2 3.31h-39c-0.08 1.43-0.12 2.6-0.24 3.76zm49.59 5.51a13.14 13.14 0 0 1-2 0.09q-21.08 0-42.14 0c-0.76 0-1.51-0.1-2.62-0.18l1.37-4.72c3.88-0.61 47.1-0.48 49.49 0.11-0.43 2.93-1.58 4.28-4.12 4.69z"/>
<polygon class="cls-9" points="84.28 117.54 83.16 114.77 82.27 112.58 81.23 110.02 76.88 99.36 77.56 97.79 84.28 82.05 83.91 81.84 71.51 97.93 70.46 99.28 71.48 100.68 72.49 102.06 79.41 111.55 80.96 113.69 82.3 115.51 83.84 117.64 83.91 117.74 84.27 117.55"/>
<polygon class="cls-9" points="95.12 82.98 99.95 94.25 101.02 96.77 101.95 98.94 102.13 99.36 96.39 113.46 94.73 117.54 95.1 117.74 99.26 112.01 107.53 100.68 108.55 99.28 107.51 97.93 105.79 95.7 104.41 93.92 102.81 91.84 95.63 82.56 95.09 81.84 94.73 82.05"/>
<polygon class="cls-9" points="72.4 44.6 64.52 54.83 63.85 55.68 64.5 56.57 65.14 57.45 69.53 63.48 70.52 64.84 71.37 66 72.35 67.35 72.4 67.42 72.63 67.29 72.64 67.29 71.92 65.53 71.36 64.14 70.69 62.51 67.93 55.73 68.36 54.74 72.64 44.73"/>
<polygon class="cls-9" points="48.84 67.29 49.07 67.42 51.72 63.77 56.98 56.57 57.62 55.68 56.96 54.83 55.87 53.41 54.99 52.27 53.97 50.95 49.41 45.05 49.06 44.6 48.84 44.73 49.09 45.32 52.16 52.48 52.84 54.09 53.43 55.47 53.54 55.73 49.89 64.69"/>
</g>
<g fill="#37d8ad" stroke-width="1.2543">
<path class="cls-8" d="m104 54.57-0.27 1.92a0.83 0.83 0 0 0 0.25 0.73l1.43 1.31a0.83 0.83 0 0 1-0.41 1.47l-1.91 0.34a0.83 0.83 0 0 0-0.61 0.47l-0.8 1.76a0.82 0.82 0 0 1-1.48 0l-0.91-1.71a0.84 0.84 0 0 0-0.64-0.44l-1.92-0.22a0.83 0.83 0 0 1-0.5-1.4l1.35-1.39a0.8 0.8 0 0 0 0.21-0.74l-0.38-1.9a0.83 0.83 0 0 1 1.18-0.9l1.74 0.85a0.84 0.84 0 0 0 0.77 0l1.69-0.95a0.82 0.82 0 0 1 1.21 0.8z"/>
<path class="cls-8" d="m40.64 113.7 1.9-0.39a0.85 0.85 0 0 0 0.6-0.49l0.75-1.78a0.83 0.83 0 0 1 1.48-0.09l1 1.69a0.84 0.84 0 0 0 0.65 0.41l1.93 0.17a0.83 0.83 0 0 1 0.54 1.38l-1.35 1.4a0.82 0.82 0 0 0-0.19 0.75l0.43 1.88a0.82 0.82 0 0 1-1.14 0.94l-1.77-0.8a0.84 0.84 0 0 0-0.77 0l-1.66 1a0.82 0.82 0 0 1-1.24-0.8l0.21-1.93a0.82 0.82 0 0 0-0.28-0.72l-1.46-1.27a0.82 0.82 0 0 1 0.37-1.35z"/>
<circle class="cls-8" cx="53.68" cy="123.06" r="1"/>
<circle class="cls-8" cx="109.55" cy="65.2" r="1"/>
</g>
</g>
</g>
</svg>
