<svg width="3e3" height="800" version="1.2" viewBox="0 0 2250 600" xmlns="http://www.w3.org/2000/svg" xmlns:xlink="http://www.w3.org/1999/xlink">
<g transform="scale(1.5158)" stroke-width=".6597">
<g transform="matrix(-1.2787 0 0 1.2787 425.9 -820.52)">
<g id="g2023" stroke-width=".51592">
<path d="m198.59 896.14c-1 4.625 1 31.75 1.125 35.875s1.625 16.375 1.875 18.375 1.375 7.75 1.375 7.75-0.25 13.375-0.25 14.25-0.625 13.625-0.625 13.625-0.25 6.375-0.375 9.125-3 28-4.875 38.625l-1.375 1.25s-0.125 1.5-0.375 2.5-1.5 5.125-1.625 5.5 0.125 1.375 2 3.125-0.375 4.75-0.375 4.75l-2.75 5.25s-0.5 2.875-2.5 4.375-4.125 2.625-3.625 3.875 1.375 1.25 1.375 1.25l1.125 2.375s0 1.5 0.5 1.875c0 0-2.5 1.125-2.875 2.875s-0.25 0.5-0.25 0.5l-2.75 2.125 0.25 1.25s11.75 0.5 18.625 6l0.75 0.625 1-1s0.375-1 0.25-1.625-0.625-0.375-0.5-1.375 0.25-4.5 0.875-4.875 2.75-1.75 3.75-1.75 2-0.875 0.875-1.875c0 0-1.375-1.875-4.125-3.375l2.125-2.375s0.5-0.625 0.625-2.125 2.125-19.75 2.25-21-0.75-1.125-0.75-1.125-0.625-2.875 2.875-3.875c0 0 1.5 0 1.625-2.125s0.25-7.75 0.25-7.75 0.75-1.375 0.5-2.25-0.375-4.25 0.5-9.625 1.125-11.875 1.5-13.875c0.375-2 2.125-13 2.5-14.5s0.75-6.25 1.25-8.625 1.75-10.25 1.75-10.25 0.375-6.125 0.625-7.375 2.25-7.5 1.875-8.875 0.625-2.375 0.625-2.375 2.125-8.5 2.75-9.625c0 0 0.75 0.125 0.75-0.375s-0.375-0.75-0.375-0.75l1-1.5s2.5 1.375 3.625 1.375c0 0 1.5 1.25 6.25 0.875 0 0 1.125 6 1.875 9.375s7.125 28.75 7.5 32.25 3 13.125 3 13.875 3.25 15.625 3.75 17.125c0 0 0.25 2.625 0.5 4.5s4 20 4.375 30.5v3.625l-3.375 2.5s-0.625 3.5 0.5 4.75 3.875 2.25 4.375 3.25 1 3 0.75 5-2.5 7.5-2.5 7.5 0.5 2.5 1.375 3.75l-2.875 9.625s-0.5 1.25 2 2 4.25 3.625 4.25 3.625 5.625-5.5 11.875-1.375l1.625 1.5 1.375-1.5s-2.375-0.875-1.125-2.125c0 0 0.625 0 0.875-0.625s0-6.125 0-6.125-0.375-0.625-1-0.875-1.5-1.75 0.25-3.375 2.5-2.375 2.5-2.375 1.125-0.25-0.875-2.75c0 0-2.25-6-2.25-6.5s-1.75-6.375-2.125-7-0.125-2.875 1.25-5 3-5.125 2.625-7.75c0 0-0.5-1.625-2.5-2 0 0-0.75-0.875-1.75-0.5s-0.25-2-0.625-3.25-5.625-70.25-5.625-70.25l-3-39 3.375-9v-1s4-18.25-1.25-31.75c0 0-10.375 10.75-30.375 13.5s-39.375-7.25-39.375-7.25"/>
<path d="m273.59 1086.9c-0.64062-0.3515 3.5-0.5 3.5-0.5l1 0.5-0.125-4.125-0.625-0.375c-3.125-1.25-2.75-3.125-1.625-4.125s3.75-3.75 3.75-3.75-2-4.125-2.375-5-1-4.625-1.875-6.375-1.375-5.125-1.375-5.125 1.125-2.5 1.875-4.5 2.375-6.5 2.375-6.5c-2.375-0.125-4.625-2.125-4.625-2.125-0.875-2.375-1.875-3.5-1.875-3.5l1-1-3.625-47s-1.375-16.75-1.375-20.625-2.5-36.25-2.5-36.25-0.5 4.375-1.25 5-2.375-0.125-2.375-0.125l2.875-11.5s0.75-2.125 1.625-3.75-0.25-18.625-0.25-22.25-4-2.125-4-2.125-18.125 9.5-35 7.75-25-7.582-26.75-9.082c0 0 1.0391 28 1.5391 34.332s1.668 17.332 3.25 23.168l0.08593 9.1641-1-4.9141s-0.58593 31.582-0.91796 35.082c-0.33204 3.5-4.332 30.832-4.418 32.75-0.08203 1.918 0 3.75-0.5 4.418-0.5 0.6641-1.4141 1.5-1.4141 1.5s-1.25 6-1.75 6.75 1.1641 1.9141 2.1641 3.582c1 1.668 1.8359 2.8321 1.3359 3.0821s-0.83593-1.0821-1.5 0.5859c-0.66796 1.6641-2.8359 8-4.5859 10s-4.25 4-4.25 4l0.66797 1s1.832-0.5 4.082 0.832c2.25 1.3321 2.5 1.418 2.0859 2.918-0.41796 1.5-1.3359 1-1.3359 1s-0.66407 1.332-1.5 0.9141c-0.83203-0.4141-1.332 0.0859-1.332 0.0859l-1.582 0.582-0.16796 0.918-3.332 3.332s10 0.75 17.082 5.8321l0.75-1.1641s-1.832-0.918-0.83204-2.25c0 0-0.25-3.5859 1.6641-4.8359 1.918-1.25 3.418-2.6641 3.418-2.6641h-0.91797l-0.33203 0.1641-3-1.5-0.08204 1s-1-0.5-1.5859-1.5l-0.5 0.25-0.41407-2-0.41796-0.5s2.332-2.4141 4.5-2.6641c0 0 0.5 0.5 1.668-0.5859 0 0 2.1641-20.164 2.1641-21.164s-1.582 0.082-2.1641-0.0859c-0.58593-0.1641-1.668-1-1.25-2.5821 0.41407-1.582 1.582-1.6679 2.4141-2 0.83593-0.332 2.8359-1.4179 4.3359-3 0 0 1.75-23.168 2.1641-27.168 0.41797-4 1.5-16.832 3.168-21.914 1.668-5.0859 3.668-24.418 3.668-24.418s2.332-14.168 2.9141-17.75c0.58593-3.582 0.66797-4.832 1.168-4.75s0.83203 0.75 0.5 1.582l1.918-3.332s-7.5859-2.5-11.336-5.832c-3.5898-3.1953-3.0547-3.3281-0.80469-2.3086 0.09766 0.04297 0.19922 0.08985 0.30469 0.14063 2.5 1.168 0.5 0.08203 3.168 1.918 2.668 1.832 6.082 3.9141 14.5 6.1641 0 0 3.5 1.3359 5.25 0.66797 0 0-2.332-9.832-2.582-10.832s0.83204-2.168 0.83204-2.168 0.5 1.332 0.83203 2.5c0.33593 1.168 6.75 28.918 6.75 28.918s6.75 30 8.3359 38.332c1.582 8.3321 3.9141 17.418 3.9141 17.418s1.418 8 2.168 12.582c0.75 4.5821 1.582 7.0821 1.582 7.0821l-0.25 1.5s1.75 9 1.75 17.586l-1.25 2.4141-0.41407-0.5-2.0859 2.1679s-0.5 1.418 0.25 3.168c0 0 1.25-0.168 2.5-0.418s2.8359 1.418 2.8359 1.418 2.4141 0.25 5.582-1.418c0 0 1.75-2.25 3.25-2s0.41796 2-0.25 2.75c-0.66797 0.75-4.418 4.418-4.418 4.418s-1.082-0.8359-2.6641 0.25l-1.0859-0.168s0.58593 4.75-2.582 11.832c0 0 1.668 1.0859 1.168 3.8359s-2.75 9.4141-2.75 9.4141 2.582 0.3359 3.6641-0.1641c1.0859-0.5 4.168-0.918 5.25-0.8359 1.0859 0.0859 2.75-0.5821 3.418-1 0.66796-0.4141 1.082 0.5 0.33203 1.0859-0.75 0.582-1.6641 1.4141-1.6641 1.4141l-0.5-0.5s-2.668 1-3.168 1.8359c-0.5 0.832-0.83204 0.5-0.83204 0.5l-0.66796-0.0859v1.1679s4-3.1679 9.25-1.25c0 0-0.75-2.1679-1.582-2.625" fill="#970c35"/>
<path d="m192.84 1077.5c0.50142-2.082 1.3335-4.4179 1.3335-5.25 0-0.832 0-1.832 0.83203-2.082 0.83593-0.25 1.0859-2.5 1-2.918-0.08203-0.4179-1.832-2-2.4141-2-0.58593 0-1.0859-0.832-0.08593-2.25 1-1.4179 2.418-4 3.3359-5.5 0.91407-1.5 2.6641-6.9179 3.25-8.9179 0.58204-2 0.75-2.0821 1.082-4.0821 0.33203-2 1.332-7.75 1.832-9.082 0.5-1.3359 1.8359-7.25 2-7.918 0.16797-0.6679 0.5-6.4179 2.3359-13.668 1.832-7.25 4.25-20.832 4.25-20.832s2.6641-14.918 3.25-17.918c0.58204-3 0.75-7.582 1.082-9.5 0.33203-1.9141 2-10.082 2.082-11.332 0.08593-1.25 0.75-4.5 1-5s3.5859-14.418 3.918-15.082" fill="none" stroke="#000" stroke-linecap="round" stroke-miterlimit="10" stroke-width=".51592"/>
<path d="m213.59 905.43c0 2.501 3.0835 17.251 8.7514 27.833" fill="none" stroke="#000" stroke-linecap="round" stroke-miterlimit="10" stroke-width=".51592"/>
<path d="m222.84 908.35c0.16549 4.335 0.83346 13.749 4.1655 26.749" fill="none" stroke="#000" stroke-linecap="round" stroke-miterlimit="10" stroke-width=".51592"/>
<path d="m231.26 908.93c-0.75101 4.165 0 16.251 4.249 29.251" fill="none" stroke="#000" stroke-linecap="round" stroke-miterlimit="10" stroke-width=".51592"/>
<path d="m207.76 903.52c0 2.082 0.33492 3.582 0.49899 4.668 0.16797 1.082-0.16407 3.082 0 4.582 0.16797 1.5 0.5 3.332 1.168 4.75 0 0-0.25 3.418 2.25 9.918 0 0-0.41797 0.91406-0.58204 1.75-0.16796 0.83203-0.58593 4.9141-1.3359 7.5-0.75 2.582-1.5 10.25-1.999 12.164-0.66508 1.918-0.66508 6.5859-1.083 8.668-0.41797 2.082-1.418 8.582-1.418 10.75s0.16797 3.918-0.08203 5.25-1.918 11-2.168 12.082" fill="none" stroke="#000" stroke-linecap="round" stroke-miterlimit="10" stroke-width=".51592"/>
<path d="m204.84 927.77c0 1.5-0.66654 6.418-0.74858 10.168-0.08593 3.75-0.66796 12.664-1.0859 13.75" fill="none" stroke="#000" stroke-linecap="round" stroke-miterlimit="10" stroke-width=".51592"/>
<path d="m216.84 930.02c-0.74858 1.082-1.3345 2.418-1.4986 3.918-0.16796 1.5-1.168 6.832-1.3359 8-0.16407 1.1641-0.33203 5.5-1 9.6641-0.66407 4.168-1.582 6.168-2.332 13.336-0.75 7.1641-1.25 6.6641-1.75 12.164s-1.25 5.668-1.832 11.336c-0.58593 5.6641-1.5859 9.4141-2.168 12-0.58204 2.582-2.082 8-4.832 22.832l-0.58593 4.0821-1.4141 2.0859" fill="none" stroke="#000" stroke-linecap="round" stroke-miterlimit="10" stroke-width=".51592"/>
<path d="m214.42 1010.3c-1.2495 6.3321-4.4995 24.5-5.2495 27.168-0.75 2.6641-2 6.332-2.5 7.4141-0.5 1.0859-1.082 2.1679-1.582 4-0.5 1.8359-1.418 3.8359-1.418 3.8359s-1.5 3.6641-1.5 4.582c0 0.918 0.5 2.0821 0.5 2.0821s-2.25 1.9179-2.918 3.8359c-0.66407 1.9141-2.1641 4.75-2.1641 6.832 0 0 1.1641 2.168 0.75 3.5821-0.41796 1.4179-1.418 5.0859-1.418 5.0859" fill="none" stroke="#000" stroke-linecap="round" stroke-miterlimit="10" stroke-width=".51592"/>
<path d="m240.51 907.43c0.41696 3.583 5.417 39.415 5.417 39.415l6.168 45" fill="none" stroke="#000" stroke-linecap="round" stroke-miterlimit="10" stroke-width=".51592"/>
<path d="m250.26 934.27c0.91696 7.5 6.0849 52.5 6.0849 52.5l3.25 30.25 3.4141 31 0.91797-0.082s-0.16797 1.1641-0.16797 3.332c0 2.168-1.832 5.5-1.4141 7.25 0.41407 1.75 2.5 2.0821 2.5 2.0821s0.5 1.5 0.41407 3.6679c-0.08203 2.168-0.08203 5.5821-0.41407 7.25-0.33593 1.668-1.0859 2.418-0.75 4.5 0.33204 2.0821 1.25 2.5821 0.33204 4.8321-0.91797 2.25-2.918 5.5859-2.25 7.5" fill="none" stroke="#000" stroke-linecap="round" stroke-miterlimit="10" stroke-width=".51592"/>
<path d="m257.09 930.52c0.25192 3.5 6.0019 70.75 6.0019 70.75l2.832 33.25 0.33203-0.6679s0.08593 6.9179 0.33593 8.0859c0.25 1.1641 1.082 2.25 0.75 3.832-0.33593 1.5821-1.418 2-1.25 3.75 0 0 1.9141 1.3321 3 2.25 1.082 0.918 0.33204 3-0.25 3.918-0.58593 0.9141-0.91796 1.582-0.33593 3 0.58593 1.4141 0.41797 6.582 0.75 8.4141 0.33593 1.8359 0.16797 2.6679 1.918 4 1.75 1.3359 0.08203 0.4179 0.08203 0.4179s0.5 3.0821-0.83203 4.0821c-1.332 1 0.25 2.25 0.25 2.25s-0.08204 6.5-0.58204 8.8359" fill="none" stroke="#000" stroke-linecap="round" stroke-miterlimit="10" stroke-width=".51592"/>
<path d="m275.76 1087.4c0-3.167-0.25101-5.667-0.58304-5.917-0.33204-0.25-0.41797-2.332 0.33203-4.1679 0.75-1.8321 0.91797-2.75 0.08593-4.8321-0.83593-2.082-1.668-3.082-1.668-3.082l-1.5-12.25s2.168-4 2.168-4.668c0-0.6679-0.75-2.25-2.0859-4.5 0 0-1.1641-4.1679-1.1641-4.9179s-0.41796-0.9141-0.41796-0.9141l-2.668-40.836-4.332-61-0.58204-14.082" fill="none" stroke="#000" stroke-linecap="round" stroke-miterlimit="10" stroke-width=".51592"/>
<path d="m262.17 1075.5c1.168-0.332 3.25-0.75 3.582-1.582 0.33593-0.8359 1.5859-2.668 2.668-2.3359 1.082 0.3359 1.082 0.8359 1 2-0.08204 1.1679 0.08203 2.6679 0.08203 2.6679h-0.66407s-0.66796 2.25-1.668 2.25-0.83204-2.25-0.83204-2.25-0.91796 1.168-1.3359 1.3321c-0.41407 0.1679-1.332-0.75-1.4141-1.0821-0.08593-0.332-1.0859 0.0821-1.5859-0.582-0.5-0.668 0.16797-0.418 0.16797-0.418" fill="#050202"/>
<path d="m272.17 1044.1c-0.58204-0.75-1.5 0.5-1.5 0.5s-0.08204 1-0.66797 1.3359c-0.58203 0.332-0.91407 2-1.1641 2.75s0.08204 1.4141 1.582 1.75c1.5 0.332 4.082-3.418 4.168-3.75 0.08204-0.3359-0.5-0.5859-1.168-0.5z" fill="#050202"/>
<path d="m197.76 1031.9c1.25-0.25 2.168-0.5 2.168 0.75s1.082 1.5 0.75 2.082l-0.33204 0.5821s-1 0.5-1.668 0.5c-0.66797 0-0.91797-1.4141-0.91797-1.4141z" fill="#050202"/>
<path d="m194.76 1044.4c0.25-0.8359 1.25-1.168 2-0.668s2.918 1.5 4.5859 1.418c1.6641-0.0859 1.75 0 1.4141 1.1641-0.33203 1.1679-2.082 2.25-2.6641 2.25-0.58593 0-2.5859-0.6641-2.5859-0.6641z" fill="#050202"/>
<path d="m188.92 1070.9c1.168 0.582 5.418 3.75 6 4.25 0.58203 0.5 1.25 1.082 1.668 0.25 0.41407-0.8359-1.0859-1.418-2-2.0859-0.91796-0.6641-4.3359-3.0821-4.3359-3.0821z" fill="#050202"/>
<path d="m205.17 814.77c1.332 5.5 4.832 22.668 4.832 22.668s-5.6641 24.164-8.332 33.664c-2.668 9.5-1.5 7.8359-1.5 7.8359s-6 15.664-7.5 30.164l-0.83204 7.668s10.832 10.168 14.164 12.168c0 0 0.91797 0.75 1.168-1.75s-0.33204-10.5 0.16796-12.918 0.25-8.418 0.66407-12.168c0 0 23 7.168 36.836 3l0.58204-0.25s0.83203 12.918 1.082 15.25c0.25 2.3359 0.83593 13.918 1.0859 15 0.25 1.0859 1.332 0.41797 1.582 0.08594 0.25-0.33594 0.16796 0.83203 1.5 0.25 1.332-0.58594 17.168-12.086 19.5-14.418 2.332-2.332 7.75-6.25 7.918-6.918 0.16407-0.66406-0.41796-0.91406-0.41796-0.91406l-0.16797-3.3359s0.5 0.33594 0.5-0.91406-0.58203-12.418-3.4141-22.336c-2.8359-9.9141-4.75-14.414-7.25-18.582s-6.668-12.582-10.75-22.332c-4.0859-9.75 0.25-21.668 0.25-21.668l1.75-0.75 0.58204-0.66797 12.582-7.582-5.4141-7.918z"/>
<path d="m179.67 661.35c1-5.9141 4.75-13.664 11.332-17 6.5859-3.332 10.418-3.1641 15.336-1.5 4.9141 1.668 11.5 5.168 20.5 11.918s24.5 11.668 30.75 10.5 7.5-2.082 7.5-2.082 1.5-1.668 2.5-1.5c1 0.16406 0.91407 1 1 1.582 0.08204 0.58203-0.66796 2.918 2 8.832 0 0 2.332 5.8359 4.082 8.75 0 0 0.66796 1.668 1.668 2.5 0 0 1.332 2.5 2.25 3.75 0.91407 1.25 3.832 6 5.4141 9.418 1.5859 3.418 2.8359 14.832-4.25 21.332 0 0-1.75 1.25-2.5 2.0859-0.75 0.83203-4.4141 2.832-4.9141 3.4141-0.5 0.58594-1.3359 1.0859-1.8359 1.0859s-1.582 1-2.5 2.5c-0.91407 1.5-5.582 6.9141-7.5 8.5-1.9141 1.582-10.832 8-18 10.664-7.1641 2.668-14.832 5.3359-18.75 5.918-3.9141 0.58203-4.75-0.16797-8.6641-3-3.918-2.832-7.5859-6.168-13.586-15 0 0-1.6641 0-2.832-0.91797 0 0-3.832-0.5-10.75-4.582-6.918-4.082-10.832-6.75-10.168-15.25 0 0-10.914-2.082-18.5-12.168-7.582-10.082-6.6641-18.582-4.75-22 1.918-3.4141 9.5-16.832 25.168-17.75"/>
<path d="m197.09 731.89c-0.125 2.6875 0 9.9375 0 9.9375s-0.5625-0.25-0.9375 0.3125-2.8125 3.625-3.1875 3.875-1.9375 2.9375 0 3.8125 3.9375-1.125 3.9375-1.125l-0.1875 2s-0.875 0.125-1.25 0.75-0.75 1.625-0.4375 2.375 0.625 1.25 1.5 1.3125 1.9375-0.0625 2.375-0.625 1-0.8125 0.8125-1.3125-0.25-2.875-1.25-2.9375l0.25-4s0.6875 3.625 2.1875 4.5625 3.75 0.625 3.6875-1.5625-5.9375-7.8125-5.9375-7.8125l-0.1875-8.9375z"/>
<path d="m197.22 743.21c0 0.5-0.1875 2.8125-0.1875 2.8125s-1.25 2.6875-1.625 2.875-1.0625-0.125-1.1875-1.3125 1.5625-2.5625 1.5625-2.5625z" fill="#ff8a5c"/>
<path d="m199.15 743.77c0.25 0.875 1.0625 4.25 1.25 4.5s1.125 1.4375 1.25 1.6875 1.25 0.375 1.4375 0 0.3125-1.5625-1-3.0625-2.9375-3.125-2.9375-3.125" fill="#ff8a5c"/>
<path d="m252.76 679.94c1.168-0.58594 1.8359-1.168 2-0.58594 0.16797 0.58594 3.8359 5.168 6.25 10.086 2.418 4.9141 2.5859 6.25 2.668 6.832 0.08203 0.58203 2.418 2.582 2.5 8.168 0.08203 5.582-1.418 9.75-6.668 15.414 0 0-3.6641 2.8359-6.082 3-2.418 0.16797-2.418-0.83203-3.5-0.33203-1.082 0.5-0.41797 2.832 2.918 4.25 3.332 1.418 3.082 1.168 3.082 1.168s-4.332 1.082-5.75 2.082c-1.418 1 0.25 2.25 1.332 2.75 1.0859 0.5 2.418 1.25 7.5859 0.66797l1 0.75s-5 5.082-15.086 9.6641c-10.082 4.5859-20.832 7.5-25.5 6.75 0 0-3-1.832-5.9141-4.582-2.918-2.75-15.168-14.082-18.836-30.582 0 0-0.16407-6.3359 0-6.75 0.16797-0.41797 4.5-7.668 16-14.25 11.5-6.5859 22.168-8.168 25.086-8.8359 2.9141-0.66406 14.414-4.4141 16.914-5.6641" fill="#fac2a3"/>
<path d="m200.28 723.52c-1.5625-1.625-1.1875-2.9375-0.625-3.5625s1.875-0.8125 3.25 0.3125 2.5 2.5625 2.875 3 0.375 1.75-0.25 2.4375-1.9375 0.9375-2.75 0.3125-2.5-2.5-2.5-2.5" fill="#ff6868"/>
<path d="m237.97 728.02c-0.9375-1.375-0.125-3.0625 1.0586-3.6875 1.1914-0.625 2.1289-0.75 3.8164-1.875 1.6836-1.125 3-1.75 4-1.125s1.5625 2.125-0.25 3.8125c-1.8164 1.6875-3.625 2.625-4.875 3.25-0.86718 0.43359-2.5195 1.4336-3.75-0.375" fill="#ff6868"/>
<path d="m219.62 705.21s0.3086-1.8125 0.3086-2.1875 0.53515-0.59375 0.6914-0.03125 0.0586 9 0.34375 10.188c0.28125 1.1875 0.4375 6.0312 0.4375 6.4688s0.90625 1.4062 0.90625 1.8125-1.3789 4.5-1.5039 4.5938-1.7461 0.28125-2.1211-0.0625-3.9688-3.1562-4.25-3.4688-0.34375-1.1875 0.15625-1.8438 2-2.9688 2.3398-3.5c0.34765-0.53125 1.0664-1.3125 1.1289-2.0938s-0.0625-1.1562 0.5625-2.625 0.875-3.0938 0.875-3.0938z" fill="#ff6868"/>
<path d="m219.4 703.33c0 0.625-0.125 2.375-0.3125 2.6875s-0.6875 7.625-3.125 11.125-3.8125 5.0625-3.8125 5.0625l0.875 0.8125 0.3125 0.625s4.125 2.1875 4.4375 2.375 1.625 0.5 2 0.375 1.375-0.0625 1.375-0.0625l0.0625-0.75 0.625-0.8125s0.4375-1.75 0.625-2.25 0.1875-1.125 0.1875-1.125-0.9375-0.9375-1.5-0.8125l-3.375 0.75-0.375 0.625s2.625 0 3-0.25 1 0.125 1 0.125-0.75 3-0.9375 3.25-0.5625 0.6875-1.25 0.5625-5.5625-3.125-5.5625-3.125-0.125-0.625 0.375-1.0625 1.9375-1.9375 1.9375-1.9375 0.25-0.9375 0.5-1.0625 0.75-0.9375 0.75-0.9375 0.75-1.4375 1.125-1.6875 0.125-1.625 0.125-1.625 1.0625-3.6875 1.375-4.5 0.0625-4.1875 0.0625-5.0625-0.5-1.3125-0.5-1.3125"/>
<path d="m266.34 726.85c1.168-1.168-1.668 2.25-1.668 2.25s-4.332 3.25-9 3.168c0 0-3.668-0.83203-4.5-1.418 0 0 4.168-1.4141 5.5-1.9141 1.332-0.5 2.332-0.83594 4.082-0.83594s5.168-0.83203 5.5859-1.25" fill="#571142"/>
<path d="m250.51 723.52c-0.59375-0.26953 1.8359 2.25 3.75 2.668 1.918 0.41406 3.918 0.5 6.5 0.08203 2.5859-0.41797 5.8359-1.418 7.75-2.332 1.918-0.91797 6.168-3.918 8.8359-6 2.6641-2.0859 7.9141-9.75 5-18.918 0 0-1.8359-5.75-8.25-15.082-6.418-9.3359-7.0859-17.836-7.0859-17.836s-3.082 8.418-10.914 12.418c0 0 3.9141 2.832 8.4141 13.918 4.5 11.082 4.5 12.164 2.5 19.914s-10.332 11.336-10.332 11.336-3.582 1-6.168-0.16797" fill="#571142"/>
<path d="m261.76 666.27s2.8359-1 3.75-1.582c0.91797-0.58594 0 0.33203 0 0.33203s-1 5.082-7.75 10.582c0 0 4.168-5.1641 4-9.332" fill="#571142"/>
<path d="m258.01 666.85 2.668-0.5s-0.66797 5.418-5.418 10.5c0 0-6.9141 4.75-26.582 9.0859-19.668 4.332-28.582 14.914-32.168 18.664-3.582 3.75-7.75 12.668-4.6641 20.168 0 0 1.6641 3.918 6 6.75 0 0-7.5859-2.668-13.336-7.168s-3.332-14.414-3.332-14.414 0.91796-4.8359 7.832-10.25c6.918-5.418 12.336-8.918 23.918-12.5 11.582-3.5859 18.832-4.3359 26.418-7 7.582-2.668 13-5 15-6.25s4.4141-4.5859 3.6641-7.0859" fill="#571142"/>
<path d="m193.51 711.35s-2.832 6.418-0.75 11.75c2.0859 5.3359 7.25 8.418 7.25 8.418s-7.1641-11.082-6.5-20.168" fill="#571142"/>
<path d="m253.41 666.81c0.01172 0.01171 0.02344 0.02343 0.03516 0.03515h0.14843c-0.03906-0.00781-0.11328-0.01953-0.18359-0.03515" fill="#571142"/>
<path d="m245.25 666.12c-2.8555-0.45703-5.1172-0.82422-7.3359-1.4024-3.7656-0.98047-10.859-4.7226-13.77-6.543-0.44141-0.27343-10.84-6.7461-18.312-8.707-7.2266-1.8945-11.84-1.4531-15.938 1.5234-1.332 0.97266-2.0391 1.9727-2.0938 2.9727-0.07422 1.4102 1.125 2.5039 1.6406 2.9726 0.07031 0.0625 0.12891 0.11328 0.16797 0.15235 0.31641 0.32031 3.9883 2.1719 9.8047 0.65625 1.9102-0.5 2.9961-1.2812 3.2226-2.3203 0.28125-1.2812-0.83984-2.668-1.2812-3.0273-1.0703-0.875-4.8828-3.5273-9.0664-0.97266-0.17578 0.10938-0.40625 0.05469-0.51563-0.125-0.10937-0.17578-0.05469-0.40625 0.125-0.51171 4.6094-2.8164 8.7695 0.07421 9.9297 1.0273 0.65625 0.53516 1.8945 2.1602 1.543 3.7695-0.29297 1.3398-1.5586 2.3086-3.7656 2.8828-5.8438 1.5274-9.8984-0.21875-10.527-0.84765l-0.14063-0.12891c-0.54296-0.49219-1.9805-1.8047-1.8828-3.5664 0.06641-1.2383 0.875-2.4297 2.3984-3.5391 4.3008-3.125 9.0977-3.6016 16.566-1.6406 7.5859 1.9883 18.078 8.5156 18.523 8.793 2.875 1.7969 9.8672 5.4922 13.562 6.457 2.1836 0.5664 4.4258 0.92968 7.2656 1.3867 1.8398 0.29296 3.8906 0.625 6.3906 1.082-3.2148-0.73828-10.199-2.5781-18.418-6.2734-10.75-4.8359-19-13.918-28.668-15.75-9.668-1.8359-14.668 3.082-17.168 5.332s-2.832 4-3.1641 4.918c-0.33593 0.91406-1.418 1.9141-2.5 6.6641h1c10 0 19.582 1.5 21.582 1.8359 2 0.33203 7.082 0.66406 9.25 0.75 2.168 0.08203 12.418 1.582 19.918 2.25 4.7812 0.42578 11.598 0.57812 15.906 0.63281-1.5703-0.26953-2.9648-0.49609-4.25-0.70312" fill="#571142"/>
<path d="m253.48 667.27s-3.332 10.418-26.332 11.832c-23 1.418-26.836 0-35.75 1.3359-8.918 1.332-21.418 6-23.75 18.914 0 0-0.58594 6.5859 5.4141 10.668 0 0-9.25-2.75-14.664-13-5.418-10.25-2.75-15.582-1.668-18.418 1.082-2.832 6.668-10.832 16.582-14.25 9.918-3.4141 37.668 1.25 37.668 1.25s29.332 4.0859 42.5 1.668" fill="#571142"/>
<path d="m179.01 711.52c1.25-5.168 9.75-16.75 25.75-22.75s23.086-6.5 28.586-7.918c5.5-1.4141 11-3.332 14.414-4.832 3.418-1.5 9.25-3.582 9.418-9l-2.75 0.41797s0.25 3.5-6.832 7.25c-7.0859 3.75-15.25 5-23.5 6s-17-0.08594-26.25 0.33203-18.77 2.4492-25.168 10.082c-7.332 8.75-1.25 16.168 1.75 18 3 1.8359 4.582 2.418 4.582 2.418" fill="#571142"/>
<path d="m247.76 676.02c3.418-1.5 9.25-3.582 9.418-9l-2.75 0.41797s0.25 3.5-6.832 7.25c-4.3945 2.3242-9.2031 3.6875-14.191 4.625-4.625 1.2305-9.7188 2.4375-12.559 2.5391-4.5859 0.16797-15.418-0.08203-24.586 2.168-9.1641 2.25-20.5 4.418-24.332 11.668-3.5352 6.6836 1.7109 12.09 3.5976 14.066 1.3633 0.78907 2.3281 1.2578 2.8945 1.5156-1.3555-1.1055-3.4648-2.9727-3.9102-4.25-0.66407-1.918-2.6641-8.25 1.668-12 4.332-3.75 10.5-6.332 16.418-7.918 5.9141-1.582 14.914-3.25 19.082-3.25 2.8164 0 8.6328-0.60547 12.938-1.1328 3.6211-0.80469 6.3242-1.2461 8.7305-1.8672 5.5-1.4141 11-3.332 14.414-4.832" fill="#ff8a5c"/>
<path d="m260.9 732.83c4.5-2.8125 5.75-4.9375 6.875-7.0625s5.875-2.625 10.875-8c0 0 4.1836 4.3125 2.4336 10.062s-5.6211 8.75-9.6836 8.875c-4.0664 0.125-8.625-1.3125-10.5-3.875" fill="#fac2a3"/>
<path d="m275.84 719.52c1.125 0.375 2.0625 2.5625 2.1875 3.75s-0.2539 1.75-0.8789 1.5 0.3164-1.9375-2.3711-4z"/>
<path d="m278.15 718.14c1.0586 1.25 3.0625 4.1875 2 9.8125-1.0664 5.625-6.75 7.75-6.75 7.75s-6.625 1.8125-11.688-3.625l-3 0.75s2 1.875 4.8711 3c2.875 1.125 3.9414 1.8125 8.5664 1.1875s5.3125-2.0625 6.375-2.8125c1.0586-0.75 2.375-2.5625 3.125-5.4375s0.5-6.4375-0.4375-8.8125-2.3789-2.8125-2.3789-2.8125z"/>
<path d="m266.97 732.71c-1-0.375-0.25-1.9375 0.6836-2.0625 0.9414-0.125 1.8164 1.25 0.9414 2.0625l-0.4414 6.625 0.3164 0.6875 0.0586 2.75s1.6914 1.0625 3.5664 3.375 2.625 3.9375 2.6836 4.375c0.0664 0.4375-0.625 1.75-0.625 1.75s-1.375 0.625-2.4336-0.1875c-1.0625-0.8125-2.25-2.5-3.3164-5.4375l0.0664 3.8125-0.375-0.125-0.125 3.75s1.125 0 1.5625 0.875 0.5625 2.875-0.8125 3.875-1.75 1.1875-2.5625 0.75-1.9375-1.4375-1.5625-3.125 1.25-2.5 1.75-2.5625l0.5 0.125 0.125-3.875-0.5625 0.125 0.3125-5.8125s-1.3125 5.0625-1.8164 6.375c-0.5 1.3125-1.9336 1.3125-2.9336 0.875s-1.3125-1.3125-1-2.875 1.5625-3.0625 2.625-3.75c1.0586-0.6875 2.875-2.0625 2.875-2.0625l0.125-3.1875 0.25-0.5z"/>
<path d="m265.53 745.08c-0.4375 0.9375-1.3125 3.5625-1.625 4.6875s-1.0664 1.5-1.4414 1.25-0.5586-1.9375 0.1914-3.375 2.875-2.5625 2.875-2.5625" fill="#ff8a5c"/>
<path d="m269.22 745.08c0.75 1.375 1.5586 3.875 1.9336 4.5625 0.3789 0.6875 0.8789 1.4375 1.6289 1.75 0.7461 0.3125 0.5625-1.25 0.0625-2.0625s-3.625-4.25-3.625-4.25" fill="#ff8a5c"/>
<path d="m266.09 755.77c0.07032 0.57031 1.4336 0 1.75 0.3125 0.3125 0.3125 0.75 0.5625 0.8125 0.0625s-1.1289-1.4375-1.3789-1.375-1.2461 0.5-1.1836 1" fill="#ff8a5c"/>
<path d="m252.79 667.38c-13.477 2.1562-41.789-1.7812-41.789-1.7812s-27.75-4.6641-37.664-1.25c-9.918 3.418-15.5 11.418-16.586 14.25-1.082 2.8359-3.75 8.168 1.668 18.418 5.418 10.25 14.668 13 14.668 13-1.6094-1.0938-2.7305-2.3672-3.5312-3.6445-11.109-7.7305-10.43-16.105-9.8867-18.355 0.58203-2.418 3.25-8.5 14.75-11.418 11.5-2.9141 29.832-1.4141 36.918-0.58203 7.082 0.83203 21 1.582 32.332-1.832 6.3555-1.918 8.4648-4.332 9.1211-6.8047" fill="#ff8a5c"/>
<path d="m216.67 835.35 1 1-3.332 13.918z" fill="#283542"/>
<path d="m208.59 822.69 6.9141 10.914 0.16797 1.5s-3.75 20.5-4.668 29.086c-0.91407 8.582-3.1641 16.082-4.9141 50.5 0 0-5.668-4.918-6.5859-5.418-0.91407-0.5-4.082-4.668-4.332-5.918s4.25-17.25 5.082-20.082c0.83593-2.832 1.918-6.918 1.918-6.918s1.168-4.75 1.582-6.082c0.41797-1.332 2.75-10.75 4-16.168 1.25-5.4141 2.75-13.75 2.75-13.75s0.75 2.418 0.75 3.5859c0 1.1641 0.66797 1.1641 0.83593 0.33203 0.16407-0.83203-0.08593-4.332-0.75-6.25-0.66796-1.918-0.91796-8.668-1.668-11.582-0.75-2.918-1.082-3.75-1.082-3.75" fill="#283542"/>
<path d="m194.76 905.19c-0.16407 1.332-1.082 11.164-1.082 11.164s4.582 4.418 5.832 5.5859c1.25 1.1641 3.0859 2.582 3.0859 2.582l0.33204 0.66797s2.582 1.4141 3 2.1641c0 0-0.08204-8.332 0.25-11.582 0 0-4.668-3.332-6-4.75-1.332-1.418-2.418-1.75-4.918-5.082z" fill="#ff8a5c"/>
<path d="m248.42 924.69c-0.08204-0.83594-0.16797-1.5859 1.332-2.3359s8-4.082 13.418-8.1641c0 0 3.75-2 6.418-4.5 2.6641-2.5 3.4141-3.168 3.4141-3.168l0.58593-0.25s1.332-1.168 1.5-1.582c0.16407-0.41797 0.16407 3.75 0.25 4.6641 0.08204 0.91797 0.5 4.5859 0.5 4.5859s-5.5 5.1641-7.5 6.5c-2 1.332-11.668 8.25-13.336 9.4141-1.6641 1.168-4.832 2.75-5.9141 3.8359 0 0-0.16796-5.418-0.33593-6.5859-0.16407-1.1641-0.33203-2.4141-0.33203-2.4141" fill="#ff8a5c"/>
<path d="m208.76 891.6s-0.75 9.5-0.75 10.5 0.91797 1.918 2.8359 2.5859c1.9141 0.66406 2.1641 0.75 2.1641 0.75s0.16797-0.5 0.58593-0.5c0.41407 0 0.83204 0.91406 0.83204 0.91406s7.25 1.918 13.332 2.3359c6.0859 0.41406 12-0.58594 12-0.58594s0.33593-0.75 0.75-0.83203c0.41797-0.08203 0.66797 0.75 0.66797 0.75s3.918-0.91797 4.5-1.5c0 0-0.41797-10.168-0.5-11.168-0.08204-1-1.668 0.5-1.668 0.5s-4.9141 0.58594-8.5 0.58594c-3.582 0-12.082-0.5-16.75-1.418-4.6641-0.91797-7.1641-1.832-7.1641-1.832l-1.3359-1z" fill="#ff8a5c"/>
<path d="m219.51 834.94c-0.91407 2.75-2.6641 9-3.832 13.332-1.168 4.332-2.582 10-2.582 10s-0.41796 3.5-0.83593 6.332c-0.41407 2.8359-1.75 9.3359-3.25 25.5 0 0 0.41797 0.5 1.5 0.83594 1.0859 0.33203 2 1.082 2 1.082s9.0859 2.918 22.086 2.918 10.082-3.168 10.082-3.168-0.5-13.832-1.082-20.668c-0.58593-6.832-1.168-18.082-1.168-18.082s-1.918-7.75-2.5-9.75c-0.58204-2-2.418-13.082-2.418-13.082l-14.832 9.6641z" fill="#970c35"/>
<path d="m238.76 831.69 2.75-2 0.83593 19.414s-3.25-13.5-3.5859-17.414" fill="#283542"/>
<path d="m256.84 822.52 0.33204-1.5 11.332-9.75 1.668 3z" fill="#283542"/>
<path d="m254.84 820.44c-1.3359 4.6641-1.668 7.25-1.75 9.082-0.08593 1.832-1.5859 8.25-1.5859 8.25l0.58593 4.168 1.4141-4.5s0.75 5.75 3.75 13.582 4.75 11.082 5.5859 12.5c0.83204 1.418 5.25 9.082 8.4141 19.332 3.168 10.25 3.918 20 3.918 20s-4.332 5.25-12.168 10.25c-7.832 5-14.582 9-14.582 9s-1.082-17.664-1.582-26.332-2.3359-32.582-2.5859-38.332-1.332-28.25-1.332-28.25z" fill="#283542"/>
<path d="m197.26 806.27c1.418 1.5 6 8.082 6 8.082s-2.1641 3.25-2.6641 3.75-2.668 3.418-4.668 6.418-3.332 4.082-3.332 4.082-0.08593 0.5 0.08204 2.168c0.16796 1.668 0.16796 2.668-0.5 3.75-0.66797 1.082-1.082 1.332-1.082 1.332l-2.25 0.91797-0.16796 0.58203-0.75 0.25s-5.418 14.336-10 29.668c0 0-2.25 6.332-2.25 7.332 0 0-1.168 0.75-1.25 3.75-0.08204 3-0.5 8.0859 0 10.25l-0.75 1s-0.75-3.082-1.5-4.1641c-0.75-1.0859-6-3.918-7.668-4.3359-1.6641-0.41406-3.6641 0.25-3.6641 0.25s1.082-3.5 1.5-3.9141c0.41407-0.41797 0.33204-1.5859 0.91407-3.0859 0.58593-1.5 2.168-5.9141 2.168-5.9141s-1.25-0.25-0.83204-0.75c0.41407-0.5 1.4141-0.5 1.4141-0.5s5.75-16.25 6.918-20c1.168-3.75 9.332-19.75 9.332-19.75s-0.91407-1.918 1.25-3.5c0 0 1.75-0.25 2.25-0.83594 0.5-0.58203 11.5-16.832 11.5-16.832"/>
<path d="m162.17 880.19c1.25 0 3.418 0 7.25 2l1.75 1v-0.58594l1.5 2.0859s0.16796-5.3359 0.5-7.3359c0.33203-2 1.418-4.4141 1.418-4.4141l1.1641-3.418s-3.1641-1.832-8.832-1.418c0 0-2.668 6.75-3.082 8.25-0.41796 1.5-1.668 3.8359-1.668 3.8359" fill="#ff8a5c"/>
<path d="m167.26 866.94s3.3359-0.91797 8.8359 1.582c0 0 3.332-11.668 4.9141-15.75 1.5859-4.082 5-14.418 5.5-15.082 0.5-0.66797 1-1.418 0.08593-2.0859-0.91796-0.66406 3.25-1.5 3.9141-1.582 0.66797-0.08203 1.5-1.668 1.3359-2-0.16796-0.33203-0.66796-2.668-0.66796-3.168s0.66796-1 1.418-2 8-11 8-11-0.33593-3.4141-3.0859-7.332c0 0-10 13.832-10.75 15.332 0 0-2.582 1.418-3.1641 1.8359-0.58593 0.41406 0.08204 2.082-0.25 2.6641-0.33593 0.58594-5.75 10.25-9.168 19.918-3.418 9.668-6.918 18.668-6.918 18.668" fill="#283542"/>
<path d="m183.51 829.85 0.41797-0.83203s1.25 2.75 3.5 4.418c0 0-1 0.91406-2.082-0.33594-1.0859-1.25-1.8359-3.25-1.8359-3.25"/>
<path d="m184.92 827.52s0.91796 2.668 1.332 3.168c0.41797 0.5 2.5 1.9141 3.5 2.082s0.83593-2.168 0.83593-2.168l-0.16796-0.58203-1-0.5s-2.332 0.25-4.5-2"/>
<path d="m268.09 810.19c2.332-1.8359 7.582-4.3359 8.25-4.418 0.66407-0.08203 5.332 6 6.1641 7.332 0.83593 1.3359 3.5 5.5859 4.5 7 1 1.418 2.25 3.5 2.75 4.0859 0.5 0.58203 2.0859 2.832 2.168 3.082 0.08203 0.25 1.668 2.582 1.918 2.918 0.25 0.33203 4.75 6.332 4.9141 7 0.16797 0.66406 1.168 1.582 1.418 2 0.25 0.41406 0 2.1641 0 2.1641s2.75 15 3.332 18.25c0.58593 3.25 2.3359 16.25 2.418 17.668 0.08203 1.418 0.91796 12 0.91796 12s1.25 3.668 2 4.582c0.75 0.91797 0.33204 2.75-0.58593 2-0.91407-0.75-2.582-1.9141-5.1641-2-2.5859-0.08203-6.3359 1.418-6.3359 1.418l-0.91407 1.582-1.0859-1s0.33593-2.5 0.91797-4c0.58203-1.5 1-6.75-0.58204-9.4141-1.5859-2.668-1.918-6.8359-2-9.5-0.08593-2.668-0.5-14.5-0.75-15.836-0.25-1.332-1.168-4.582-1.75-7.832-0.58593-3.25-1.168-4-1.168-4v-0.66797l-0.91797-0.5s-1.9141-0.66406-1.9141-1.332 0.33204-3.832 0.33204-3.832-14.168-21.5-14.918-22.668-1-0.91797-1-0.91797z"/>
<path d="m271.42 813.02c-0.41797-0.33203-0.33204-1.582-0.08204-2s1.332-2.582 5.332-4c0 0 2 2.5 2.25 3s0.16796 1.418 1.082 2.5c0.91797 1.082 2.8359 4.082 3.418 4.668 0.58203 0.58203 4.168 6 4.332 6.5 0.16797 0.5 3.168 3.832 3.25 4.25 0.08593 0.41406 0.41797 1.6641 1 2.332 0.58593 0.66797 4.3359 5.832 5.0859 7.418 0 0 0.58204 0.33203 0.91407 0.91406 0.33593 0.58594-0.25 0.66797 0.33593 1.25 0.58204 0.58594 0.08204 1.5859 0.25 2.0859 0.16407 0.5 1.082 5.1641 1.5 7.25 0.41407 2.082 1.832 9 1.832 9.832s1 4.668 1.5 8.25 0.83203 11.168 0.83203 11.168-5.332-1.8359-9 0.41406c0 0-0.91407-1.082-1.1641-10.582s-1.168-17.168-1.5-18.5c-0.33593-1.332-1.0859-4.332-1.168-4.918-0.08204-0.58203-1.332-1.582-2.082-1.5-0.75 0.08594-1.8359-0.66406-1.5-2 0.33204-1.332 1.25-1.75 1.25-1.75s-0.66796-1.1641-3.5-4.9141c-2.8359-3.75-14.168-21.668-14.168-21.668" fill="#283542"/>
<path d="m295.42 879.85s4.75-2.4141 8.832-0.16406c0 0 0.33593 8.1641 2.25 11.664 0 0 0.58593 1.75 0.5 2.168 0 0-3.832-0.91797-7.4141-0.33203-3.5859 0.58203-3.668 0.66406-3.0859-0.66797 0.58593-1.332 1.25-5.582 1.168-6.082-0.08204-0.5-0.41797-3.5-1.168-4.5s-1.082-2.0859-1.082-2.0859" fill="#ff8a5c"/>
<path d="m292.01 840.94s0.5 0.5 0.33593 0.75c-0.16796 0.25-1.25 0.75-2.25 0.5s-1.3359-0.91797-0.41796-1.75c0.91796-0.83594 3.25-3.418 3.25-3.418s0.75 1.082 0.5 2.082z"/>
<path d="m295.01 838.77c-0.5625-0.36719-0.41407-1.5 0.08593-1.332 0.5 0.16406 2.25 1.4141 2.5 2 0.25 0.58203 0.33204 1.832 0.33204 1.832l-1.332-0.16797s0.33204-1.082-1.5859-2.332"/>
<path d="m198.42 799.27c-0.5 0.25-1.418 1.25-1.832 2-0.41796 0.75-1.75 2.25-1.75 2.25s0.16407 1 0.66407 1.418c0.5 0.41406 3 4.1641 5.0859 6.6641 2.082 2.5 6.582 8 10.082 14.086 3.5 6.082 9.332 11.914 9.75 12.914 0.41796 1 1.332 2.5 1.332 2.5s0.25 1.5859 1.5859 0.66797c1.332-0.91797 9.9141-7.332 11.75-8.918 0 0 1.332 0.75 1.4141-0.75 0 0 32.668-21.832 35.168-23.25 2.5-1.4141 5.5-2.4141 6.082-1.832 0.58593 0.58203 1.668 2.25 1.668 2.25s0.66796-0.91797 0.25-2.168c-0.41797-1.25-3.082-3.582-3.082-3.582v-0.41797s-9.918-14.914-12.5-18.832c-2.5859-3.918-5.418-7.332-6.0859-8.332-0.66407-1-5-7.918-6.082-8.75l1.75-10.5-0.08204-0.33594s2.9141-2.1641-4.75-2.75l0.91407-11.332s-9.9141 5-16 6.582l-0.25 5.3359s-7.75 0.25-10.914 0.75c0 0-2.0859-0.33594-1.8359 0.66406l0.66797 0.33594 0.08203 3.25 0.33593 0.16406s-0.08593 12.836-0.25 13.668l-0.5 0.91797s-1.0859-0.25-1.25 1l-1.168 1.6641s-4.668 4.5-7.082 7.168c-2.418 2.668-6.918 7.332-6.918 7.332s-1.168 2.0859-2 2.5c-0.83204 0.41797-3.582 3.668-3.668 4.168-0.08203 0.5-0.58203 1.5-0.58203 1.5"/>
<path d="m235.09 751.69s6.082-1.918 13.25-7.8359c0 0-0.91796 6.8359-0.75 11.918l0.58204 0.16797s-3.25 0.75-8.5 0.75c0 0 0.08203-0.83594-1.332 0-1.418 0.83203-0.5 1 0.33204 0.83203v2c0 0.58203-2.5 11.668-3.332 18.082l-4.418 4.168s0.75-2.25 0.25-2.582c-0.5-0.33594-1 0.41406-1 0.41406l-0.91797-1.5s0.41797 0.5 0.41797-0.66406c0-1.168-0.83204-8.3359 0.5-10.418 1.332-2.082 2.168-3.082 2.168-2.582s-0.16796 1.332 0.5 1.4141c0.66407 0.08594 0.41407-1.9141 0.91407-3.9141s0.66797-4.668 0.66797-5.668 0.66796-4.582 0.66796-4.582" fill="#fac2a3"/>
<path d="m240.01 757.77-0.08203 2.418-3.082 16.332s4.082-4.168 6.25-6.25c2.1641-2.082 7.582-4.582 7.582-4.582l1.832-9.25s-10.664 1.4141-12.5 1.332" fill="#ff8a5c"/>
<path d="m223.01 756.1c-0.08203 0.66797 0 2.668 0.25 4.5 0.25 1.8359-0.41407 12.586-0.41407 12.586l3.1641 2.582-2.5-2.668s3.25-6 3.5-6.832l0.66797-0.25s0.5-1.668 0.91796-2.168c0.41407-0.5 4.25-5.75 4.5-6.25s0.08204-1.832 0.08204-1.832-5.832-0.58203-8.168 0c0 0-1 0.33203-1.5 0.33203z" fill="#ff8a5c"/>
<path d="m222.34 774.1v1.0859l7.75 6.582 0.08204-1.582s-6.582-4.668-7.832-6.0859" fill="#ff8a5c"/>
<path d="m227.67 786.19-0.08204 1.832s7.832-8.75 11.332-11.582c3.5-2.8359 7.75-6.918 11.5-9.0859l0.16796-0.66406s-4.0859 2.332-7.668 5.332c-3.582 3-5.918 5.75-8.832 8.082-2.918 2.3359-6.418 6.0859-6.418 6.0859" fill="#ff8a5c"/>
<path d="m223.59 827.19-0.58593 10.664s8.168-6.25 17.918-12 26.582-16.082 27.5-16.75c0.91796-0.66406 6.332-4 7.668-3.832 0 0-3.918-6.75-5.168-8.25 0 0-8.332 4.832-13.418 8.168-5.082 3.332-16.664 10.332-21.582 13.664-4.918 3.3359-9.582 7-12.332 8.3359" fill="#ff8a5c"/>
<path d="m196.42 803.85 5-7s5.332 8.8359 6.25 10.336c0.91796 1.5 3.5 4.082 3.582 4.5 0.08593 0.41406 5.668 7.5 6.5859 8.582 0.91407 1.082 4.582 5.5 4.582 5.5l-0.75 10.582s-8.168-10.582-11.5-14.332c-3.332-3.75-8-9.418-9-11.418s-2.332-3.25-2.668-3.75c-0.33203-0.5-2.082-3-2.082-3" fill="#ff8a5c"/>
<path d="m202.42 795.94s10.25-11.418 13.168-14.418c2.9141-3 4.75-4.832 4.75-4.832s0.66407-0.25 0.83204-0.75c0.16796-0.5 4.582 3.582 5.582 4.25s2.3359 2.082 2.3359 2.082l-0.08593 1.168s-2 1.582-2.5 3-1.082 10.332-1.5 13.5c-0.41407 3.1641-0.91407 5-0.91407 7.25s-1.3359 13.25-1.3359 14.5 0 3.082-0.66407 2.5c-0.66796-0.58594-9.5-12.836-10.25-13.5-0.75-0.66797-3.3359-4.3359-4-5.25-0.66796-0.91797-2-4.0859-2.418-5.168-0.41797-1.082-3-4.332-3-4.332" fill="#283542"/>
<path d="m295.42 895.77c0 1.918-1.332 5.582-1.75 6.75-0.41797 1.168-1.168 5.5-0.83204 7.668 0.33204 2.1641 0.66407 7 2.082 9.75 1.418 2.75 5 1.332 5 1.332s1.5-0.5 1.668-2.668c0.16407-2.1641-0.5-7.4141-0.25-8.25 0.25-0.83203 1.9141 1.8359 3.082 2.8359 1.168 1 3.082 2.6641 3.082 2.6641l3.668 3.918h0.5s8.5 8.832 11.168 11.832l0.33204 0.08594s2.668 3.1641 4.25 1.75c0 0 1.5 2.082 2.5 2.332s2.75 0.16797 3.082-1.668c0.33593-1.832-0.66407-3.6641-0.66407-3.6641s-0.58593-4.418-1.918-7c0 0-1.75-2.25-3.168-5.418-1.4141-3.168-3.5-5.75-5.332-8.332-1.832-2.5859-4.418-5.5859-5.582-6.918-1.168-1.332-7.8359-7.75-7.8359-7.75s-3.582-1.668-6.1641-1.582c-2.5859 0.08203-6.918 2.332-6.918 2.332" fill="#050202"/>
<path d="m297.34 895.35c-0.16796 0.41797-0.5 2.5859-1.418 4.5859-0.91797 2-1.332 2.832-1.75 9.6641 0 0 0 1.5 0.16796 1.8359 0.16407 0.33203 0.25 1.4141 0.08204 2.1641-0.16797 0.75 0.83203 3.8359 1.082 4.5859s0.41797 1.1641 0.83593 1.582c0.41407 0.41797 1 0.91797 1 0.91797s1 0.66406 2.25-0.58594 0.58204-4.25 0.58204-4.25l-0.5-0.16406s0-4.75 0.91796-6.5859c0 0-1.8359-0.91406-2.418-1.6641-0.58204-0.75 0.66796-0.91797 0.66796-0.91797s1-0.08203 1.6641 0.58203c0.66797 0.66797 5.168 4.418 6.0859 5.168 0.91407 0.75 2.1641 1.582 2.1641 1.582s1.668 2.5859 5.5 6.3359c3.8359 3.75 8.75 9.332 9.75 10.5 1 1.1641 1.8359 1.75 3 1 1.168-0.75-4.1641-7.8359-4.1641-7.8359s-4.5859-6.75-5.5-8c-0.91796-1.25 0.75-0.58203 1.25 0 0.5 0.58594 4.082 5.5859 4.082 5.5859s1.332 2.082 1.918 3c0.58204 0.91406 3.4141 4.6641 3.4141 7.9141 0 0 2.0859 2.8359 2.5 2.668 0.41797-0.16797 1.75-1.582 1.3359-2.832-0.41796-1.25-2.5859-6-3.0859-7.0859-0.5-1.082-2.4141-3.9141-3.582-5.75-1.168-1.832-4-5.5-5.168-6.5-1.1641-1 0.16797-0.75 0.91797-0.16406 0.75 0.58203 3.918 4.25 4.5 5.1641 0.58203 0.91797 4.25 6.75 5.168 8.668 0 0-3.75-7.168-5.25-9.582-1.5-2.418-3.8359-5.25-5.5-7.75-1.668-2.5-4.668-6-5.668-6.918s-6.5-6.832-8.168-7.5c-1.6641-0.66797-5.332-0.58203-5.832-0.33203s-2.832 0.91406-2.832 0.91406" fill="#fac2a3"/>
<path d="m161.26 880.77c-0.41407 1-1.5 3.582-1.75 3.668-0.25 0.08203-2.1641 2-2.4141 2.832s-2.5 3.582-3 4.168c-0.5 0.58203-1.8359 2-2.3359 2.6641-0.5 0.66797-0.58203 1.75-1.082 2.168s-1.418 2-2.668 3.25-6.1641 8.332-6.1641 11.918c0 0-3.25 4.082-1.918 6.082 0 0-0.83204 1.918 0.83203 2.918 1.668 1 2.3359-0.41797 2.3359-0.41797s1.4141 0.41797 2.332 0.08203c0.91796-0.33203 1.332-0.16406 1.332-0.16406s3.75-3.25 6.418-5.918c2.668-2.668 5.5-4.668 6.168-5.082 0.66407-0.41797 4.9141-3.0859 8.082-6.75 0 0 0.25-0.25 0.33203 1.082 0.08593 1.332-0.33203 5.25-0.33203 6.832 0 1.5859 0.75 3 2.582 3.168 1.8359 0.16797 2.8359-0.91797 4.3359-4.25s1.1641-9.75 1.1641-9.75l-0.08203-2.5-0.58204-1.168s-1.168-5.332-1-6.6641c0.16407-1.3359-1.3359-3.5-1.3359-3.5s-3.6641-3.168-5.4141-3.668-2.5859-1.25-5.3359-1.168z"/>
<path d="m161.67 882.19c0.33203-0.58594 0.75-0.91797 2.418-0.5 0 0 1.582 0.83203 2.6641 1.332 1.0859 0.5 5.25 2.918 6 4.918 0 0 0.08593 3.6641 0.58593 5.4141s1 3.418 1.082 3.75c0.08203 0.33594 0.16796 5.5859 0.08203 6.5-0.08203 0.91797-1.1641 5.5-2.082 6.75-0.91797 1.25-1.918 2.25-3.5 1.25 0 0-0.75-0.83203-0.25-5.332s0.83203-4.168 0.83203-4.168-1.1641-0.58203-0.41407-1.082 1.5-1.668 1.4141-1.918c-0.08203-0.25-0.66407-0.83203-1.1641 0-0.5 0.83594-0.91796 1.418-1.5 1.418-0.58593 0-4.668 4.582-5.3359 5-0.66407 0.41797-2.9141 2.418-3.9141 3s-3.168 2.418-4.3359 3.418c-1.1641 1-3.832 2.9141-4.5 3.832-0.66407 0.91797-2.75 3-3.5 3.168-0.75 0.16406-2.5 0.5-2.9141 0-0.41796-0.5 0.91407-2.0859 1.75-3.3359 0.83204-1.25 4-5.6641 5.1641-6.6641 1.168-1 3.418-3.5859 3.418-3.5859l0.5-0.16406s1-0.66797 0.91796-1.25c0 0 0.91407-0.16797 0.58204-0.58594-0.33204-0.41406-0.66797-0.83203-0.66797-0.83203s-1.5 1-1.4141 1.918c0 0-1.5 1.082-2.168 1.6641-0.66797 0.58594-2.332 2.8359-2.832 3.418s-2.418 2.918-3.668 4.75-2.5 3.332-2.5 3.668c0 0.33203-0.16797 1 0.25 1.25 0 0-0.41797 0.83203-1.25 0.66406-0.83204-0.16406-1.332-1.832-0.66797-2.832l0.75-1.168 0.33593-0.25s1.9141-3.332 2.4141-4.25c0.5-0.91406 0.75-1.6641 1.3359-1.9141 0.58204-0.25 2.332-3.418 2.75-3.8359 0.41407-0.41406 2.25-2.25 2.332-2.5 0.08203-0.25 0.66796-1.1641 0.41796-1.5-0.25-0.33203-0.91796-0.83203-1.0859-0.33203-0.16407 0.5-0.08203 1.418-0.58203 2.082-0.5 0.66797-1.082 1.168-1.418 1.668-0.33203 0.5-1.25 1.918-1.75 2.25s-1.4141 1.5-1.9141 2.168c-0.5 0.66406-3.8359 7-3.8359 7s-0.41407-0.41797 0.16797-1.668c0.58203-1.25 3.168-6.168 3.168-6.168l1-0.83203s1.6641-2.75 2.582-3.418c0.91796-0.66406 0.91796-2.4141 0.91796-2.4141s-0.66796-0.33594-0.91796 0.41406-0.5 1.5859-1.332 2.5c-0.83593 0.91797-1.75 2.5859-1.75 2.5859s-1.0859 1.25-1.418 1.832c0 0 1.832-4.25 3-5.5 1.168-1.25 0.83203-1.832 3.082-4.25s3.668-4.75 3.668-4.75 0.75-1.75 1.5-2.25 3.332-4.168 3.832-4.668 1.668-2.5 2.418-3.25 1.25-2.4141 1.25-2.4141" fill="#fac2a3"/>
<path d="m184.01 1075.6c-2.082 1.3359-3.6641 2.5-7.9141 3.5859-4.25 1.082-11.336 3.1641-12.918 3.75-1.582 0.582-11 5.082-11 5.082s-1.5 0.5-0.83204 1.5c0.66407 1 4.832 3.3321 4.832 3.3321l28.332-2.25s1.918-1.75 2.75-1.3321c0.83593 0.418 0.83593 2.0821 0.83593 2.0821s0.41407 0.5 1.1641-0.4141c0 0 11.086-0.5 11.836-0.5s0.66407-2.168 0.66407-2.168l0.66797-0.832s0.75-1.8359 0.75-5c0 0-7.668-5.5859-18.082-6.0859z"/>
<path d="m184.53 1076.6c-0.5625 0.4375-3.875 2.6875-9.1875 3.8125s-12.25 3.375-14.75 4.625-8.125 3.875-8.125 3.875l3.3125 2.6875 28.438-3.1875s1.5625-1.6875 3.4375-1.5625 13.5 0.375 13.5 0.375 0.5625-2.3125 0.625-4.875c0 0-4.125-2.625-8.625-3.875s-8.625-1.875-8.625-1.875" fill="#283542"/>
<path d="m161.84 1091.5 22.062-1.75s2.375-1.9375 3.6875-1.8125 1.5 2.25 1.5 2.25l11.438-0.75 0.125-1.75-12.875-0.1875s-0.75-0.1875-3.625 1.625z" fill="#283542"/>
<path d="m190.26 1076.7c-1.083 1.6651-2.6651 5.501-6.9151 7.751s-10 3.6641-25 6.25" fill="none" stroke="#000" stroke-linecap="round" stroke-miterlimit="10" stroke-width=".38694"/>
<path d="m263.84 1091.8c-0.41796 1.0821-0.66796 3.918-1.168 4.3321-0.5 0.4179-0.91797 1.5859-0.41797 1.8359 0 0 1.168 4.75 1.5859 5.75 0.41407 1 1.75 4.9141 2.25 5.5 0.5 0.582 1.4141 1.582 1.4141 1.582s1.168-0.5 1.5-0.1679c0.33593 0.3359 4.3359 0.5859 7.3359-0.1641s2.6641-1.168 2.6641-1.168 0.16797-2.832 0.41797-4.582 0.83203-4.75 0.83203-4.75 1-0.918 0.33593-2.668c0 0 0-2.832-0.41796-3.6679-0.41797-0.8321-1.082-1.5391-0.83204-2 0.25-0.4571-0.41796-1.3321-1.3359-1.5-0.91407-0.1641-5.082-0.75-6.5-0.75-1.4141 0-4.582 1.1679-6.25 2.1679l-1.1641-0.582z"/>
<path d="m265.01 1091.1c-0.83203 2.1679-2.082 6.5-0.41407 10.5 1.6641 4 3.4141 8.25 3.4141 8.25s6.5859 0.3359 8.5859-0.4141 1.832-2.668 1.9141-4.668c0.08593-2 0.5-7.5 0.66797-8.082 0.16796-0.5859-0.33204-3.3359-1.168-4.8359-0.83203-1.5-2.4141-2.6641-2.4141-2.6641s-3.5859-0.5859-5.25-0.0859c-1.668 0.5-5.3359 2-5.3359 2" fill="#283542"/>
<path d="m276.09 1089.2c0.58396 1.6651 0.33396 4.083 0.33396 4.083l0.33203 6.918-0.08203 7.582" fill="none" stroke="#000" stroke-miterlimit="10" stroke-width=".38694"/>
<path d="m278.84 1106.5c-3.166 1-9.834 0.5821-13.166-0.1679" fill="none" stroke="#000" stroke-miterlimit="10" stroke-width=".38694"/>
<path d="m265.59 1091c-0.91604 1.75-2.084 5.918-2.084 5.918s3.8359 10.414 4.5859 11.832" fill="none" stroke="#000" stroke-miterlimit="10" stroke-width=".38694"/>
<path d="m227.17 790.1s4.418-4.25 5.082-5.082c0.66797-0.83594 1.8359-2.25 2.8359-3.0859 1-0.83203 9.582-8.9141 12.664-11.082 3.0859-2.168 3.418-1.918 4.418-0.75s5.5 7.25 5.5 7.25l0.41796 1.332s7.75 10.504 12.082 17.004c0 0-1.75 1.5-2.418 1.75-0.66407 0.25-14.332 9.082-17.332 10.914-3 1.8359-26.75 17.668-26.75 17.668s0.25-6.582 0.83203-10.5c0.58593-3.918 0.58593-11 1.168-13.25 0.58203-2.25 1.5-12.168 1.5-12.168" fill="#283542"/>
<path d="m227.59 799.94s0.91407-6.25 0.91407-7.8359c0-1.0156 0.27734-2.6875 0.47265-3.75-0.98437 0.96094-1.8047 1.75-1.8047 1.75s-0.91797 9.918-1.5 12.168c-0.58204 2.25-0.58204 9.332-1.168 13.25-0.58203 3.918-0.83203 10.5-0.83203 10.5s1.1367-0.75781 2.9453-1.9609z" fill="#ff8a5c"/>
</g>
<g stroke-width=".51592">
<g>
<path d="m229.09 695.52c1.125-0.3125 2.5625-0.875 2.5625-0.875s-0.125-0.3125 1.0625-0.5625 6-1.125 10.625-0.25 7.8125 2.5 8.1875 2.9375 2.6875 1.875 2.75 3.125 0.625 0.4375 0.625 0.4375l1.0625 2.8125 0.5-0.75-0.25-0.375s-0.125-2.75-1-4-3.6875-4.0625-5.4375-5.3125-4.1875-1.875-4.1875-1.875 1.375 1.1875 2 1.4375-0.375 0.6875-0.6875 0.625-1.5-0.6875-3.0625-0.75-6.1875-0.375-12.938 1.6875l-0.625 0.8125z"/>
<path d="m205.34 697.58c1.75-0.3125 4-0.4375 5.0625 0.125s1.1875 0.9375 1.1875 0.9375l1.75 0.0625s0.5625-0.625-0.3125-1.25-4.6875-2-4.6875-2z"/>
<path d="m211.34 731.96c-0.4375-0.3125-0.3125-1 0-1s0.625 0.625 0.625 0.625 0.5625 0.5625 0.875 1.0625 1.5625 1.4375 1.75 1.875 1.4375 0 1.4375 0l0.5-0.0625s-0.1875 1.125 0.6875 1.875c0 0 0.4375 1.1875 1.25 2s1.5625 1.125 1.5625 1.125 0.60157 0.58203 1.2266 0.89453 1.3359-0.33203 1.3359-0.33203 2.1875-1.0625 2.5625-1.375 2.0625-3.0625 2.1875-4.0625l2.6875-0.25 1.8125-2.125 0.125-0.5s1.125 0.375 1.1875 0.5625 0.5625 0.5625 0.875 0.375-0.8125-1.1875-1.5-1.5625-2-0.875-3-0.8125 1.6875 1 1.6875 1-0.5 1.0625-0.8125 1.1875-1.6875 0.125-2.0625 0.125-5.5-0.9375-6.125-1.1875-2-0.125-2.5625 0.125-0.8125 1.25-0.8125 1.25-0.4375 0.875-1.25 0-1.3125-2-2.3125-2.25-1.1875-0.375-1.75 0-0.6875 0.875-1.0625 0.375-1.1875-0.6875-1.1875-0.6875 0.25-1.0625 0.4375-1.1875-0.625-0.1875-0.625-0.1875l-0.375-0.5625s-0.5 0.6875-0.75 1-0.625 1.5625 0 2.25 1.25 1 1.25 1z"/>
</g>
<path d="m212.78 731.61s1.125 1.1562 1.5312 1.5 0.5625 0.53125 0.5625 0.53125l0.1875 0.5625s0.75 0.03125 1.25-0.21875 1.2188-0.1875 1.5 0.21875 1.3438 1.2812 1.5312 1.4688 1.3125-0.53125 1.75-0.875 1.1875-1.0625 2.1562-1.0312 3-0.03125 3-0.03125 0.0625-0.34375 0.34375-0.40625 0.625 0.34375 0.6875 0.53125 2.1875 0.03125 2.1875 0.03125 0.46875-0.46875 0.59375-0.875c0 0-2.5938-0.0625-3.7188-0.28125s-3.7812-0.8125-4.5-0.9375-1.4375 0.0625-1.5625 0.40625-0.53125 0.96875-0.53125 0.96875-0.71875 0.0625-0.65625 0.28125 0.46875 0.46875 0.46875 0.46875-0.53125 0.46875-1.125 0.15625-1.2188-0.9375-1.875-1.6562-1.4062-1.4688-2.125-1.5-0.5 0.59375-0.5 0.59375-0.84375 0.3125-1.1562 0.09375" fill="#ff6868"/>
<path d="m217.87 735.89c-0.375-0.62891-0.59375-1.1562-0.59375-1.1562s1.1875 0.90625 1.375 1-0.3125 0.53125-0.09765 0.6875c0.22265 0.15625 1.3789-0.0625 2.1602-0.53125s1.9648-1 2.2148-1.1562 1.2852-0.28125 1.8476-0.21875 1.2188 0.0625 1.2188 0.0625-0.03125 0.4375-0.0625 0.5625-1.0625 1.4062-1.2539 2.0625c-0.1836 0.65625-2.5586 2.0938-2.9024 2.2188s-0.65625 0.375-1.375-0.46875c-0.72265-0.84375-2.125-2.375-2.5312-3.0625" fill="#ff6868"/>
<path d="m199.03 707.46c0.73829-1.332-0.0625-1.9375-0.5-2.125s1.3125-3.25 4.375-2.75 5.6875 2.4375 6.125 3.0625 3.1875 3.8125 3.25 7.8125 0 4.5-1.3125 5.0625c0 0-2.5 2.5-6.5625 0.5s-5.8125-4.5-6-8.6875c0 0 0-1.75 0.625-2.875"/>
<path d="m205.4 705.14c0.3125 0.25 0.625 2.875 0.6875 3.4375s-0.375 0.5625-0.875 0.9375-1.8125 1.5625-0.6875 2.8125 2.25 1 2.25 1 0.0625 1.125-0.8125 1.8125-1.5625 1.3125-2.9375 1.375 0.9375 1.25 0.9375 1.25 1.75 1.625 4 1 2.6875-0.75 2.6875-2.8125 0.3125-3.6875-1.1875-6.75-4.0625-4.0625-4.0625-4.0625" fill="#fff"/>
<path d="m229.65 721.7c-1.8086-1.4883-2.5-2.875-2.5625-4.25s0.6875-5.8125 2.25-8.0625 3.1875-4.0625 6.1875-5.5 6.9375-0.5 9.0625 0.625 3.3125 3 3.3125 3l-1.1875 1.4375s1.0625 4.375 0.1875 6.375-0.9375 2.8125-0.9375 2.8125-1.1875 1.125-1.625 1.75c0 0-0.375 0.1875-1.5 0.875s-2.1875 1.6875-2.1875 1.6875-3.9375 1.9375-7.75 1c0 0-2.1875-0.875-3.25-1.75"/>
<path d="m233.28 707.52c0.6875-0.5 2.8125-2.1875 3.25-2.1875s3.875-0.1875 5.4375 0.6875 3.5625 2.375 3.5625 5 0.125 4.0625-0.3125 5-1.9375 3.4375-2 3.625-2.3125 2.1875-3.8125 2.5625-3.375 0.6875-3.375 0.6875-2.875-0.125-4.375-1.0625c0 0 1.625-1.0625 2.5-1.875s1.5-2.375 1.625-4.1875c0 0-0.4375-0.8125-1.3125-0.3125 0 0-1.625-0.5625-0.6875-2.4375 0 0 0.3125-1.25 1.9375-0.875 0 0 0.375-0.875-0.3125-2.0625s-2.125-2.5625-2.125-2.5625" fill="#fff"/>
</g>
</g>
</g>
<g stroke-width=".51592">
<g transform="matrix(-1.9383 0 0 1.9383 1395.6 -1243.8)">
<use transform="translate(193.47)" width="100%" height="100%" xlink:href="#g2023"/>
<g>
<path d="m396.88 699c1.5742-0.28125 3.6055-0.39453 4.5625 0.11329 0.95704 0.50781 1.0742 0.84765 1.0742 0.84765l1.5781 0.05469s0.5039-0.5625-0.28516-1.1289c-0.78906-0.5625-4.2266-1.8008-4.2266-1.8008z"/>
<path d="m404.81 731.96c-0.4375-0.3125-0.3125-1 0-1 0.3086 0 0.625 0.625 0.625 0.625s0.5586 0.5625 0.875 1.0625c0.3086 0.5 1.5625 1.4375 1.75 1.875s1.4336 0 1.4336 0l0.5-0.0625s-0.1836 1.125 0.6914 1.875c0 0 0.4336 1.1875 1.25 2 0.8086 0.8125 1.5625 1.125 1.5625 1.125s0.60157 0.58203 1.2266 0.89453 1.3359-0.33203 1.3359-0.33203 2.1875-1.0625 2.5625-1.375 2.0625-3.0625 2.1875-4.0625l2.6836-0.25 1.8164-2.125 0.125-0.5s1.125 0.375 1.1836 0.5625c0.0664 0.1875 0.5664 0.5625 0.875 0.375 0.3164-0.1875-0.8086-1.1875-1.5-1.5625-0.6836-0.375-2-0.875-3-0.8125s1.6914 1 1.6914 1-0.5 1.0625-0.8164 1.1875c-0.3086 0.125-1.6836 0.125-2.0586 0.125s-5.5-0.9375-6.125-1.1875-2-0.125-2.5625 0.125-0.8125 1.25-0.8125 1.25-0.4414 0.875-1.25 0c-0.8164-0.875-1.3164-2-2.3125-2.25-1-0.25-1.1875-0.375-1.75 0s-0.6875 0.875-1.0625 0.375-1.1875-0.6875-1.1875-0.6875 0.2461-1.0625 0.4375-1.1875c0.1836-0.125-0.625-0.1875-0.625-0.1875l-0.375-0.5625s-0.5 0.6875-0.75 1-0.625 1.5625 0 2.25 1.25 1 1.25 1z"/>
<path d="m406.25 731.61s1.125 1.1562 1.5274 1.5c0.40625 0.34375 0.5664 0.53125 0.5664 0.53125l0.1836 0.5625s0.75 0.03125 1.25-0.21875 1.2226-0.1875 1.5 0.21875c0.28125 0.40625 1.3476 1.2812 1.5312 1.4688 0.1914 0.1875 1.3164-0.53125 1.7539-0.875s1.1875-1.0625 2.1562-1.0312 3-0.03125 3-0.03125 0.0586-0.34375 0.34375-0.40625c0.28125-0.0625 0.625 0.34375 0.6875 0.53125s2.1836 0.03125 2.1836 0.03125 0.46875-0.46875 0.59375-0.875c0 0-2.5898-0.0625-3.7148-0.28125s-3.7852-0.8125-4.5-0.9375c-0.71875-0.125-1.4375 0.0625-1.5625 0.40625s-0.53125 0.96875-0.53125 0.96875-0.71875 0.0625-0.66015 0.28125c0.0664 0.21875 0.46875 0.46875 0.46875 0.46875s-0.52735 0.46875-1.125 0.15625c-0.59375-0.3125-1.2188-0.9375-1.875-1.6562-0.65235-0.71875-1.4024-1.4688-2.125-1.5-0.71875-0.03125-0.5 0.59375-0.5 0.59375s-0.84375 0.3125-1.1524 0.09375" fill="#ff6868"/>
<path d="m411.34 735.89c-0.3711-0.62891-0.59375-1.1562-0.59375-1.1562s1.1914 0.90625 1.375 1c0.1914 0.09375-0.3086 0.53125-0.09375 0.6875 0.21875 0.15625 1.3789-0.0625 2.1602-0.53125 0.77735-0.46875 1.9648-1 2.2148-1.1562s1.2852-0.28125 1.8438-0.21875c0.5664 0.0625 1.2188 0.0625 1.2188 0.0625s-0.02735 0.4375-0.0586 0.5625c-0.03515 0.125-1.0664 1.4062-1.2539 2.0625s-2.5625 2.0938-2.9062 2.2188c-0.33985 0.125-0.65625 0.375-1.375-0.46875s-2.125-2.375-2.5312-3.0625" fill="#ff6868"/>
<g>
<path d="m422.75 697.83c-2 0.625-2.5 0.75-2.75 0.5625s0.6836-0.875 2.3125-1.3125c1.6211-0.4375 3.125-1.125 5.3125-1.375 2.1836-0.25 4.5-0.3125 4.5-0.3125s0.0625-0.5625 1.5625-0.375c0 0-0.1875-0.625-0.6875-0.6875s0.125-0.5625 1.4375-0.4375 2.625 0.5 2.625 0.875c0 0 2.8711 0.5625 4.3125 1.5 1.4336 0.9375 3 2.5 3.25 2.75s1.5 1.375 1.875 1.9375 1.375 2.1875 1.625 3.4375-1.125-0.375-1.125-0.375l-0.8164-1.875-0.375-0.1875s-3.5-4.0625-7.6211-4.4375c-4.125-0.375-2.5625-0.5625-2.5625-0.5625s-4.5-0.5625-8.375 0.0625-4.5 0.8125-4.5 0.8125"/>
<path d="m420.19 715.77c0-1.4375 0.4336-5.3125 2.5625-7.4375 0 0 2.5625-2.4375 3.1875-2.875s0.6836-1 0.25-1.0625c-0.4414-0.0625-1.25 0.5-2.8125 1.8125s-3.9375 3.9375-3.875 8.5625c0 0-0.5 0.1875-0.125 0.875 0 0-1.0625 0.25-0.1875 1l-0.75-0.0625 0.0625 0.5625-0.9375 0.3125 0.6875 0.75s1.3125 0.1875 1.5625 0.1875 2.9375 3.5625 5.5 4.5625c2.5586 1-2.4375-2.1875-3-3-0.5664-0.8125-0.8164-1.25 0.1875-1.0625 1 0.1875 2.4375 0.375 2.4375 0.375l0.4336 0.375s6.1914-0.125 7.5664-0.375 2-0.3125 2-0.3125l-0.3125-0.375s2.4961-0.75 2.9961-1.1875-0.4336-0.125-0.4336-0.125 1-0.8125 1.875-0.875-1.25-1.1875-1.5664-1.5l-0.625-0.625s-0.25 1.5625-2.8086 2.375c-2.5625 0.8125-4.1875 0.875-4.1875 0.875s-4.0039 0.25-6-0.4375c0 0-0.5625 0.1875-0.0625 0.375 0 0-2.5664-0.1875-3.4414-1.4375z"/>
<path d="m400.88 707.46c-0.5-1.0625-1.0625-1.5-1.25-1.5s-0.9414-0.4375-0.75-0.9375c0.1875-0.5 1.4375 0.0625 1.75 0.1875 0.3086 0.125 1.8086 2.8125 2.1836 3.6875 0.3789 0.875 1.1289 2.25 1.6289 5.0625 0.4961 2.8125-0.6875 2.375-0.6875 2.375s0.1875 1.8125-0.3125 2.0625-0.5625-1.3125-0.5625-1.3125-1.5 1.1875-2.75 1.1875-1.3164-0.3125-0.4375-0.625c0.875-0.3125 1.6211-0.25 1.6211-0.75s-0.4336 0-2.3086-0.1875-4.6875-2.375-4.6875-2.375l-1.3125-0.3125-3-2.6875 1.75-1.1875 0.25 0.25 0.125-0.625 0.5586 1.125s1.9414 2.75 5.1914 3.5625 2.9375 1.1875 4.375 0.875 0.25-3.4375 0.25-3.4375-0.3164-1.4375-0.5664-1.875-1.0586-2.5625-1.0586-2.5625"/>
</g>
</g>
</g>
<g transform="matrix(-1.9383 0 0 1.9383 2145.6 -1243.8)">
<use transform="translate(386.94)" width="100%" height="100%" xlink:href="#g2023"/>
<g>
<g>
<path d="m614.93 695c1.125-0.32031 2.5625-0.90234 2.5625-0.90234s-0.125-0.32031 1.0625-0.57812c1.1875-0.25782 5.9375-0.73829 10.562 0.16406 4.625 0.89844 7.543 3.0469 7.918 3.5 0.375 0.44922 3.1445 2.2617 3.207 3.5469 0.0625 1.2891 0.625 0.45313 0.625 0.45313l1.832 2.832 0.08593-0.91797-0.25-0.38281s-0.21093-2.8281-1.0859-4.1172c-0.875-1.2852-3.9766-4.1992-5.7266-5.4883-1.75-1.2852-4.1875-1.9258-4.1875-1.9258s1.375 1.2188 2 1.4766-0.27343 0.16797-0.58593 0.10547c-0.3125-0.06641-2.2695-0.76953-3.832-0.83203-1.5625-0.06641-5.625-0.79297-12.375 1.3281l-0.625 0.83594z"/>
<path d="m591.12 698.08c1.75-0.3125 4-0.4375 5.0625 0.125s1.1875 0.9375 1.1875 0.9375l1.75 0.0625s0.5625-0.625-0.3125-1.25-4.6875-2-4.6875-2z"/>
<path d="m598.28 731.96c-0.4375-0.3125-0.3125-1 0-1 0.3086 0 0.625 0.625 0.625 0.625s0.5586 0.5625 0.875 1.0625c0.3086 0.5 1.5625 1.4375 1.75 1.875s1.4336 0 1.4336 0l0.5-0.0625s-0.1836 1.125 0.6914 1.875c0 0 0.4336 1.1875 1.25 2 0.8086 0.8125 1.5625 1.125 1.5625 1.125s0.60157 0.58203 1.2266 0.89453 1.3359-0.33203 1.3359-0.33203 2.1875-1.0625 2.5625-1.375 2.0625-3.0625 2.1875-4.0625l2.6836-0.25 1.8164-2.125 0.125-0.5s1.125 0.375 1.1836 0.5625c0.0664 0.1875 0.5664 0.5625 0.875 0.375 0.3164-0.1875-0.8086-1.1875-1.5-1.5625-0.6836-0.375-2-0.875-3-0.8125s1.6914 1 1.6914 1-0.5 1.0625-0.8164 1.1875c-0.3086 0.125-1.6836 0.125-2.0586 0.125s-5.5-0.9375-6.125-1.1875-2-0.125-2.5625 0.125-0.8125 1.25-0.8125 1.25-0.4414 0.875-1.25 0c-0.8164-0.875-1.3164-2-2.3125-2.25-1-0.25-1.1875-0.375-1.75 0s-0.6875 0.875-1.0625 0.375-1.1875-0.6875-1.1875-0.6875 0.2461-1.0625 0.4375-1.1875c0.1836-0.125-0.625-0.1875-0.625-0.1875l-0.375-0.5625s-0.5 0.6875-0.75 1-0.625 1.5625 0 2.25 1.25 1 1.25 1z"/>
</g>
<path d="m599.72 731.61s1.125 1.1562 1.5274 1.5c0.40625 0.34375 0.5664 0.53125 0.5664 0.53125l0.1836 0.5625s0.75 0.03125 1.25-0.21875 1.2226-0.1875 1.5 0.21875c0.28125 0.40625 1.3476 1.2812 1.5312 1.4688 0.1914 0.1875 1.3164-0.53125 1.7539-0.875s1.1875-1.0625 2.1562-1.0312 3-0.03125 3-0.03125 0.0586-0.34375 0.34375-0.40625c0.28125-0.0625 0.625 0.34375 0.6875 0.53125s2.1836 0.03125 2.1836 0.03125 0.46875-0.46875 0.59375-0.875c0 0-2.5898-0.0625-3.7148-0.28125s-3.7852-0.8125-4.5-0.9375c-0.71875-0.125-1.4375 0.0625-1.5625 0.40625s-0.53125 0.96875-0.53125 0.96875-0.71875 0.0625-0.66015 0.28125c0.0664 0.21875 0.46875 0.46875 0.46875 0.46875s-0.52735 0.46875-1.125 0.15625c-0.59375-0.3125-1.2188-0.9375-1.875-1.6562-0.65235-0.71875-1.4024-1.4688-2.125-1.5-0.71875-0.03125-0.5 0.59375-0.5 0.59375s-0.84375 0.3125-1.1524 0.09375" fill="#ff6868"/>
<path d="m604.81 735.89c-0.3711-0.62891-0.59375-1.1562-0.59375-1.1562s1.1914 0.90625 1.375 1c0.1914 0.09375-0.3086 0.53125-0.09375 0.6875 0.21875 0.15625 1.3789-0.0625 2.1602-0.53125 0.77735-0.46875 1.9648-1 2.2148-1.1562s1.2852-0.28125 1.8438-0.21875c0.5664 0.0625 1.2188 0.0625 1.2188 0.0625s-0.02735 0.4375-0.0586 0.5625c-0.03515 0.125-1.0664 1.4062-1.2539 2.0625s-2.5625 2.0938-2.9062 2.2188c-0.33985 0.125-0.65625 0.375-1.375-0.46875s-2.125-2.375-2.5312-3.0625" fill="#ff6868"/>
<path d="m582.7 706.35c0.25 0.58594 0.58593 0.75 2.0859 0.66797 0 0 0.25 4.5 1.082 6.168 0 0-1-0.58594-1.168-1-0.16407-0.41797 0.16797 1.1641 0.58593 1.5 0.41407 0.33203 0.25 1.25 1.332 2 1.082 0.75 5.332 3.5 8.668 2.9141 3.332-0.58203 2.582-0.91406 2.582-0.91406s0.75-3.75-2.418-8c-3.1641-4.25-8.582-5.25-11.914-4.5859z"/>
<path d="m586.12 707.02c-0.16797 1.918 0.16796 5.75 1.332 7.75 0 0 0.66797 0.66797 1.25 0.83203 0 0-0.25-1.25-0.08203-1.9141 0 0 1.082 1.4141 2.332 0 1.25-1.418-0.58203-2.5859-1.1641-2.668 0 0 1.332-2.332 2.9141-1.75v-0.33203l-2.25-1.418v0.33203s-1.1641-0.75-3.082-0.83203z" fill="#fff"/>
<path d="m614.03 718.69s-0.25 0.5-0.66796 0.5c-0.41797 0-0.66797-0.5-0.33204-1.3359l0.08204-1.25s2.668-4.25 3.832-5.1641c1.168-0.91797 1.25-0.5 1.25-0.5s3.25-3.168 9-2.668 5 1.832 7.5 2.668l-1 1.6641-0.91407-0.66406s0.83204 3.9141-1.168 6.1641-5.918 4.668-9.332 4.668c-3.418 0-7.25-2.582-8.25-4.082"/>
<path d="m620.87 711.44c-1 0.91406-2.168 2.5-2.25 3.5 0 0 2.418-0.33594 2.668 1.332s-0.58593 3.168-2.418 2.418c0 0-1 0 1 2.6641 0.03906 0.17969-3.4961-1.457-4.082-2.4141-0.23437-0.38281-1.0859-0.58594-0.33593-1.75 0.75-1.168 2.168-3.168 2.168-3.168s0.08203-0.5 0.75-0.66797c0.66796-0.16406 0.66796-0.83203 0.66796-0.83203z" fill="#fff"/>
<path d="m624.28 710.35 1.332-0.41406s2.5 0.08203 3.332 0.5c0.83593 0.41406 1.3359 1 1.3359 1s0.5-0.16797 0.91407 0.16406c0.41797 0.33594 1 1.8359 0.58593 2.168-0.83593 0.66797-1.668-1.332-2.418-1.832s-1.832-2.3359-5.082-1.5859" fill="#fff"/>
</g>
</g>
<g transform="matrix(-1.9383 0 0 1.9383 2895.6 -1243.8)">
<use transform="translate(580.41)" width="100%" height="100%" xlink:href="#g2023"/>
<g>
<g>
<path d="m809.51 695.46c1.0703-0.3711 2.4375-1.0156 2.4375-1.0156s-0.1368-0.31641 1-0.625c1.1328-0.3125 5.707-1.0117 10.223-0.32422 4.5196 0.6836 7.4414 2.6992 7.8242 3.1289 0.3829 0.43359 3.1524 2.1172 3.2735 3.3984s0.625 0.42187 0.625 0.42187l1.9101 2.7461 0.0352-0.92187-0.2617-0.37109s-0.336-2.8164-1.2422-4.0625c-0.9063-1.2422-4.0469-4.0117-5.8008-5.2148-1.7539-1.2031-4.1445-1.7344-4.1445-1.7344s1.3906 1.1562 2.0078 1.3828c0.6172 0.23047-0.2539 0.18359-0.5625 0.13281-0.3047-0.05078-2.2305-0.66406-3.7461-0.65625s-5.4805-0.53125-11.906 1.8984l-0.5664 0.86328z"/>
<path d="m785.34 697.46c1.75-0.3125 4-0.4375 5.0625 0.125s1.1875 0.9375 1.1875 0.9375l1.75 0.0625s0.5625-0.625-0.3125-1.25-4.6875-2-4.6875-2z"/>
<path d="m791.75 731.96c-0.4375-0.3125-0.3125-1 0-1s0.625 0.625 0.625 0.625 0.5625 0.5625 0.875 1.0625 1.5625 1.4375 1.75 1.875 1.4375 0 1.4375 0l0.5-0.0625s-0.1875 1.125 0.6875 1.875c0 0 0.4375 1.1875 1.25 2s1.5625 1.125 1.5625 1.125 0.6054 0.58203 1.2304 0.89453 1.3321-0.33203 1.3321-0.33203 2.1875-1.0625 2.5625-1.375 2.0625-3.0625 2.1875-4.0625l2.6875-0.25 1.8125-2.125 0.125-0.5s1.125 0.375 1.1875 0.5625 0.5625 0.5625 0.875 0.375-0.8125-1.1875-1.5-1.5625-2-0.875-3-0.8125 1.6875 1 1.6875 1-0.5 1.0625-0.8125 1.1875-1.6875 0.125-2.0625 0.125-5.5-0.9375-6.125-1.1875-2-0.125-2.5625 0.125-0.8125 1.25-0.8125 1.25-0.4375 0.875-1.25 0-1.3125-2-2.3125-2.25-1.1875-0.375-1.75 0-0.6875 0.875-1.0625 0.375-1.1875-0.6875-1.1875-0.6875 0.25-1.0625 0.4375-1.1875-0.625-0.1875-0.625-0.1875l-0.375-0.5625s-0.5 0.6875-0.75 1-0.625 1.5625 0 2.25 1.25 1 1.25 1z"/>
</g>
<path d="m793.19 731.61s1.125 1.1562 1.5312 1.5c0.4063 0.34375 0.5625 0.53125 0.5625 0.53125l0.1875 0.5625s0.75 0.03125 1.25-0.21875 1.2188-0.1875 1.5 0.21875c0.2813 0.40625 1.3438 1.2812 1.5313 1.4688s1.3125-0.53125 1.75-0.875 1.1875-1.0625 2.1562-1.0312c0.9688 0.03125 3-0.03125 3-0.03125s0.0625-0.34375 0.3438-0.40625c0.2812-0.0625 0.625 0.34375 0.6875 0.53125s2.1875 0.03125 2.1875 0.03125 0.4687-0.46875 0.5937-0.875c0 0-2.5937-0.0625-3.7187-0.28125s-3.7813-0.8125-4.5-0.9375c-0.7188-0.125-1.4375 0.0625-1.5625 0.40625s-0.5313 0.96875-0.5313 0.96875-0.7187 0.0625-0.6562 0.28125 0.4687 0.46875 0.4687 0.46875-0.5312 0.46875-1.125 0.15625c-0.5937-0.3125-1.2187-0.9375-1.875-1.6562-0.6562-0.71875-1.4062-1.4688-2.125-1.5-0.7187-0.03125-0.5 0.59375-0.5 0.59375s-0.8437 0.3125-1.1562 0.09375" fill="#ff6868"/>
<path d="m798.29 735.89c-0.3711-0.62891-0.5937-1.1562-0.5937-1.1562s1.1875 0.90625 1.375 1-0.3125 0.53125-0.0938 0.6875c0.2188 0.15625 1.375-0.0625 2.1563-0.53125 0.7812-0.46875 1.9687-1 2.2187-1.1562s1.2813-0.28125 1.8438-0.21875 1.2187 0.0625 1.2187 0.0625-0.0312 0.4375-0.0625 0.5625c-0.0312 0.125-1.0625 1.4062-1.25 2.0625s-2.5625 2.0938-2.9062 2.2188c-0.3438 0.125-0.6563 0.375-1.375-0.46875-0.7188-0.84375-2.125-2.375-2.5313-3.0625" fill="#ff6868"/>
<path d="m833.82 666.81c0.0156 0.01171 0.0234 0.02343 0.0351 0.03515h0.1485c-0.0391-0.00781-0.1133-0.01953-0.1836-0.03515" fill="#571142"/>
<path d="m779.18 707.49c0.7266-1.3242-0.0625-1.9297-0.4921-2.1172-0.4336-0.1875 1.2929-3.2422 4.3085-2.7422 3.0196 0.5 5.6055 2.4297 6.0352 3.0547 0.4297 0.6211 3.1406 3.8008 3.2031 7.7852 0.0625 3.9883 0 4.4844-1.2929 5.0469 0 0-2.4649 2.4922-6.4649 0.5-4.0039-1.9961-5.7305-4.4883-5.914-8.6602 0 0 0-1.7461 0.6171-2.8672"/>
<path d="m810.03 721.64c-1.7773-1.4805-2.4609-2.8633-2.5234-4.2344-0.0625-1.3711 0.6757-5.793 2.2148-8.0352s3.1406-4.0508 6.0938-5.4844c2.957-1.4297 6.8359-0.49609 8.9296 0.625 2.0938 1.1211 3.2618 2.9883 3.2618 2.9883l-1.168 1.4336s1.0469 4.3594 0.1836 6.3555c-0.8633 1.9922-0.9258 2.8008-0.9258 2.8008s-1.168 1.1211-1.5977 1.7461c0 0-0.371 0.1836-1.4804 0.8711-1.1055 0.68359-2.1524 1.6836-2.1524 1.6836s-3.8789 1.9297-7.6367 0.99609c0 0-2.1523-0.875-3.1992-1.7461"/>
<path d="m825.94 713.27c0.25-2 0-5.5625-3.3125-7.25s-6.1875-0.8125-6.1875-0.8125-2.25 1.1875-2.9375 2-2.0625 2.4375-2.4375 3.25-0.375 1.3125-0.375 1.3125l-0.3125-0.0625s-0.0625 1.3125-0.25 1.5625-1.0625 2.125-0.875 3 0.0625 2.25 1.0625 3.4375 1.6875 2.125 1.6875 2.125 1.6875 1.125 4.0625 1.125c0 0-3-1.3125-4.6875-4.875 0 0 3.5625 1.125 3.9375-2.25s-3.625-2.6875-3.625-2.6875 1.5625-5.5625 7.8125-4.75 6.4375 4.875 6.4375 4.875" fill="#fff"/>
<path d="m787.44 706.14c-0.75 0.6875-1.625 1.6875-3 4.25 0 0 3.3125 0.25 2.375 3.4375s-0.125 0.25-0.125 0.25-0.875 1.625-2.75 0.6875c0 0 0.375 3.0625 2.5 4 0 0-1.1875 0.125-4-2 0 0-1.5625-2.6875-1.8125-3.125s-0.5-2.3125-0.5-4.125 0.9375-3.5625 1.875-4 1.5-1.0625 2.0625-0.9375 0.6875 0.4375 1.375 0.4375 2 1.125 2 1.125" fill="#fff"/>
</g>
</g>
<g transform="matrix(-1.9383 0 0 1.9383 3645.6 -1243.8)">
<use transform="translate(773.89)" width="100%" height="100%" xlink:href="#g2023"/>
<g>
<path d="m1003 695.46c1.0703-0.3711 2.4336-1.0156 2.4336-1.0156s-0.1367-0.31641 1-0.625c1.1367-0.3125 5.711-1.0117 10.227-0.32422 4.5156 0.6836 7.4414 2.6992 7.8242 3.1289 0.3828 0.43359 3.1524 2.1172 3.2734 3.3984 0.1211 1.2812 0.625 0.42187 0.625 0.42187l1.9102 2.7461 0.0352-0.92187-0.2618-0.37109s-0.3359-2.8164-1.2421-4.0625c-0.9063-1.2422-4.0508-4.0117-5.8047-5.2148-1.7539-1.2031-4.1407-1.7344-4.1407-1.7344s1.3868 1.1562 2.0039 1.3828c0.6172 0.23047-0.2539 0.18359-0.5585 0.13281-0.3047-0.05078-2.2344-0.66406-3.75-0.65625-1.5118 0.00781-5.4766-0.53125-11.906 1.8984l-0.5664 0.86328z"/>
<path d="m978.81 697.46c1.75-0.3125 4-0.4375 5.0625 0.125s1.1875 0.9375 1.1875 0.9375l1.75 0.0625s0.5625-0.625-0.3125-1.25-4.6875-2-4.6875-2z"/>
<path d="m1027.3 666.81c0.0118 0.01171 0.0235 0.02343 0.0352 0.03515h0.1484c-0.039-0.00781-0.1133-0.01953-0.1836-0.03515" fill="#571142"/>
<path d="m972.65 707.49c0.7305-1.3242-0.0625-1.9297-0.4922-2.1172s1.293-3.2422 4.3125-2.7422c3.0156 0.5 5.6055 2.4297 6.0352 3.0547 0.4297 0.6211 3.1406 3.8008 3.2031 7.7852 0.0586 3.9883 0 4.4844-1.293 5.0469 0 0-2.4648 2.4922-6.4687 0.5-4.0039-1.9961-5.7266-4.4883-5.9102-8.6602 0 0 0-1.7461 0.6133-2.8672"/>
<path d="m1003.5 721.64c-1.7813-1.4805-2.4649-2.8633-2.5235-4.2344-0.0625-1.3711 0.6758-5.793 2.2149-8.0352 1.539-2.2422 3.1406-4.0508 6.0937-5.4844 2.9531-1.4297 6.8321-0.49609 8.9258 0.625 2.0938 1.1211 3.2656 2.9883 3.2656 2.9883l-1.1718 1.4336s1.0468 4.3594 0.1835 6.3555c-0.8593 1.9922-0.9218 2.8008-0.9218 2.8008s-1.1719 1.1211-1.6016 1.7461c0 0-0.3672 0.1836-1.4766 0.8711-1.1093 0.68359-2.1523 1.6836-2.1523 1.6836s-3.8828 1.9297-7.6367 0.99609c0 0-2.1524-0.875-3.1992-1.7461"/>
<path d="m1019.4 713.27c0.25-2 0-5.5625-3.3164-7.25-3.3086-1.6875-6.1836-0.8125-6.1836-0.8125s-2.25 1.1875-2.9414 2c-0.6836 0.8125-2.0586 2.4375-2.4336 3.25s-0.375 1.3125-0.375 1.3125l-0.3164-0.0625s-0.0586 1.3125-0.25 1.5625c-0.1836 0.25-1.0586 2.125-0.8711 3s0.0625 2.25 1.0625 3.4375 1.6836 2.125 1.6836 2.125 1.6914 1.125 4.0664 1.125c0 0-3-1.3125-4.6914-4.875 0 0 3.5664 1.125 3.9414-2.25s-3.625-2.6875-3.625-2.6875 1.5586-5.5625 7.8125-4.75c6.25 0.8125 6.4375 4.875 6.4375 4.875" fill="#fff"/>
<path d="m980.92 706.14c-0.75 0.6875-1.625 1.6875-3 4.25 0 0 3.3086 0.25 2.375 3.4375-0.9375 3.1875-0.125 0.25-0.125 0.25s-0.875 1.625-2.75 0.6875c0 0 0.375 3.0625 2.5 4 0 0-1.1914 0.125-4-2 0 0-1.5625-2.6875-1.8125-3.125s-0.5-2.3125-0.5-4.125 0.9375-3.5625 1.875-4 1.4961-1.0625 2.0625-0.9375c0.5586 0.125 0.6836 0.4375 1.375 0.4375 0.6875 0 2 1.125 2 1.125" fill="#fff"/>
<path d="m984.48 729.64c-0.0976-0.0625-0.375 0.09375-0.375 0.53125s0.0938 0.9375-0.2226 0.78125c-0.3086-0.15625-0.75-1.1875-0.625-1.7812s0.9726-1.0312 1.5664-1.0312c0.5898 0 0.9648 0.3125 0.6562 0.5-0.3164 0.1875-0.8164 0.09375-0.7812 0.40625 0.0312 0.3125 1.1836 0.96875 1.4062 1.1562 0.2188 0.1875 0.875 0.125 1.1524-0.21875 0.2851-0.34375 0.9414-1.0625 1.3476-0.59375 0.4024 0.46875 1.875 1.4062 2.0938 1.5938 0.2148 0.1875 0.8398 0.46875 0.8398 0.65625s0.4414 0 1.0664-0.4375 1.3125-1.4062 3.3438-0.9375c2.0312 0.46875 6 1.4062 7.25 1.4375s1.4336 0.34375 3.0586-1.0625c0 0 0.0664-0.40625-0.3438-0.53125-0.4062-0.125-0.5898-0.21875-0.4336-0.34375 0.1524-0.125-0.5 0.125-0.7812-0.09375-0.2852-0.21875 0.125-0.4375 0.875-0.46875s1.3086 0.3125 1.7148 0.625c0.4102 0.3125 1.5 1.7188 1.3438 2.25-0.1524 0.53125-0.5586-0.65625-1.1524-0.9375-0.5976-0.28125-0.625 0.03125-0.9726 0.3125-0.3438 0.28125-1.6524 1.4062-1.9688 1.7188-0.3086 0.3125-0.6836 0.59375-1.0586 0.59375s-0.4726 0.84375-0.6914 1.2812c-0.2148 0.4375-1.9062 3.3438-4.2461 5.5l-0.4375 0.34375s-0.625 0.03125-1 0.25-0.9062 0.375-1.1562 0.375c0 0 0.1562 0.40625-0.0664 0.375-0.2149-0.03125-1.75-0.90625-2.2774-1.5625 0 0-0.5625-0.15625-0.6562-0.875 0 0-3.1602-3.8438-3.9688-6.125 0 0-0.5625 0.09375-0.6875 0.1875s-0.4375 0.125-0.7851-0.3125c-0.3399-0.4375-2.5274-2.875-2.75-3.125-0.2188-0.25-0.2774-0.4375-0.2774-0.4375"/>
<path d="m989.38 733.14c0.4062 0 0.9062 0.1875 1.2226 0.5625 0.3086 0.375 1.8086 2.3125 2.0938 2.5938 0.2812 0.28125 1.1836 1.3125 0.9961 1.4688s-0.7461 0.25-0.4961 0.46875c0.2461 0.21875 1.2461-0.3125 1.6562-0.3125 0.4024 0 0.8086-0.09375 0.8086-0.09375s0.125-0.5 0.5-0.5 1.2188-1 2.25-1.5938c1.0352-0.59375 2.5664-1.6875 2.75-1.7812 0.1914-0.09375 1.4688-0.125 1.3438 0.125s-1.0274 2.0938-1.7188 2.8125c-0.6836 0.71875-1.9336 2.625-2.4648 3-0.5352 0.375-1.7188 0.9375-2.1602 1-0.4336 0.0625-0.5937 0.375-1.1836 0-0.5976-0.375-1.375-1.1562-1.6562-1.5-0.2852-0.34375-3.0352-4.25-3.3438-5.0625-0.3164-0.8125-0.5976-1.1875-0.5976-1.1875" fill="#ff6868"/>
<path d="m985.35 730.24c-0.1992-0.32031 1.9024 1.9688 2.1524 2.3438s0.4414 0.375 0.9726 0.1875c0.5274-0.1875 1.4024-0.375 2.3086 0.3125 0.9102 0.6875 1.6914 1.3125 2.0938 1.3438 0.4062 0.03125 1.5976-0.8125 1.7851-0.9375s0.6875-0.71875 1.2813-0.625c0.5937 0.09375 1.625 0.21875 2.375 0.15625s1.6836 0.09375 2.3437 0.3125c0.6563 0.21875 2.4063 0.3125 2.7813 0.0625s1.125-0.84375 1.2812-1.1875c0 0-1.5 0.03125-2.625-0.15625s-5.375-1.0312-6.25-1.3438-2.0976 0.21875-2.5 0.53125c-0.4062 0.3125-1 1-1.375 1.0625s-0.9062-0.34375-1.0976-0.59375c-0.1836-0.25-2.125-1.4375-2.2774-1.625-0.1562-0.1875-0.1875-0.4375-0.375-0.34375s-0.375 0.59375-0.2812 1c0 0-0.375 0.0625-0.4688 0.1875-0.0976 0.125-1.9726-0.4375-2.125-0.6875" fill="#ff6868"/>
<path d="m991.69 734.39c0.3476 0.34375 1.75 1.7812 2 2.0625s0.5664 0.84375 0.6562 0.84375c0.0938 0 0.3438-0.4375 0.5938-0.4375s0.5312 0.15625 0.9062-0.0625 1.2188-0.90625 1.6914-1.1875c0.4649-0.28125 2.8086-1.75 2.8086-1.75s-1.1562-0.1875-2.1836-0.1875c-1.0351 0-2.5664-0.28125-2.5664-0.28125s-0.75 0.40625-1.1562 0.71875c-0.4024 0.3125-1.0274 0.65625-1.375 0.6875-0.3438 0.03125-1.375-0.40625-1.375-0.40625" fill="#331c23"/>
</g>
</g>
<g transform="matrix(-1.9383 0 0 1.9383 4395.6 -1243.8)">
<use transform="translate(967.36)" width="100%" height="100%" xlink:href="#g2023"/>
<g>
<g>
<path d="m1196.5 695.46c1.0703-0.3711 2.4336-1.0156 2.4336-1.0156s-0.1367-0.31641 1-0.625c1.1367-0.3125 5.711-1.0117 10.227-0.32422 4.5156 0.6836 7.4414 2.6992 7.8242 3.1289 0.3828 0.43359 3.1524 2.1172 3.2734 3.3984 0.1211 1.2812 0.625 0.42187 0.625 0.42187l1.9102 2.7461 0.0352-0.92187-0.2618-0.37109s-0.3359-2.8164-1.2421-4.0625c-0.9063-1.2422-4.0508-4.0117-5.8047-5.2148-1.7539-1.2031-4.1407-1.7344-4.1407-1.7344s1.3868 1.1562 2.0039 1.3828c0.6172 0.23047-0.2539 0.18359-0.5585 0.13281-0.3047-0.05078-2.2344-0.66406-3.75-0.65625-1.5118 0.00781-5.4766-0.53125-11.906 1.8984l-0.5664 0.86328z"/>
<path d="m1172.3 697.46c1.75-0.3125 4-0.4375 5.0625 0.125s1.1875 0.9375 1.1875 0.9375l1.75 0.0625s0.5625-0.625-0.3125-1.25-4.6875-2-4.6875-2z"/>
<path d="m1166.1 707.49c0.7305-1.3242-0.0625-1.9297-0.4922-2.1172s1.293-3.2422 4.3125-2.7422c3.0156 0.5 5.6055 2.4297 6.0352 3.0547 0.4297 0.6211 3.1406 3.8008 3.2031 7.7852 0.0586 3.9883 0 4.4844-1.293 5.0469 0 0-2.4648 2.4922-6.4687 0.5-4.0039-1.9961-5.7266-4.4883-5.9102-8.6602 0 0 0-1.7461 0.6133-2.8672"/>
<path d="m1197 721.64c-1.7813-1.4805-2.4649-2.8633-2.5235-4.2344-0.0625-1.3711 0.6758-5.793 2.2149-8.0352 1.539-2.2422 3.1406-4.0508 6.0937-5.4844 2.9531-1.4297 6.8321-0.49609 8.9258 0.625 2.0938 1.1211 3.2656 2.9883 3.2656 2.9883l-1.1718 1.4336s1.0468 4.3594 0.1835 6.3555c-0.8593 1.9922-0.9218 2.8008-0.9218 2.8008s-1.1719 1.1211-1.6016 1.7461c0 0-0.3672 0.1836-1.4766 0.8711-1.1093 0.68359-2.1523 1.6836-2.1523 1.6836s-3.8828 1.9297-7.6367 0.99609c0 0-2.1524-0.875-3.1992-1.7461"/>
</g>
<path d="m1212.9 713.27c0.25-2 0-5.5625-3.3164-7.25-3.3086-1.6875-6.1836-0.8125-6.1836-0.8125s-2.25 1.1875-2.9414 2c-0.6836 0.8125-2.0586 2.4375-2.4336 3.25s-0.375 1.3125-0.375 1.3125l-0.3164-0.0625s-0.0586 1.3125-0.25 1.5625c-0.1836 0.25-1.0586 2.125-0.8711 3s0.0625 2.25 1.0625 3.4375 1.6836 2.125 1.6836 2.125 1.6914 1.125 4.0664 1.125c0 0-3-1.3125-4.6914-4.875 0 0 3.5664 1.125 3.9414-2.25s-3.625-2.6875-3.625-2.6875 1.5586-5.5625 7.8125-4.75c6.25 0.8125 6.4375 4.875 6.4375 4.875" fill="#fff"/>
<path d="m1174.4 706.14c-0.75 0.6875-1.625 1.6875-3 4.25 0 0 3.3086 0.25 2.375 3.4375-0.9375 3.1875-0.125 0.25-0.125 0.25s-0.875 1.625-2.75 0.6875c0 0 0.375 3.0625 2.5 4 0 0-1.1914 0.125-4-2 0 0-1.5625-2.6875-1.8125-3.125s-0.5-2.3125-0.5-4.125 0.9375-3.5625 1.875-4 1.4961-1.0625 2.0625-0.9375c0.5586 0.125 0.6836 0.4375 1.375 0.4375 0.6875 0 2 1.125 2 1.125" fill="#fff"/>
<path d="m1180.3 732.85c-0.8321-0.95703-2.125-2.5391-2.125-2.5391l-0.0821-0.46094s-0.5429-0.70703-0.7109-0.58203c-0.1641 0.125 0 0.83203 0.25 1.043 0.25 0.20703 0.0859 0.375-0.125 0.28906-0.207-0.08203-0.832-0.83203-0.832-1.375 0-0.53906-0.0821-1.207 0.625-1.375 0.707-0.16406 1.5-0.375 1.582-0.08203 0.0859 0.29297-0.707 0.625-0.707 0.625s-0.2071 0.33203 0.207 0.58203c0.418 0.25 0.543-0.08203 1.125 0.41797 0.5859 0.5 0.918-0.70703 0.918-0.70703s0.4179-1.168 1.207-0.91797c0.793 0.25 1.8359 1.125 2.418 1.543 0.582 0.41406 1.125 0.75 0.875 0.95703 0 0 0.582-0.08203 0.9179-0.75 0.3321-0.66797 1.5-1.082 2.5821-0.66797 1.082 0.41797 5.5429 1.918 6.457 2.0859 0.918 0.16406 1.793 0.25 2.7109-0.08594 0.9141-0.33203 2.0391-0.66406 2.4141-1.082s0.043-1.375-0.2891-1.457c-0.3359-0.08594-0.875 0.25-0.9609 0.03906-0.082-0.20703 1.125-0.41406 1.418-0.33203 0.2929 0.08203 0.9179 0.875 1.25 1.293 0.332 0.41406 1.125 1.375 0.832 1.6641-0.2891 0.29297-0.707 0.33594-1-0.20703-0.2891-0.54297-0.375-0.375-0.707-0.125-0.3321 0.25-1.293 1.25-1.293 1.375s-0.25 1.207-0.332 1.375c-0.0821 0.16797-3.7071 5.418-4.125 6.043-0.418 0.625-0.5821 0.875-0.75 1.5-0.168 0.625-3.2071 2.582-3.375 2.707-0.168 0.125-0.5 0.33203-0.918 0.29297-0.4141-0.04297-1.5-0.375-1.75-0.54297s-0.582-0.125-0.832-0.95703c-0.25-0.83594-5.8321-8.5859-5.8321-8.5859s-0.375-0.5-0.375-0.66406c0-0.16797-0.6679-0.33594-0.6679-0.33594"/>
<path d="m1178.9 730.1c-0.5-0.41406 0.207-0.41406 0.6679-0.16406 0.4571 0.25 0.625 0.25 1-0.21094 0.375-0.45703 0.4571-0.91406 0.875-1 0.4141-0.08203 0.9571 0.33594 1.7071 0.91797s1.5429 0.95703 1.5429 0.95703-0.1679 0.54297 0 0.625c0.1641 0.08594 0.7891-0.03906 1.5821-0.91406 0.7929-0.875 2.375-0.625 2.7929-0.46094 0.4141 0.16797 4.2891 1.168 5.2071 1.543 0.9179 0.375 2.25 0.75 3 0.41797 0.75-0.33594 2-0.875 2-0.875s-0.168 0.5-0.793 0.91406c-0.625 0.41797-1.832 1.75-1.832 1.75s-1.25-0.625-2.75-0.70703-5.125-0.66797-5.5821-0.75c-0.4609-0.08203-0.875-0.04297-1.3359 0.375-0.457 0.41797-1.0391 0.95703-1.332 1.043-0.293 0.08203-1.543-1.418-1.8321-1.668-0.2929-0.25-1-1.125-1.7109-0.58203-0.707 0.53906-1.1641 0.91406-1.1641 0.91406z" fill="#ff6868"/>
<path d="m1181.6 733.31c-0.375-0.54297-0.0859-0.83594 0.5-0.46094 0.5821 0.375 0.875 0.91797 1.375 1.7109 0.5 0.78906 3.3321 4.707 3.625 4.957 0.2891 0.25 0.3321 0.45703 0.1641 1-0.1641 0.54297 0.668 0.25 1.418-0.33203 0.75-0.58594 5.082-4.293 6.207-5.8359 0 0 0.25-0.45703 0.75-0.375 0.5 0.08594 1.168 0.21094 1.168 0.21094s1.125-1 1.375-1.2109c0.25-0.20703-0.9571 1.7109-1.4571 2.375-0.5 0.66797-3.2109 4.668-3.2929 4.9609-0.0821 0.28906-0.125 0.58203-0.625 0.83203s-2.125 1.5-2.418 1.793c-0.2891 0.28906-1.082 0.25-1.2891 0.16406-0.2109-0.08203-0.7929-0.375-0.875-0.53906-0.0859-0.16797-6.625-9.25-6.625-9.25" fill="#ff6868"/>
<path d="m1186.7 738.06s-0.3321-0.29297 0.25-0.29297c0.582 0 0.832-0.16797 1.0429-0.375 0.2071-0.20703 2.5391-0.79297 2.8321-0.79297 0.2929 0 0.4179 0-0.168 0.66797-0.582 0.66797-2.125 2.25-2.457 2.543-0.3321 0.28906-1.0821-1.125-1.5-1.75" fill="#940c35"/>
<path d="m1182.9 732.77c-0.375-0.41797-0.25-0.70703-0.0429-0.70703 0.207 0 1.4179 1.2891 1.75 1.6641 0.332 0.375 0.75 0.75 1.2929 0.46094 0.5391-0.29297 2.125-1.25 2.125-1.25s0.4141-0.16797 1.5821 0.125c1.1679 0.28906 3.457 0.53906 4.0429 0.53906 0.5821 0 0.9571 0.08594 0.7071 0.33594s-0.543 0.75-0.543 0.75-0.5-0.29297-0.75-0.04297-0.7891 1.168-1.082 1.293c-0.293 0.125-1.668-0.125-2.7071 0.16406-1.0429 0.29297-2.875 1-2.9609 1.125-0.082 0.125-0.4141-0.25-0.957-1-0.543-0.75-2.4571-3.457-2.4571-3.457" fill="#331c23"/>
</g>
</g>
</g>
</svg>
