<svg width="2500" height="800" version="1.2" viewBox="0 0 1875 600" xmlns="http://www.w3.org/2000/svg" xmlns:xlink="http://www.w3.org/1999/xlink">
<g stroke-width=".41868">
<g transform="matrix(2.3885 0 0 2.3885 -422.28 -3281.7)">
<use transform="translate(471.01)" width="100%" height="100%" xlink:href="#g3057"/>
<g>
<path d="m689.09 1482.9c0.1914-0.4961-1.5625-0.25-1.5625-0.25s-0.375-0.375-0.125-0.75 0.5-1 0.6875-1.5 2.0625-2.875 3.8125-4.1875 3.625-1.75 5.8125-1.5625 4.5625 1.5625 5.0625 2.375 1.25 1.5625 1.5 2 0.5625 1.9375 0.5625 2.625-0.625 5.5-0.625 5.875-0.125 0.6875-0.6875 0.75-1.9375 2-3.75 2.5625-3.3125 0.375-5.9375-0.4375-3-2.0625-3-2.0625l-0.125-0.6875s-1.9375-3.9375-1.625-4.75"/>
<path d="m694.17 1489.3c-0.3515-0.1679-0.6953-0.3711-1.0234-0.6172-2-1.5-3.25-5.332-2.668-6.164 0.586-0.836 0.836-3.168 0.836-3.168s2.082-1.668 3.914-2.418c1.836-0.75 2.836-0.332 3.336-0.332s2 0.668 2 0.668l0.957 1.457c-3.1953 0-5.1172 0.0586-6.625 2 0.1367-0.0352-0.7734 1.375-0.625 1.375 0.9648 0 2.25 1.0508 2.25 2 0 0.9453-0.4102 1.6211-1.375 1.6211-0.6719 0-1.25-0.375-1.543-0.918-0.0468 0.2813-0.082 0.5664-0.082 0.8594 0 1.6523 0.8086 3.1602 2.1406 4.3125z" fill="#fff"/>
<path d="m725.59 1485.3c-1.1953-0.4141-1.6875-0.875-1.8125-2.5625s0-5.8125 0.875-7 2.5-3.5 3.0625-4.375 3.8125-3.0625 5.75-3.625 4-0.125 4.4375 0.125 3.125 0.6875 4.1875 1.625 2 1.5 2.8125 3.125 1.5625 3.125 1.125 3.3125-2.0625 0.5-2.0625 0.5-0.3125 3.6875-2.25 6.5-1.9375 1.9375-2.625 2.375-3.4375 2.25-8.625 1.75c0 0-3.25-1.1875-4.875-1.75"/>
<path d="m732.01 1485.6c0.4961 0.2734-1.1719 0.0156-1.8008-0.1172-2.0625-0.4375-4-1.375-4-1.375-0.875-0.75-1.1875-1.75-0.8125-4.3125 0 0 0.3125-0.625 0.6875-1.75s1.625-2.8125 2.5-3.75 2.6875-2.4375 3.9375-2.75 3.375-0.9375 4.5625-0.75 2.0625 0.5625 2.0625 0.5625 1.875 0 3.0625 1.25c0 0 1.5625 2.6875 0.3125 2.6875s-3.125-3.25-8-1.875c0 0-3 1.625-3.125 3.75 0 0 1.75-1.375 2.375-0.375s1.5 1.875-0.375 3.875-3.5-0.625-3.5-0.625-0.5273 4.1133 2.1133 5.5547" fill="#fff"/>
<path d="m716.65 1515.6c-0.9375-0.375-1.1875-0.6875-0.75-0.875s-0.3125-0.5625-0.3125-0.5625 0.375-0.625 0.4375-0.8125 0.125-0.625-0.4375-0.375-1.0625 1.25-0.75 1.75 0.1875 1.125 1.0625 1.4375 2.125 0.6875 2.375 0.875 0.9375 0.25 2-0.0625 2.6875-1 3.75-1.875 0.5625-1.125-0.875-0.375-2.6875 1.3125-4.0625 1.3125-2.4375-0.4375-2.4375-0.4375"/>
<path d="m702.65 1501.9c0.7813 0.7266 3 1.875 3.5 1.875s2.75 4.375 3.625 5.25 4 5.375 8.625 1.875 6-10.625 6-10.625c1.75-1.5 2.25-4 2.25-4s1.375 0.25 2.375 0-0.75-1.875-1.875-2-1 0.625-1.25 1-2.375 1-4.25 1.5-4.875-0.625-5.75-0.375-1.625 2-2.375 2.5-1.875 1.125-3 0.25-2.25-1.375-2.875-1.125-2.375 1.875-3.125 2.125-2.5-0.125-3.125-0.25 0.5-1-0.125-1.625-1.5 1.25-2 2.5c0 0-0.25 1.25 0.875 0.625s0.75-1.125 2.5 0.5"/>
<path d="m702.82 1501.1c0.582 0.414 1.75 1.414 2.5 1.664s1.664-0.164 1.664-0.582 0.586-1 1.168-0.5 2.5 1.168 3 1.75 2-0.25 2.832-1.082c0.836-0.836 1.5-1.75 1.75-1.918s1.336 0.25 2.5 0.332c1.168 0.086 4.5-0.5 5.086-1.164 0.582-0.668 2-1.836 2.332-2.586s0.668-1-0.918-0.414c-1.582 0.582-5.082 1.414-6.5 1.082-1.414-0.332-2.75 0.168-3.164 0.918-0.418 0.75-1.918 1.914-3.086 1.832-1.164-0.082-2.664-1.582-3.164-1.582s-1.75 0.332-2.418 1.082-2.332 1.168-3.668 0.582c-1.332-0.582 0.086 0.586 0.086 0.586" fill="#d1512b"/>
<path d="m710.57 1503.6c-0.5117-0.3203 2 1.664 2 1.664s2.582 0.168 4-1.164c1.414-1.336 1.914-2.586 1.914-2.586s-1.414-0.414-2-0.164c-0.582 0.25-2.164 1.664-2.5 2.332-0.332 0.668-2.082 0.75-3.414-0.082" fill="#fff"/>
<path d="m706.82 1503.8c-0.4805-0.3477 2.414-0.418 2.914 0.332s2.25 2.168 2.25 2.168-0.75 0.332-0.414 0.664c0.332 0.336 2.582 0.836 4.75-0.582 2.164-1.418 4.164-3.918 4.832-4.668s2.418-0.582 2.418-0.582-1.668 5-4.25 7.168c-2.586 2.164-4.836 3.582-7.336 1.914-2.5-1.664-3.664-5.332-5.164-6.414" fill="#d1512b"/>
</g>
</g>
<g transform="matrix(2.3885 0 0 2.3885 -422.28 -3281.7)">
<use transform="translate(628.02)" width="100%" height="100%" xlink:href="#g3057"/>
<g>
<path d="m846.09 1482.9c0.1914-0.4961-1.5625-0.25-1.5625-0.25s-0.375-0.375-0.125-0.75 0.5-1 0.6875-1.5 2.0625-2.875 3.8125-4.1875 3.625-1.75 5.8125-1.5625 4.5625 1.5625 5.0625 2.375 1.25 1.5625 1.5 2 0.5625 1.9375 0.5625 2.625-0.625 5.5-0.625 5.875-0.125 0.6875-0.6875 0.75-1.9375 2-3.75 2.5625-3.3125 0.375-5.9375-0.4375-3-2.0625-3-2.0625l-0.125-0.6875s-1.9375-3.9375-1.625-4.75"/>
<path d="m851.18 1489.3c-0.3515-0.1679-0.6953-0.3711-1.0234-0.6172-2-1.5-3.25-5.332-2.668-6.164 0.586-0.836 0.836-3.168 0.836-3.168s2.082-1.668 3.914-2.418c1.836-0.75 2.836-0.332 3.336-0.332s2 0.668 2 0.668l0.957 1.457c-3.1953 0-5.1172 0.0586-6.625 2 0.1367-0.0352-0.7734 1.375-0.625 1.375 0.9648 0 2.25 1.0508 2.25 2 0 0.9453-0.4102 1.6211-1.375 1.6211-0.6719 0-1.25-0.375-1.543-0.918-0.0468 0.2813-0.082 0.5664-0.082 0.8594 0 1.6523 0.8086 3.1602 2.1406 4.3125z" fill="#fff"/>
<path d="m882.59 1485.3c-1.1953-0.4141-1.6875-0.875-1.8125-2.5625s0-5.8125 0.875-7 2.5-3.5 3.0625-4.375 3.8125-3.0625 5.75-3.625 4-0.125 4.4375 0.125 3.125 0.6875 4.1875 1.625 2 1.5 2.8125 3.125 1.5625 3.125 1.125 3.3125-2.0625 0.5-2.0625 0.5-0.3125 3.6875-2.25 6.5-1.9375 1.9375-2.625 2.375-3.4375 2.25-8.625 1.75c0 0-3.25-1.1875-4.875-1.75"/>
<path d="m889.02 1485.6c0.4961 0.2734-1.1719 0.0156-1.8008-0.1172-2.0625-0.4375-4-1.375-4-1.375-0.875-0.75-1.1875-1.75-0.8125-4.3125 0 0 0.3125-0.625 0.6875-1.75s1.625-2.8125 2.5-3.75 2.6875-2.4375 3.9375-2.75 3.375-0.9375 4.5625-0.75 2.0625 0.5625 2.0625 0.5625 1.875 0 3.0625 1.25c0 0 1.5625 2.6875 0.3125 2.6875s-3.125-3.25-8-1.875c0 0-3 1.625-3.125 3.75 0 0 1.75-1.375 2.375-0.375s1.5 1.875-0.375 3.875-3.5-0.625-3.5-0.625-0.5273 4.1133 2.1133 5.5547" fill="#fff"/>
<path d="m859.86 1502c0.8555 0.832 3.2696 2.1211 3.8008 2.1054 0.5352-0.0117 3.7539 5.0274 4.7188 6.0352 0.9609 1.0078 4.457 6.2344 9.2734 1.9492s5.375-12.691 5.375-12.691c1.8164-1.8281 1.625-4.3086 1.625-4.3086s1.6914 0.3281 2.75 0-0.543-2.1367-1.75-2.25-0.9414 0.1445-1.1953 0.5977c-0.2539 0.4531-2.5 1.2578-4.4883 1.9062-1.9844 0.6484-6.1406-0.7031-7.0664-0.3789s-2.3437 2.6875-3.1289 3.3047c-0.7813 0.6133-0.9063 1.0625-2.1367 0.0625-1.2305-1-2.4492-1.5586-3.1094-1.2422s-2.4727 2.293-3.2656 2.6094c-0.7891 0.3203-2.5625-0.4805-3.2344-0.6094s0.9375-1.0312 0.25-1.75c-0.6914-0.7187-2.4648 0.793-2.957 2.2891 0 0-0.2227 1.4843 0.957 0.7109s1.6563-0.207 3.582 1.6602"/>
<path d="m873.28 1517c-0.9375-0.375-1.1875-0.6875-0.75-0.875s-0.3125-0.5625-0.3125-0.5625 0.375-0.625 0.4375-0.8125 0.125-0.625-0.4375-0.375-1.0625 1.25-0.75 1.75 0.1875 1.125 1.0625 1.4375 2.125 0.6875 2.375 0.875 0.9375 0.25 2-0.0625 2.6875-1 3.75-1.875 0.5625-1.125-0.875-0.375-2.6875 1.3125-4.0625 1.3125-2.4375-0.4375-2.4375-0.4375"/>
<path d="m859.78 1500.6c0.582 0.418 1.75 1.418 2.5 1.668s1.75-0.918 2.207-1.293c0.3243-0.2656 0.586-1 1.168-0.5s2.5 1.168 3 1.75 2-0.25 2.832-1.082c0.836-0.836 1.5-1.75 1.75-1.918s1.336 0.25 2.5 0.332c1.168 0.086 4.5-0.5 5.086-1.164 0.582-0.668 2-1.836 2.332-2.586s0.668-1-0.918-0.414c-1.582 0.582-5.414 1.164-6.832 0.832s-2.75 0.168-3.168 0.918c-0.414 0.75-2.414 2.664-3.582 2.582s-2.543-1.957-3.043-1.957-1.0586 0.1914-1.707 0.957c-1.375 1.625-2.875 1.875-4.207 1.293-1.336-0.586 0.082 0.582 0.082 0.582" fill="#d1512b"/>
<path d="m863.15 1503s1.4648 0.5156 1.625 0.875c1.5 3.375 6 7.25 6.5 8.125s2.875 1.25 4.625-0.125 4-4.25 4.375-5.125c0.4414-1.0352 1.75-5.5 1.875-6.375s0-1.75 0-1.75-1.5 1.5-3 2c0 0-2.25 7.125-6.75 8.875 0 0-2.832-1.75-5.375-5.125 0 0-0.75-1.875-1.625-1.875s-2.25 0.5-2.25 0.5" fill="#d1512b"/>
<path d="m867.15 1502.4c-0.4648-0.4219 1.1875 1.5625 1.5625 1.9375s2.125 0.5 4.3125-0.5625c1.5781-0.7656 2.457-2.957 2.457-2.957l-2-0.336s-2.207 2.418-2.832 2.668-2.125 0.5-3.5-0.75" fill="#fff"/>
</g>
</g>
<g transform="matrix(2.3885 0 0 2.3885 -422.28 -3281.7)">
<g id="g3057" stroke-width=".41868">
<path d="m212.72 1556.6c1.5-2.336 4.3359-5.336 4.75-5.918 0.41797-0.582 1.0859-2.082 1.8359-2.832s4.4141-4.836 4.4141-4.836 0-0.332 0.66797-1.414c0.66797-1.086 6.5-7.918 12.582-8.75 6.0859-0.836 26.25-2.75 28.5-2.668s5.5859-0.418 5.8359 0.5 1.6641 3.25 2 3.75c0.33203 0.5 2.4141 5.25 2.4141 5.25s0.58594 0 0.58594 0.25 0.16406 1.418 0.58203 1.832c0.41797 0.418 0.91797 1.586 1.168 2.5 0.25 0.918 3.832 7.75 4.332 8.836 0.5 1.082 1.5 2.832 1.5 2.832v0.832s1.418 2.168 1.918 4c0 0 1.4141-0.832 1.9141-0.582s0.25 2.75 0.25 2.75 0.25 2.582 0.58594 4.082c0.33203 1.5 1.1641 7.75 1 12.918-0.16797 5.168-0.41797 9.918 0.16406 14 0 0 5.5859 10.082 19.336 23.332s18.164 17.668 22.75 24l2 3.086-0.25 0.832-1.0859 0.332s-4.332 7.25-7.9141 11.586c-3.5859 4.332-10 10.664-10.918 11.914s-9.418 7.5-14.082 9.586c-4.668 2.082-16.5 4.332-21.25 2.5-4.75-1.836-11.918-8-15.586-12.586-3.6641-4.582-10.914-16.414-11.664-18.832 0 0-9.293 5.043-17.586 4.25l-1.082 3.418s-0.41797 1.914-1.75 4.164-1.668 3-1.668 3l0.66797-0.25s-2.918 4.918-3.918 6.336c-1 1.414-6.332 7.082-8 8.25-1.6641 1.164-3.4141 3.75-6.4141 4s-3.668 1.832-3.668 1.832-2.457-0.957-3.9375-1.4375-0.89453-0.8945-0.89453-0.8945-3.5-1.586-4.5-2.336-5.668-4.582-13.836-15.914c0 0-1.082-0.75 0.08594-1.086l1.332-0.332s5.5-3.918 9.5-11.582c4-7.668 5.582-15.668 5.582-15.668s-7.082-15.332-4.332-31.582c0 0-0.25-0.75-0.83203-3.418-0.58594-2.668-1.8359-12.332 5.1641-23.082 0 0 1.668-3.75 2-4.668 0.33594-0.918 4.25-7.582 4.668-8.332s1.168-2.836 2.168-4c0 0 1.082-2.586 1.5-3 0 0-0.25-1.086 0.16406-1.668 0.41797-0.582 1.25 0.918 1.25 0.918"/>
<path d="m253.64 1522.3c5.375-1.375 14.25-1.375 15.875-0.625 0 0 0.75-3.5 3.625-5.75v-0.332s2.457-1.961 3.168-2.375c0.70703-0.418 1.1641-2.461 1.25-4.336 0.08203-1.875 1.1641-4.289 7.5-7 6.332-2.707 20.125-10.332 21.375-11.414 0 0 7.7891-5.75 9.707-8.25 0 0 1.25-0.168 1.125-1.711-0.125-1.539-0.66797-2.664-2.082-3.457-1.418-0.793-2.875-1.75-0.75-2.668 2.125-0.914 5.707-4.25 6.625-5.875 0.91406-1.625 1.5391-2.332 0.91406-3.875 0 0-0.78906-1-2-0.957 0 0-3.457-2.625-5.875-3.082 0 0-1.25-0.461-2.25-1.375-1-0.918-0.28906-2.711 1.0859-4.125 1.375-1.418 3.4141-2.875 3.875-6.875 0.45703-4-3.7109-8.5-8.2109-9.543s-14.914-0.668-18-0.832c-3.082-0.168-4.957-0.168-5.875-1.086-0.91406-0.914-2.5-2.125-2.5-2.125s-0.25-0.5 0.21094-0.5c0.45703 0 2.5391 1.086 3.6641 1.375 1.125 0.293 6.293 0.543 7.875-0.125 0 0 0.875-0.25 1.875-0.164 0 0 3.668-1.418 4.3359-2.293 0.66406-0.875 0.58203-2.457 0.28906-3.543-0.28906-1.082 0.5-2.625 1.75-2.75s3.2109-0.125 5.918-0.582 3.957-2.25 4.625-3.293c0.66797-1.039 2.457-4.582 1.293-9.457 0 0-0.79297-2.625-3.0859-4.543 0 0-1.832-2.414-2.75-2.957-0.91406-0.543-0.66406-3.75-0.875-4.957-0.20703-1.211-0.125-3.086-3.25-4.836 0 0-1.957-0.914-2.207-1.414s0.125-2.086 0.45703-2.875c0.33594-0.793 1.0859-4.043-0.41406-5.918s-2.4609-2.75-2.5859-3.375-1.625-1.875-3.2891-2.875c-1.668-1-3.9609-1.25-5.3359-1.293 0 0-4.7891-2.789-11.207-3.664s-14.25-1.086-21.793 2c0 0-5.125 1.957-7.25 4.625 0 0-3.9141 3-4.7891 3.914-0.875 0.918-4.5859 5.875-5.625 11.336-1.043 5.457-0.83594 8.582-0.54297 10.707s1.543 7.25 4.543 12.875c0 0 2.582 3.875 5.25 6.5 0 0 1.0391 0.582 0.125 0.793-0.91797 0.207-3.293 0.957-4.5 2.457 0 0-0.25 1.707-0.08594 2.25 0 0-3.25-0.125-5.7891-0.668-2.543-0.539-7.8359-0.332-11.418 1.668s-4.207 3.957-4.207 3.957 0.16406 7.336 0.03906 9.293c0 0-6.6641-0.25-8.625 1.668 0 0-2.5 1.039-4.9141 4.125-2.418 3.082-2.9609 3.914-3.168 5.875-0.20703 1.957 2.293 6.25 2.5 7.039 0.20703 0.793 0.08203 2.125 0.08203 2.125l-0.375 0.043s-1.6641-1.207-3.832 0.082c-2.168 1.293-5.375 4.418-5.957 6.918-0.58594 2.5-1.75 9.707 3.6641 13.5 0 0 1.125 0.625 0.16797 1.793-0.95703 1.164-3.043 8.207 0.04297 13.789 3.082 5.586 7.4141 5.918 8.625 6.168 1.207 0.25 4.125-0.332 6.4141-2.668 2.293-2.332 6.9609-6.914 13-4.707 6.043 2.207 15.586 5.418 17.293 10.168s5.332 7.125 5.332 7.125z"/>
<path d="m250.34 1425.9c3.3867-0.1367 13.871 0.0899 16.676 0.3125 3.125 0.25 7.875 0.918 11.543 3.543 1.6758 1.2031 2.5938 2.0078 3.0938 2.5312 0.37109-0.0156 0.80469 0.0821 1.3008 0.3633 1.875 1.0625 1.875 1.5625 6.4375 1.6875s8.875-2.4375 9.5-2.9375 0.25-1.625-0.0625-3.25 1.4375-2.625 3.0625-2.6875 4.8125-0.3125 6.0625-1.125 3.25-1.375 3.25-1.375 2.25-3 2-6.75-1.9375-6.125-5.875-9.625c0 0-0.0625 1.6875 0.375 2.1875s1.1875 3.125 1.1875 3.125 0.0625 1 0.875 1.5 1.1875 0.6875 1.6875 0.625-0.1875 1-1.4375 0.3125-2.625-1.875-2.6875-2.5625-0.8125-3.375-1.125-3.75-0.375-2.25-0.4375-3.875 0.5-4.8125-2.25-6.75-3.5-3-2.625-5.6875 0.1875-5.375-1.25-6.8125c0 0-0.5-1.125-0.875-1.5625s-0.375-1.625-3.25-3-5.875-1.5625-5.875-1.5625-6.5625-3.9375-17.188-3.125-11.062 0.875-14.625 2.75c0 0-3.1875 1.6875-3.625 1.8125 0 0-2.6875 2.0625-3.3125 2.5s-6.25 3.6875-9.5 13.375 2.75 22.062 5.0625 25.188c1.6406 2.2188 2.9883 3.6992 3.8867 4.625" fill="#6bb094"/>
<path d="m313.26 1472.3c1.5-1.3125 5.1875-3.75 6.5625-5.0625s0.3125-2.6875 0.3125-2.6875-3.25-2.25-4.25-2.5625-3.6875-1.3125-4.6875-2-0.75-2.1875-0.75-2.1875l-0.5-0.3125s0.25-2.5625 2.625-4.3125 1.8125-6.1875 0.8125-8.75-2.4375-4.5-7.5625-5.1875-10.938-0.3125-15.375-0.3125-5.4375-0.8125-6.75-1.75c-0.94922-0.6758-2.4062-1.7383-3.1484-2.539-0.30469 0.0429-0.69531 0.0664-1.1641 0.121-1.082 0.125-3.918 0.211-4.918 1.543 0 0-5.7891-0.832-7.9141-1s-5.2109-0.582-8.168-0.375-2.293-1.207-4.25-1.457-7.207 1.625-7.707 1.914c-0.23047 0.1368-0.52344 0.1563-0.79688 0.1094-0.09765 0.1172-0.23437 0.1758-0.43359 0.1211-0.875-0.25-3.125-2-3.6875-2.1875s-1.375-0.1875-1.375-0.1875-3.1875-1.8125-7.75-0.9375-6.4375 3.9375-6.75 4.625-0.4375 1.875-0.25 2.875 0.1875 6.875-0.3125 7.875-1.6875-0.5-2.25-0.5625-0.75 0.375-0.75 0.375-0.25-0.625-2.75-0.3125-6.4375 2.5-8.125 5.375-2.625 5.875-2.5 6.25 2.3125 5.125 1.8125 9c0 0-0.125 1.375-2.1875 0.75s-3.8125 0.125-6.375 3.125-1.625 9.125-0.9375 10.75 2.1875 3.4375 3.5 4.1875 1 2.125 0.1875 3.375c0 0-2.0625 2-1.3125 8.125s4.125 9.0625 7.6875 9.8125 6-1.75 8.6875-3.875 5.8125-4.4375 11.188-2.9375 11.562 4.8125 14.062 6.1875 3.625 3.0625 4.0625 4.3125 2.25 4.6875 3.875 5.625 1.9375 1.875 1.9375 1.875l1.0625-0.1875c2.9375-0.5625 8.9375-0.9375 10.875-0.5s2.6875-0.625 2.6875-0.875 0.625-2.1875 2.125-3.125 2.0625-1.125 2.8125-1.6875 1.3125-1.25 1.375-3.25-0.25-2.5 1-4 1.25-1.625 2.5-2.3125 4.3125-2.25 7.625-4 10.438-5.9375 14.375-7.9375c0 0 9.3125-5.5625 11.375-7.125s3.0625-3.3125 2.5625-4.6875c0 0-0.5625-0.75-0.875-1.375 0 0-2.375-1.0625-2.5625-2.375s-0.0625-2.0625 1.4375-3.375" fill="#6bb094"/>
<path d="m275.2 1375.3c-3.5 0.875-5.25 0.5-7 1.75 0 0-10.625 7.625-16.625 21.375 0 0-0.875 4.125-1.5 7.25s0.375 8.75 1.75 13.875c0 0 2.625 4.5 6 6.875" fill="none" stroke="#000" stroke-miterlimit="10" stroke-width=".31401"/>
<path d="m292.7 1379c-1.875 0.125-4.3125 0.1875-5.9375 0.6875s-8.25 3-14.062 12.875-6 21.875-6 23.062 0.1875 4.625 0.9375 6.5 2.375 4.4375 2.5625 5.25" fill="none" stroke="#000" stroke-miterlimit="10" stroke-width=".31401"/>
<path d="m281.01 1432.8c1.9375 0 4.3125-1.0625 5.25-1.125s3.125-1.5 3.9375-2.1875 5.25-6 5.625-12.688-2.5625-9.375-2.8125-9.75-1-1.75 0.5-2.75 3-1.75 3.625-2.3125 0.875-2.5 0.1875-3.125-5.25-4.75-5.625-5.5625-0.5-3.75-0.4375-6.0625 0.125-4.1875-0.9375-5.6875-3.5625-0.375-4.6875 0.0625-4.75 2.75-6.25 4.1875-3.8125 4.5625-4.6875 5.875-1.625 4.25-2.3125 5.75-2.125 3.5625-3.25 7.25-1.375 9.625-0.5625 14.062 2.5625 7.75 3 9" fill="none" stroke="#000" stroke-miterlimit="10" stroke-width=".31401"/>
<path d="m282.64 1433.3c0.625-0.125 2.6875-0.5625 3.3125-0.6875s2.4375-1.4375 3.1875-2.125" fill="none" stroke="#000" stroke-miterlimit="10" stroke-width=".31401"/>
<path d="m305.01 1438.8c1.8125 0.5625 4.125 1.4375 5.9375 3.4375s3.0625 3.9375 2.25 6.4375-3.375 5.6875-4.75 6.8125-0.1875 3.8125 1.375 4.9375 3.9375 2.3125 4.375 2.5 1.25 1.25 1.25 1.25 1.3125 0.6875 1.875 1.25 1.1875 2.75 0 4.1875-5 3.75-5.9375 4.5-0.75 2.25 1.0625 4.0625 2.1875 4.0625-2.0625 7.9375" fill="none" stroke="#000" stroke-miterlimit="10" stroke-width=".31401"/>
<path d="m273.51 1435.8c1.1875 0.75 1.0625 2.4375 1.0625 3.125s-0.5 3.125 1.25 3.75 6.0625 0.6875 8.25 0.25 5.0625-0.6875 5.6875 0.0625 1.8125 2.125 1.75 5.875 7.3125 6.6875 9.6875 8.75 6.125 6.8125 5.25 14.75c0 0-2.875 10.062-11.312 17.5s-12.688 10.875-26.125 13.938-6.625 14.875-6.625 14.875" fill="none" stroke="#000" stroke-miterlimit="10" stroke-width=".31401"/>
<path d="m272.82 1435.8c0.8125 0.8125 1.625 1.9375 1.5 4.5s-0.25 3.6875 1.6875 4.25 3.25 0.3125 5.625-1.5625 4.5625-2.5 7.4375-1.3125 2.6875 2.1875 2.6875 2.1875 0.375 5.3125 0.0625 7.0625 8.125 5.375 8.125 5.375" fill="none" stroke="#000" stroke-miterlimit="10" stroke-width=".31401"/>
<path d="m274.26 1437.7c-0.875-1-4.3125-1.6875-6.25-1.6875s-7.5625-0.4375-8.9375-0.3125-2.875 1.0625-4.1875 0.125-1.9375-1.25-4-0.4375-4.875 1.6875-6.5 3.25-1.625 3.4375-1.8125 4-0.5625 3.5-3.75 3.375-6.0625-0.125-8.9375-0.4375-5.75 2.75-7.0625 4.6875-1.4375 3.25-1.5625 3.875-0.3125 4.125-1.3125 5" fill="none" stroke="#000" stroke-miterlimit="10" stroke-width=".31401"/>
<path d="m245.51 1435.3c-0.8125 0.6875-1.5 1.375-2.0625 1.625s-2.0625 0.9375-2.375 2.4375-0.5 2.1875-0.5 4.3125-2.6875 2.25-3.3125 2.25-6.25-0.5-7.125-0.8125-3.3125 0.4375-6.25 3.3125-2.5 6.25-2.5 6.25-0.125 3.9375-2.125 4.625" fill="none" stroke="#000" stroke-miterlimit="10" stroke-width=".31401"/>
<path d="m273.22 1502.8s4.417-4.249 10.085-6.335c5.6641-2.082 11.582-11.914 12.164-14.25 0.58594-2.332 1.168-3.25 1.8359-6.164 0.66406-2.918 0.25-8.836-0.25-10.75-0.5-1.918-2.5859-5.586-3.8359-6.5-1.25-0.918-2.332-2.418-3.9141-3.668-1.5859-1.25-3.418-2.25-5.8359-2.582-2.4141-0.336-7.4141 0.25-10.249 1.25-3.001 1-6.251 1.332-7.915 0.914-1.668-0.414-2.75-3.082-2.8359-4.082-0.08203-1-1.4141-2.082-1.4141-2.082s-1.2539-0.5-4.0039 0.414c-2.75 0.918-3.6641 2.5-5.6641 4.5s-3.168 1.5-3.168 1.5-1.918-1.75-4.082-2.75c-2.168-1-5.25-0.75-6.5-0.332s-4.0859 3.082-4.75 3.832c-0.66797 0.75-0.25 1.25-2.25 3.5s-3.418 2.418-4 2.418c-0.58594 0-3.168-1-4.75-2-1.5859-1-3.3359-0.168-4.3359 0.418-1 0.582-3.832 2.832-4.1641 6.582-0.33594 3.75-2.0859 6.75-2.0859 6.75l-0.83203 0.5c-1.332-1.832-3.5-0.832-3.5-0.832l-1.25 1.664c-1.25 4.086 0.16797 9.5 0.58203 10.918 0.41797 1.418 1.0859 1-0.25 4.5-1.332 3.5-0.75 7.25 0 9s1.0859 4.418 4.3359 5.918 4.6641-0.418 6.4141-1.25c0 0 2.0859-2.586 5.918-4.086s6.832-1.832 7 1.336" fill="none" stroke="#000" stroke-miterlimit="10" stroke-width=".31401"/>
<path d="m209.55 1468.1c0.25147 1.501 0.25147 4.251-0.1665 5.001" fill="none" stroke="#000" stroke-miterlimit="10" stroke-width=".31401"/>
<path d="m213.3 1467.3c0.50147-2.585 4.1655-5.749 7.5835-5.249s5.332 0.75 7.918-1.168" fill="none" stroke="#000" stroke-miterlimit="10" stroke-width=".31401"/>
<path d="m215.89 1463.7c1.418-0.665 3.75-0.251 5.25 0.749s5.75-0.25 8.168-2.332c2.4141-2.082 3.6641-5.5 5.582-7.082 1.918-1.586 3.332-2.75 5.582-2.586 2.25 0.168 4.418 2.5 4.418 2.5s2 1.918 2.5 2.168 3.082 0.25 4-0.332c0.91797-0.586 3.082-2.75 4.5-3.418s2.668-0.25 2.5 0.418c-0.16797 0.664-1.25 4.082 2.082 5.082 3.3359 1 2.5 1.168 5.3359 0.832 2.832-0.332 10.582-2.164 13.832-1.414s7.332 3.582 9.418 7.664c2.082 4.086 2.4141 8.086 0.41406 14.336s-4.5 11-7.082 13.664c-2.582 2.668-6.082 6.586-7.918 7.75" fill="none" stroke="#000" stroke-miterlimit="10" stroke-width=".31401"/>
<path d="m249.97 1457.2s-0.5835 0.585-1.0015 1.085c-0.41406 0.5-0.83203 0.664-3.5 0.5-2.6641-0.168-1.6641-0.668-2.6641-1.836-1-1.164-1.8359-1.664-4.75-0.25-2.918 1.418-2.8359 3.836-3.3359 4.336s-4 3.5-7.082 5.5c0 0-8.582 6-8.918 9.5-0.33203 3.5 1 8.5 10.668 10.164 9.668 1.668 15.832 6.668 15.332 12.836-0.5 6.164-0.66406 8.164-0.66406 8.164" fill="none" stroke="#000" stroke-miterlimit="10" stroke-width=".31401"/>
<path d="m244.47 1454.6c2.2485 1.915 3.7485 2.333 5.4985 1.583s3.3359-2.75 4.8359-3.582c1.5-0.836 3.582-1.75 4.582-0.668s0.41797 2.667 1.168 3.168c0.75 0.5 3.332 2.664 8.082 1.664s15.75-2.165 18.75 0.5l4 3.168 0.16797 0.832s4.332 4.168 3.75 11.086c-0.58594 6.914 0.75 9.582-6.75 18.914 0 0-3.0859 3.918-6.0859 5.5" fill="none" stroke="#000" stroke-miterlimit="10" stroke-width=".31401"/>
<path d="m249.47 1426c1.75-0.25 14.418 0 17.543 0.25s7.875 0.918 11.543 3.543c3.6641 2.625 3.707 3.375 3.707 3.375s-1.082 0.539-1.082 1c0 0.457-0.71094 0.414-1.793 0.539s-3.918 0.211-4.918 1.543c0 0-5.7891-0.832-7.9141-1s-5.2109-0.582-8.168-0.375-2.293-1.207-4.25-1.457-7.207 1.625-7.707 1.914c-0.5 0.293-1.293 0.086-1.543-0.289s0.375-1.961 0.375-2.875c0-0.918-0.16797-2.293 0.95703-2.918s3.793-1.293 4.293-1.793-1.043-1.457-1.043-1.457"/>
<path d="m250.64 1428.1c3.543-0.25 7.418-0.25 10.625-0.125s6.332 0.832 7.332 0.832 3.0859-0.043 4.5859 0.75 7.332 3.582 7.4141 3.957c0.08594 0.375-0.66406 0.586-1.5 0.586-0.83203 0-1.375-0.086-1.832-0.086s-1.082 0.043-1.707 0.586c-0.625 0.539-2.293 0.875-2.543 0.789-0.25-0.082-2.582-0.914-4.582-1-2-0.082-7.75-0.332-8.543-0.207s-2.293 0.125-3-0.418c-0.70703-0.539-1.582-1.082-3.418-0.957-1.832 0.125-3.625 0.168-4.1641 0.375-0.54297 0.207-0.54297-0.332-1.2109-0.168-0.66406 0.168-1.5 1.211-1.707 1.75-0.20703 0.543-0.83203 0.043-0.83203-0.5 0-0.539 0.03906-1.875 1.082-2.75s0.75-0.957 0.20703-0.914c-0.53906 0.039-0.70703-0.625 0.25-1.418 0.96094-0.793 3.543-1.082 3.543-1.082" fill="#4a002e"/>
<path d="m243.22 1514.8c1.25 2.582 1.5 7.5 1.5859 8.25l0.16406 2.5s-10.5 7.582-11.332 8.164c0 0-2.082 0.75-3.082 1.586-1 0.832-1.918 1.664-1.8359 2.25 0.08594 0.582 0.66797 1.75 0.08594 4.25-0.58594 2.5-1.3359 5.664-1.3359 6.664s-0.16406 11.418-0.16406 12.5c0 1.086 1.6641 1.75 3.332 2.336 1.668 0.582 4 1.164 4.918 1.164 0.91406 0 5.5 0.418 7.582 0.168s9.582-1.918 10.332-2.5 6.418-6.082 10.25-11.332c3.8359-5.25 8-10.5 9.0859-17.168 0 0-3.668-7.5-4.8359-8.418 0 0 1-6.914 1.5859-9.75 0.58203-2.832 1.25-7.664 2.75-11.082s-5.8359 0.332-7.8359 2.168c-2 1.832-12.332 7.664-19.082 8.25z"/>
<path d="m244.95 1516.1c0.5 1.625 1.3125 7 1.3125 10.125s0.25 8.6875-1.8125 9.1875c0 0-0.5625 0.25 0.1875-2.0625s0.4375-7.0625 0.4375-7.0625-7.0625 5.625-8.875 7.125-5.625 4.5-5.75 5-0.75 4.125-1.4375 6.5625-0.75 4.25-0.8125 6.6875-0.375 9.1875-0.375 9.1875 1.875 2.0625 4.25 2.4375 4.4375 0.3125 5.25 0.8125c0 0 6.4375 0.25 9.75-0.625s7.875-3.8125 8.125-4.125 10.938-12.188 12.812-15.75 3.875-6.75 4.125-8.875c0 0-4.0625-6.4375-4.5625-6.875 0 0-0.1875 4.75-0.875 5.3125s-1-0.6875-0.75-2.5625 1.875-11.438 2.375-14 2-10.312 1.9375-10.625 0.375-1.4375-2.875 0.5625-5 4.1875-11.812 6.75-10.625 2.8125-10.625 2.8125" fill="#cf8768"/>
<path d="m245.89 1525.6c-3.125 1-4.25 1.8125-7.625 4.4375s-4 3.8125-4.375 5.5-1.1875 13.062-1.1875 13.062-0.375 1.625-0.1875 2.125 0.1875 2.4375 2.8125 4.5625 3.4375 3.25 3.4375 3.25 3.125 0.4375 5.0625 0.25 4.0625-1.8125 5.25-2.875 3.5-3.4375 3.5-3.4375l7.75-7.75 5.6875-6.9375s0.6875-0.75 1.3125-1.6875 2.875-4.8125 2.25-6.4375-1.1875-3.4375-2.375-4.0625" fill="none" stroke="#000" stroke-miterlimit="10" stroke-width=".25121"/>
<path d="m244.01 1528.3c-0.81641 0.8516-3.375 2.332-4.625 0.082s0-3.039 0.58203-3.75c0.58594-0.707 1.9609-0.5 2.8359 0.043s2.2891 2.5 1.207 3.625"/>
<path d="m233.59 1532c0-1.0703 0.125-1.668 0.66797-2.418s1.707-1.289 2.793-1.125c1.082 0.168 2.125 1.5 1.957 2.793s-0.54297 2.168-1.625 2.668-2.082 0.164-2.625-0.168-1.168-0.832-1.168-1.75"/>
<path d="m231.14 1538.5c0.54297-0.5 1.832-1.289 3.293-1.332 1.457-0.043 2.2891 1.25 2.5391 1.875s0.66797 2.293-0.5 3.25c-1.1641 0.957-2.375 1.543-4.125 1.043s-0.83203-0.711-0.83203-0.711-1.543-1.039-0.95703-2.582z"/>
<path d="m230.14 1551.6c-1.082-1-1.082-2.582-0.75-3.5 0.33203-0.914 2.043-1.75 2.918-1.875s2.1641 0.293 2.875 1.25c0.70703 0.961 0.91406 2.625 0.28906 3.461-0.625 0.832-1.957 1.789-3.375 1.457-1.4141-0.332-1.957-0.793-1.957-0.793"/>
<path d="m232.26 1557.1c0.29297-1.1406 1.457-2.375 2.918-3.082 1.457-0.711 3.582 0.082 3.9141 0.375 0.33594 0.289 2.5859 3.164 1.3359 5.082s-3 2.457-3.625 2.457-2.25 0.043-3.25-1.164c-1-1.211-1.668-2.211-1.293-3.668"/>
<path d="m245.05 1560.5c-1.5547-0.3633-2.043-1.293-1.8359-2.918 0.21094-1.625 1.418-2.75 2.5-2.914 1.0859-0.168 2.4609-0.211 3.0859 0.332s1.5 1.25 1.2891 2.543c-0.20703 1.289-0.33203 1.914-1.25 2.414-0.91406 0.5-1.832 1-3.7891 0.543"/>
<path d="m255.01 1554.2c-1.3008 0.3476-2.582 0.457-4-0.875-1.418-1.336-0.04297-3.668 1.168-4.086 1.207-0.414 2.4141-0.832 3.082-0.164 0.66797 0.664 1.707 0.957 1.582 2.207s-0.125 2.457-1.832 2.918"/>
<path d="m260.26 1546.9c-1.4297-0.082-2-0.75-2.293-1.875-0.28906-1.125-0.33203-2.168 0.33594-3 0.66406-0.836 1.875-1.418 3.207-1.125 1.332 0.289 2.082 1.164 2.25 1.539s0.58203 1.793 0.20703 2.461c-0.375 0.664-0.95703 1.289-1.75 1.707-0.78906 0.418-1.207 0.332-1.957 0.293"/>
<path d="m264.09 1537.6c-0.16406-0.668-0.08203-1.75 0.41797-2.336 0.5-0.582 1.75-1.039 3.125-1.039s2.125 2.125 2 2.875-0.875 2.039-1.832 2.25c-0.96094 0.207-2.043 0.5-2.7109 0.25-0.66406-0.25-1-2-1-2"/>
<path d="m267.89 1530.9c-0.33203-1.082-0.33203-2.543 0.08203-3.293 0.41797-0.75 1.125-1.375 3.168-1.164 2.043 0.207 2.293 3.164 2.082 3.832-0.20703 0.668-1.2891 2.293-2.7891 2.457-1.5 0.168-2.2109-0.75-2.543-1.832"/>
<path d="m242.55 1525.8c-0.54297-0.664-1.0859-1.039-1.625-0.75-0.54297 0.293-0.83594 1.125-0.83594 1.961 0 0.832 0.5 1.625 1 1.707s1.418 0.082 1.918-0.832c0.5-0.918-0.45703-2.086-0.45703-2.086" fill="#dec785"/>
<path d="m235.05 1530c0.625-0.668 1.375-1.168 1.9141-0.625 0.54297 0.543 1.168 1.582 1 2.543-0.16406 0.957-1.1641 1.832-2.1641 1.207s-1.375-1.168-1.25-1.875 0.5-1.25 0.5-1.25" fill="#dec785"/>
<path d="m232.47 1542.3c-0.5-0.25-1.25-1.457-0.83203-2.582s1.375-1.918 2.418-1.832c1.0391 0.082 1.7891 0.957 2.0391 1.582s0.29297 2.293-1.1641 3.082c-1.4609 0.793-0.96094-1-0.96094-1s-0.53906-0.789-1.125 0c-0.58203 0.793-0.375 0.75-0.375 0.75" fill="#dec785"/>
<path d="m230.89 1551.1c-0.77344-0.5938-0.75-1.375-0.66797-2.168 0.08594-0.793 0.79297-1.125 1.2109-1.457 0.41406-0.336 1.4141-0.625 2.0391-0.293s1.293 1.457 1.418 2.082-0.5 1.836-1.457 2.211c-0.96094 0.375-1.8359 0.164-2.543-0.375" fill="#dec785"/>
<path d="m233.93 1559.3c-0.46094-1.293-0.46094-2.168 0-2.957 0.45703-0.793 1.75-1.793 2.2891-1.836 0.54297-0.039 1.5-0.289 2.2109 0.543 0.70703 0.832 1.4141 1.875 1.25 2.832 0 0-0.58594 0.211-1 0.211-0.41797 0-0.91797 0.75-0.16797 1.039 0.75 0.293 1 0.086 1 0.086s-1.293 1.664-1.918 1.914-2.1641 0-2.625-0.414c-0.45703-0.418-1.0391-1.418-1.0391-1.418" fill="#dec785"/>
<path d="m246.8 1560c-0.71485 0-2.168-0.625-2.375-2.293-0.21094-1.664 1.2891-2.5 1.875-2.539 0.58203-0.043 1.832 0.332 2.125 1.125 0.28906 0.789 0.28906 1.707 0.28906 1.707s0.625 0.125 0.33594 0.543c-0.29297 0.414-0.21094 1.457-2.25 1.457" fill="#dec785"/>
<path d="m253.26 1553.5c-0.77344-0.1914-1.457-0.418-1.832-1.707-0.375-1.293 1.25-2 1.625-2.168s1.25-0.457 1.9141 0.375c0.66797 0.832 0.75 1.75 0.71094 2.125-0.04297 0.375-0.75 1.793-2.418 1.375" fill="#dec785"/>
<path d="m262.01 1545.8c-0.875 0.375-2.125 0.375-2.75-0.086-0.625-0.457-0.58203-2.207-0.5-2.539 0.08203-0.336 0.83203-1.461 1.793-1.711 0.95703-0.25 2 0.375 2.207 1.211 0.20703 0.832 0.58203 1.75 0.20703 2.207s-0.95703 0.918-0.95703 0.918" fill="#dec785"/>
<path d="m265.01 1536.7c-0.08203-0.625 0.58203-1.332 1.25-1.625 0.66797-0.289 1.418 0.043 1.75 0.586 0.33203 0.539 0.625 1.707 0.5 2-0.125 0.289-0.875 0.914-1.668 1.082-0.78906 0.168-1.5-0.582-1.5-1.043 0-0.457-0.33203-1-0.33203-1" fill="#dec785"/>
<path d="m268.43 1530.1c0.03515-0.7109 0-1.789 0.875-2.457s1.5-0.332 2.1641 0.293c0.66797 0.625 0.91797 1.75 0.41797 2.625s-0.54297 1-1.293 0.875-0.16406-1.336-0.375-1.375c-0.20703-0.043-0.66406-0.793-0.875 0.25-0.20703 1.039-0.33203 0.707-0.33203 0.707s-0.625-0.125-0.58203-0.918" fill="#dec785"/>
<path d="m212.14 1485.3c1.4609-5.5117 1.582-7.168 6.082-12.918s17.5-10.332 17.5-10.332 4-0.668 5.3359-1.336c1.332-0.664 18.082-1.832 25.914 1.836l3 1.082s3.0859 1.582 3.8359 1.918c0 0 4.1641 2.914 4.5 4l0.33203-0.086 2.418 2.168 0.41406 0.168s3.5 4.164 2.25 12.832-4.582 12.332-4.582 12.332-8.418 9.5-8.832 10.418c-0.41797 0.918-0.83594 2.75-1.8359 3.418-1 0.664-8.5 7.664-15.832 9.414s-24.582-5.414-24.582-5.414-5.418-2.836-8.3359-5.5c-2.9141-2.668-6-8.336-6-8.336s-2.4141-4.582-2.1641-6c0.25-1.414-0.5-5.582 0.58203-9.664"/>
<path d="m214.05 1484.1c1.332-4.668 3.832-8.918 4.75-10.168 0 0 4.582-5.25 11.914-8.668 0 0 4.75-1.75 6.918-2.5s11.918-2.664 24.082-0.25c0 0 5.5859 1.75 6.75 2.168 1.168 0.418 5.25 2.332 5.918 2.668 0.66797 0.332 1.832 1.75 1.832 1.75s1 0.582 1.418 1.082 3.168 3.418 3.168 3.418 0.83203 8.75 0 15.582c0 0-0.5 3.668-1.5859 5.418-1.082 1.75-10.414 14.332-24 22.414l-4.332 2.168s-5.918 1.168-21.832-5.918c0 0-7.25-4.164-9.168-6.332s-8.832-11.168-7.168-17.668z" fill="#cf8768"/>
<path d="m216.8 1495.5c-2.168-2.664-3.668-4.25-3.25-5.832 0.41406-1.582 2.25-2.668 3.4141-2 1.168 0.668 2.8359 1.918 4.75 4.082 1.918 2.168 3.918 4.336 1.75 6.586-2.1641 2.25-4.5 0-4.5 0z" fill="#d1512b"/>
<path d="m261.8 1491.2c3.375-2.6132 6.1641-4.332 7.25-5.582 1.082-1.25 3.75-3.5 5.4141-3.5 1.668 0 2.918 1.832 2.918 1.832s2 2.336-1.332 4.75c-3.3359 2.418-6.8359 5.586-8.0859 6.75-1.25 1.168-3.75 3.668-6.25 1.918-2.4961-1.75-2.4961-4.168 0.08594-6.168" fill="#d1512b"/>
<path d="m249.76 1471.6-1.75-0.25 0.25-0.5v-0.5s1.5625-1.375 2.0625-2.0625 4.5-2.9375 6.5625-3.5c0 0 0.875-0.5 1.5-0.625s2.1875-0.0625 2.6875-0.1875 3.4375 0.125 3.9375 0.9375c0 0-0.375 0.25-1.375 0.125s-0.875-0.625-4-0.3125c0 0-2.375 1-3.0625 1.5s-3.125 2.0625-3.5625 2.3125-1.6875 1.5-1.875 1.625-1.375 1.4375-1.375 1.4375"/>
<path d="m219.45 1472.2c0.75-0.375 3.8125-1.8125 4.4375-1.8125s1.9375 0.25 2.4375 0.5 2.5 1.3125 2.75 1.4375 0.0625 0.5625 0.5 0.5625 1.3125 0.4375 1.3125 0.4375 0.6875-0.1875 0.9375-0.5625-0.25-1-0.6875-1.125-2.75-1.375-3.4375-1.5625-3.5625-0.0625-3.5625-0.0625-2.9375 0.6875-3.4375 0.9375-1.25 1.25-1.25 1.25"/>
<path d="m237.64 1491.1c0.75-1.6875 1.6875-4.6875 2.0625-6.0625s1.1875-3.125 1.1875-3.125 0.3125 1.0625 0.1875 2.625 0.625 4.375 1.875 5.375c0 0 6.5625-0.9375 7.9375 0.5625s-0.6875 2.125-1.625 2.4375-4.9375 1.75-7.875 2-6.875 0.1875-7.75-0.0625-1.5625-1 0.75-2.375 3.25-1.375 3.25-1.375" fill="#d1512b"/>
<path d="m234.51 1491.8v0.375s-1.5 0.8125-1.875 1.0625-0.25 0.5625 0 0.6875 0.5-0.625 1.75-0.625 1.8125 0.1875 2.0625 0.4375 1.5 0.4375 1.5 0.4375-0.75 0.3125-1.1875 0.3125-2.25-0.3125-1.875-0.0625-0.9375 0.1875-1.5625 0.0625-2-0.6875-1.4375-1.1875 2.625-1.5 2.625-1.5"/>
<path d="m240.57 1494.3c-0.75 0.0625-1.125-0.1875-0.4375-0.375s2.4375-1.0625 3.1875-1.6875 1.4375-0.75 2.375-0.8125 1.8125 0.1875 1.75 0.6875-1.75 0.6875-2.125 0.8125-4.75 1.375-4.75 1.375"/>
<path d="m249.07 1490c-0.375 0.0664-0.375-0.25 0.125-0.4375s1.25 0.0625 1.5625 0.25 1.375 0.6875 1.4375 0.9375-0.125 0.875-0.9375 1.1875-1.25 0.0625-1.25 0.0625-0.75 0.3125-1.1875 0.375 0.375-0.5 1.375-0.8125 1.125-0.5625 0.5625-0.8125-1-0.875-1.6875-0.75"/>
<path d="m278.89 1482.6c-3 2.918-8.25 4.582-10.168 5.082-1.9141 0.5-9.332 0.668-10.414 0.668-1.0859 0-3-0.668-3-0.668-3-0.082-5.75-1.664-7.3359-2.582-1.582-0.918-1.4141-2.668-1.4141-2.668-0.83594-3.082-1.168-10.664-1.168-10.664l0.41797-0.586c-0.16797-3.582 2.4141-5.5 4.832-6.5s11.168-4.164 11.168-4.164c13.914-2.336 18-1.418 18-1.418 2.1641 6.082 2 16.418 2 16.418s0.08203 4.164-2.918 7.082m-45.582 6.332s-6.168 3.5-12.086 3.5c-5.9141 0-10.664-1.332-12.164-2.164-1.5-0.836-5.0859-5-5.3359-8.5s0.16797-11.25 0.16797-11.25c0.08203-2.336-0.33203-4.25 1.582-4.086 1.918 0.168 8-0.5 10-0.25s11.418 1.668 12.5 2.086c1.0859 0.414 3 0.414 3 0.414s2.168 0.5 3.168 7.418-0.83203 12.832-0.83203 12.832m58.75-10.914c-1.0859 0-3.75 0.164-5.3359 0.25-1.582 0.082-1.75-0.336-1.75-0.336 0.5-1.75 0.75-10.5 0.33594-11.832-0.41797-1.332-0.25-2.75-0.25-2.75s0.91406-0.082 1.6641-0.75 1-2.832 0.75-4.832-0.66406-3.336-1.582-3.5c-0.91797-0.168-3.75-0.086-3.75-0.086s-1.082-0.25-2.25-0.25-3.832 0.75-14 2.086c-10.168 1.332-20 7.164-20 7.164l-1.332 0.418c-1.75 1.168-2.168 2.332-2.168 2.332-0.83203 4.086 0.08203 11.5 0.08203 11.5-3.75 1.75-5.1641 0.5-5.1641 0.5 0.16406-1.164-0.33594-5.914-0.33594-5.914-0.41406-0.25-0.75-1.918-0.75-1.918s-0.08203-2.5-2-3.582c-1.9141-1.086-7.332-2.336-12.332-3.75-5-1.418-20 0.582-21.418 0.914-1.4141 0.336-0.83203 1.168-0.83203 1.168l-0.75 0.332-0.5 4.836c-0.83203 0.5 0.16797 0.914 0.16797 0.914l2 1.086s-1.3359 7.75 0.58203 13.082 7.582 8.25 7.582 8.25 2.25 0.582 5 1.332 9.5 0.418 9.5 0.418 2.25-0.582 4.5859-1c2.332-0.418 6.707-2.3125 8.082-4.25s1.332-10.25 1.332-10.25c2.5859 0.418 5.5859-0.25 5.5859-0.25s0.16406 2.168 0.83203 4.582c0.66797 2.418 1.332 2.836 2.168 3.336 0.83203 0.5 2.9141 1.75 2.9141 1.75 4 1.082 5.668 2.082 7.5 2.332 1.8359 0.25 5.168 0.082 7 0.082 1.8359 0 5.0859-0.5 5.75-0.75 0.66797-0.25 2.75-0.25 2.75-0.25s-0.08203-0.582 3.75-1.664c3.8359-1.086 5.418-5.25 6.0859-5 0.66406 0.25 7 0.664 8.25 0.164s3.75-0.25 3.75-0.25c0.58203-0.914 1.25-4.5 1.25-4.5s-1.668-1.164-2.75-1.164" fill="#4a002e"/>
<path d="m204.14 1488.9c-2.9375-0.1367-6.4375 1.1875-7.8125 1.9375s-7.375 4.875-8.5 10.562 1.125 10.188 1.125 10.188 0.5625 2.1875 3.0625 4.375 6.75 5.5625 13.812 4.8125 10.188-4.8125 12.125-7.6875 1.4375-5.375 1.4375-5.375l2.1875 2.75c-1.75 6.6875-6.5 10.875-12.438 12.875s-9.8125 0.1875-13.438-1.25-7.3125-6.875-7.9375-7.8125-0.6875-1.875-0.6875-1.875c-0.4375-0.875-0.9375-2.375-1.375-6.625s0.8125-7.6875 3.3125-11.5 6.1875-6.0625 8.1875-6.875 4.0625-0.875 6-0.875c0 0 4.5-0.0625 8.625 1.5625l0.1875 3.25s-1.0625-2.125-7.875-2.4375" fill="#4a002e"/>
<path d="m293.32 1486.8c2.375-0.375 5.875-1 8.4375-0.375s6.4375 2.4375 7.9375 4.1875 3.375 3.4375 3.6875 5.125c0 0 1.3125 1.5625 1.3125 7.375s-5.4375 11-5.4375 11-3.9375 4-12.062 4.125c0 0-5-0.6875-8.625-3.1875s-5.1875-5.5625-5.1875-5.5625l-0.0625-0.9375s-3-4.3125-0.3125-12l-2.8125 1.375s-0.5625 5.3125 0.25 9.125l1.125 2.875 0.125 1.0625s3.625 5.6875 7.75 7.875 7.8125 3.0625 12.75 2.125 8.375-4.375 8.375-4.375 3.9375-2.5 5.625-9.5-2.1875-14.562-2.1875-14.562-3-5.0625-7.875-7.25-11.438-1.625-11.438-1.625z" fill="#4a002e"/>
<path d="m211.55 1561s0.16406 3.586 0.75 4.25l-1.625 1-0.04297 0.5s-5.418 4.586-7.25 8.25c0 0 4.332-9.332 8.168-14" fill="#cf4233"/>
<path d="m213.14 1564s-0.08203-4.75 0.33203-5.75c0.41797-1 7.3359-9.914 9-11.5 0 0-1.6641 8.918-1.25 19.586 0.41797 10.664 2.25 15.082 3.3359 16.75 0 0-1.5 3-2.168 4.5s-3 6.25-2.582 15.332c0.41406 9.082 2.9141 14.918 5.832 18.168 0 0-9.25-0.418-20.082-7.75 0 0-5.668-5-7.3359-8.668-1.6641-3.668-1.25-13.418-0.75-16s2.5859-8.918 9-16.582c0 0 5-5.336 6.25-6 0 0 0.58594 0.414 1.168-0.586 0 0 0.66797-1.082 2.582-1.914l0.41797-1.918s-3.082 1.75-3.75 2.332" fill="#cf4233"/>
<path d="m207.6 1612.4c0.72656 0.3516 1.4961 0.6602 2.2656 0.9375 0.76172 0.3047 1.5469 0.5391 2.332 0.7852 1.5703 0.4687 3.1797 0.7851 4.8164 0.9922 0.14063 0.0117 0.23828 0.1367 0.22266 0.2734-0.01563 0.125-0.11719 0.2187-0.23828 0.2226-0.85157 0.0313-1.7031-0.0195-2.5469-0.1328-0.84375-0.1015-1.6719-0.3086-2.4961-0.5273-0.82031-0.2188-1.6172-0.5274-2.3984-0.8555-0.77344-0.3633-1.5352-0.7383-2.2266-1.2734-0.10938-0.082-0.13281-0.2422-0.04688-0.3516 0.07422-0.0937 0.20313-0.125 0.3086-0.0742z"/>
<path d="m227.8 1562.4c0.03906 1.125 0.03906 4.664 0.41406 6.125 0.375 1.457 0.46094 3.207 0.5 4.082 0.04297 0.875 0.625 4.918 1.5 6.457 0 0 6.0859-3.875 7.7109-4.875s5.5391-4.207 7.082-5.457 5.375-4.668 6.293-5.668c0 0-4.8359 2.668-13.875 1.918-9.043-0.75-9.625-2.582-9.625-2.582" fill="#7a3057"/>
<path d="m224.95 1543.8s3-3.375 3.5625-3.6875c0 0-1.0625 4.75-1.5 7.875s-0.3125 11.625-0.3125 13.438-0.25 4.625 0.1875 7.1875 0.8125 4.375 0.875 6 1.5 4.9375 1.5 4.9375-1.875 0.5625-4 2.5625c0 0-0.9375-3.5-1.4375-5.0625s-0.8125-4.6875-0.875-6.5625-0.5-9.625 0-15.875 1-8.375 1.625-9.5 0.375-1.3125 0.375-1.3125" fill="#82a682"/>
<path d="m273.01 1536.4c0.5 1.4375 2.0625 4.1875 2.0625 4.1875l-0.3125 0.75s-4 10.375-12.438 18.25c0 0-7.25 8.3125-16.938 15.75 0 0-5.0625 4-5.875 4.5625s-1.625 1.625-1.625 1.625-5.5625 3.3125-6.5 3.75-1.5625 1.25-2.0625 2.8125c0 0-1.125 0.8125-1.4375 2.5625s-0.75 2.375-0.75 2.375-0.625 1.25-0.6875 4.4375c0 0-0.625 2.375-0.625 4.1875s0.25 4.625 0.8125 7.25 2.25 8.75 6.0625 13.125c0 0-3.9375 0.0625-4.4375 0.0625s-1.3125-1.8125-2.3125-3.0625-2.4375-3.5625-4.25-11.25c0 0-0.5625-7.5-0.3125-9.8125s1.25-6.0625 1.875-8.625 3.5-7.25 4.125-7.5625 5.375-2.4375 9.25-5.25 12.875-9.125 18.062-14.938 13.125-12.25 18.312-25.188" fill="#82a682"/>
<path d="m237.93 1631.9 0.375-2.711s0.78906 0.625 1.25 0.875c0.45703 0.25 1.25 0.586 1.332 1.168 0 0-0.91797 0.5-2.957 0.668" fill="#7a3057"/>
<path d="m232.09 1624c1.2109 0.086 5.0859-0.414 5.0859-0.414s0.25 6.5-0.25 8.5c0 0-2.0859 0.539-5-0.043 0 0 0.45703-5.457 0.16406-8.043" fill="#82a682"/>
<path d="m239.8 1625.6c-0.22266-0.8281-0.75-1.5 0.75-1.75s4.082-0.582 4.082-0.582 0.45703 0 0.70703 0.793c0.25 0.789 1.8359 4.375 1.8359 4.375s-3 1.832-5.293 2.375c0 0-1.418-2.711-2.082-5.211" fill="#82a682"/>
<path d="m246.22 1623.7c-0.13281-0.4492-0.20703-0.668 0.375-0.793 0.58594-0.125 5.875-1.168 7.043-1.875 0 0-0.54297 0.668-0.54297 1.043s0.21094 1.332 1.043 1.539c0 0-3.75 3.25-5.957 4.375 0 0-1.5-2.75-1.9609-4.289" fill="#cf4233"/>
<path d="m263.34 1598.7c0.25 0.625 0.29297 1.039 0.75 1.125 0 0 0.04297 0.5-0.58203 1.875s-4.375 9.957-5.5 12.414c-1.125 2.461-5.2109 4.375-7.2109 4.918s-5.6641 2.125-15.625 3.082c0 0-1.207 0.375-3-2.664-1.7891-3.043-3.832-7.668-4.707-13.25-0.875-5.586 0.25-8.043 0.45703-9.043 0.21094-1 0.16797-3.125 0.71094-4.957 0.53906-1.836 0.95703-2.461 1.25-3.125 0.28906-0.668 1.25-2.543 1.625-2.586 0.375-0.039 0.70703-0.25 0.75-0.539 0.03906-0.293 0.91406-0.375 1.207-0.375s0.58203-0.293 1.168-0.793c0.58203-0.5 1.2891-1.082 2.082-1.25s2.875-2.207 3.75-2.793c0.875-0.582 2.875-2.125 3-2.332s0.79297-0.707 1.207-0.918c0.41797-0.207 8.7109-6.832 10.711-8.914 2-2.086 6.168-6.461 7.25-7.461s5-5.375 6.082-6.875c1.0859-1.5 4.168-5.289 6.918-12.207l0.375 0.332s7.957 17.125 8.832 19c0 0-4.5 0.961-9.957 6.336l-0.5 0.414s-3.75 3.625-5.25 6.668l-0.45703 0.043s-0.83594 1.375-0.66797 3c0 0-1.25-3.418-0.79297-9.336 0.46094-5.914 3.293-11.457 5.4609-14.039 2.1641-2.586 0.28906-2.418 0.28906-2.418s-1.75 2.207-3.957 6.043c-2.207 3.832-3.418 8.832-2.793 16.207 0 0-1.207-3-2.582-4s-1.168 0.375-0.66797 1.168c0.5 0.789 2.418 5.832 3.5 11.332 0 0 0.54297 0.5 0.29297 1.668-0.25 1.164-2.207 10.875-2.207 10.875l-1.9609 1.039s-0.25 0.461 0.75 0.711z" fill="#cf4233"/>
<path d="m265.93 1638.3 0.45703-0.582s5.543 3.5 6.668 4.043l1.0391 0.5s-0.16406-0.168 0.16797-0.293 1.168-0.043 1.168 0.707-0.29297 1.125-0.29297 1.125-5.168-2.75-6.25-3.625-2.957-1.875-2.957-1.875" fill="#82a682"/>
<path d="m219.43 1622.2c-0.91797-0.836-0.82422-0.9492-0.82422-0.9492s1.0742 0.6992 4.0312 0.9492 5.375 0.707 5.793 0.875c0.41406 0.164 0.5 0.789 0.5 0.789l1.457 0.125s0.91797 3.625 0.625 7.875c0 0-1.25-0.375-1.25 1.086 0 0-3.957-1.793-6.875-3.918 0 0 0.54297-2 0.54297-2.5s-0.46094-1.168-1.2109-1.75-2.7891-2.582-2.7891-2.582" fill="#cf4233"/>
<path d="m258.8 1615.3s4.125-8.336 5.707-12.336 1.375-3.914 1.375-3.914 2.375-0.918 2.168-1.668c-0.21094-0.75-3.4609 0.582-3.4609 0.582l-0.08203-1.039s0.70703-0.086 0.83203-0.336 3.4609-3.457 4.043-3.664c0.58203-0.211 3.25-0.086 4.668 0.75 1.4141 0.832 2.625 0.25 1.4141-0.211-1.207-0.457-3.0391-1.5-5.5391-1.375 0 0-0.96094 0.043-1.9609 0.586-1 0.539-1.957 1.332-1.957 1.332s1.207-5.957 1.668-8.332c0.45703-2.375 1.2891-6.043 1.5391-7.375 0.25-1.336 0.29297-2.5 0.29297-2.5s2.207-3.793 5.332-6.836c3.125-3.039 6.043-5.789 11.461-7.164 0 0 1.332 5.625 1.625 9.664 0.28906 4.043 0.125 11.711 0.03906 16.168-0.08203 4.457 0.21094 14.793 0.21094 14.793l0.41406-0.543s-1.5 8.832-2.125 11.168c-0.625 2.332-1.1641 3.664-1.2891 4.957s-0.96094 2.332-0.96094 2.332-2.957 9.918-4.082 12.711c0 0-1.75-3.711-5.043-7.211-3.2891-3.5-8.707-9.789-16.289-10.539" fill="#cf4233"/>
<path d="m238.93 1616.3c1.8335 0 8.4155-1.126 11.791-2.251" fill="none" stroke="#000" stroke-linecap="round" stroke-miterlimit="10" stroke-width=".31401"/>
<path d="m281.51 1600.6c-2.0625-0.1133-5.1562-0.7813-5.4688-1.125-0.3125-0.3438-0.46875-1.125 0.90625-0.9375s2.9688 0.8125 2.9688 0.8125 1.4375 0.1875 0.40625-0.5-1.375-0.9375-3.1562-1.2188c-1.7812-0.2812-4.125-0.7812-4.7188-1.125-0.59375-0.3437-1.5312-0.3125-1.9375 0.3438-0.40625 0.6562 0.96875 1.5 2.625 2.375s4.3438 1.6562 7.75 2c3.4062 0.3437 1.1875-0.5938 0.625-0.625"/>
<path d="m276.96 1549.1c0.57032 0.6562 0.9375 1.3789 1.3047 2.1055 0.35547 0.7304 0.64844 1.4804 0.92969 2.2343 0.57812 1.5039 1.082 3.0313 1.4844 4.5977 0.03516 0.1328-0.04296 0.2695-0.17968 0.3047-0.11719 0.0312-0.23828-0.0313-0.28907-0.1367-0.68359-1.4571-1.3047-2.9336-1.9023-4.4141-0.30859-0.7383-0.61719-1.4727-0.90234-2.2149-0.28125-0.7382-0.55078-1.4921-0.85157-2.1875l-0.01171-0.0234c-0.05469-0.1289 0.0039-0.2773 0.13281-0.332 0.10156-0.043 0.21875-0.0117 0.28515 0.0664"/>
<path d="m283.71 1563.4c0.25782 0.2578 0.50391 0.5195 0.625 0.875l0.04688 0.1719c0.21875 0.5898 0.17969 1.207 0.21484 1.8203 0.03125 0.6133 0.04688 1.2343 0.03125 1.8672-0.0039 0.1406-0.11718 0.25-0.25781 0.2461-0.10937 0-0.20312-0.0743-0.23437-0.1758-0.19532-0.6094-0.32422-1.2383-0.39063-1.8711-0.05859-0.6367-0.16797-1.2774 0.14063-1.9414l0.04296 0.1718c-0.29296-0.2304-0.46484-0.5507-0.625-0.875-0.0625-0.125-0.01171-0.2773 0.11329-0.3398 0.10156-0.0508 0.21875-0.0234 0.29296 0.0508"/>
<path d="m257.22 1646.6 2.668-2.375 0.29297 0.039 5.375-5.5s2 1.375 3.375 2.5 5.25 2.625 5.75 3.086c0.5 0.457 1.457 0.414 1.457 0.414l0.08203-0.789s3.2109-5.25 3.5859-6.918 1.332-2.875 1.332-2.875l2.293-6.582 0.03906-0.668s1.3359-3.457 1.5859-4.418c0.25-0.957 1.082-3.164 1.082-3.164s0.125-1.043 0.33203-1.336c0.21094-0.289 1.25-4.207 1.25-4.914l0.25-0.043s1.7109-8.5 2-11.668l-0.20703-1.707-0.04297-4.082s3.5859 6.125 7.0859 10.125 10.207 11.207 13.832 14.625c3.625 3.414 6.25 5.914 7.293 7.207 1.0391 1.293 3.375 3.375 3.375 3.375s3.5391 3.875 4.207 4.543c0 0-0.33203 0.414 0.875 0.789 0 0 0.5 0.461 0.29297 0.875-0.21094 0.418-3.0859 6.125-4.75 8.5-1.668 2.375-7.543 9.461-15.293 17.125-7.75 7.668-16.957 9.293-16.957 9.293s-6.168 1.418-11.793-1.582-6.25-3.5-9.543-7.25c-3.2891-3.75-11.125-16.625-11.125-16.625" fill="#cf4233"/>
<path d="m284.26 1653.8-0.54297-0.168s0.16797-1 0.66797-1 2.043-0.207 4.543-1.457 8.5-5.043 12.5-9.418 5.5391-7.414 5.5391-7.414l1.293-0.293-0.16797 0.582s3.7109 3.5 3.793 3.711c0.08203 0.207-0.375 1.289-0.375 1.289l1.5 1.125s-0.375 0.5-0.08203 0.668c0.28906 0.168-2.25 2.875-3.75 4.332-1.5 1.461-7.5859 6.918-15.793 11.086l-1.293 0.164-2.1641 1.168s-0.875 0-1.75-0.625-2.75-2.125-3.918-3.75"/>
<path d="m285.64 1653.9c-0.41797-0.293-0.375-0.625 0.375-0.75s7.707-2.961 11.918-6.75c4.207-3.793 6.957-6.5 9.6641-11.125l3.125 2.875s0.125 0.707-0.41406 1.414c-0.54297 0.711-1.25 3.543-5.9609 7.961-4.707 4.414-11.914 8.625-14 9.582 0 0-1.0391 0.293-1.832-0.457s-2.875-2.75-2.875-2.75" fill="#82a682"/>
<path d="m256.51 1647.2-3.9375 3.8125s3.75 7.875 10.125 15.938 12.438 10.875 13.875 11.562 3.4375 2.125 7.3125 1.8125c0 0 2.9375 0.875 5.4375 0.125s10.562-3.8125 12.188-4.75 2.5625-1.6875 3.5625-2.0625 4.625-3.375 6.125-4.625 7.5625-6.875 12.938-13.188 5.875-9.0625 8.1875-12l-4-5.3125-0.3125 0.4375-0.625-0.6875s-1.8125 3.0625-3.4375 6.375-11 13.562-15.625 18.188-9.875 6.9375-15.312 9.5-11.812 0.875-12.938 0.3125-5.25-2.25-8.375-4.4375l-0.625-0.6875s-3.0625-2.6875-3.3125-3.8125l-0.5625-0.25s-5.375-7.375-10.688-16.25" fill="#82a682"/>
<path d="m197.39 1605.6s1.543 3.75 5.418 7.207c0 0 3.082 2.668 6.2891 4.582 3.2109 1.918 8.3359 3.625 8.3359 3.625l0.53906 0.586s-1.582-0.043-3.125 0.832c-1.5391 0.875-4.707 4-6.2891 6.543-1.5859 2.539-3.918 6.332-3.668 11.625 0 0-2.25-4.375-2.832-5.586-0.58594-1.207-1.543-4.832-2.625-7.625-1.0859-2.789-2.168-9.875-2.25-11.25-0.08594-1.375-0.29297-7.789 0.20703-10.539" fill="#cf4233"/>
<path d="m218.39 1622.2c0.82422 0.0351 2.582 3.125 4.25 3.75 0 0-0.33203 2.039-0.41797 3.082l-0.58203-0.293s0.04297-2.75-0.75-3-2.293 1.168-4.293 3.461c-2 2.289-4.207 7.289-4.9141 9.039-0.71094 1.75-2.25 6.043-2.293 6.668s-0.375 1.75 0.16797 2.207c0.53906 0.461 0.5 0.211 2.0391-0.582 1.543-0.793 1.75-1.293 1.875-0.625s-2.7891 1.875-3 1.957c-0.20703 0.086-0.75 0.461-1.7891-1.039-1.043-1.5-3.043-4.461-3.043-4.461s-0.95703-5.457 2.375-10.957 7.457-9.332 10.375-9.207" fill="#82a682"/>
<path d="m201.51 1638.7c0.12891-0.875 0.16797-1.168 0.375-1.168s1.332 2.832 3.5 6.668c2.168 3.832 3.207 4.75 4.207 4.664 1-0.082 1.875-0.289 4.5-2.332 0 0 4.8359 3.957 11.086 6.582 0 0-0.46094 0.961-0.91797 2.168s-3.5 9.25-11.082 14.707c-7.5859 5.461-9.668 1.668-9.668 1.668s-2.125-1.207-8.043-6.832c0 0-0.58203-0.875-1.707-2.168s-2.707-3-2.457-3.543c0.25-0.539 2.2891-2.664 2.9141-3.832s1.8359-2.875 1.8359-2.875 4.582-7.832 5.457-13.707" fill="#cf4233"/>
<path d="m201.05 1652.2c-0.58594 0.25-1.3359 0.75-1.3359 0.75l3.125 4.207 0.54297 0.043s2.793 3.957 4.957 4.957c0 0 1.125 0.543 1.7109 1.332l1.375 0.043 0.03906-0.582 1.5859-1.5s-0.21094-0.836 0.125-0.836c0.33203 0 1.082-0.289 0.33203-0.875-0.75-0.582-2.957-2.125-5.707-6.375s-3.8359-6.664-3.8359-6.664l-0.375-0.043s-0.08203-0.25 0.125-0.293c0.21094-0.039 0.375-0.457-0.28906-0.414-0.66797 0.039-0.83594 0.25-1.043 0.914-0.20703 0.668-1.332 3.293-1.332 3.293h-0.66797s-0.20703 1.125 0.66797 2.043"/>
<path d="m201.84 1652.1c-0.11328-0.2149-0.28906-1.168 0.04297-1.586 0.33203-0.414 0.875-2.082 0.875-2.082s0.25-0.793 0.45703-0.582c0.21094 0.207 1.2109 2.5 3.168 5.457s5.043 6.168 6.082 6.668c0 0 0.25 0.414-0.41406 1.039-0.66797 0.625-1.668 1.711-1.668 1.711s-0.95703-0.875-1.793-1.543c-0.83203-0.668-4.957-5.75-6.75-9.082" fill="#82a682"/>
<path d="m185.82 1664s-0.4375-0.75 0.5-0.75 3.375-2.5625 3.375-2.5625 0.4375-0.8125 0.9375-0.25 4 5.0625 8.1875 8.9375c3.7969 3.5117 6.4375 4.6875 8.125 4.6875s3.625-1 6-2.5 6-4.5 7.9375-7.625 4.375-7.1875 5.3125-10.562c0 0 4.0625 1.3125 4.875 1.5s1.3125-0.125 1.3125-0.125-2.3125 6.0625-4.8125 10.125l-0.5 0.125s-4.9375 9.3125-13.5 14-10.25 2.1875-14 0.4375-13.75-15.438-13.75-15.438" fill="#82a682"/>
<path d="m231.14 1632.8 0.125 0.625s1.125 1.875 4.75 2.25 5.3125-1.75 6.625-1.6875-0.9375 3.5-0.9375 3.5-2.25 2.0625-3.6875 2.1875-4.0625 0-6.1875 0.4375-5.0625 0.3125-5.0625 0.3125-0.4375 0.75 0.9375 1.6875 3.25 1.4375 6 1.1875 6.9375-0.6875 9.0625-0.6875 3.4375 0.125 2.1875 1.75-2.9375 3.125-6.125 3.125-9.625-0.375-10.5-0.4375-0.6875 0.5 0.125 1.25 2.25 1.875 5.25 1.8125 7.5625-0.9375 9.1875-1.25 2-0.5 2 0.375-0.875 2.4375-3.375 3.375c0 0 4.3125-1.5 7.75-3.25s7.6875-4.8125 10-6.625 9.5625-8.25 9.5625-8.25l-0.3125-0.4375s-8.0625-8.875-12.438-11.188c0 0-2.875 3.75-9.25 6.9375s-9.25 3.875-15.688 3" fill="#cf8768"/>
<path d="m212.14 1643.7c-0.33203-0.336-0.83203-0.543-0.95703-0.586-0.125-0.039 0.125-1 0.58203-2.332s4.332-8.832 5.332-10.332 2.5859-2.586 2.5859-2.586 0.375 0.836 1.0391 1.293c0.66797 0.457 5.875 3.457 9.8359 4.918 0 0 1.25 1.875 4.125 2.25s7.125-1.211 7.125-1.211-0.29297 1.25-1.25 2c-0.96094 0.75-2.168 1.961-3.5 2-1.3359 0.043-4.168-0.207-5-0.164 0 0-2.7109-1.211-3.2109-1.461s-0.78906 0.125-0.25 0.668c0.54297 0.543 2 1.543 2 1.543s-3.707 0-4.582 0.207-0.70703 0.625-0.375 1.418c0.33203 0.789 2.125 2.539 5.293 2.875 3.1641 0.332 7.582-0.586 9.4141-0.543 1.8359 0.043 3.918-0.457 3.918-0.082s-1.5 2.5-4.207 3.039c-2.7109 0.543-7.9609-0.039-9.918-0.164s-2.668-0.25-3.25-0.086c-0.58203 0.168-0.54297 0.836-0.16797 1.5 0.375 0.668 1.918 2.461 4.168 2.836s6.918 0.289 8 0.039 4-1.25 4.418-1.207c0.41406 0.043-0.79297 1.582-1.668 1.957s-2.207 1.375-3.043 1.5c-0.83203 0.125-7.6445 0.7618-11.457-0.0195-4.875-1-15-9.2695-15-9.2695" fill="#cf8768"/>
<path d="m203.14 1786.6 1.25-1.5 11.918 3.918s0.25 1.75 0.5 3.832 0.75 4.5 0.33203 6.918c0 0-0.33203 2.332-2.168 4.75-1.832 2.414-3.25 5.582-3.332 7.582s-0.08203 1.582-0.58203 1.668c-0.5 0.082-1.918 0.082-1.918 0.082l-0.75-9s-3.75 1.832-7.082 8.75l-21.836 0.75-2.6641-2.918s-0.08594-0.664 0.5-1.25c0.58203-0.582 0.83203-3 0.83203-3s3.918 0.25 5.332-0.082c1.418-0.332 8.418-7.5 8.418-7.5l0.58203-0.5-0.33203-0.5 1-0.082s-1.168-0.586-1.668-0.586 2.25-2.582 2.25-2.582l5.418-6.25s0-1.668 0.16797-2.332c0.16406-0.668 0.16406-1.586 0.16406-1.586s2.168-0.414 3.668 1.418"/>
<path d="m193.22 1797.6 6.625-7.539 0.46094-0.086 0.33203-3.707s2.293 0.875 2.832 1.582v0.586s3.418 2.957 4.5 9.164h-4.332s1.207-1.539 1.293-1.957c0.08203-0.418 0-0.582-0.5-0.582s-1.793 2.457-1.793 2.457h-4.707s2.75-3.418 3.1641-3.957c0.41797-0.543-0.45703-1.5-1.5391 0.125-1.0859 1.625-2.918 3.957-2.918 3.957z" fill="#4a002e"/>
<path d="m208.68 1795.8c0.08203 0.625 0.08203 1.668 0.625 1.836l-0.79297 1.207h-1.125l0.33203 0.707-2.582-0.039-0.125-0.375-11.293-0.086s-0.08203 0.375-0.41406 0.711c-0.33594 0.332-6.2109 6.332-7.418 7.039-1.207 0.711-1.918 1.461-6.793 1.25l-0.95703 2.543 23-1s2.668-7.918 14.957-9.918c0 0 0.54297-3.289-0.5-8.375 0 0-4.2891 3.793-5.707 4.25-1.418 0.461-1.207 0.25-1.207 0.25" fill="#cf4233"/>
<path d="m177.76 1811.4 23.793-0.875s0.91406-3 3.5-5.086c2.582-2.082 4.4141-3.75 10.75-4.914 0 0-0.33594 1.375-1.7109 3.332s-3.707 6.625-3.332 9.207h-1.043l-0.33203-8.789s-1.043-0.875-3.293 1-5.4141 7.664-5.4141 7.664l-20.961 0.543z" fill="#7a3057"/>
<path d="m204.8 1788c-0.55078-0.5468-1-1-0.33594-1 0.66797 0 0.46094 0.543 1.168 0.543s2.582-0.082 3.707 0.375 5.875 1.832 5.875 1.832v0.75s-2.7891 2.961-5.875 4.793c0 0-0.78906 0.668-1.25-1.082-0.45703-1.75-2.25-5.168-3.2891-6.211" fill="#cf8768"/>
<path d="m274.8 1792.1c0.33203-1.832-0.08594-4.082 2.832-3.418 2.918 0.668 12 1.086 12 1.086l-0.16797 4.914s6.5 7.586 7.3359 8.25c0.83203 0.668 1.4141 1.918 0.33203 2-1.082 0.086-5.168-0.332-5.168-0.332l2.25 4.332s1.25 0.5 0.41797 1.586c-0.83203 1.082-1.668 4.164-1.832 5.082-0.16797 0.918-1.0859 3.832-1.0859 3.832s-7.9141 0-9 0.5c-1.082 0.5-1-0.332-2-1-1-0.664-6.75-5.914-6.75-5.914s-1.082-0.836-0.91406-1.918c0.16406-1.082-0.16797-6.832-0.16797-6.832s0.5-1.25 0.33203-1.5c-0.16406-0.25-0.75-1.5-0.41406-3.086 0.33203-1.582 2-7.582 2-7.582"/>
<path d="m277.51 1793.9 2.457 0.039-2.625 4.25s-0.16406-3.164 0.16797-4.289" fill="#cf8768"/>
<path d="m276.09 1789.7 0.625 0.039s-0.75 11.711-0.75 12.211 0.83594 0.539 1.168 0.539 0.83203 0.586 2.207 0.418 3.625 0.543 4.918 0.957c1.293 0.418 2.207 0.168 4.168 0.918 1.957 0.75 3.25 1.5 3.25 1.5l2 3.625s-1.9609 3.5-2.7109 6.875c0 0-7.832 0-8.9141 0.043-1.0859 0.039-7.168-6.211-7.168-6.211l-0.70703-0.207s0.125-5.543 0-6.625-0.33594-2.582 0-3.875c0.33203-1.293 2.125-7.332 1.9141-10.207" fill="#cf4233"/>
<path d="m274.89 1812.7c-0.66797-0.668-0.75-1-0.66797-1.168 0.08594-0.168 0.58594 0.418 1.168 1.043s4.707 4.289 5 4.375c0.29297 0.082 0.75 0.332 0.95703 0.582 0.21094 0.25 0.66797 0.457 0.58594 0.082-0.08594-0.375 2.082-0.207 3.375-0.207 1.2891 0 5.832 0.207 5.832 0.207l-0.41797 1.125s-7-0.039-7.4141 0.086c-0.41797 0.125-1 0.375-1.543-0.086-0.54297-0.457-6.875-6.039-6.875-6.039" fill="#7a3057"/>
<path d="m204.95 1684.3s2.3125 0.875 3.4375 0.25 2-1.1875 3.1875-1.25 4.25-2.125 5.125-2.9375 4-3.625 4.25-4.0625 1.25-1.125 1.25-1.125 3.5625-3.6875 4.1875-4.6875 3-5.125 3-5.125l1-1.5625-0.75 0.0625s2.8125-4.1875 3.0625-6.5625c0 0 1.1875-2.5625 1.1875-3.1875 0 0 3.3125 0.375 6.375 0.0625s9.625-3.6875 10.188-4 0.6875 0.5625 0.875 1 6.125 11.562 11.562 18.062 9.75 9.8125 10.875 10.5 3.3125 1.375 3.3125 1.375l0.1875 0.375s3.3125 0.25 3.75 0.5625 4.6875 1.3125 6.3125 1.125 5.6875-1.5625 6.25-1.625 1.5-0.3125 1.9375-0.625 1.5625-1 2.8125-1 3.375-1.75 3.375-1.75 6.875-3.125 8.6875-4.4375c0 0-6.8125 12.188-8.4375 14.625 0 0-0.625 0.8125-0.25 1.0625s1.375-0.375 1.625-0.8125 0.375-0.75 0.9375-0.75c0 0-0.4375 4.6875-1.4375 9.9375s-2 11.5-2 11.5-1.625 5.375-1.625 7.1875-0.9375 4.5-0.9375 5.0625-0.875 5.5-1.0625 6.5625-6.1875 34.75-6.1875 34.75l0.875 2.75 1.125-6.125s1.5 3 1.125 9.8125-1.75 11.875-6 20.375v0.375h0.625l-0.3125 3.6875s-1.375-1.5625-1.625-2.1875-1.3125-3.1875-2.4375-3.375-3.5625 4.3125-3.5625 4.3125-0.4375 0.5625-0.875 0.3125-2-0.75-2-0.75-0.3125-0.8125 0.125-1.0625-0.1875-0.4375-0.1875-0.4375l0.1875-19.25 1.8125-1.25s0.5-1.125-1.0625-6.5625c0 0-0.4375-4.9375-1.3125-5.625s-3.5-1.875-3.5-1.875-1.4375-2.75-1.625-3.9375-2.4375-14.562-2.9375-16.938-2.4375-16.625-3.0625-20.062-1.625-6.9375-1.625-8.9375c0 0-1.125-4.4375-1.125-5.25s-0.5-4.125-0.75-4.5 0.8125-0.75 0.8125-0.75-0.25-1 0.75-1.4375 6.4375-2.9375 10.125-3.8125-1.0625-0.75-1.0625-0.75-2.5625 0.5625-5.4375 1.625-5.8125 2.4375-6.9375 2.3125-4.625 1-15-0.125l-2.25-1.125c-1.125-0.5625-8.125-4.6875-8.9375-4.9375s-1.6875-0.5625-1.8125-0.0625 0.9375 0.125 1.5 0.4375 2.9375 2 3.3125 2.3125 2.1875 0.9375 2.1875 0.9375l0.6875 0.6875 0.5 0.0625 2.5625 1.5s-1.125 0-1.4375-0.125-5.8125-2.6875-6.6875-3.1875-2.5-1.375-2.8125-1.375c0 0-1.3125-1.1875-1.8125-1s-0.375 0.875 1.25 1.6875 5.5 2.8125 6.875 3.375 3.25 2.4375 3.3125 3.375 0.3125 6.0625-0.8125 11.562-2.5625 13.438-2.5625 13.438 0.625 0.375 0 2.875-2.8125 17.25-6.4375 26.812c0 0-2.125 2.125-3.1875 2.3125s-2 4.5625-2 4.5625-0.75 1.8125 0.1875 1.8125c0 0-1.4375 7.3125-1.75 8.1875s-0.6875 1.25-2 1.875-5.125 1.3125-5.125 1.3125 0.4375-0.625 0.4375-0.875-1.5-0.1875-1.5-0.1875-2.375 6.1875-2.3125 9.1875 1.4375-0.5625 1.4375-0.5625 2.1875 5.5625 2.625 6.125v2.5s-3-0.125-3.125 0.375 0.25 1.3125 0.25 1.3125-7.75-2.1875-11.562-3.6875c0 0-1.4375-0.4375-0.3125-1.5s3.0625-5.0625 3.6875-12.75 1.25-19.875 0.0625-27.188c0 0-0.75-4-1.875-5.375 0 0-0.125-8.5625 0.75-13.5 0 0 0.8125 0 0.5-2.5s-1.4375-11.25-2.3125-15.188-1.8125-19.312-0.6875-22.625" fill="#7a3057"/>
<path d="m205.89 1683.5c-0.375 3.75 0.625 11 1 13.75s0.75 7.625 0.75 7.625 0 3.75 0.5 5.375 1.75 6.375 1.875 8.25 1.125 6.5 1.25 7 0.375 2.25-0.375 3-1.25 1.875-0.625 3.75 2.125 3.5 2.125 3.5-1.625 14.875-2.375 29.125-2 19.5-3.5 21" fill="none" stroke="#4a002e" stroke-miterlimit="10" stroke-width=".31401"/>
<path d="m214.26 1681.1c-0.5 3 0.625 11 1.75 14.25 0 0 0 2.75 2 8.25s0 4.5 0 4.5 0.375 0.625 0.375 2.125-1 48.75-2.625 64.875c0 0-0.375 3.375-0.375 4.625s-0.25 2.75-1.25 3-2.5 0.625-3.25 4.625" fill="none" stroke="#4a002e" stroke-miterlimit="10" stroke-width=".31401"/>
<path d="m222.01 1674.1c0.25 1.75 0.625 2.875 0.75 4.5s1.375 6.25 1.875 7.75 1.25 3.75 1.875 4.25 1 2.875 0.125 3.375-0.875 0.75-1.125 3.75-0.375 13.125-0.375 17.125-0.5 11.125-0.375 13.625-0.125 10.125-0.625 14.625-1.75 25.875-1.75 27.5" fill="none" stroke="#4a002e" stroke-miterlimit="10" stroke-width=".31401"/>
<path d="m234.76 1690.1c-0.25 2-0.5 5.5-0.625 7.5s0.125 7.375-0.25 10-0.375 9-0.375 10.5 0.25 4 0 6.375-0.875 17.375-1 18.75-1.125 8.625-1.375 9.375" fill="none" stroke="#4a002e" stroke-miterlimit="10" stroke-width=".31401"/>
<path d="m229.89 1662c0.125 2.125 1.5 9.5 2 11.625s0.5 3.375 2.25 8.375 4.875 9.5 5.625 10.5" fill="none" stroke="#4a002e" stroke-miterlimit="10" stroke-width=".31401"/>
<path d="m239.51 1653.5c0 2.25-0.125 3.75-0.25 5.625s-0.25 5.875 1 11.625 0.875 6.75 2.5 10.625 1.25 4.625 2.625 7.375 3.75 5.625 4.25 5.75" fill="none" stroke="#4a002e" stroke-miterlimit="10" stroke-width=".31401"/>
<path d="m248.89 1650c-0.75 2.5-1.25 6.125-1.25 8.125s0.875 4.5 1.25 6.125 1.125 4.75 1.375 5.875 1.625 8.75 3 12.5 2.5 8.375 4.375 12.125" fill="none" stroke="#4a002e" stroke-miterlimit="10" stroke-width=".31401"/>
<path d="m261.01 1665.5c-1.375 1.75-0.5 10-0.125 11.5s1.875 9 5.875 15.625" fill="none" stroke="#4a002e" stroke-miterlimit="10" stroke-width=".31401"/>
<path d="m270.01 1675.6c0.5 2.75 2.625 9.5 2.625 11.125s1 4.75 1.125 9.625 0.875 17.75 1.125 22.125 0.5 7.875 2.125 14.125 2.5 11.25 2.875 15.75 1.25 15.25 1.125 17.25-1.375 3.5-1.375 3.5-0.875 1-0.5 4.125 0.75 3.875 0.625 6.375 1.875 12.5 1.875 12.5" fill="none" stroke="#4a002e" stroke-miterlimit="10" stroke-width=".31401"/>
<path d="m282.26 1681.5c0 2.125 0.5 6.5 1 7.875 0 0-1 1.625-0.875 2.625s2.25 29.75 2.625 33.125c0 0-0.25 2.25-0.25 3.375s1.125 14.75 1.25 17.875 0 5-0.25 6.25 0 3.875 0.375 4.5-0.125 33.75-0.125 33.75" fill="none" stroke="#4a002e" stroke-miterlimit="10" stroke-width=".31401"/>
<path d="m291.26 1681.1c0 1.5 1.375 43.25 1.625 46.25s0.875 22.375 0.875 22.375" fill="none" stroke="#4a002e" stroke-miterlimit="10" stroke-width=".31401"/>
<path d="m301.89 1677.1c0 1.625-0.25 5.875-1.75 14.5s-1.375 30.5-1.375 30.5" fill="none" stroke="#4a002e" stroke-miterlimit="10" stroke-width=".31401"/>
<path d="m214.39 1784.6c0 0.375 0.875 1.375 1.75 1" fill="none" stroke="#4a002e" stroke-miterlimit="10" stroke-width=".31401"/>
<path d="m264.51 1693.4c0.25 1.5 1.75 8.75 2.5 12s1.625 10 2.25 13.375 1.5 7 1.75 9 0.375 6.25 1.25 9.5 1.625 10 1.375 12.625 1.625 8.125 1.625 8.125" fill="none" stroke="#4a002e" stroke-miterlimit="10" stroke-width=".31401"/>
<path d="m301.95 1688.4s-0.625 0.8125-0.25 1.0625 1.375-0.375 1.625-0.8125 0.375-0.75 0.9375-0.75c0 0-0.4375 4.6875-1.4375 9.9375s-2 11.5-2 11.5-1.625 5.375-1.625 7.1875-0.9375 4.5-0.9375 5.0625-0.875 5.5-1.0625 6.5625-6.1875 34.75-6.1875 34.75l0.875 2.75 1.125-6.125s1.5 3 1.125 9.8125-1.75 11.875-6 20.375v0.375h0.625l-0.3125 3.6875s-1.375-1.5625-1.625-2.1875-1.3125-3.1875-2.4375-3.375-3.5625 4.3125-3.5625 4.3125-0.4375 0.5625-0.875 0.3125-2-0.75-2-0.75-0.3125-0.8125 0.125-1.0625-0.1875-0.4375-0.1875-0.4375l0.1875-19.25 1.8125-1.25s0.5-1.125-1.0625-6.5625c0 0-0.4375-4.9375-1.3125-5.625s-3.5-1.875-3.5-1.875-1.4375-2.75-1.625-3.9375-2.4375-14.562-2.9375-16.938-2.4375-16.625-3.0625-20.062-1.625-6.9375-1.625-8.9375c0 0-1.125-4.4375-1.125-5.25s-0.5-4.125-0.75-4.5 0.8125-0.75 0.8125-0.75-0.25-1 0.75-1.4375 6.4375-2.9375 10.125-3.8125-1.0625-0.75-1.0625-0.75-2.5625 0.5625-5.4375 1.625-5.8125 2.4375-6.9375 2.3125-4.625 1-15-0.125l-2.25-1.125c-1.125-0.5625-8.125-4.6875-8.9375-4.9375s-1.6875-0.5625-1.8125-0.0625 0.9375 0.125 1.5 0.4375 2.9375 2 3.3125 2.3125 2.1875 0.9375 2.1875 0.9375l0.6875 0.6875 0.5 0.0625 2.5625 1.5s-1.125 0-1.4375-0.125-5.8125-2.6875-6.6875-3.1875-2.5-1.375-2.8125-1.375c0 0-1.3125-1.1875-1.8125-1s-0.375 0.875 1.25 1.6875 5.5 2.8125 6.875 3.375 3.25 2.4375 3.3125 3.375 0.3125 6.0625-0.8125 11.562-2.5625 13.438-2.5625 13.438 0.625 0.375 0 2.875-2.8125 17.25-6.4375 26.812c0 0-2.125 2.125-3.1875 2.3125s-2 4.5625-2 4.5625-0.75 1.8125 0.1875 1.8125c0 0-1.4375 7.3125-1.75 8.1875s-0.6875 1.25-2 1.875-5.125 1.3125-5.125 1.3125 0.4375-0.625 0.4375-0.875-1.5-0.1875-1.5-0.1875-2.375 6.1875-2.3125 9.1875 1.4375-0.5625 1.4375-0.5625 2.1875 5.5625 2.625 6.125v2.5s-3-0.125-3.125 0.375 0.25 1.3125 0.25 1.3125-7.75-2.1875-11.562-3.6875c0 0-1.4375-0.4375-0.3125-1.5s3.0625-5.0625 3.6875-12.75 1.25-19.875 0.0625-27.188c0 0-0.75-4-1.875-5.375 0 0-0.125-8.5625 0.75-13.5 0 0 0.8125 0 0.5-2.5s-1.4375-11.25-2.3125-15.188-1.8125-19.312-0.6875-22.625c0 0 2.3125 0.875 3.4375 0.25s2-1.1875 3.1875-1.25 4.25-2.125 5.125-2.9375 4-3.625 4.25-4.0625 1.25-1.125 1.25-1.125 3.5625-3.6875 4.1875-4.6875 3-5.125 3-5.125l1-1.5625-0.75 0.0625s2.8125-4.1875 3.0625-6.5625c0 0 1.1875-2.5625 1.1875-3.1875 0 0 3.3125 0.375 6.375 0.0625s9.625-3.6875 10.188-4 0.6875 0.5625 0.875 1 6.125 11.562 11.562 18.062 9.75 9.8125 10.875 10.5 3.3125 1.375 3.3125 1.375l0.1875 0.375s3.3125 0.25 3.75 0.5625 4.6875 1.3125 6.3125 1.125 5.6875-1.5625 6.25-1.625 1.5-0.3125 1.9375-0.625 1.5625-1 2.8125-1 3.375-1.75 3.375-1.75 6.875-3.125 8.6875-4.4375c0 0-6.8125 12.188-8.4375 14.625m4-14.5c-7.5 4.0625-13.25 8.625-24.625 7.0625s-22.938-18.875-22.938-18.875-5.1875-7.75-7.0625-13.188c0 0-6.5 3-8.1875 3.5625s-8.125 1.4375-9.5625 1.125c0 0-0.375-0.25-0.875 1.25s-2.75 7.375-6.1875 12.75-7.0625 8.8125-11.375 11.562-9.125 3.9375-11.438 4.0625c0 0-1.1875 5.375-0.25 15.938s2.125 16.438 2.6875 19.625 0.5625 4.875 0.5625 4.875-0.5 0.1875-0.5 1.4375-0.875 7.5625-0.625 12.312c0 0-0.5-0.0625-0.1875 0.875s1.625 2.625 1.9375 4.5 0.75 11 0.6875 11.625-0.5 16.375-1.3125 20.312-1.8125 7.875-3.875 9c-0.38281 0.2109-1.125 0.5625-0.4375 0.9375s13.75 4.6875 14.562 5.0625 1.8125 0.125 1.4375-0.3125-1.375-1.6875 0.3125-1.625c0 0 1.5 0.1875 1.875-0.5s0.0625-3.875 0.0625-3.875-1.75-3.5-1.6875-4.9375 0.1875-3.125 0.1875-3.125 1.125-1 1.6875-2 2.5-2.125 3.875-2.5 2.1875-0.8125 3.25-4.6875 2.25-10.062 2.4375-12.188l0.6875-0.25s0.625-1.0625 1.375-1.3125 1.3125-0.75 1.4375-1.5 0.875-3.3125 0.875-3.3125 4.375-13.688 5.625-24.125c0 0 0.75-5.0625 1.5-8.0625s2.3125-11 2.3125-14.25 0-6-0.4375-6.625c0 0 8.5 1.125 17.312 1.5625 0 0 0.5625 2.875 0.875 4.75s1.3125 4.5 1.5625 6.3125 0.6875 6 1.6875 8.6875c0 0 0.6875 5.875 1 8.3125s2.5 14.875 3.5 20.312 1.0625 9.875 3.625 12.75 1.8125 0.4375 3.8125 5.4375 1.5625 5.25 1.5625 5.25l-0.625 0.75v0.5625l-0.625-0.125s-1 1.1875-1.0625 1.75 0.5625 22.375 0.5625 22.375 3.625 0.6875 4.3125 1.125 7.9375 1.25 7.9375 0.8125 0.75-2.6875 0.8125-6.625c0 0 4.8125-5.875 5.3125-18.25s-2.125-12.375-2.125-12.375 3.3125-18.438 4-22 2.25-12.25 2.8125-15.312 0.6875-5.0625 1.125-6.6875 1.25-4.75 1.25-5.5 0.625-4.5 1.0625-6.3125 2.3125-11.188 2.5-15.25c0 0-0.0625-1.0625 0.125-1.5625s1.3125-2.6875 1.5-3.4375 6.5-10.875 7.5625-14.688c0 0-1.6875 2.6875-9.1875 6.75"/>
<path d="m263.55 1689.5c-1.0859 0.375-2.0859 0.625-2.168 0.332-0.08203-0.289 1.457-0.875 2.5-1.457s5.582-2.793 5.582-2.793 0.29297-0.25 0.33594-0.582c0.03906-0.332 1.5391-1.293 2.5-1.207 0.95703 0.082 1.207 0.25 0.58203 1.164-0.625 0.918-2.75 1.375-5.332 2.75-2.5859 1.375-4 1.793-4 1.793"/>
<path d="m276.84 1801.6 0.71094-1.75 0.28906-0.125 3.293-5.918s2.668-4.332 2.875-4.539c0.20703-0.211 0.25-0.25 0.79297 0.832 0.53906 1.082 1.4141 2.832 1.4141 2.832s0.33594 1.5-0.41406 2.793h1.1641s0.58594-0.793 0.33594-2.043l3.207 3.875 0.20703 0.75 5.293 5.625-6.332-0.5s-1.418-3.539-1.7109-3.875c-0.28906-0.332-1.375-0.539-1 0.336s1.375 3.375 1.375 3.375l-6-0.836s0.125-3.289 0.04297-3.832-1.25-1.125-1.293-0.168c-0.03906 0.961-0.03906 3.875-0.03906 3.875z" fill="#4a002e"/>
<path d="m254.64 1622.8s-0.625-0.375-0.58203-0.625c0.03906-0.25 1.082-1.043 2.082-2.543s2.082-3.457 2.082-3.457 1.375-0.043 2.7109 0.5c1.332 0.539 5.625 1.332 11.707 8 6.082 6.664 6.918 9.082 6.918 9.082s-0.04297 1.418-0.625 2.332c-0.58594 0.918-2.918 6.336-2.918 6.336s-0.29297-0.586-0.79297-1.461-0.03906-1.457-5.582-7.207-11.793-11.375-12.793-11.875-1.7891-0.293-2.207 0.918" fill="#82a682"/>
</g>
<g stroke-width=".41868">
<path d="m232.03 1501.1c-0.1875-0.4375-0.625-0.25-1-0.25s-0.4375-0.5 0.1875-1.0625 1.375-0.75 1.5-0.375-0.125 0.8125-0.125 0.8125 1.3125 0.1875 1.5625-0.0625 1.5625-0.5625 1.9375-0.875 1.3125-1 1.875-0.9375 1.6875 0.8125 2 0.9375 0.75 0.25 1.0625-0.4375 1.125-1.25 1.5-1.5625 0.75-0.5 1.5625-0.5 1.9375-0.0625 3.125 0.0625c0 0 1.625-0.625 2.25-0.75s1.5-0.25 1.75-0.625 0.0625-0.75 0.625-0.75 2.1875 0.4375 2.8125 0.5625 0.625 0.625-0.0625 1-1.5625-0.25-1.5625-0.25-1 0.4375-1 0.625-0.5 5.1875-2.25 7.25c0 0 0.125 0.625-0.125 0.875s-3.8125 3.125-6.0625 3.125-4-1.375-4.8125-2-2.3125-3.125-2.3125-3.125-1.375-0.375-1.8125-0.375-2.625-1.3125-2.625-1.3125"/>
<path d="m232.28 1500.8c0.6875 0.0625 1.25-0.1875 1.75 0s1.25 1.125 1.6875 1 0-0.75 0.5-0.8125 1.4375 0.9375 2.6875 1.375 2.75 0.75 2.75 0.75 1.1875-1.25 1.4375-1.5625 1.1875-0.6875 2.1875-0.875 3.25 0 3.25 0 0.625-0.5625 0.75-1.125 1.0625-1.25 1.125-1.4375 0.4375-1.375 1.125-1.5625c0 0-0.0625-0.3125-1.0625-0.125s-2.6875 1.0625-2.875 1.25-0.8125 0.1875-1.375 0.125-2.4375 0-2.8125-0.1875-1.125 1.125-1.125 1.125-0.75 1.3125-1.25 1.4375-1 0.125-2.25-0.5625-1.4375 0.0625-2.1875 0.375-1.9375 0.375-2.3125 0.5-2 0.3125-2 0.3125" fill="#d1512b"/>
<path d="m239.09 1505c-0.375-0.25-0.8125-1.125-0.8125-1.125s-0.75-0.8125-0.0625-0.6875 2.125 0.5625 2.6875 0.8125 0.625 0.5625 1.125 0.125 1.0625-1.125 1.375-1.4375 0.625-1 2.1875-0.8125 2.1875-0.25 2.6875-0.375 0.75 0.125 1.25-0.125 1.25-1.5625 1.25-1.75-1.0625 2.875-1.375 3.25-1 1.125-1.625 1.625-1.4375 1.125-1.875 1.125-2.0625 0.6875-2.4375 0.75-2.1875 0.0625-2.8125-0.0625-1.5625-1.3125-1.5625-1.3125" fill="#d1512b"/>
<path d="m245.41 1513c-0.9375-0.375-1.1875-0.6875-0.75-0.875s-0.3125-0.5625-0.3125-0.5625 0.375-0.625 0.4375-0.8125 0.125-0.625-0.4375-0.375-1.0625 1.25-0.75 1.75 0.1875 1.125 1.0625 1.4375 2.125 0.6875 2.375 0.875 0.9375 0.25 2-0.0625 2.6875-1 3.75-1.875 0.5625-1.125-0.875-0.375-2.6875 1.3125-4.0625 1.3125-2.4375-0.4375-2.4375-0.4375"/>
<path d="m218.34 1482.1c0.19141-0.4961-1.5625-0.25-1.5625-0.25s-0.375-0.375-0.125-0.75 0.5-1 0.6875-1.5 2.0625-2.875 3.8125-4.1875 3.625-1.75 5.8125-1.5625 4.5625 1.5625 5.0625 2.375 1.25 1.5625 1.5 2 0.5625 1.9375 0.5625 2.625-0.625 5.5-0.625 5.875-0.125 0.6875-0.6875 0.75-1.9375 2-3.75 2.5625-3.3125 0.375-5.9375-0.4375-3-2.0625-3-2.0625l-0.125-0.6875s-1.9375-3.9375-1.625-4.75"/>
<path d="m223.43 1488.6c1.8008 0.8594 3.7266 0.8008 3.7266 0.8008s1.668-0.5 2.5-1.5c0 0-1.25-0.582-1.75-3.25-0.10156-0.5508-0.14063-1.0234-0.14844-1.457 0.28125 0.2304 0.63281 0.375 1.0234 0.375 0.89844 0 1.625-0.7305 1.625-1.625 0-0.8985-0.72656-1.625-1.625-1.625-0.16406 0-0.31641 0.0312-0.46484 0.0742 0.39453-1.8438 2.0078-3.3242 2.0078-3.3242l-0.5-0.5s-1.5-0.668-2-0.668-1.5-0.418-3.3359 0.332c-1.832 0.75-3.9141 2.418-3.9141 2.418s-0.25 2.332-0.83594 3.168c-0.58203 0.832 0.66797 4.664 2.668 6.164 0.32812 0.2461 0.67187 0.4493 1.0234 0.6172" fill="#fff"/>
<path d="m254.84 1484.5c-1.1953-0.4141-1.6875-0.875-1.8125-2.5625s0-5.8125 0.875-7 2.5-3.5 3.0625-4.375 3.8125-3.0625 5.75-3.625 4-0.125 4.4375 0.125 3.125 0.6875 4.1875 1.625 2 1.5 2.8125 3.125 1.5625 3.125 1.125 3.3125-2.0625 0.5-2.0625 0.5-0.3125 3.6875-2.25 6.5-1.9375 1.9375-2.625 2.375-3.4375 2.25-8.625 1.75c0 0-3.25-1.1875-4.875-1.75"/>
<path d="m268.41 1470.6s-0.875-0.375-2.0625-0.5625-3.3125 0.4375-4.5625 0.75-3.0625 1.8125-3.9375 2.75-2.125 2.625-2.5 3.75-0.6875 1.75-0.6875 1.75c-0.375 2.5625-0.0625 3.5625 0.8125 4.3125 0 0 1.9375 0.9375 4 1.375s3.875-0.3125 4.8125-0.5 3.3125-1.5625 3.3125-1.5625c-0.375 0-1.5625-1-1.875-1.3125s-0.4375-1.1875-0.75-2.375c-0.12891-0.5-0.11719-0.9766-0.03906-1.4492 0.28515 0.6211 0.85156 1.0547 1.5195 1.0547 0.9414 0 1.707-0.8594 1.707-1.918s-0.76563-1.918-1.707-1.918c-0.31641 0-0.60547 0.1016-0.85938 0.2696 0.51953-1.1407 1.8672-2.5469 2.5664-2.9766 0.8125-0.5 3.3125-0.1875 3.3125-0.1875-1.1875-1.25-3.0625-1.25-3.0625-1.25" fill="#fff"/>
</g>
</g>
</g>
<g transform="translate(375)">
<use transform="matrix(2.3885 0 0 2.3885 -422.28 -3281.7)" width="100%" height="100%" stroke-width=".41868" xlink:href="#g3057"/>
<g>
<g transform="translate(2.2392 -2.3885)">
<path d="m129.68 305.93c-0.44784-1.045-1.4928-0.59712-2.3885-0.59712-0.89567 0-1.045-1.1942 0.44784-2.5377 1.4928-1.3435 3.2841-1.7914 3.5827-0.89568s-0.29856 1.9406-0.29856 1.9406 3.1349 0.44784 3.732-0.14928c0.59712-0.59712 3.732-1.3435 4.6277-2.0899 0.89568-0.74639 3.1349-2.3885 4.4784-2.2392 1.3435 0.14928 4.0305 1.9406 4.7769 2.2392 0.7464 0.29856 1.7914 0.59712 2.5378-1.045s2.687-2.9856 3.5827-3.732c0.89568-0.7464 1.7914-1.1942 3.732-1.1942s4.6277-0.14928 7.464 0.14928c0 0 3.8813-1.4928 5.374-1.7914s3.5827-0.59712 4.1798-1.4928c0.59711-0.89568 0.14928-1.7914 1.4928-1.7914s5.2248 1.045 6.7176 1.3435c1.4928 0.29856 1.4928 1.4928-0.14928 2.3885-1.6421 0.89567-3.732-0.59712-3.732-0.59712s-2.3885 1.045-2.3885 1.4928c0 0.44784-1.1942 12.39-5.3741 17.316 0 0 0.29856 1.4928-0.29855 2.0899-0.59712 0.59711-9.106 7.464-14.48 7.464s-9.5539-3.2842-11.494-4.7769-5.5233-7.464-5.5233-7.464-3.2842-0.89568-4.3291-0.89568c-1.045 0-6.2697-3.1349-6.2697-3.1349"/>
<path d="m130.28 305.18c1.6421 0.14928 2.9856-0.44783 4.1798 0 1.1942 0.44784 2.9856 2.687 4.0305 2.3885 1.045-0.29856 0-1.7914 1.1942-1.9406s3.4334 2.2392 6.419 3.2841c2.9856 1.045 6.5683 1.7914 6.5683 1.7914s2.8363-2.9856 3.4334-3.732c0.59711-0.74639 2.8363-1.6421 5.2248-2.0899 2.3885-0.44784 7.7625 0 7.7625 0s1.4928-1.3435 1.7914-2.687 2.5378-2.9856 2.687-3.4334c0.14928-0.44784 1.045-3.2842 2.687-3.732 0 0-0.14928-0.74639-2.5377-0.29855-2.3885 0.44783-6.419 2.5377-6.8668 2.9856s-1.9406 0.44784-3.2841 0.29856c-1.3435-0.14928-5.8219 0-6.7176-0.44784-0.89567-0.44784-2.687 2.687-2.687 2.687s-1.7914 3.1349-2.9856 3.4334-2.3885 0.29856-5.374-1.3435c-2.9856-1.6421-3.4334 0.14928-5.2248 0.89567-1.7914 0.7464-4.6276 0.89568-5.5233 1.1942-0.89567 0.29856-4.7769 0.74639-4.7769 0.74639" fill="#d1512b"/>
<path d="m146.55 315.33c-0.89567-0.59711-1.9406-2.687-1.9406-2.687s-1.7914-1.9406-0.14928-1.6421c1.6421 0.29856 5.0755 1.3435 6.419 1.9406 1.3435 0.59712 1.4928 1.3435 2.687 0.29856 1.1942-1.045 2.5378-2.687 3.2841-3.4334 0.7464-0.7464 1.4928-2.3885 5.2248-1.9406 3.732 0.44784 5.2248-0.59712 6.419-0.89568 1.1942-0.29855 1.7914 0.29856 2.9856-0.29855 1.1942-0.59712 2.9856-3.732 2.9856-4.1798 0-0.44784-2.5377 6.8668-3.2841 7.7625-0.7464 0.89567-2.3885 2.687-3.8813 3.8813-1.4928 1.1942-3.4334 2.687-4.4784 2.687-1.045 0-4.9262 1.6421-5.8219 1.7914-0.89567 0.14927-5.2248 0.14927-6.7176-0.14928-1.4928-0.29856-3.732-3.1349-3.732-3.1349" fill="#d1512b"/>
<path d="m161.62 334.44c-2.2392-0.89568-2.8363-1.6421-1.7914-2.0899 1.045-0.44784-0.7464-1.3435-0.7464-1.3435s0.89568-1.4928 1.045-1.9406c0.14927-0.44784 0.29855-1.4928-1.045-0.89567-1.3435 0.59711-2.5378 2.9856-1.7914 4.1798 0.7464 1.1942 0.44784 2.687 2.5378 3.4334 2.0899 0.74639 5.0755 1.6421 5.6726 2.0899s2.2392 0.59711 4.7769-0.14928c2.5378-0.7464 6.419-2.3885 8.9568-4.4784s1.3435-2.687-2.0899-0.89567c-3.4334 1.7914-6.419 3.1349-9.7032 3.1349-3.2842 0-5.8219-1.045-5.8219-1.045"/>
</g>
<path d="m96.986 260.7c0.45718-1.1849-3.732-0.59712-3.732-0.59712s-0.89568-0.89567-0.29856-1.7914c0.59712-0.89567 1.1942-2.3885 1.6421-3.5827 0.44784-1.1942 4.9262-6.8668 9.106-10.002 4.1798-3.1349 8.6582-4.1798 13.883-3.732s10.897 3.732 12.092 5.6726 2.9856 3.732 3.5827 4.7769c0.59712 1.045 1.3435 4.6276 1.3435 6.2697 0 1.6421-1.4928 13.137-1.4928 14.032 0 0.89568-0.29856 1.6421-1.6421 1.7914s-4.6277 4.7769-8.9568 6.1204c-4.3291 1.3435-7.9118 0.89568-14.182-1.045s-7.1654-4.9262-7.1654-4.9262l-0.29855-1.6421s-4.6277-9.4046-3.8813-11.345"/>
<path d="m109.13 276.1c-0.83971-0.40127-1.6608-0.88636-2.4444-1.4742-4.7769-3.5827-7.7625-12.735-6.3724-14.723 1.3995-1.9965 1.9966-7.5664 1.9966-7.5664s4.9729-3.984 9.3486-5.7753c4.3851-1.7914 6.7736-0.79298 7.9678-0.79298 1.1942 0 4.7769 1.5953 4.7769 1.5953l2.2858 3.4802c-7.6319 0-12.222 0.13996-15.824 4.7769 0.32656-0.08407-1.8473 3.2842-1.4928 3.2842 2.3045 0 5.3741 2.5098 5.3741 4.7769 0 2.2578-0.97966 3.872-3.2842 3.872-1.6048 0-2.9856-0.89568-3.6853-2.1926-0.11195 0.67163-0.19593 1.3528-0.19593 2.0526 0 3.9465 1.9313 7.5478 5.1128 10.3z" fill="#fff"/>
<path d="m184.17 266.37c-2.855-0.98906-4.0305-2.0899-4.3291-6.1204-0.29856-4.0305 0-13.883 2.0899-16.719 2.0899-2.8363 5.9712-8.3596 7.3147-10.45 1.3435-2.0899 9.106-7.3147 13.734-8.6582 4.6276-1.3435 9.5539-0.29856 10.599 0.29856 1.045 0.59712 7.464 1.6421 10.002 3.8813 2.5378 2.2392 4.7769 3.5827 6.7176 7.464s3.732 7.464 2.687 7.9118c-1.045 0.44784-4.9262 1.1942-4.9262 1.1942s-0.74639 8.8075-5.374 15.525c-4.6277 6.7176-4.6277 4.6277-6.2697 5.6726s-8.2104 5.374-20.601 4.1798c0 0-7.7625-2.8363-11.644-4.1798"/>
<path d="m199.51 267.1c1.1849 0.653-2.799 0.03726-4.3011-0.27993-4.9262-1.045-9.5539-3.2842-9.5539-3.2842-2.0899-1.7914-2.8363-4.1798-1.9406-10.3 0 0 0.74639-1.4928 1.6421-4.1798 0.89567-2.687 3.8813-6.7176 5.9712-8.9568s6.419-5.8219 9.4046-6.5683c2.9856-0.7464 8.0611-2.2392 10.897-1.7914 2.8363 0.44783 4.9262 1.3435 4.9262 1.3435s4.4784 0 7.3147 2.9856c0 0 3.732 6.419 0.7464 6.419-2.9856 0-7.464-7.7625-19.108-4.4784 0 0-7.1654 3.8813-7.464 8.9568 0 0 4.1798-3.2841 5.6726-0.89568 1.4928 2.3885 3.5827 4.4784-0.89567 9.2553-4.4784 4.7769-8.3596-1.4928-8.3596-1.4928s-1.2595 9.8245 5.0475 13.267" fill="#fff"/>
</g>
</g>
<g transform="translate(375)">
<use transform="matrix(2.3885 0 0 2.3885 -47.28 -3281.7)" width="100%" height="100%" stroke-width=".41868" xlink:href="#g3057"/>
<g>
<g transform="translate(.64376 -1.7914)">
<path d="m506.27 305.33c-0.44784-1.045-1.4928-0.59711-2.3885-0.59711s-1.045-1.1942 0.44784-2.5378 3.2841-1.7914 3.5827-0.89568c0.29856 0.89568-0.29856 1.9406-0.29856 1.9406s3.1349 0.44784 3.732-0.14928c0.59712-0.59711 3.732-1.3435 4.6277-2.0899 0.89567-0.74639 3.1349-2.3885 4.4784-2.2392 1.3435 0.14928 4.0305 1.9406 4.7769 2.2392 0.7464 0.29856 1.7914 0.59712 2.5378-1.045s2.687-2.9856 3.5827-3.732c0.89568-0.7464 1.7914-1.1942 3.732-1.1942s4.6277-0.14927 7.464 0.14928c0 0 3.8813-1.4928 5.3741-1.7914 1.4928-0.29856 3.5827-0.59711 4.1798-1.4928 0.59711-0.89567 0.14928-1.7914 1.4928-1.7914s5.2248 1.045 6.7176 1.3435c1.4928 0.29856 1.4928 1.4928-0.14927 2.3885-1.6421 0.89568-3.732-0.59712-3.732-0.59712s-2.3885 1.045-2.3885 1.4928c0 0.44783-1.1942 12.39-5.3741 17.316 0 0 0.29856 1.4928-0.29856 2.0899-0.59711 0.59712-9.106 7.464-14.48 7.464s-9.5539-3.2841-11.494-4.7769c-1.9406-1.4928-5.5233-7.464-5.5233-7.464s-3.2841-0.89567-4.3291-0.89567c-1.045 0-6.2697-3.1349-6.2697-3.1349"/>
<path d="m506.87 304.58c1.6421 0.14928 2.9856-0.44784 4.1798 0 1.1942 0.44783 2.9856 2.687 4.0305 2.3885 1.045-0.29855 0-1.7914 1.1942-1.9406 1.1942-0.14927 3.4334 2.2392 6.419 3.2842 2.9856 1.045 6.5683 1.7914 6.5683 1.7914s2.8363-2.9856 3.4334-3.732c0.59712-0.7464 2.8363-1.6421 5.2248-2.0899s7.7625 0 7.7625 0 1.4928-1.3435 1.7914-2.687 2.5378-2.9856 2.687-3.4334c0.14927-0.44784 1.045-3.2841 2.687-3.732 0 0-0.14928-0.7464-2.5378-0.29856-2.3885 0.44784-6.419 2.5378-6.8668 2.9856-0.44784 0.44784-1.9406 0.44784-3.2841 0.29856-1.3435-0.14928-5.8219 0-6.7176-0.44783-0.89568-0.44784-2.687 2.687-2.687 2.687s-1.7914 3.1349-2.9856 3.4334c-1.1942 0.29856-2.3885 0.29856-5.374-1.3435-2.9856-1.6421-3.4334 0.14928-5.2248 0.89568-1.7914 0.74639-4.6276 0.89567-5.5233 1.1942-0.89567 0.29856-4.7769 0.7464-4.7769 0.7464" fill="#d1512b"/>
<path d="m523.14 314.73c-0.89567-0.59712-1.9406-2.687-1.9406-2.687s-1.7914-1.9406-0.14928-1.6421 5.0755 1.3435 6.419 1.9406c1.3435 0.59711 1.4928 1.3435 2.687 0.29856 1.1942-1.045 2.5377-2.687 3.2841-3.4334 0.7464-0.74639 1.4928-2.3885 5.2248-1.9406 3.732 0.44784 5.2248-0.59711 6.419-0.89567 1.1942-0.29856 1.7914 0.29856 2.9856-0.29856 1.1942-0.59712 2.9856-3.732 2.9856-4.1798s-2.5378 6.8668-3.2841 7.7625c-0.7464 0.89568-2.3885 2.687-3.8813 3.8813-1.4928 1.1942-3.4334 2.687-4.4784 2.687s-4.9262 1.6421-5.8219 1.7914-5.2248 0.14928-6.7176-0.14928c-1.4928-0.29856-3.732-3.1349-3.732-3.1349" fill="#d1512b"/>
<path d="m538.22 333.84c-2.2392-0.89568-2.8363-1.6421-1.7914-2.0899 1.045-0.44784-0.7464-1.3435-0.7464-1.3435s0.89567-1.4928 1.045-1.9406c0.14928-0.44784 0.29856-1.4928-1.045-0.89568s-2.5378 2.9856-1.7914 4.1798c0.74639 1.1942 0.44784 2.687 2.5378 3.4334 2.0899 0.7464 5.0755 1.6421 5.6726 2.0899 0.59711 0.44784 2.2392 0.59712 4.7769-0.14928 2.5378-0.74639 6.419-2.3885 8.9568-4.4784 2.5377-2.0899 1.3435-2.687-2.0899-0.89567-3.4334 1.7914-6.419 3.1349-9.7032 3.1349-3.2842 0-5.8219-1.045-5.8219-1.045"/>
</g>
<g>
<path d="m475.32 248.73c0.73708-1.3715 1.7167-2.5098 2.8363-3.5082 1.0916-1.0261 2.3698-1.8566 3.7133-2.5378 2.715-1.3435 5.8406-1.9313 8.8635-1.6046 3.0322 0.29856 5.9152 1.4835 8.3316 3.1721 1.2969 0.73708 2.3231 1.8007 3.4614 2.7243 1.0543 1.0077 2.0153 2.0992 2.9949 3.1628 0.22392 0.24267 0.21461 0.61574-0.02799 0.83978-0.22392 0.20517-0.56912 0.21449-0.79304 0.00932l-0.05596-0.04658c-1.0636-0.93317-2.0433-1.9313-3.1162-2.827-1.1476-0.78365-2.1739-1.7541-3.3961-2.3792-2.3231-1.5021-4.9449-2.3885-7.5946-2.6498-2.6497-0.25198-5.3274 0.31719-7.7346 1.4835-2.4071 1.1477-4.6743 2.827-6.475 4.7956l-0.03734 0.04657c-0.22391 0.24267-0.60643 0.2613-0.84902 0.0375-0.20525-0.18678-0.25192-0.48534-0.12129-0.71845"/>
<path d="m559.22 241.4c1.922-2.9856 4.1238-5.8219 6.7829-8.2383 2.631-2.4353 5.6446-4.5159 9.0127-5.8873 3.3588-1.3901 7.0721-1.95 10.711-1.6141 3.6387 0.34537 7.0535 1.6889 10.235 3.3028 0.28922 0.14927 0.41053 0.50396 0.26125 0.80252-0.13996 0.27993-0.47583 0.40126-0.75573 0.27993l-0.04665-0.01863c-3.1908-1.3156-6.4563-2.4166-9.8524-2.687-3.3774-0.23335-6.7736 0.27038-9.9271 1.4928-6.363 2.5002-11.439 7.6132-15.432 13.23-0.18659 0.27993-0.55978 0.34537-0.83037 0.15859-0.26123-0.18654-0.32653-0.5503-0.1586-0.82091"/>
<path d="m468.2 257.65c-1.2782-2.2112 10.412 8.5089 19.425 9.3764 9.0221 0.85842 15.441-0.35445 17.307-2.3978 1.8567-2.0431 1.017-0.3265 1.017-0.3265l2.8083 0.44783s-6.6336 6.2511-18.595 5.5606c-11.961-0.68096-19.248-7.9863-21.963-12.661"/>
<path d="m557.92 255.05c0.88633-1.4648 0.19592 4.1053 2.1925 3.9185 1.9873-0.18654 11.14 1.8661 25.676-5.402 14.527-7.2772 16.915-13.248 16.915-13.248s7.9584-2.2299 9.5539-0.17746c0 0-6.3724 2.6032-15.124 10.44-8.7608 7.828-17.522 12.12-42.992 11.56 0 0 1.6887-3.6388 3.7786-7.0909"/>
</g>
</g>
</g>
</svg>
