<?xml version="1.0" encoding="UTF-8" standalone="no"?>
<svg
   xmlns:dc="http://purl.org/dc/elements/1.1/"
   xmlns:cc="http://creativecommons.org/ns#"
   xmlns:rdf="http://www.w3.org/1999/02/22-rdf-syntax-ns#"
   xmlns:svg="http://www.w3.org/2000/svg"
   xmlns="http://www.w3.org/2000/svg"
   version="1.1"
   id="svg2"
   xml:space="preserve"
   width="671.78668"
   height="671.78668"
   viewBox="0 0 671.78668 671.78668"><defs
     id="defs6" /><g
     id="g3725"><path
       id="path14"
       style="fill:#100f0d;fill-opacity:1;fill-rule:nonzero;stroke:none;stroke-width:0.13333333"
       d="M 335.89466,0 C 244.67066,0 233.23199,0.38535345 197.40533,2.0200201 161.65333,3.6506867 137.236,9.3293532 115.87026,17.63202 93.782264,26.216019 75.050531,37.701353 56.376532,56.374685 37.703066,75.048018 26.217733,93.781351 17.633866,115.86935 9.3307331,137.23468 3.6525999,161.65202 2.0208399,197.40402 0.38645866,233.23068 0,244.66935 0,335.89335 0,427.11601 0.38645866,438.55468 2.0208399,474.38134 3.6525999,510.13334 9.3307331,534.55067 17.633866,555.91587 26.217733,578.00387 37.703066,596.73614 56.376532,615.41067 75.050531,634.084 93.782264,645.56947 115.87026,654.15334 137.236,662.45594 161.65333,668.13459 197.40533,669.76531 233.23199,671.39969 244.67066,671.78667 335.89466,671.78667 427.11732,671.78667 438.55599,671.39969 474.38265,669.76531 510.13465,668.13459 534.55199,662.45594 555.91732,654.15334 578.00532,645.56947 596.73732,634.084 615.41198,615.41067 634.08532,596.73614 645.57065,578.00387 654.15465,555.91587 662.45732,534.55067 668.13598,510.13334 669.76665,474.38134 671.40132,438.55468 671.78798,427.11601 671.78798,335.89335 671.78798,244.66935 671.40132,233.23068 669.76665,197.40402 668.13598,161.65202 662.45732,137.23468 654.15465,115.86935 645.57065,93.781351 634.08532,75.048018 615.41198,56.374685 596.73732,37.701353 578.00532,26.216019 555.91732,17.63202 534.55199,9.3293532 510.13465,3.6506867 474.38265,2.0200201 438.55599,0.38535345 427.11732,0 335.89466,0 Z M 335.89466,60.520019 C 425.58132,60.520019 436.20532,60.862685 471.62399,62.478685 504.37332,63.972019 522.15865,69.444018 533.99465,74.044018 549.67332,80.137351 560.86265,87.416018 572.61599,99.169351 584.37065,110.92402 591.64932,122.11335 597.74265,137.79202 602.34265,149.62802 607.81465,167.41335 609.30798,200.16268 610.92398,235.58135 611.26665,246.20535 611.26665,335.89335 611.26665,425.58001 610.92398,436.20401 609.30798,471.62268 607.81465,504.37201 602.34265,522.15734 597.74265,533.99334 591.64932,549.67214 584.37065,560.86121 572.61599,572.61481 560.86265,584.36947 549.67332,591.64814 533.99465,597.74134 522.15865,602.34134 504.37332,607.8132 471.62399,609.3064 436.21066,610.92267 425.58799,611.26534 335.89466,611.26534 246.19999,611.26534 235.57866,610.92267 200.16399,609.3064 167.41466,607.8132 149.62933,602.34134 137.79333,597.74134 122.11453,591.64814 110.92546,584.36947 99.171864,572.61481 87.418264,560.86121 80.138531,549.67214 74.045331,533.99334 69.445332,522.15734 63.973998,504.37201 62.479732,471.62268 60.863598,436.20401 60.521332,425.58001 60.521332,335.89335 60.521332,246.20535 60.863598,235.58135 62.479732,200.16268 63.973998,167.41335 69.445332,149.62802 74.045331,137.79202 80.138531,122.11335 87.417731,110.92402 99.171331,99.170684 110.92546,87.416018 122.11453,80.137351 137.79333,74.044018 149.62933,69.444018 167.41466,63.972019 200.16399,62.478685 235.58266,60.862685 246.20666,60.520019 335.89466,60.520019" /><path
       id="path16"
       style="fill:#100f0d;fill-opacity:1;fill-rule:nonzero;stroke:none;stroke-width:0.13333333"
       d="M 335.89466,447.85734 C 274.05733,447.85734 223.92933,397.72934 223.92933,335.89335 223.92933,274.05601 274.05733,223.92801 335.89466,223.92801 397.73066,223.92801 447.85866,274.05601 447.85866,335.89335 447.85866,397.72934 397.73066,447.85734 335.89466,447.85734 Z M 335.89466,163.40668 C 240.63199,163.40668 163.408,240.63068 163.408,335.89335 163.408,431.15468 240.63199,508.37867 335.89466,508.37867 431.15599,508.37867 508.37999,431.15468 508.37999,335.89335 508.37999,240.63068 431.15599,163.40668 335.89466,163.40668" /><path
       id="path18"
       style="fill:#100f0d;fill-opacity:1;fill-rule:nonzero;stroke:none;stroke-width:0.13333333"
       d="M 555.50265,156.59202 C 555.50265,178.85335 537.45599,196.89868 515.19465,196.89868 492.93465,196.89868 474.88799,178.85335 474.88799,156.59202 474.88799,134.33068 492.93465,116.28402 515.19465,116.28402 537.45599,116.28402 555.50265,134.33068 555.50265,156.59202" /></g><metadata
     id="metadata3755"><rdf:RDF><cc:Work
         rdf:about=""><dc:title></dc:title></cc:Work></rdf:RDF></metadata></svg>