<svg width="3220" height="750" version="1.2" viewBox="0 0 2415 562.5" xmlns="http://www.w3.org/2000/svg" xmlns:xlink="http://www.w3.org/1999/xlink">
<g id="g2046" transform="matrix(-1.9961 0 0 1.9961 648.02 -2475.3)" stroke-width=".50096">
<path d="m257.36 1378.5c0.91797 1.918 3.25 6.836 6.25 12.168s6.168 10.5 6.918 11.168c0.75 0.664 0.33203 1.5 0.33203 1.5s3.168 2.414 6.25 6.832c0 0 0.25 3 0.58594 3.832 0.33203 0.836 0.16406 4 0.16406 4s2.75 5.086 4.668 10.418 4.832 12 5.918 15.168c1.082 3.164 3.1641 12.332 4.332 14.082 0 0 2.25 1.668 3.918 4.332 0 0 0.41406 2.086 1.332 4.5 0.91797 2.418 3.5 8.668 4 10.75l-0.33203 0.918s0.58203 1.832 0.58203 2.25-0.33203 0.168-0.25 0.832c0.08203 0.668 1 1.75-0.83203 1.75-1.8359 0-13.336 0.168-15 0.918 0 0-1.168-6.75-3.0859-10.332-1.9141-3.586-2-4.168-1.6641-6.418 0.33203-2.25 0.33203-4.5 0.33203-4.5s0.41797-1.918-0.58203-4.668-2.5859-8.664-2.5859-8.664l-0.5-0.75s-1.9141-6.086-2.6641-7.086c0 0-0.33594-2.164-1.0859-3.25-0.75-1.082-3.4141-9.414-4.25-11.582-0.83203-2.168-2.9141-5.918-2.832-9.332 0 0-3.168-3.586-4.5-6.75-1.332-3.168-9.75-24.5-9.75-24.5s3.082-5.086 3.418-6.25c0.33203-1.168 0.91406-1.336 0.91406-1.336"/>
<path d="m301.2 1482.2s-0.66797-2.25 0.08203-2.414c0 0-0.33203-1.918-0.16797-2.5 0.16797-0.586-2.9141-7.418-3.6641-9.75-0.75-2.336-1.668-5-1.668-5l-2.582-2.836-0.66797-0.5-0.75-1.75-0.5-0.082s-3.082-9.418-3.918-12c-0.83203-2.582-2.332-6.918-3.4141-10.168-1.0859-3.25-2.418-5.25-2.418-5.25l0.16797-0.75s-1.418-3.414-2.168-5.25c-0.75-1.832-1.75-3.582-1.75-3.582l-0.25 1.168s-0.41797 0.5-1 0.5l-1.082-11.5 0.25-0.418s-6.168-6.25-6.75-6.75c-0.58594-0.5-0.25-1.168 0.58203-0.832 0 0-5-7.418-6-10.168l-0.83203-1-5.168-9.332s-0.75-0.418-1-0.25c-0.25 0.164-2.668 4.414-2.668 4.414s8.0859 21.25 9.5859 23.5 2.4141 3.836 2.4141 3.836l2.5859 4s-0.33594 2.332 1.332 5.75c1.668 3.414 5.168 13.082 6 15 0.83203 1.914 3.582 9.75 3.582 9.75l0.25 2s2.8359 9.582 3.3359 10.5c0.5 0.914 0.91406 2.664 0.66406 4.164s-0.25 2.918-1.1641 3.75c0 0 0.25 1.918 1.25 3.668s2.6641 6.082 2.6641 6.082 0.08594 1.586 0.33594 2.086 0.41406 2.75 0.41406 2.75 9.168-0.75 14.086-0.836" fill="#47b0a8"/>
<path d="m273.28 1416.1s-0.41797 0.5-1 0.414c-0.58203-0.082-1-0.582-0.66797-2.414 0.33594-1.836 0.16797-3.086 0.16797-3.086s-1.082-1.914-0.5-2.082-0.33203-1.082 0.66797-1.082 1.6641 1.5 1.6641 3.832-0.33203 4.418-0.33203 4.418"/>
<path d="m271.03 1420.3s-0.5-0.668 0.08203-0.668c0.58594 0 2 1.75 2.418 2.332 0.41797 0.586 1.668 2 1 2.418s-1.332 0.332-2.168-0.082c-0.83203-0.418-2.75-2.25-3-2.836-0.25-0.582-0.58203-1.664-0.16406-1.75 0.41406-0.082 0.75 0.586 0.75 0.586z"/>
<path d="m301.28 1479.8s-0.33203-1.918-0.16797-2.5c0.16797-0.586-2.9141-7.418-3.6641-9.75-0.75-2.336-1.668-5-1.668-5l-2.582-2.836-0.66797-0.5-0.75-1.75-0.5-0.082s-3.082-9.418-3.918-12c-0.83203-2.582-2.332-6.918-3.4141-10.168-1.0859-3.25-2.418-5.25-2.418-5.25l0.16797-0.75s-1.418-3.414-2.168-5.25c-0.75-1.832-1.75-3.582-1.75-3.582l-0.25 1.168s-0.39063 0.4531-0.9375 0.4883c0.5 1.25 0.93359 2.3085 1.1055 2.6757 0.5 1.086 2.4141 5.168 3 6.586 0.58203 1.414 2 8 2.75 10.914 0.75 2.918 3.832 15.75 4.25 16.75 0.41406 1 2.9141 3.336 3.4141 3.668s1.25 0.418 1.8359 5.082c0 0 0.16406 2.168 4.6641 6.418 0 0 1.0859 5.918 0.41797 6.668l1.7227 1.4531c0.50781-0.0156 0.99609-0.0313 1.4453-0.0391 0 0-0.66797-2.25 0.08203-2.414" fill="#b08c30"/>
<path d="m275.45 1410.6 0.25-0.418s-6.168-6.25-6.75-6.75c-0.58594-0.5-0.25-1.168 0.58203-0.832 0 0-5-7.418-6-10.168l-0.83203-1-5.168-9.332s-0.41797-0.2344-0.73438-0.2813l-0.46484 0.2852c-0.13672 0.2031-0.32422 0.5078-0.54297 0.8633 1.3008 1.9726 5.25 9.2031 6.4102 11.215 1.25 2.168 1.832 4.418 2.5 5.332 0.66406 0.918 2.332 3.668 3 4.5 0.66406 0.836 6.332 6.418 6.332 6.418s0.25 4.832 0.33203 5.582c0.05469 0.4805 1.1992 3.4805 2.1484 5.8672z" fill="#b08c30"/>
<path d="m287.7 1469.6c-0.66797 0.75-1.668 0.75-1.918 0.5s0.08203-0.918 0.08203-0.918-0.16406-1 0.75-1.5c0.91797-0.5 2.168-2.168 2.3359-2.418 0.16406-0.25 0.25-0.914 1.082-0.914s3.418-0.086 3.418-0.086 1.25 0.586 1.25 1c0 0.418-0.66797 1.168-1.3359 1.5-0.66406 0.336-5.6641 2.836-5.6641 2.836"/>
<path d="m290.7 1473.1s-1.5-0.586-0.91797-1.418 1.668-1 2.832-0.5c1.168 0.5 3.418 1.418 4.168 1.75s1.168 1 1.832 1.25c0.66797 0.25 2.168 2.25 2.0859 2.75-0.08594 0.5-0.75 0.75-1.168 0.832-0.41797 0.086-1.5 0.25-1.5 0.25s-1.25 0.336-3.168-0.082c-1.9141-0.418-5.25-1.832-5.9141-2.168-0.66797-0.332 0.25-1.664 0.25-1.664h1.332z"/>
<path d="m287.28 1482.7s0.25-0.832 0.5-0.832h0.83203s-0.5-0.832 0.33594-1.082l0.16406-1.168s-0.83203-0.25-0.33203-0.582c0.5-0.336 0.66797-0.75 2.332-0.5 1.668 0.25 5.168 0.75 6.5 1.5 1.3359 0.75 2.5859 1.25 2.75 2.082l-10.832 0.668z"/>
<path d="m290.2 1480.4s-0.91797 0-0.16797-0.418c0.75-0.414 4.75-0.25 5.582 0.418l-0.75 0.082s-1.9141-0.332-2.75-0.332c-0.83203 0-1.9141 0.25-1.9141 0.25" fill="#47b0a8"/>
<path d="m280.18 1551.8c0.02344-0.0429 0.04297-0.082 0.05469-0.1171 0.12109-0.2774 0.04687-0.5313-0.06641-0.6758-0.00781-0.0078-0.01562-0.0117-0.01953-0.0196-0.15234-3.8945-0.38281-9.5234-0.75-17.672-1.125-25-1.75-35.375-2.625-39s-4.75-27.625-4.75-27.625c-21.625 0-62.875-0.5-62.875-0.5s-3.125 10-4.5 14l-1.875 8.125s5.125 1.5 4.875 5.125-2.625 17.875-4.5 28.125c-1.1914 6.5078-3.2383 17.555-4.5742 24.75-0.00781 0.0078-0.01953 0.0117-0.03125 0.0195-0.15625 0.1602-0.17969 0.3945-0.08203 0.582-0.70703 3.8086-1.1875 6.3985-1.1875 6.3985 8.125 8.625 19.5 8.375 22.75 7.875s1.625-1.75 1.625-1.75c12-32 16.375-53.375 16.375-53.375 1.875 0 9.125-2.125 9.125-2.125 2.7305 21.535 5.5156 38.203 7.1562 47.371-0.07422-0.0313-0.15234-0.0586-0.21875-0.086-0.25391-0.1015-0.54688 0.0196-0.64844 0.2735-0.10547 0.2578 0.01563 0.5507 0.26953 0.6523 0.22266 0.0899 0.49219 0.1914 0.80078 0.3008 0.78907 4.3633 1.2656 6.7383 1.2656 6.7383s-0.75 1 0.5 1.75 4.625 0.625 12.375 0.75 11-0.75 11-0.75l0.75-1.25s0.05078-0.5899-0.21875-7.8907"/>
<path d="m208.9 1486.2 0.75 0.375s-1.125 9.5-1.875 15.625-5.5 31.375-6.375 36-2.625 15.5-2.625 15.5c6.5 6 21.125 6 21.125 6 7.875-21.75 16.875-53.375 17.25-56.375s1.625-1.5 1.625-1.5l-0.5 3.125c2-0.25 10.125-3.5 10.125-3.5l4.5 0.625-4.5 1.375s1.75 14.125 3.125 22.25 5.375 33.5 5.375 33.5c16.25 2.5 22.25 0.375 22.25 0.375l-0.125-8.5c-2.125-44.875-3.5-55.875-3.5-55.875s-4.75 2-5.375 1.5-1.5 0.125-2.5 0.5-7.625 1-10.125 1.125-3 2.375-3 2.375c-0.625-0.25-9 0-11.375-0.75s-8.625-0.25-9.875-0.875-4.625-0.25-7-0.75-13.375-2.875-13.375-2.875-1.75 0.75-0.625-3.25 4.25-21.625 4.5-23.25c0 0-1.5 0.5-3.25 0s-4-0.625-4-0.625l-3.25 10.5s0.5-1 1.25 1.375 1.375 6 1.375 6" fill="#547378"/>
<path d="m219.68 1553.6c-8.8711 0-18.195-3.6524-21.125-6.586-0.19922-0.1953-0.19922-0.5117 0-0.707 0.19531-0.1953 0.50781-0.1953 0.70703 0 3.207 3.2109 14.578 7.1836 23.711 6.1094 0.26562-0.043 0.52343 0.1601 0.55468 0.4375 0.03125 0.2734-0.16406 0.5195-0.4375 0.5547-1.1172 0.1328-2.2617 0.1914-3.4102 0.1914"/>
<path d="m279.38 1551.6m0.00391 0m-13.402 2.4687c-6.6758 0-10.664-1.2812-12.27-1.9375-0.2539-0.1016-0.375-0.3945-0.26953-0.6523 0.10156-0.2539 0.39453-0.375 0.65235-0.2735 1.9375 0.793 7.5117 2.5391 17.387 1.5899 6.2148-0.5938 7.5312-1.2891 7.7969-1.5 0-0.1485 0.06641-0.2969 0.19531-0.3946 0.21485-0.1718 0.52735-0.1328 0.69922 0.086 0.10938 0.1445 0.1875 0.3984 0.06641 0.6758-0.16016 0.3711-0.58203 1.3554-8.6641 2.1289-2.0391 0.1953-3.9023 0.2773-5.5938 0.2773"/>
<path d="m196.78 1660.7c-2.0781-0.793-4.5-5.375-4.375-8.375s-0.25-6.625 1.125-8c0 0-1.625-10-2.625-16.875s-1.5-27-0.25-36.875 5.625-25.625 7.5-30.875c0 0 1.125-2.25 0.375-4.875 0 0 8 5 20.125 5.625 0 0 0.625 2-2.125 4 0 0 0.875 0.125-2.5 4.375 0 0 0.25 4.125-0.125 7.375s-0.75 12.875-1.25 17.625-2.125 19.5-2.125 24.875-3 13.75-0.75 26.625c0 0 0.25 11.75-0.25 12.5s-1.25 1.875-2.25 1.875-7.875 2-10.5 1"/>
<path d="m199.78 1557.6s4.125 2.5 6 3c0 0-0.375 2.875 1.125 4s1.5 2.25 6.875 1.875c0 0-3.875 5.125-4.375 5.625s0.375 1.5 1.125 0.75 2.5-3.125 2.5-3.125-1.375 10-1.25 18.25c0 0-1.375 11.25-1.5 16.875s-1.25 11.375-1.25 15.875-2.375 11.625-0.625 25.125-1.75 12.75-1.75 12.75l-8.375 1.125s-2.875-0.625-3.625-4.5 0.625-8.375-0.125-11.5-2.625-17.375-3.25-23.5 0.25-17.25-0.125-21.75 3.3555-22.18 5.125-28.375c2-7 4.3906-11.082 3.5-12.5" fill="#d48a68"/>
<path d="m207.45 1561.2c0.25 0.5 0.41406 2.086 0.83203 2.418s1.418 1.418 1.832 1.582c0.41797 0.168 3.75 0.25 4.25 0.086 0.5-0.168 1.418-1.75 1.8359-2 0.41406-0.25-0.33594-0.5-1.3359-0.668s-4.832-1.25-5.75-1.25c-0.91406 0-1.6641-0.168-1.6641-0.168" fill="#d44c26"/>
<path d="m200.11 1324.7c-7.1641-3-14.332-9.332-15.914-11.164l-1.418-1.668h-0.58203s-5.918-6-9.5859-12.332c-3.6641-6.336-1.9141-7.25-1.25-8.418 0.66797-1.168 2.168-2.082 5.5859-1.332 3.4141 0.75 13.664 4.332 14.664 5.164 0 0-7.832-16.164-7.4141-28.082 0.41406-11.918 2.582-15.918 5.5-16.25 2.9141-0.332 12.164 6.668 19.332 14.668s7.168 9.082 7.168 9.082-1.418-11.25 0.58203-19 7-14.75 10.5-15.25 4.168 0.25 4.918 1.25 2.582 3.5 3 4c0.41406 0.5 5.582 13 6.832 21.082l0.33203 0.086s2.8359-8.668 9-15.168c6.168-6.5 6.75-5.332 9.668-4.832s6 8.25 6.5 10.082 2.25 10.668 0.58203 15.75l0.33594 0.25s5.5-7.25 13.414-10.582c0 0 3.168-0.75 4.418-0.5 0 0-0.16797-0.75 1.082-0.336l1.3359 0.168s0 1 0.41406 1.5c0.41797 0.5 1.8359 5.418 2 8.082 0.16797 2.668 0.08594 11.25-0.16406 14.836-0.25 3.582-2.0859 13.25-5 17.832l0.5 0.25s0.5-1.75 1.9141-2.082c1.418-0.336 8.3359-5.586 15.75-5.75 0 0 1.168-0.5 1.8359 1 0.66406 1.5 0.33203 1.664 0.08203 2.664s-0.91797 3.086-0.66797 3.75c0.25 0.668-6.5 10.086-12.5 15 0 0 7.668-0.664 13.586 1 5.9141 1.668-0.33594 7.836-0.33594 7.836s-6.832 7.082-17 9.75c-10.164 2.664-11.5 3-18.414 3-6.918 0-70.586-15.336-70.586-15.336"/>
<path d="m199.7 1322.9c-0.58594-0.75-1.8359-1.5-2.3359-1.25 0 0-9.582-7.168-11-8.332-1.4141-1.168-9-8.336-10.582-11.668s-3.668-4.332-4.168-7.168c-0.5-2.832 2-3.5 2.5859-3.5 0.58203 0 1.25-0.082 1.832 0.586 0.58203 0.664 1.418-0.086 4.25 1 2.832 1.082 9.832 3.5 12.332 4.914 2.5 1.418 2.75 2.25 2.75 2.25s0.75 0.918 1.25 0.168-2.1641-3.668-2.832-4.668-2.5-4.582-3.582-7.664c-1.0859-3.086-3.5-10.75-3.8359-15-0.33203-4.25-0.5-12 0.33594-15.75 0.83203-3.75 2.332-6 4.25-3.836 0 0 3.25 1.586 6.332 3.918s11.418 9.418 15.5 16.332c4.082 6.918 3.582 6.668 3.582 6.668s0.83594 0.918 1.8359 0.668 1.082-0.668 0.33203-2.086c-0.75-1.414-1.25-6.75-1.082-11.75 0.16406-5 2.332-17.332 6.832-22.582s7.582-0.582 7.582-0.582 4.5 6.832 6.5 13.914c2 7.086 2.418 12.5 2.418 12.5s0.33203 0.5 0.16797 1.25c-0.16797 0.75-0.66797 2.168 0.25 2.25 0.91406 0.086 1.832-2.75 2.332-4.332s3.75-9.582 4.082-9.918c0.33594-0.332 1.0859-1.082 2.5-3.164 1.418-2.086 6.5859-7.918 8.0859-8.168s3.082 0.582 3.75 1.168c0.66406 0.582 2.582 3.414 4 6.832 1.4141 3.418 1 10.668 0.83203 12.918s-1.418 9-1.418 9 0.25 0.5 1.418 0.082 0.5-1.918 0.5-1.918l0.58203-0.082s4.918-7.082 11.25-10.168c6.3359-3.082 7.75-3.332 8.0859-1.75 0.33203 1.586 1.582 3.75 1.75 5.5 0.16406 1.75 2.75 23.918-8.5859 41.668l0.25 1.418s2.668-4.586 6.75-8.336c4.0859-3.75 12.918-6.5 15.918-6.414 0 0 1.332-0.25 1.332 0.082s-0.41406 0.832-0.41406 1.082 0.33203 1 0 1.836c-0.33594 0.832-0.91797 2.914-1.8359 4.332-0.91406 1.418-6.6641 9.832-14.582 15.75 0 0-0.66797 1.75 0.58203 1s2.25-1.75 2.25-1.75 7.8359-0.168 11.086 0.25 5.1641 1.5 5.332 1.832c0.16797 0.336 0.33203 1.25-2.418 3.75s-10.914 11.25-33.582 11.836c-22.668 0.582-54.668-12.418-54.668-12.418s-2.75-1.5-3.082-2.332c-0.33203-0.836-4.25-6.75-5.668-8.086-1.4141-1.332-3.082-2.832-5.25-2.414-2.1641 0.414-2.832 4.582-2.832 4.582z" fill="#570c00"/>
<path d="m212.95 1322.2c-0.41797-11.5 1.332-32.582 1.6641-34.75 0.33594-2.164 0.66797-2.082 1.418-2.082s1.668 1.168 1.668 1.168 13.25 7.164 34.75 23.664c0 0 22.582-2.582 26.25-2.832 3.6641-0.25 1 1.75 1 1.75l-1.0859-0.082s0 8.832-4.6641 16.664c0 0-1.0859 2.25-1.0859 3.5l-1.1641 1.336s0.5 1.332-0.16797 2.5c-0.66797 1.164-0.5 4.75-0.5 4.75s-0.25 2.75-0.83203 3.5c-0.58594 0.75-5.0859 6.582-18.5 10.082 0 0-9.0859 2.832-12.086 2s-10.414-5.668-14.832-8.418-13.918-11.082-16.668-15c0 0-2.4141 0.836-2.832 1.168s-1 1.082-1.832 0.25c-0.83594-0.832-3.5859-3.25-4-5.332-0.41797-2.086-0.75-7.586-0.33594-9.75 0.41797-2.168 2.75-4.418 2.75-4.418s2.75-0.832 4.918 1.5 4.082 4.418 4.918 6.168c0.83203 1.75 1.25 2.664 1.25 2.664"/>
<path d="m209.61 1329.6s-0.5-0.5 0.25-0.836c0.75-0.332 1.25-0.914 0.91797-1.5-0.33203-0.582-3.582 1.168-3.582 1.168s-2.25 1.668-2.918 1.582c-0.66797-0.082-2-1.332-2-1.332l-0.08203-0.75s-1.418-0.668-2-6.168c-0.58594-5.5 0.75-8.082 1.582-8.332s3.832 0.332 5.25 1.918c1.418 1.582 5.418 8.5 5.418 8.5s0.33203 0.332 0.83203 0.5c0.5 0.164 1.082-0.75 1.082-0.75s0.25-12.168 0.5-17.25c0.25-5.086 0.33594-11.918 1.418-17.836 0 0 0-0.25 1.918 0.918 1.9141 1.168 19.25 11.918 26.332 17.332 6.2617 4.7891 5.332 3.5 5.918 3.75 0.58203 0.25 1.082 1.336 2.082 1.418s24.582-2.75 24.582-2.75-0.33203 10-7.6641 21.582c0 0-0.66797 0.918-0.08594 2 0.58594 1.086-0.08203 7.25-0.08203 7.25s-8.5 10.168-27.082 11.75c0 0-1.75 0.336-3.25-0.332s-9.3359-5.082-9.918-5.418c-0.58203-0.332-2.5-1.414-2.5-1.414s-13.332-9.5-16.918-15" fill="#d48a68"/>
<path d="m244.46 1315.7c1.2539 0.9531 2.9375 1.9375 3.125 1.6875s0-0.625-1.375-1.375-1.5-0.9375-1.5-0.9375l-0.125-0.4375s-2.5625-2.0625-3.125-3-0.3125-1.125-0.3125-1.125-6.25-4.25-7.4375-5-3.875-2.4375-4.125-2.4375-0.625-0.125-0.625-0.125l-2.6875-1.3125-1.5625-0.0625s-1.5 0-2 0.0625-1.125 0.125-1.0625 0.8125l0.8125 0.25s5.1875 2.5625 7 3.6875 5.5 3.75 6.375 4.3125 2.25 1.5 2.6875 1.5625 1.8125 1.5 2.4375 1.75 0.875-0.3125 3.5 1.6875"/>
<path d="m250.78 1318c-0.88281 0.0156-1.9375-0.125-1.5625-0.625s4.375-0.75 4.375-0.75l1.0625-0.25s0.3125-0.9375 1.375-1.125 4.25-0.6875 4.9375-0.75 5.0625-0.75 7.8125-0.125 2.9375 2.5 2.6875 2.8125-0.6875 0.375-1.125 0.3125-2.125-0.5625-3.6875-0.5625-8.6875 0.0625-10.562 0.375-2.25 0.625-5.3125 0.6875"/>
<g fill="#d44c26">
<path d="m215.46 1327.5c2.1445 2.3242 4 4 6.4375 3.125s2.5625-3.4375 1.9375-4.3125-3.1875-3.3125-4.4375-3.9375-2.1875-0.5-3.5625 0.5625-1.875 2.9375-0.375 4.5625"/>
<path d="m260.9 1339.4c-0.85547-1.7071 0.0625-3.5 1.5-4.5625s4.25-3.6875 5.9375-1.5625 1.375 3.5625 0.5625 4.1875-3.875 3.3125-5.375 3.3125-2.375-0.875-2.625-1.375"/>
<path d="m240.9 1330.3c0.91797-0.6914 1.8125-2.125 3.375-1.9375 0 0 0.625-6.125 2.5625-7.25s3.375-0.25 4 1.1875 1.125 5.875-0.625 8.4375c0 0-3.25 1.875-3.625 2.125s-2.9375 0.375-4.5-0.4375-2.4375-1.1875-1.1875-2.125"/>
</g>
<path d="m249.15 1328.8c0.0625-1.0625-0.0625-2.0625 0.5625-2.375s0.5625-0.0625 0.625 1.125-0.3125 4.1875-0.375 4.5-0.25 1-0.25 1 0.3125 0.625-0.5625 0.8125-4.0625 0-5.375-0.4375-3.6875-1.5-4.8125-2.75 2.6875-1.1875 3.6875-1.125 2.875 0.375 3.0625 0.875-0.125 0.875-0.4375 0.875-2.5625-1-3.9375-0.6875 2.5 1.375 2.5 1.375 3.1875 0.5625 4.375 0.5c0 0 0.625 0.0625 0.75-0.75s0.1875-2.9375 0.1875-2.9375"/>
<path d="m203.61 1321.4-1.1641 0.418s-0.91797-3.75 0-4.75l-0.125-0.668s-1.4609 0.082-0.875-0.918c0.53515-0.9218 1.832-0.25 2.582 0.336 0.75 0.582 3.918 3.914 5.168 6.582 0 0-0.08594 1.457-0.58594 1.207s-2.582-3.789-4.832-5.664c0 0-0.41797-0.461-0.16797 3.457"/>
<path d="m200.95 1328.1c-2.3359 0.082-4.418 0.582-5.0859 1-0.66406 0.414-3.832 1.332-5.082 6.414 0 0-0.58203 3.5 2.168 5.836 2.75 2.332 3.332 2.25 3.332 2.25s1.668-0.336 1.918-0.168 2.832 0.668 4.25 0.082c1.4141-0.582 3.1641-1.164 4-2.914 0.83203-1.75 1.4141-6.586 0.16406-8.75-1.25-2.168-1.6641-2.5-1.6641-2.5s-1.3359-0.336-0.66797-1.168 1-0.25 1.082 0c0.08594 0.25 3.5859 2.168 4.418 6.332 0.83203 4.168-0.41797 6.336-0.41797 6.336l-0.66406 1.082s-2 1.332-2.0859 1.832c-0.08203 0.5-2.4141 2.418-5.5 2.836-3.082 0.414-5.75-0.836-5.75-0.836l-1.4141 0.086s-3.918-2.086-4.75-5.25c-0.83594-3.168-1.3359-7.5 1.1641-10.25s5.0859-4.5 9.0859-4.668c0 0 0.83203 0.25 1.1641 1.332z" fill="#f08f02"/>
<path d="m201.28 1328.6c-1.168-0.086-3.582 0.164-4.582 0.5-1 0.332 0-1.168 1.582-1.168s2.668-0.168 2.668-0.168z"/>
<path d="m199.95 1325.9c-0.91797 0-2.668 0.25-2.668 0.25s-3.418 1.75-3.918 1.832c-0.5 0.086-1.082 0.75-1.5 1.25-0.41406 0.5-2.25 2.168-2.5 4.25-0.25 2.086-0.5 4.086 0 6.168l0.5 1.5-0.75 0.168s-1.1641-3.086-1.1641-5.668 0.25-4.168 1-4.25c0 0 0.91406-1.5 2-2.5 1.082-1 1.832-1.25 1.832-1.25s1.832-1.75 2.832-2 3.418-0.918 3.918-0.75 0.41797 1 0.41797 1"/>
<path d="m193.48 1331.1c0.66797-0.625 1.793-1.25 1.4609-1.836-0.33594-0.582-2.5859 1.625-3.043 2.211-0.45703 0.582-1.918 2.664-1.625 5.125 0.29297 2.457 1.543 5 2.418 5.707s2.125 1.457 2.125 1.457l0.58203-0.582s-2.125-1.082-3.125-3.418c-1-2.332-1.043-3.082-0.79297-4.625 0.25-1.539 1.293-3.125 1.293-3.125z"/>
<path d="m204.7 1329.5c0.58203 0.168 1.957 2.125 2.1641 3.168 0.21094 1.043 0.29297 4.25 0.16797 4.918-0.125 0.664-0.91797 3.25-2 4.207s-3.25 1.75-3.25 2.207c0 0-0.04297 0.543 1.125 0.25 1.168-0.289 2.793-1.332 3.875-2.914 1.082-1.586 1.457-2.875 1.418-4.875-0.04297-2-0.46094-3.461-0.83594-4.336s-1.6641-2.582-2.332-3.164c0 0-0.70703 0.414-0.70703-0.293s0.75-1.125 0.91406-0.957c0.16797 0.164 0 0.707 0 0.707s1.9609 1.418 2.793 2.957c0.83203 1.543 1.5 2.711 1.418 5.668-0.08594 2.957-0.125 2.25 0.16406 2.25 0.29297 0 0.625-1.168 0.625-2.457 0-1.293-0.25-3.375-1.7891-5.668-1.543-2.293-2.418-2.582-2.793-2.793-0.375-0.207 0.41797-1.207-0.33203-1.25-0.75-0.039-1.168 0.418-1.3359 0.918-0.16406 0.5-0.39062 1.1445 0.71094 1.457"/>
<path d="m198.03 1347c-0.75-0.043-1.375-0.418-1.207-0.832 0.16406-0.418 0.66406 0.039 2.957 0.039s4.5-1.207 4.875-1.414c0.375-0.211 2.75-2 2.832-2.211 0.08594-0.207 0.54297-0.125 0.29297 0.5s-1.75 2.086-3.25 2.875c-1.5 0.793-2.5 1.125-4.043 1.086-1.5391-0.043-2.457-0.043-2.457-0.043"/>
<path d="m213.53 1356.8c-2.25 1.875-7.875 8-9.125 9.75 0 0 0.125 2 0.5 2.375s1.5 0.5 1.5 0.5l4.375 4.25s0.375 0.25 1.625 4 1.25 5.125 1.25 5.125l-0.125 1.25-1.625 0.375-1.125 0.875 0.5625 0.25 0.1875 0.8125s1.75 1.25 2.5625 2.0625l1.1875-0.3125-0.1875 0.6875 0.25 18.125s2.1875 1.75 7.25 2.6875 7 1.875 7 1.875 11.438-0.875 15.875-0.3125 13.812 0.8125 14.938 0.625 4.25-1.5625 5.375-3.0625l-0.25-0.8125s-3.5625-9.375-6.875-15.5-3.6875-8.3125-3.6875-8.3125 3.3125-3.375 2.8125-9.5l-0.125-0.5-0.625-0.4375v-0.5s-1.25-0.6875-2.0625-1.75-4-5.125-4.8125-6.5-2.75-3-4.25-3.75c0 0-3.25 1.8125-8.25 1.6875s-19.625-5.3125-21.125-5.75-3-0.3125-3-0.3125"/>
<path d="m205.86 1329c1.168 1.086 3.25 2.168 3.75 6.336 0 0 0.83594 2.164 1.418 2.914 0 0 0.75 4.918 2 6.168 0 0-0.16797 1.418-0.33203 1.75-0.16797 0.332-0.08594 3.168-0.08594 3.168s-0.83203 0.414-0.08203 1.332 2 1.75 2 1.75l-1.75 2.582-0.58203 1.168 0.83203 1.332s2.582-0.414 6 1.5c3.418 1.918 11.332 3.5 11.332 3.5s8.168 2.25 10.75 2c2.5859-0.25 4.918-3.332 5.668-3.832s0.41797-1.418 0.08203-1.418c-0.33203 0-0.16406-1.664 1.5859-2.5 1.75-0.832 3.75-3.582 3.5-5.664 0 0-10.5 2-12.25 1.414-1.75-0.582-18.918-9.664-20.75-12.082-1.8359-2.418-8.75-9-9.5859-9.582-0.83203-0.586-3.5-1.836-3.5-1.836"/>
<path d="m212.36 1337.1c-0.08203 0.914 0.66797 3.664 1.418 4.832s1.082 1.168 1.918 2.168c0.83203 1 2.5 2.914 3.582 3.832s3.5 2.332 3.5 2.332 0.75 1.25 2.418 2c1.6641 0.75 3.582 2.168 3.582 2.168l0.83203 0.082s-0.66406-0.832 0-0.582c0.66797 0.25 0.75 0.918 0.75 0.918s0.58594-0.336 1.168 0.664 1 2.168 1 2.168l-1.082-0.168s-1.3359-1.5-1.5-1.75c0 0-1.5-0.332-2.25-0.832 0 0 1 1.168-0.16797 0.668s-3.918-2.336-5.082-3c-1.168-0.668-3-2.336-3-2.336s-3.0859-2.414-4.75-5c0 0-0.83594 0.25-0.83594 2.25s-0.08203 2.418-0.08203 2.418 2.25 1.75 3.832 3.168c1.5859 1.414 3.75 2.75 5.25 3.75s2.418 1.164 2.418 1.164 1.418 1.25 2.5 1.586c1.082 0.332 0.58203-0.086 1.668 0.332 1.082 0.418 5.4141 2.5 9 2.332 3.582-0.164 5.9141-1 7.1641-2l-0.75-1.082h-1.1641l-0.58594-0.332s-5.082-0.336-7.25-1.086l-0.41406-0.5-0.75-0.164s-1.5859-1.25-1.418-1.836c0.16797-0.582 0.33203 0.168 2.5 0.586 2.168 0.414 6.582 1.414 6.582 1.414s2.3359-0.914 3.668-0.5c0 0 2.918-1.914 4.082-3.914 0 0-2 0.332-2.582 0.664-0.58203 0.336-1.418 0.75-1.418 0.75s-0.58203-0.332-2.332 0.168-3.5 0.418-4.832 0.168c-1.3359-0.25-10.086-5.668-10.086-5.668s-3.4141-2.332-4.25-3c-0.83203-0.668-1.9141-1.168-1.9141-1.168l-0.58594-0.164-0.5-0.75h-0.58203s-5.082-3.668-5.668-4c-0.58203-0.336-3-2.75-3-2.75" fill="#f08f02"/>
<path d="m214.28 1355.5 1.168-2.332 0.41406 0.168s2.0859 1.832 2.5859 2.25c0.5 0.414 4.082 2.914 5.082 3.332s-4.082-1.5-4.082-1.5-2.418-0.75-2.918-1-1.582-1.332-2.25-0.918" fill="#f08f02"/>
<path d="m218.53 1392.4c0.375-1.5 0.25-2.75-0.0625-3.1875s-0.1875-2.625-0.1875-2.625l-0.625 0.9375s-0.3125-1.0625-0.6875-0.5-0.5625 1.9375-0.5625 2.375 0.1875 10.375 0.1875 12.375v4.6875s1.4375 0.8125 4.5625 1.75c0 0 1.125-0.0625 1.8125 0.625s4.1875 0.5 4.1875 0.5 1.9375 0.375 2.6875 1.125c0 0 6.25-0.125 7.875-0.1875s19.25 0.5 21.438 0.25 2.4375-1 3.4375-0.9375 1.625-1.8125 1.625-1.8125l-8.9375-18.5-0.25-1.6875-1.625-2.5-0.0625-1s-3.9375-7.5625-4.6875-9.125-1.25-3.25-1.6875-3.9375-0.875-1.3125-0.5625-2.125 0.9375-0.3125 1.4375 0.4375 1.3125 2.5 1.3125 2.5 0.3125-1.875 0.75-1.9375 0.6875 0.6875 0.5625 1.5-0.5625 2.375-0.4375 2.6875 0.625 1.3125 1 1.6875 1.5 3.625 1.5 3.625 1.75-3 1.9375-6.5625c0 0-1.5625-2-2.5625-2.875s-3.4375-3.625-4.125-4.4375-2.25-2.5-3.0625-3.0625c0 0-3.6875 1.5625-10.5 0.5s-17.438-5.125-18.812-5.625 2 0.5625 3 2.25 2.5625 6.375 1.8125 6.75-1.75-4.375-3-6.4375-2.0625-2-2.8125-1.625-5 4.75-5 4.75 2.625 2.1875 3.4375 3.5 1.3125 1.5 1.3125 1.5h0.375l-0.0625 0.625 0.8125 0.8125 0.5 0.125s1.5625 2.9375 1.75 3.75 1.1875 7.1875 1.25 9c0 0 1.375-2.0625 1.4375-2.25s0.25-0.8125 0.5625-1.3125-0.25-7.5-0.5-8.375 0.875-0.6875 0.875-0.5 0.8125 4.5625 0.75 7.5625l0.375 0.6875 0.3125-0.0625s0 1-0.25 1.5-1.375 3-1.625 3.625c0 0 0.375 0.875 0.5625 1.625s0.875 4.3125 1.75 7.3125 3.5625 10.438 3.5625 12.875 0.1875 2.25-1.0625 2.375-4.25-0.125-4.6875-0.3125 0-1.125 0.4375-1.25 2.125 0.5625 3.8125-0.0625c0 0-0.125-2.125-0.75-3.75 0 0-0.3125-0.1875-1.875 0s-1.75-0.3125-1.75-0.3125-1.375-1-1.8125-3.5-0.375-5.8125-0.375-5.8125" fill="#47b0a8"/>
<path d="m206.21 1367c-0.39453 0.2617-1.25 0.375-0.3125-0.5625s2.3125-2.375 2.3125-2.375 0.375-0.4375 1 0.5 2.75 3.25 3.125 3.5 0.75 0.9375 1.0625 1.3125 1.75 1.625 2.0625 2.125 0.375 1.375 0.8125 3 0.9375 4.4375 1.1875 5.1875 0.1875 3.75 0.1875 3.75l-0.0625 0.875s-1.875 1.75-2.1875 2.125-1.0625 1.125-1.0625 1.125l-2-2.3125 0.4375-0.1875s0.5625 0.3125 1 0.8125 0.9375 0 0.9375-0.4375 0.5625-5.3125 0.375-7-1.0625-4.5625-1.6875-5.3125-6.375-5.875-6.375-5.875-0.4375-0.5-0.8125-0.25" fill="#547378"/>
<path d="m252.96 1379.8v0.8125l1 2.3125s1.5-2.5 1.5-3.9375c0 0-0.5-0.875-0.375-1.1875s0.8125 0.4375 0.8125 0.4375 0.6875-1.5 0.5-2.6875c-0.03125-0.1875-1.3125-1.6875-1.3125-1.6875s-0.875 4.8125-2.125 5.9375" fill="#547378"/>
<path d="m233.09 1404.1c-0.25 0.375-0.875 0.5625-0.875 0.5625l-1-0.375s-1.375-1.6875-0.875-2.0625 0.25-0.9375 1.25-0.8125 8.75 1.375 11.375 2.1875c0 0 1.25 1.125 5.75 2.3125s2.8125 1.25 2.5 1.25-7.125-1.9375-7.75-2.1875-8.875-2.125-9.625-2.3125-1.875-0.375-1.9375 0 1.1875 1.4375 1.1875 1.4375"/>
<path d="m220.03 1390.5c-0.26563-0.8985-0.375 5.25 0.4375 8.1875s1.875 2.375 3.5625 2.375c0 0-3.5-8.875-4-10.562" fill="#47b0a8"/>
<g fill="#b08c30">
<path d="m215.98 1360.3c0.29297-0.418 0.08594-1.336 0.08594-1.336s0.18359-0.0195 0.46875-0.0547c-0.88281-1.0546-1.5312-0.9765-2.1367-0.6718-0.75 0.375-5 4.75-5 4.75s0.74219 0.6172 1.5586 1.3906c1.2422-0.9648 4.7852-3.7344 5.0234-4.0781"/>
<path d="m215.89 1357.6c0.55078 0.2773 1.2734 0.6992 1.8477 1.2265 0.39453-0.0508 0.82812-0.1054 1.2617-0.1601-1.2695-0.4493-2.2774-0.8203-2.9336-1.0664-0.05859 0.0039-0.11719 0-0.17578 0"/>
<path d="m243.68 1362.8c0.55078 0.6406 0.70703 0.8281 0.92578 1.3437 0.25 0.586 1.75 1.125 2.0859 1.375 0.33203 0.25 1.0391 1.586 1.2891 1.875 0.13281 0.1563 1.0195 1.3203 1.9297 2.5235 0.28515-0.0274 0.48437 0.2812 0.55078 0.7265 0.61328 0.8008 1.1641 1.5313 1.4375 1.875 0.56641 0.7266 1.7109 2.0508 2.2266 2.6485 0.16797-0.7227 0.29297-1.5039 0.33594-2.3125 0 0-1.5625-2-2.5625-2.875s-3.4375-3.625-4.125-4.4375-2.25-2.5-3.0625-3.0625c0 0-0.35156 0.1445-1.0312 0.3203"/>
</g>
<path d="m222.4 1418.3c-1.25 1.875-2 1.875-2 1.875l-3.25 7.125s0.625 1.625 0.25 1.75-8.5 23.125-9.625 26.625-8.375 31.625-8.375 31.625-0.25 1.125 0.5 1.375 2.75 2.5 2.75 2.5l5 2.25 1-6.375-2.625-9 3.5-9.75h1.75s2.625 0.875 3.25 0.75 2.25-0.125 2.25-0.125-1 5.25-1.75 10-2.75 13.25-2.75 13.25l-0.625 1.75s-0.75 1.375 1.875 1.5 6 0.875 7 1.125 7.125 1.125 8.5 1.375 6.875 0.125 8.5 0.375 10.875 0.875 11.625 0.625 3.625 0.25 3.625 0.25 1.5-0.375 2.5-1.375c0 0 14.25-1.625 21.125-4.625 0 0 1.875-0.75 3-1.125s3.75-1.875 4.5-3-0.375-2.875-0.375-2.875-6.75-39.125-19.875-67z"/>
<path d="m230.53 1425.6s-1.0625 2.625-0.9375 3.3125l1.9375-0.375s-0.125-1.0625-0.4375-1.25-0.8125-0.9375-0.5625-1.6875" fill="#47b0a8"/>
<path d="m222.53 1419.8c-1.3125 2.125-3.4375 5.875-4.1875 8.75l-7.75 20.375-0.25 0.5625s1 1.0625 1.25 1.0625l-1.1875-0.125 0.125 0.6875-2.875 9.1875s6.0625-0.5625 10-0.0625 6.125 0.875 6.8125 1 0.875 1.1875 0.5625 2.4375-0.375 1.9375-0.4375 3.75-1.4375 17.875-1.4375 17.875-0.25 0.625-0.5625 0.9375c0 0 4.0625 0.5 5.75 0.875s12.938 1.5625 15.188 1.375 2.4375-0.5 2.4375-0.5-0.4375 0.6875 0.125 0.625 0.8125-3.625 0.8125-3.875 1.8125-18.75 1.3125-21.375c0 0-1.25-0.3125-1.625-1.125 0 0 0.6875-9.6875-0.125-18.188s-1.6875-15.625-2.375-17.312l-1.125-4.75s-9.8125-0.5625-10.562-0.75 0.625 0.75 1.0625 2.8125-0.125 4.5-0.125 4.5-1.375 1.75-3.875 1.9375l-0.75 0.8125s-1-0.5625-0.375-2.1875 1.5-5.875 1.5-5.875l0.1875-1.793s-4.625-0.957-6.875-1.582z" fill="#47b0a8"/>
<path d="m200.96 1486.9s1.25-0.9375 1.75-0.1875c0 0 2-8.875 3.25-11.938s2.25-8.0625 2.4375-8.4375 0.375-1.625 1.125-0.9375 0.5 0.4375 0.5 0.4375 4.5 0.625 5.375 0.5625 3.25-0.25 3.0625 1.375-4.125 25.188-4.125 25.188 1.375 0.625 1.875 0.6875 6.6875 1.625 7.6875 1.75 3.25-0.1875 6.625 0.75 18.062 0.6875 18.875 0.625 2.0625-0.3125 2.75 0.0625 0.9375 0.625 1.4375-0.25 1.375-7.8125 1.4375-12 0.3125-11.5-0.4375-14.062l-0.64453-6.9375-4.6055-0.1875s-0.125 6.5625-0.125 9.5-0.25 4.8125-0.0625 5.25c0 0-0.5 0.3125-0.5625 1.6875s-0.375 5.5-0.375 5.5-0.5 1.25-0.5 2.0625-0.125 2.3125-2.5 2.375c0 0-0.6875-0.1875-0.3125-0.5 0 0-13.625 0.5-22.938-2 0 0-0.75-0.375-0.25-0.9375s0.5625-4.625 0.8125-6.875 1.3125-12.5 0.9375-17.062c0 0-4.9375-0.6875-8.625-1.0625s-7.4375-0.0625-7.4375-0.0625z" fill="#547378"/>
<path d="m256.7 1425.1c0.58203 3.082 4.5 36.332 4.832 39.914 0.33203 3.586 1.082 4.086 1.168 8.086 0.08203 4-0.5 4.75-0.33594 8.832 0.16797 4.082 0.16797 5.918 0.16797 5.918s3 0 5.25-0.5 5.25-2.668 7.332-3c2.0859-0.336 6.3359-2.5 6.3359-2.5l-0.16797-0.668s-4.582-22.832-10.918-40.332c-6.332-17.5-7.6641-19.668-7.6641-19.668l-6.668 1.25z" fill="#47b0a8"/>
<path d="m255.86 1463.9c-0.12891-0.8398 4.8359-0.832 4.8359-0.832s0.16406 4.414 0.41406 5.5c0.25 1.082 0.5 4.5 0.25 6.332s-0.41406 12.75 0.08594 14.082c0.5 1.336 1.1641 0.086 3 0 1.832-0.082 6.4141-1.164 7.582-1.75 1.168-0.582 5.168-1.832 6.168-2.332s3.582-1.5 3.582-1.5l1.082 5.082s-3.9141 2.168-6.082 2.836c-2.168 0.664-3.418 0.664-4.832 1.5-1.418 0.832-4.168 1.332-4.5 1.164-0.33594-0.164-2.75 0.336-3.75 0.586s-6.3359 0.5-6.8359 0.5-1.582-0.086-1.582-0.086 0.66797-5.664 0.83203-8.332c0.16797-2.668 0.5-17.918-0.25-22.75" fill="#547378"/>
<path d="m213.78 1384.6c-4.332 1.582-14.418 6.082-16.332 7.332-1.918 1.25-4.668 2.418-7.418 4.25s-8.918 5-8.918 5l-0.08203 0.668s-6.082 3.75-7.418 5c0 0 2.668 0.832 3.75 4.164 0 0 6.918 0.336 9.0859 1.75 0 0 0.08203-1.082 1-0.164 0.91406 0.914 2.082 1.332 2.582 1.664 0.5 0.336 1.582 1.75 2.168 1.918 0.58203 0.168 1.1641 1.082 2.582 1.832s2.25 2 4.332 3.086c2.0859 1.082 4.168 2 5.0859 2.332 0.91406 0.332 3.4141 1.332 5.1641 2.168 1.75 0.832 3 1 4 0.832s1.668-0.168 1.5 1.582c-0.16406 1.75-1.1641 1.668-2.332 3.75-1.168 2.086-5.75 11-5.75 11s-0.41797 0.918-0.91797 0.25c-0.5-0.664-0.5-1-0.91406-1-0.41797 0-1.8359-1.582-2.0859-1.914-0.25-0.336-5.9141-3.918-9.9141-6.75-4-2.836-7.668-5.668-13.086-8.836 0 0-3-0.914-7.25-3.25-4.25-2.332-5.1641-3.082-7.082-3.914-1.918-0.836-2.832-1.5-2.832-1.5s-7.3359-2.168-8-2.668c-0.66797-0.5-1-1.082-1.75-2.332s-1.75-2.586-0.66797-3.25c1.082-0.668 8.418-4.75 9.5-5s1.832-1.336 3.082-2.336 13.336-9.414 19-13.582c5.668-4.168 9.75-6.5 11.586-7.75 1.832-1.25 2.082-2.582 2.082-3.582 0 0 0-1.086 7.082-6.336l1.75-1s4.668 3.836 5.668 4.75c1 0.918 2.332 5.75 2.332 7.75s-0.58203 4.086-0.58203 4.086"/>
<path d="m208.03 1384.8s-0.16797-3.25-1-4.418-0.08203-1.668 0.83203-1.418c0.91797 0.25 2.25 0.75 2.25 0.75s0.66797 0.086 1 1.5c0.33594 1.418 1 1.668 1 1.668l1.543-0.082s-1.957-8.75-2.457-9.086c-0.5-0.332-4.418-4-4.793-4.289-0.375-0.293-1.043 0.125-1.707 0.789-0.66797 0.668-3.75 3.25-3.75 3.25s-2 0.836-2 2.25c0 0 0.33203 0.418 0.91406 0.75 0.58594 0.336 0.16797 1.086 0.16797 1.086s-2 1.582-3.668 2.5c0 0-0.5-0.336-1.332 0.25-0.83203 0.582-9.418 6.5-10.5 7.164-1.082 0.668-2.082 2.25-2.582 2.336-0.5 0.082-11.418 7.75-13 8.832-1.5859 1.082-3.5859 2.25-3.918 2.832-0.33203 0.586-1.918 1.586-2.25 2.086 0 0-2.75 0.75-3.5 1.332s-3.668 2.75-5.082 3.082c0 0-0.75 0.25-0.33594 1.75 0.41797 1.5 0.83594 2.336 0.83594 2.336l0.66406-0.086s5.668 3.336 14.668 3.75c0 0 1.082-0.164 0.41797 0.418-0.66797 0.582-2.5859 0.75-2.5859 0.75s3 1.668 4.75 2.582c1.75 0.918 2.25 1.086 3.0859 1.668 0.83203 0.582 4.1641 2.25 4.1641 2.25l0.25-0.418s11.086 7.25 18.418 12.418 4.75 3.832 4.75 3.832l1.418 0.75s0.91406 0.418 0.83203 1.086c0 0 0.5 0.414 0.66797-0.168 0.16406-0.582 3.332-7.168 3.332-7.168l3.332-6-0.66406 0.168v-0.418s-5.168-0.914-7.418-2.164-3.75-2.418-6.332-3.418c-2.5859-1-4.5859-1.75-3.3359-2.668 0 0-4.582-3.164-6.5-4.75-1.9141-1.582-4.6641-1.164-4.6641-1.164l-0.41797-0.586s-6.25 0.668-9.332 0.5c-3.0859-0.164-1.5-0.75-1.5-0.75s-7.5 0.086-11.086-1.25c0 0 0.41797-1.082 1.5-0.75 1.0859 0.336 9.5 1.086 13.25 0.668 0 0-0.66406-2.582-3-3.5 0 0-2-2.5-7.5-2.918 0 0-1.75-1 0.83594-0.832 2.582 0.168 5.75 1.918 5.75 1.918s4.332-2.836 7.25-4.918c2.9141-2.082 5.4141-3.25 5.4141-3.25s7-4.168 7.418-4.5 1.75-1.418 3.168-2c1.4141-0.582 12.332-6.332 12.332-6.332" fill="#47b0a8"/>
<path d="m201.86 1426.4c-1.582-0.582-8.6641-4.082-12.332-5.668-3.668-1.582-7.168-3.914-8.75-4.332-0.875-0.2305-3.5742-1.7031-6.0469-3.1484-0.1875-0.0039-0.36718-0.0078-0.53515-0.0196-3.0859-0.164-1.5-0.75-1.5-0.75s-2.0508 0.0235-4.5195-0.1445c0.95312 0.4883 1.7695 0.9453 2.1836 1.2305 1.3359 0.914 9 5.832 12.668 7.414 3.668 1.586 13.168 7 15.75 8s8.332 3.586 9 3.586 2.668-3 2.668-3-7-2.586-8.5859-3.168" fill="#b08c30"/>
<path d="m156.86 1411.2c0.83594 0.25 1.3359 0.25 1.3359 0.25s1.582 0.25 2.25 0.082c0.66406-0.164 1.75-1.5 2.4141-1.5 0.23438 0 1.0508 0.3243 2.0703 0.7813 1.6445 0.1914 4.1055 0.3867 6.4688 0.4687-0.5039-0.3203-0.90234-0.5859-1.1211-0.75-1.332-1-6-3.582-6.582-3.164-0.58594 0.414-1.3359 0.664-2 1-0.66797 0.332-1.418-0.5 0.25-1.586 0.78515-0.5078 2.0508-1.4804 3.3711-2.4648-0.08984-0.1641-0.01172-0.3203 0.5-0.3711 1.3242-0.9727 2.6445-1.8984 3.543-2.3281 1.918-0.918 6.25-3.918 7.3359-4.75 1.082-0.836 7.75-6.5 9.6641-7.75 1.918-1.25 4.668-3.086 7-4.25 2.3359-1.168 5.418-3.25 5.8359-3.586 0.41406-0.332 2.75-3.582 3.082-3.914 0.33203-0.336 0.33203-1.5 1.668-2.168 1.2383-0.6211 2.8398-1.3359 4.668-3.7031-0.65235-0.5977-1.2812-1.1758-1.707-1.5625-2.3789 1.4922-6.1562 3.5508-6.6289 4.1836-0.33594 0.4453-0.63281 1.3008-0.96875 2.0195 0.14453 0.125 0.32422 0.2656 0.55078 0.3945 0.58594 0.336 0.16797 1.086 0.16797 1.086s-2 1.582-3.668 2.5c0 0-0.5-0.336-1.332 0.25-0.83203 0.582-9.418 6.5-10.5 7.164-1.082 0.668-2.082 2.25-2.582 2.336-0.5 0.082-11.418 7.75-13 8.832-1.5859 1.082-3.5859 2.25-3.918 2.832-0.33203 0.586-1.918 1.586-2.25 2.086 0 0-2.75 0.75-3.5 1.332-0.47266 0.3672-1.8086 1.3672-3.0859 2.1367-0.72265 0.8516-1.2852 1.7031-1.082 2.0313 0.41797 0.664 0.91797 1.832 1.75 2.082" fill="#b08c30"/>
<path d="m166.2 1409.1c-1.1211-0.4688-1.668-1.918-0.75-2.086 0.91406-0.164 2.75 0.918 4.9141 1.086 2.168 0.164 3.25 0.5 2.918 1.164-0.33203 0.668-0.25 0.836-1.668 0.918-1.4141 0.082-4.4141-0.668-5.4141-1.082"/>
<path d="m185.61 1417.7c-1.4141-0.082-2.1641-0.25-2.4141-0.5s0.83203-0.832 0.83203-0.832 0-0.836 1.5-1c1.5-0.168 4.582 0.082 4.5 1.082s-0.91797 1.5-1.668 1.5-2.75-0.25-2.75-0.25"/>
<path d="m205.09 1437c-0.375 0-1.1875-0.375 0.0625-2s4.3125-5.625 4.6875-6.25 1.1875-1.125 1.1875-1.125 0.5625-0.375 0.9375 0.375 1 0.8125 1 0.8125-6.0625 8.5-6.5 9.25-0.8125 0.625-1.0625 0.375 0.375-1.0625 0.375-1.0625z"/>
<path d="m213.59 1428.5c0.5625-0.625 1.75-0.9375 3-0.375s5.625 1.5625 7.875 1.875 2.75 1.0625 2.875 1.5625 0.75 1.25 0.5625 1.625-1.25 2.6875-1.25 3.0625 0.3125 3 0.0625 3.9375-0.9375 0.75-0.9375 2.3125-0.9375 2.9375-1.75 3.625-0.875 1.8125-0.9375 2.375-0.25 1.75-1.25 2.25-4.25 1.125-6.4375 0.6875-4.75-1.8125-6.0625-3.5625l0.0625-1-3.1875-3.9375z"/>
<path d="m207.84 1443.3c-0.33203-0.1524-0.75-0.8125 0-1.625s1.375-2.625 1.5625-2.9375 0.375-0.0625 1.25-1.875 2.75-5.0625 3-5.875 1.4375-1.625 1.4375-1.625 4.5 1.0625 5.875 1.25 4 0.5625 4.4375 0.5625 1.125 0.125 1.125 0.4375 0.25 1.5625 0.1875 1.8125-0.8125 1.6875-0.9375 2.3125 0.1875 3.0625 0.0625 3.6875-1.25 0.9375-1.0625 2.3125-0.375 3-1.125 3.4375-1.625 1.125-1.5625 1.75-0.0625 2.75-0.25 2.75-1.9375 0.0625-2.875 0.6875-3.875 0.1875-5.375-0.375-2.5-1.125-2.125-2.0625c0 0 0.9375 0.75 2.125 0.875s2.25 0.1875 2.25 0.1875 1.3125 1.25 1.625 1.25 0.8125 0.0625 0.625-0.375-0.5625-0.5625 0.375-0.5 2.25 0.125 2.1875-0.8125c0 0-7-0.375-7.6875-0.5625s-2.75-2-2.875-2.3125-0.75-1.6875-2.25-2.375" fill="#d48a68"/>
<path d="m286.45 1483.5c-0.08594 1.336 0.5 6.668 0.91406 7.418 0 0-0.66406 0.832-0.66406 1.5s0.5 4.918 1.25 6.5 2.332 4.5 2.332 4.5 1.918 0.168 2.418 0.168 0.58203-0.086 0.66406-0.918c0 0 1.5-0.082 1.168-4.668-0.33203-4.582-0.5-5.082 0.08203-6.582l1.25 0.168s1.5859 4.75 2.5859 6.414l0.5 1.25s-0.83594 0.086-0.58594 0.75c0.25 0.668 1.0859 4.168 1.0859 5 0 0.836-1.25 3-1.5 4.168s-0.91797 2.418-0.58594 3.25c0.33594 0.832 0.75 3.582 1.0859 4.418 0.33203 0.832 2.4141 0.082 2.4141 0.082s2.168-2.918 2.25-3.418c0 0 0.5 0.25 1 0.336 0.5 0.082 1.0859-0.5 1.25-2 0.16797-1.5 0.58594-5.336 0.58594-5.336s0.58203-0.5 0.25-0.75c-0.33594-0.25 0.33203-6.332 0.33203-6.332s0.16797-1.332-0.41797-2.25c-0.58203-0.918-3.25-9-3.75-10.582-0.5-1.586-0.33203-2.586-0.33203-2.586l-0.33203-1.5z"/>
<path d="m287.61 1483.8s10.418-0.918 13-0.586c0 0 0.58594-0.082 0.33594 0.836-0.25 0.914 1.1641 4.75 1.1641 4.75v0.832s2.8359 6.832 3 7.25c0.16797 0.418 0.16797 1.582 0.5 1.832 0 0-0.41406 4.836-0.33203 7l-0.58203 6.918s-1.0859 0-1.75-0.668c-0.66797-0.664-1.8359-2.25-1.668-4.75s0.58203-2.664 0.58203-2.664-0.5 0.082-0.75-1.168-0.66406-3.918-0.66406-3.918l-0.58594-0.164s0.25-0.25-0.08203-1.5-3.332-8.336-3.332-8.336h-2.5859l-0.16406 1.668-0.41797 0.582s0.58203 9 0.16797 9.5c-0.41797 0.5-1.25 1.75-2.918 0.668s-2.918-9.832-2.918-9.832l0.66797-0.668s-0.5-1.918-0.58203-3.168c-0.08594-1.25-0.08594-4.414-0.08594-4.414" fill="#d48a68"/>
<path d="m299.28 1500.2 0.41797-0.082s0.41406 4 1.082 4.414c0 0-1.582 6.336 1.582 8.418 0 0-1.4141 2.25-1.9141 2.918-0.5 0.664-1.668-0.668-1.75-1.836-0.08594-1.164-0.33594-3.414-0.08594-4 0.25-0.582 1.418-4 1.5-4.75 0.08594-0.75-0.75-3.082-0.83203-5.082" fill="#d48a68"/>
<path d="m292.2 1482.3 0.16406 1.082-0.58203 0.582 0.66797 1 2.1641 6.418h1.8359s0.75-6.582 0.66406-7.5l0.41797-0.332-0.91797-1.75z"/>
<path d="m293.2 1482.6 0.41406 1.664-0.33203 0.5 1.668 5.25 0.83203 0.086 0.41797-6.336h-1.168l-0.08203-1.332z" fill="#47b0a8"/>
<path d="m222.61 1409.3s-0.125 2.293-0.33203 3.582c-0.20703 1.293-0.625 5.961-0.625 5.961l0.41797 0.582s6 1.332 7.957 2 6.582 1.332 7.207 1.418c0.625 0.082 0.21094 2.289 1.5 2.707 1.293 0.418 0.25-3.168 0.25-3.168s6.375-0.582 8-0.332 12.586 0.043 14.086-0.418c1.5-0.457 2.457-1.789 2.457-3.25 0-1.457-0.33203-5.457-0.75-6.332s-0.91797-1.457-0.91797-1.457-7.6641 0.914-14.664 0.457-11.375-0.207-11.375-0.207l-6.25 0.164-4.168-1.207z"/>
<path d="m223.57 1411.3c-0.125 0.5-0.5 5.207-0.58594 5.582-0.08203 0.375-0.375 0.586 0.75 0.918s7 1.5 7 1.5 0.29297-0.418 0.54297-0.25 1.375 0.625 2.375 0.707c1 0.086 3.375 0.086 3.375 0.086s1.168-0.668 1.668-0.668 3.1641 1.168 3.1641 1.168 0.04297 1.207 0.33594 1.414c0.28906 0.211 2-0.039 2.707 0 0.70703 0.043 10.168 0.043 10.875-0.039 0.70703-0.086 1.375-1.25 2.043-1.418 0.66406-0.168 4-1.082 4-1.082s-0.08594-5.336-0.83594-6.836c0 0-4.5 0.293-4.875 0.336-0.375 0.039-3.082-0.168-4.6641-0.086-1.5859 0.086-6.875-0.039-7.375-0.207s-5.3359-0.418-6.7109-0.332c-1.375 0.082-5.7891 0.457-6.125 0.914-0.33203 0.461-1.375 0.375-2.25 0.125s-5.4141-1.832-5.4141-1.832" fill="#b08c30"/>
<path d="m255.65 1421.2c-0.5625 0.75-9.3125 0-10.312 0.0625s-2.375 0.625-2.6875 0.125-0.375-7.0625-0.6875-7.9375c-0.31641-0.8828 0.0625-1.625 1.5625-1.5s11.062 0.3125 11.25 0.3125 1.4375 8.1875 0.875 8.9375m4.1875-6.4375c-0.1875-1.1875-1.125-4.5-1.25-6s-2.5-1.25-2.75-1.25-13 0.125-15.75 0.3125-2.4375 1.5-2.3125 4.5625c0 0 0.5 7 0.5 8.0625s-0.0625 5.1875 0.75 5.1875 0.375 0.75 0.9375 0.9375 4.6875-0.125 5.0625-0.125 8.25-0.8125 11.5-0.5 3.625-1.1875 3.875-2.5625-0.375-7.4375-0.5625-8.625"/>
<path d="m255.78 1422.5c-0.70703-0.039-9.125-0.039-10.25-0.039s-2.625 0.957-3.082 0.582c-0.46094-0.375-1.293-0.832-1.5-2.043-0.21094-1.207-0.46094-7.039-0.46094-7.039-0.03906-1.375-0.33203-3.586 0.41797-3.918s10.043-0.332 10.875-0.332 3.043 0.289 3.043 0.289 0.25-0.5 0.53906 1.918c0.29297 2.418 1.293 9.332 1.3359 9.625 0.03906 0.293-0.21094 1-0.91797 0.957m2.332-9.375c-0.45703-4.539-1.25-4.125-1.7891-4.414-0.54297-0.293-4-0.5-5.9609-0.5-1.957 0-7.5391 0.207-9.375 0.375-1.832 0.164-2.332 0.375-2.375 0.75-0.03906 0.375-0.08203 2.414 0.08594 4.707 0 0 0.125 0.832 0.375 4.332s1.0391 6.043 1.1641 6.543 0.91797-0.25 0.91797-0.25 1.957-0.043 3.043-0.125c1.082-0.082 9.75-0.707 11.832-0.668 2.082 0.043 2.582-0.25 2.832-0.832s-0.28906-5.375-0.75-9.918" fill="#547378"/>
<path d="m229.86 1361.9c2 3.082 6.3359 13.5 8.168 20 0 0 1.082 2.332 1.332 3.668 0.25 1.332 1.75 6.414 2.3359 7.5 0.58203 1.082 0.91406 4.5 0.91406 4.5s0.41797 2.332 1.0859 4.25c0.66406 1.914 1.6641 14.832 2.75 23.25 1.082 8.414 0.91406 33 0.75 35.164l-0.16797 2.168 0.91797 0.918 3.5 0.332s-0.83594 2.5-0.08594 5.75l0.83594 0.832s5.1641 0.336 5.832 0.336 0.66797-0.75 0.66797-0.75l-0.25-0.836s0.83203 0.168 1.1641-0.5c0.33594-0.664-0.41406-2.164-0.25-2.914 0 0 0.91797 0.082 1.0859-0.668 0.16406-0.75-0.5-1.168-0.08594-1.418 0.41797-0.25 2.668-0.914 3.5859-1.75 0.91406-0.832 0.66406-2.082 0.16406-4.664-0.5-2.586-0.41406-6.336-0.91406-8.668s-1.418-6.082-1.5859-8.332c-0.16406-2.25-1.25-7.168-1.5-9-0.25-1.836-2.582-12.75-3-14.75-0.41406-2-4.25-17.5-6.582-25s-10.582-28-10.582-28z"/>
<path d="m233.03 1365.1s1.082 2.332 1.582 3.414c0.5 1.086 1.668 4.918 2.25 5.586 0.58594 0.664 0.58594 2.5 0.58594 2.5s1.4141 2.832 1.75 3.832c0.33203 1 1.4141 3.582 1.6641 4.5s0.58594 3.668 1.0859 4.418 1 2.914 1.082 3.5c0.08203 0.582 0.75 5.082 1.332 6.664 0.58594 1.586 0.91797 8.086 1.168 9.25 0.25 1.168 1.25 8.668 1.668 13.418 0.41406 4.75 0.83203 15.5 1.1641 20.918 0.33594 5.414 0 18 0 18s2 0 2.25 0.5c0 0 2.25 0.082 2.918 0.332 0 0-0.25-7.082-0.58203-11.832-0.33594-4.75-2.5859-24.086-3.5859-30.75-1-6.668-3.4141-17.75-3.4141-17.75l-0.5-0.75s-1.5-6.586-1.75-8.336-2.25-8.75-2.25-8.75-1.3359-5-2.168-7.164c-0.83203-2.168-3.75-9.5-3.75-9.5z" fill="#f08f02"/>
<path d="m235.45 1364.8s2.082 4.082 4.75 11.75c2.6641 7.664 3.1641 10.332 3.75 12.164 0.58203 1.836 3.75 13.668 5.332 23.836 1.582 10.164 5 27.75 5.168 51.082 0 0 3.75-1.582 5.6641-2 1.918-0.418 2.25-1.582 2.25-1.582s-0.41406-9.5-0.58203-12.168-1.582-8.168-1.582-8.168-1.75-10.25-2.25-11.582-0.91797-2.5-0.83594-3.168c0.08594-0.664-0.08203-1.082-0.08203-1.082l-0.33203-0.832s-1.5-10.668-3.168-15.586c-1.668-4.914-2.5-10-4.332-15.332-1.8359-5.332-3.168-9-3.168-9s0.16797-1.082-0.66797-1.5c0 0-3.582-10.082-4.9141-13.082l-1.168-1.336-0.5-0.75z" fill="#f08f02"/>
<path d="m245.34 1426.6 1.125-0.125s0.625 9.5 0.875 14.125c0 0-1.4375-12-2-14" fill="#47b0a8"/>
<path d="m193.78 1644.1c0.02344-0.5821-2.5 2.414-3.168 6.164-0.66406 3.75 0.41797 5.25 0.41797 8s0.08203 7.336 0.5 8.168 0.5 1.918 0.5 1.918-0.83203 0-0.25 1.164c0.58203 1.168 2.082 3.336 2.082 3.336l0.58594 0.332s5.4141 5.5 8.75 7c3.332 1.5 5.832 1.918 6.082 2.5s11-1 13-1.918c0 0 0.58203-0.082 0.58203-1.582s-0.08203-4.75-1.082-7.25c0 0 0.75-0.832-0.58203-1.918-1.3359-1.082-6.0859-6.164-7.418-8.832 0 0-1.168-3.25-2.332-4.332 0 0-3.3359 1.25-7 1.75-3.668 0.5-6.0859 0.832-6.0859 0.832s-5.25 1-4.582-15.332"/>
<path d="m199.86 1660c-0.66406-4.664-0.83203-11.5-0.5-12.164 0.33594-0.668 1-1.918 0.91797-2.836-0.08203-0.914 0.66797-1.664 1.168-1.75 0.5-0.082 2.1641 2.586 7.6641 2.336s5.8359-1.25 5.8359-1.25 2.1641-1.918 2.5-1.75c0.33203 0.164 1.1641 1.164 0.58203 2.5-0.58203 1.332-0.91797 1.914-0.91797 2.664s-5.4141 8-5.832 8.418-1.332 1.832-1.5 2.5c0 0-6 1.793-9.5 1.918z"/>
<g fill="#547378">
<path d="m191.61 1649.5c0.08594-0.832 0.58594-2.75 1.25-2.75 0.66797 0-0.08203 5.75 0.08594 7.668 0.16406 1.918 2 6.168 5.332 6.418l-3.082 0.414s-1.8359-3.664-2.5859-5c-0.75-1.332-1.082-2.5-0.91406-4.082 0.16406-1.582-0.08594-2.668-0.08594-2.668"/>
<path d="m200.78 1660c-0.16797-1.914-0.75-6.582-0.58203-7.25 0.16406-0.664 0.91406-2.582 0.91406-3.332s0.08594-4.75 0.41797-5c0 0 2 2 4.25 2.168 2.25 0.164 7.5 0.5 10.75-1.918 0 0 0.5 0.332 0.16797 1.168-0.33594 0.832-0.91797 2.164-0.91797 2.164s-0.5-1.414-1.168-0.832c-0.66406 0.582-2.25 1.582-7.832 1.25 0 0-2.832-0.668-3.582-1.168 0 0-0.83594 0.25-1.168 2.5s-0.83203 6.586-0.08203 9.918z"/>
<path d="m203.61 1659.7c-1.6172 0-1.332-7.418-0.25-11 0 0 5 1.918 9 0.418l-4.582 9.75s-2.75 0.832-4.168 0.832"/>
<path d="m210.11 1656.6 3.668-7.25s1.5-1.418 1.5-0.836c0 0.586-5.168 8.086-5.168 8.086"/>
</g>
<path d="m195.78 1672.8c0.41797 0.414 1.25 1 1.75 1s2.832 1.914 2.832 1.914 1.918 1.086 2.418 1.336-1.332-0.668 2.168-4.586c3.5-3.914 9.75-4.914 13.582-3.25 0 0-3.668-3.75-6-7.914 0 0-5.418 0-12.332 4.332l-0.25 1.168-1.168 0.832s-1.25 0.082-1.668 0.918c-0.41406 0.832-1 1.914-1 2.164s-0.33203 2.086-0.33203 2.086" fill="#f5a802"/>
<g fill="#547378">
<path d="m203.7 1677.3c0 0.5 7.4141 0.414 11.75-0.5 4.332-0.918 5.25-2.168 5.332-3.336 0.08203-1.164-0.16797-2.664-1.582-3.164-1.418-0.5-4.418-1.336-8.25-0.668-3.8359 0.668-7.25 4.7891-7.25 7.668"/>
<path d="m200.61 1677.5s8.668 4 9.8359 4.086c1.1641 0.082 8.332-2.086 11.25-2 0 0-0.33594-3.418-0.41797-3.75-0.08203-0.336-2.082 2.332-10.75 2.832s-9.918-1.168-9.918-1.168"/>
<path d="m191.53 1656.3c0.12109-0.4922 1.332 11.414 1.832 12.832s0.91797 2.418 1.418 3c0 0 0.5-4.168 5.332-7.5 4.8359-3.332 11.836-4.25 11.836-4.25l-0.5-0.832s-5.0859 1.164-9.25 1.914c-4.168 0.75-6.668 0.25-6.75 0.668 0 0-0.91797 0.332-1.918-1.418s-2.082-4.082-2-4.414"/>
</g>
<path d="m192.97 1667.1 2.6523 2.5937c0.28516-0.5664 0.65625-1.1953 1.1484-1.8515l-4.2578-4.1133c0.15625 1.2266 0.3125 2.4101 0.45704 3.3711" fill="#f5a802"/>
<path d="m193.45 1645.4c0.78906-1.0859 1.582-1.418 2.25 0.25 0.66406 1.668 1.6641 3.5 1.082 7s-1.332 3-2.125 2.543c-0.79297-0.461-1.957-3.125-2.25-2.875s-0.20703-2.168 0.375-2.75c0.58203-0.586 0-3.25 0.66797-4.168"/>
<path d="m193.95 1648c0-1.082 0.25-1.582 0.83203-1.582s1.168 4.168 1.168 4.918-0.33594 2.914-0.41797 3.164-1.418-1.164-1.5-1.914-0.25-1-0.5-1-0.16797-1.5 0.25-1.5 0.16797-2.086 0.16797-2.086" fill="#d44c26"/>
<path d="m261.9 1641 0.375 0.418s2.332 3.625 10.5 4.293c0 0 1.543 0.25 3.207-0.668 1.668-0.918 5.0859-3.293 5.918-5.125s0.375-3.043 0.375-3.043-3-2.457-3.207-3c-0.21094-0.539-0.46094-2.582-0.58594-3.539-0.125-0.961-0.78906-4.168-1.0391-7.586-0.25-3.414-0.5-6.707-0.5-6.707s0.25-0.043 0.25-0.793-0.46094-7.625-0.625-11.75c-0.16797-4.125-0.66797-11.457-0.71094-14.125-0.03906-2.664-0.25-12.5-0.08203-14.832s0.41797-7.793 0.5-9.125 0.08203-4.5 0.08203-4.5-12.164 0.168-17.414-0.75c0 0-2.543-0.457-2.293 0.168s0.58203 0.789 0.58203 0.789 0.875 6.375 2.2109 9.5c0 0-0.625 11.168-0.96094 13.875-0.33203 2.711-0.95703 13.043-0.41406 18.961 0.53906 5.914-0.04297 9.664 1.082 13.039l0.45703 0.211s1.793 10.625 2.625 13.5c0.83594 2.875 0.875 5.875 0.08594 8.789l-0.71094 1.793z"/>
<path d="m263.73 1638c0.13281 0.6562-0.25 2.875-0.25 2.875s1.0859 0.957 1.2109 1.207 0.25 0.832 0.95703 1.043c0.70703 0.207 1.043 0.25 1.043 0.25s0.08203-0.668 0.5-0.336c0.41406 0.336 0.58203 0.711 0.875 0.875 0.28906 0.168 3.707 1.211 4.957 1.211s4.207-0.961 7.5-4.461c0 0 0.08203-1.332 0.5-1.414 0 0-1.625-1.086-1.832-1.543-0.21094-0.457-0.54297-1.457-0.96094-1.832-0.41406-0.375-0.91406-2.5-1.375-4.125-0.45703-1.625-0.5-3.418-0.5-5 0-1.586-0.83203-6.668-0.83203-8.168l0.29297-0.293s-0.5-8.582-0.41797-9.082 0.125-4.332 0.08203-5.375c-0.03906-1.043-0.875-16.875-0.75-20.375s-0.25-8.082-0.25-8.082-1.957 0.457-2.1641-6.961c0 0-1.3359 2.961-1.4609 3.293s-1.332 0.457-0.70703-0.918 2.418-6.5 3.707-8.375c0 0-9.582 0.543-10.789 1.336 0 0-3.125-0.336-4.0859-0.25 0 0 1.168 5.789 2.0859 7.582 0 0-0.29297 1.668 1.875 5.043 0 0 0.53906 0.914-0.125 1.289-0.66797 0.375-1.0859 0.336-1.9609-1.832 0 0-0.625 8.5-0.91406 13.293-0.29297 4.789-0.83594 5.957-0.41797 12.914 0.41797 6.961-0.04297 6.168 0.66797 10.918 0.70703 4.75 2.4141 11.207 2.4141 11.207s0.71094 6.25 1.543 7.668c0 0 0.20703 5.332 0.16797 5.457-0.04297 0.125-0.66797 0.543-0.58594 0.961" fill="#d48a68"/>
<path d="m274.4 1562.5 0.79297-0.082-0.5 11.957s-1.3359-0.25-1.7109-7.25c0 0 1.418-3.875 1.418-4.625" fill="#d44c26"/>
<path d="m272.9 1642.2c0.9375-1.3125 2.5625-2.875 1.5625-4.6875s-3.0625-3.125-4.9375-2.9375-2.9375 2-3.1875 2.625-1.5 2.625 1 4.1875l1.625 0.5625s1.9375 1.3125 2.25 1.8125 1.5625 0.5 1.5 0 0.1875-1.5625 0.1875-1.5625" fill="#d44c26"/>
<path d="m267.03 1642.3c-0.1875-0.4375 0.75 1.125 1.9375 1.5625s2.5 1.6875 6.375-0.375c0 0 0.625-1.3125-0.25-0.875s-2.25 1.625-4.625 1.125c0 0-1.5625-1.0625-2.375-1.875s-1.125-1.0625-1.5-0.5625 0.4375 1 0.4375 1"/>
<path d="m268.78 1640.5c-0.75-0.6875-1.25-1.6875-1-2.75s0.5625-2.625 1.3125-2.625 2.6875 0 3.5 0.8125 1.9375 3.5 1.6875 5.625-0.125 1.8125 0.3125 1.5 0.6875-1.9375 0.5-3.375-0.75-3.5-1.75-4.5-2.25-0.875-3.25-0.9375-2.0625-0.3125-2.375 0.6875-0.9375 2.375-0.875 3.3125 0.125 1.9375 1.4375 2.9375 1.25-0.3125 1.25-0.3125z"/>
<path d="m262.84 1640.8c-0.625-0.25-2-0.25-2.0625 1s-0.0625 1.8125-0.25 2.5625 0 10.5 0 11.562 0.4375 2.6875 0.4375 2.6875v0.5625l1.0625 0.0625 1 1.0625s0.625-1.1875 2.6875 0.0625c0 0 11.938-0.625 13.5-0.75s3.5-1.5 5-1.0625 2.625 1.875 5 1.9375 5.0625 0.0625 5.0625 0.0625l0.625 0.5625 1.9375-0.0625s1.875-0.1875 4.6875-0.25 18.125 0.0625 20.5-0.125 2.125-0.75 2-1.4375c0 0 1.5625-2.4375-0.3125-2.25 0 0-2.0625-1.5-3.0625-2.125s-4.0625-1.6875-4.375-2.125-1.1875-0.625-2.125-0.875-11.75-3.625-14.312-4.6875-8.9375-3.25-14.875-7.875c0 0 2.0625-5.9375 2.4375-7.625s1.5625-4.4375 3.5-6.125 4.0625-3.375 4.0625-3.375 1.0625-0.125 0.9375-0.6875-1.875-0.9375-1.875-0.9375l-1.1875 0.3125s0.3125-1.9375 0.5625-2.0625 0.75-2.5625 1.0625-2.9375-0.75-0.75-1.25-0.375-3.875 2.8125-4.6875 3.75-1 1.8125-1 1.8125-3.125 2.375-3.875 5.25-1.375 7.3125-2 10.062-0.25 2.8125-0.375 3.6875-2.75 3.75-6.625 4.9375-9.5625-1.875-9.9375-2.125-1.875-2.0625-1.875-2.0625"/>
<g fill="#547378">
<path d="m318.78 1654.9 2.3125 2 0.75-0.0625-0.8125-1s-1.4375-0.25-2.25-0.9375"/>
<path d="m292.21 1658.3s1.1875 0.25 1.625 0.625 0.1875 0.625-0.125 0.625-2.75-0.4375-2.75-0.4375-7.125-3.1875-7.9375-3.1875-21.438 0.125-21.438 0.125 1.0625 2.75 1.4375 2.875 8.25 0 8.625 0 8.3125-0.25 8.5625-0.4375-0.375-0.875 0.8125-1.25 4.1875-0.5 6.5625 0.75 1.875 1.6875 1.875 1.6875 5.25 0.3125 5.75 0.25 7.1875-0.25 8.75-0.125 10.625-0.25 11.562-0.375 7-0.1875 7-0.1875l1.25-1.75-0.75 0.125-0.625 0.6875-0.5625-0.5625-0.1875 0.375-1.4375-0.375z"/>
<path d="m283.53 1635.3s2.6875-8.125 3.25-8.75 2.5625-2.5 2.5625-2.5l0.25-3.8125s-3.6875 3.75-3.8125 4.125-1.1875 4.5-1.375 5.9375-0.875 5-0.875 5"/>
<path d="m290.53 1623.1s0.1875-3.8125 0.5625-4.1875 1.125-1.1875 1.125-1.1875l0.0625 0.5625s-0.9375 0.875-1.125 2.1875-0.625 2.625-0.625 2.625"/>
<path d="m283.4 1638.5h0.6875l1.3125-4.3125z"/>
<path d="m282.15 1639.9 0.0625 1.6875s-6.75 5.5-7.5 5.5625-6.125-0.375-7.875-1.5-4.1875-1.875-4.625-3.875c0 0 2.3125 2.25 5.3125 3.1875s5.5625 1.4375 8.25 0.3125 6.125-4.1875 6.375-5.375"/>
<path d="m261.53 1646.3c0-1.4375-0.25-2.8125 0.3125-2.75s1.5625 1.6875 4.6875 2.875 6.125 1.4375 7.125 1.5 1.4375 0.375 3.375-1.1875 5.3125-3.75 6.125-4.875 1.375-1.25 1.6875-0.625 0.9375 1 0.9375 1l0.0625-1.0625s5.375 4 7.875 5.0625 6.8125 3.3125 7.6875 3.5 1.875 0.4375 1.875 0.4375 1.8125 0 2.5 0.25 6.5 2.1875 8.5625 2.6875 5.1875 3.75 5.1875 3.75-24 0.5-26.812 0.6875-4.6875-0.5625-5.6875-1-3.1875-1.375-3.1875-1.375l-0.25-0.3125-22.062 0.25z"/>
</g>
<g fill="#f5a802">
<path d="m293.71 1646.2c-0.09766-0.043-0.20313-0.0938-0.30469-0.1446l-4.8203 5.5196s-16.941-1.0977-27.062-3.4024v2.4805c2.6523 0.4102 15.508 2.3555 25.438 2.8594l-1.6133 2.2734c0.59765 0.2578 1.2461 0.5352 1.6758 0.7266 1 0.4375 2.875 1.1875 5.6875 1 0.0625-0.0039 0.14844-0.0078 0.23047-0.0157l7.2305-8.2773c-1.6992-0.7617-4.5898-2.2266-6.4609-3.0195"/>
<path d="m290.95 1659.8 0.48828-0.5625c-0.28125-0.0469-0.47656-0.082-0.47656-0.082s-3.7773-1.6914-6.1445-2.6094l-0.39453 0.5586c1.0469 0.1211 2.1602 0.3945 3.1641 0.9258 2.375 1.25 1.875 1.6875 1.875 1.6875s0.64062 0.0351 1.4883 0.082"/>
<path d="m292.23 1658.3v-0.0039l-0.01172 0.0039h0.01172"/>
</g>
</g>
<g transform="matrix(-1.9961,0,0,1.9961,648.01,-2475.2)" stroke-width=".50097">
<path d="m233.34 1335.9s0.5625-0.4375 1.4375-0.4375c0 0 2.375 2.25 4.0625 3.0625s3 1.5 3 1.5 3.5 0.625 3.75 0.9375 5.0625-1.25 5.5625-1.5c0 0 0.3125-1-0.125-0.875l-0.4375 0.125s-0.9375 0.875-3.75 0.875-7.875-2.0625-8.3125-2.25-2.625-1.6875-2.875-2.0625c0 0 0.625-0.25 0.1875-0.6875s-1.125-0.4375-1.8125 0.0625-1.875 1.125-0.6875 1.25"/>
<path d="m236.11 1323.9 0.83594 0.418s1.6641-1.75 0.66406-6.668-5.1641-6.5-7.6641-7.418c-2.5-0.914-5.0859-1.5-9.75-0.832 0 0-2 0.168-0.58594 2.582 0 0-1.5 1.25-1 6.086 0.5 4.832 2.7734 7.957 6.7734 9.207 0 0 0.83203 0.418 1.832 0.168 0 0 5.6445 1.125 8.8945-3.543"/>
<path d="m226.03 1312c-0.32031-0.3907-0.3125-0.75 0.75-0.5s3.25 0.3125 4.25 0.9375 1.5 1.125 1.5 1.125 0.625-0.1875 0.6875 0.5625c0 0 2.625 2 2.8125 6.75 0 0-1.3125 1.6875-0.875 2.5 0 0-0.875 0.4375-1.1875 1.25s-4.5625 1.9375-6.625 1.375-3.9375-1.5625-4.25-2.3125c0 0 3.25-1.6875 3.6875-3.5 0 0 2.1875-4.625-0.75-8.1875" fill="#fff"/>
<path d="m227.46 1318.8c0 0.8945-0.72656 1.625-1.625 1.625s-1.625-0.7305-1.625-1.625c0-0.8985 0.72656-1.625 1.625-1.625s1.625 0.7265 1.625 1.625" fill="#fff"/>
<path d="m253.09 1329.8s0.1875-0.75-0.75-0.8125c0 0-0.1875-1 0.0625-1.4375s0.1875-1.5625 0.9375-2.1875 0.9375-2.5625 4.5-4.4375 10.688-2.3125 12.5 0.5625c0 0 0.4375 0.5-0.3125 0.9375s-1.25 0.375-1.5 1.625-0.375 4.375-3 8.25c0 0-0.5 1.0625-1 1.375s0 0.625 0 0.625-2.5 1.25-4.5 1.25-5.5625-0.8125-6.9375-5.75"/>
<path d="m260.46 1327.7c0.3125-2.0625-0.625-4.5625-1.4375-5.5 0 0 0.3125-0.4375 0.8125 0.125s1-0.6875 1-0.6875 1.6875-0.375 2.125-0.375 1.0625-0.0625 1.4375 0.0625 2.1875 0.375 2.625 0.625 0.5 1.125 0.25 2.4375-1.25 5.625-3.5625 8.375c0 0-1.375 0.5-1.75 1s-4.0625 0.1875-5.3125-0.625c0 0-0.3125-0.3125 0.6875-0.8125s1.4375-1 2.25-2.125z" fill="#fff"/>
<path d="m260.65 1328.4c0 0.8789-0.71484 1.5938-1.5938 1.5938s-1.5938-0.7149-1.5938-1.5938c0-0.8828 0.71484-1.5937 1.5938-1.5937s1.5938 0.7109 1.5938 1.5937" fill="#fff"/>
</g>
<use transform="translate(344.99)" width="100%" height="100%" xlink:href="#g2046"/>
<g transform="matrix(-1.9961,0,0,1.9961,1338,-2475.2)" stroke-width=".50097">
<path d="m408.95 1323.9 0.83594 0.418s1.6641-1.75 0.66406-6.668-5.1641-6.5-7.6641-7.418c-2.5-0.914-5.0859-1.5-9.75-0.832 0 0-2 0.168-0.58594 2.582 0 0-1.5 1.25-1 6.086 0.5 4.832 2.7734 7.957 6.7734 9.207 0 0 0.83203 0.418 1.832 0.168 0 0 5.6445 1.125 8.8945-3.543"/>
<path d="m398.86 1312c-0.32031-0.3907-0.3125-0.75 0.75-0.5s3.25 0.3125 4.25 0.9375 1.5 1.125 1.5 1.125 0.625-0.1875 0.6875 0.5625c0 0 2.625 2 2.8125 6.75 0 0-1.3125 1.6875-0.875 2.5 0 0-0.875 0.4375-1.1875 1.25s-4.5625 1.9375-6.625 1.375-3.9375-1.5625-4.25-2.3125c0 0 3.25-1.6875 3.6875-3.5 0 0 2.1875-4.625-0.75-8.1875" fill="#fff"/>
<path d="m400.3 1318.8c0 0.8945-0.72656 1.625-1.625 1.625s-1.625-0.7305-1.625-1.625c0-0.8985 0.72656-1.625 1.625-1.625s1.625 0.7265 1.625 1.625" fill="#fff"/>
<path d="m425.93 1329.8s0.1875-0.75-0.75-0.8125c0 0-0.1875-1 0.0625-1.4375s0.1875-1.5625 0.9375-2.1875 0.9375-2.5625 4.5-4.4375 10.688-2.3125 12.5 0.5625c0 0 0.4375 0.5-0.3125 0.9375s-1.25 0.375-1.5 1.625-0.375 4.375-3 8.25c0 0-0.5 1.0625-1 1.375s0 0.625 0 0.625-2.5 1.25-4.5 1.25-5.5625-0.8125-6.9375-5.75"/>
<path d="m433.3 1327.7c0.3125-2.0625-0.625-4.5625-1.4375-5.5 0 0 0.3125-0.4375 0.8125 0.125s1-0.6875 1-0.6875 1.6875-0.375 2.125-0.375 1.0625-0.0625 1.4375 0.0625 2.1875 0.375 2.625 0.625 0.5 1.125 0.25 2.4375-1.25 5.625-3.5625 8.375c0 0-1.375 0.5-1.75 1s-4.0625 0.1875-5.3125-0.625c0 0-0.3125-0.3125 0.6875-0.8125s1.4375-1 2.25-2.125z" fill="#fff"/>
<path d="m433.49 1328.4c0 0.8789-0.71484 1.5938-1.5938 1.5938s-1.5938-0.7149-1.5938-1.5938c0-0.8828 0.71484-1.5937 1.5938-1.5937s1.5938 0.7109 1.5938 1.5937" fill="#fff"/>
<path d="m398.43 1333.6s1.25-0.5 2.5-0.4375c0 0 3 3.625 4.5625 4.875 0 0 0 0.75 0.5625 1.125l0.5625 0.375s4.875 4.0625 6 4.6875 3.4375 0.25 4.3125-0.625 3.125-3.0625 3.125-3.0625 5.1875 0.0625 6.125-0.25 1.125-0.8125 1.125-1.0625-4.8125-0.0625-6-0.25-1.5625-0.625-3.25-0.5625-8.3125-1.625-9.0625-2.0625-2.25-1-4.1875-1.5-2.625-1.875-2.5625-2.25 0.625-0.9375-0.25-0.75-2.0625-0.3125-4.75 1.5c0 0 0.125 0.375 1.1875 0.25"/>
<path d="m409.68 1337.5v0.5s0.9375 1.5625 1.5625 1.75 1.25-0.125 1.25-0.125l0.125 0.5625s1.625 0.4375 2.8125 0.5625 1.8125-0.6875 1.8125-0.6875h0.8125l0.375-0.5s-5.25-0.3125-8.75-2.0625" fill="#fff"/>
</g>
<use transform="translate(689.99)" width="100%" height="100%" xlink:href="#g2046"/>
<g transform="matrix(-1.9961,0,0,1.9961,2028,-2475.2)" stroke-width=".50097">
<path d="m571.26 1333.6s1.25-0.5 2.5-0.4375c0 0 3 3.625 4.5625 4.875 0 0 0 0.75 0.5625 1.125l0.5625 0.375s4.875 4.0625 6 4.6875 3.4375 0.25 4.3125-0.625 3.125-3.0625 3.125-3.0625 5.1875 0.0625 6.125-0.25 1.125-0.8125 1.125-1.0625-4.8125-0.0625-6-0.25-1.5625-0.625-3.25-0.5625-8.3125-1.625-9.0625-2.0625-2.25-1-4.1875-1.5-2.625-1.875-2.5625-2.25 0.625-0.9375-0.25-0.75-2.0625-0.3125-4.75 1.5c0 0 0.125 0.375 1.1875 0.25"/>
<path d="m582.51 1337.5v0.5s0.9375 1.5625 1.5625 1.75 1.25-0.125 1.25-0.125l0.125 0.5625s1.625 0.4375 2.8125 0.5625 1.8125-0.6875 1.8125-0.6875h0.8125l0.375-0.5s-5.25-0.3125-8.75-2.0625" fill="#fff"/>
<path d="m563.39 1311.7s0-0.5625 0.4375-0.625 1.0625-0.5 1.0625-0.5 0.5625-1.9375 0.8125-1.9375 0.5625 0.25 0.375 1.1875-0.5 1.1875-0.5 1.1875 2.25 6.375 6.125 9.25 11 2.4375 11 2.4375 0.5-2.125 0.5625-3.9375 0.6875-0.1875 0.6875-0.1875-0.125 1.5625-0.125 1.875 0.1875 3.25 0.25 3.5625-0.25 0.375-0.8125 0.0625l-4.0625 1.375 1.5-1.0625s-3.4375 0.4375-6.125-0.25-7.375-3.3125-9.375-8.5l-0.375 0.1875z"/>
<path d="m597.64 1328s1.1875-3.4375 1.8125-4v1.3125l-0.5 1.875s1.5 1.625 5.375 2.3125 8.3125-1.5625 8.3125-1.5625l0.625-1.6875 0.625-0.75v1.5625l1.25 0.875s-2.5625 3.0625-6.8125 3.4375-5.8125-0.3125-8.5625-1.8125l0.5 1.4375-1.9375-2.125s0-0.875-0.6875-0.875"/>
</g>
<use transform="translate(1035)" width="100%" height="100%" xlink:href="#g2046"/>
<g transform="matrix(-1.9961,0,0,1.9961,2718,-2475.2)" stroke-width=".50097">
<path d="m754.62 1323.9 0.836 0.418s1.664-1.75 0.664-6.668-5.164-6.5-7.664-7.418c-2.5-0.914-5.086-1.5-9.75-0.832 0 0-2 0.168-0.586 2.582 0 0-1.5 1.25-1 6.086 0.5 4.832 2.7735 7.957 6.7735 9.207 0 0 0.832 0.418 1.832 0.168 0 0 5.6445 1.125 8.8945-3.543"/>
<path d="m744.54 1312c-0.3203-0.3907-0.3125-0.75 0.75-0.5s3.25 0.3125 4.25 0.9375 1.5 1.125 1.5 1.125 0.625-0.1875 0.6875 0.5625c0 0 2.625 2 2.8125 6.75 0 0-1.3125 1.6875-0.875 2.5 0 0-0.875 0.4375-1.1875 1.25s-4.5625 1.9375-6.625 1.375-3.9375-1.5625-4.25-2.3125c0 0 3.25-1.6875 3.6875-3.5 0 0 2.1875-4.625-0.75-8.1875" fill="#fff"/>
<path d="m745.97 1318.8c0 0.8945-0.7266 1.625-1.625 1.625s-1.625-0.7305-1.625-1.625c0-0.8985 0.7266-1.625 1.625-1.625s1.625 0.7265 1.625 1.625" fill="#fff"/>
<path d="m771.6 1329.8s0.1875-0.75-0.75-0.8125c0 0-0.1875-1 0.0625-1.4375s0.1875-1.5625 0.9375-2.1875 0.9375-2.5625 4.5-4.4375 10.688-2.3125 12.5 0.5625c0 0 0.4375 0.5-0.3125 0.9375s-1.25 0.375-1.5 1.625-0.375 4.375-3 8.25c0 0-0.5 1.0625-1 1.375s0 0.625 0 0.625-2.5 1.25-4.5 1.25-5.5625-0.8125-6.9375-5.75"/>
<path d="m778.97 1327.7c0.3125-2.0625-0.625-4.5625-1.4375-5.5 0 0 0.3125-0.4375 0.8125 0.125s1-0.6875 1-0.6875 1.6875-0.375 2.125-0.375 1.0625-0.0625 1.4375 0.0625 2.1875 0.375 2.625 0.625 0.5 1.125 0.25 2.4375-1.25 5.625-3.5625 8.375c0 0-1.375 0.5-1.75 1s-4.0625 0.1875-5.3125-0.625c0 0-0.3125-0.3125 0.6875-0.8125s1.4375-1 2.25-2.125z" fill="#fff"/>
<path d="m779.16 1328.4c0 0.8789-0.7148 1.5938-1.5937 1.5938-0.879 0-1.5938-0.7149-1.5938-1.5938 0-0.8828 0.7148-1.5937 1.5938-1.5937 0.8789 0 1.5937 0.7109 1.5937 1.5937" fill="#fff"/>
<path d="m751.33 1332.7s1.789-0.289 2.207-0.082-1.043-1.207-1.043-1.207-0.207 0.332-0.457 0.375c-0.25 0.039-3.457-0.086-4.875 1.289 0 0-0.543 1.043 0.832 0.793s2.211-0.375 2.543-0.293c0 0-0.207 0.5 0.625 1.668s3.793 4.457 4.5 5.082c0 0 0.375 0.793 1.207 1.375 0.836 0.586 3.875 2.043 4.5 2.168s1.461 0.043 1.918-0.207 0.293-1.086 1.207-1.711c0.918-0.625 4.336-2.957 6.625-3.582l0.625-0.168 0.168 0.418s0.418-0.375 0.207-0.707c-0.207-0.336-0.664-1.043-0.664-1.043s-0.086 0.293-0.75 0.418l-0.668 0.125s-1.543 0.664-5 0.039-8.875-1.457-13.707-4.75"/>
<path d="m755.95 1339.2s3.289 0.039 4.25 1.125l0.289 0.625s0.125 0.125 0.25-0.375 1.918 0.125 2.043 0.75c0 0-1.418 0.75-1.582 0.914-0.168 0.168-4.25-2.164-5.25-3.039" fill="#701c07"/>
<path d="m757.04 1336.6s2.25 1.4375 4.1875 2 2.8125-0.25 2.8125-0.25-6.125-1.3125-7-1.75" fill="#fff"/>
<path d="m752.04 1334.5c-0.1875-0.0938-0.5625-0.125-0.125 0.4687 0.4375 0.5938 1.4688 2.0625 1.875 2.4688 0.4063 0.4062 4.25 0.875 6 2.0625 0 0 2.125 0.0625 3.7188 1.5312 0 0 2.6562-1.6562 3.2187-1.9062s-0.5937-0.2188-1.125-0.1875c-0.5312 0.0312-1.875-0.0313-1.875-0.0313s-0.3125 0.75-2.5 0.0625-4.25-1.7812-5.5-2.5937z" fill="#230c07"/>
</g>
<use transform="translate(1380)" width="100%" height="100%" xlink:href="#g2046"/>
<g transform="matrix(-1.9961,0,0,1.9961,3408,-2475.2)" stroke-width=".50097">
<path d="m927.45 1323.9 0.836 0.418s1.664-1.75 0.664-6.668-5.164-6.5-7.664-7.418c-2.5-0.914-5.086-1.5-9.75-0.832 0 0-2 0.168-0.586 2.582 0 0-1.5 1.25-1 6.086 0.5 4.832 2.7735 7.957 6.7735 9.207 0 0 0.832 0.418 1.832 0.168 0 0 5.6445 1.125 8.8945-3.543"/>
<path d="m917.37 1312c-0.3203-0.3907-0.3125-0.75 0.75-0.5s3.25 0.3125 4.25 0.9375 1.5 1.125 1.5 1.125 0.625-0.1875 0.6875 0.5625c0 0 2.625 2 2.8125 6.75 0 0-1.3125 1.6875-0.875 2.5 0 0-0.875 0.4375-1.1875 1.25s-4.5625 1.9375-6.625 1.375-3.9375-1.5625-4.25-2.3125c0 0 3.25-1.6875 3.6875-3.5 0 0 2.1875-4.625-0.75-8.1875" fill="#fff"/>
<path d="m918.81 1318.8c0 0.8945-0.7266 1.625-1.625 1.625s-1.625-0.7305-1.625-1.625c0-0.8985 0.7266-1.625 1.625-1.625s1.625 0.7265 1.625 1.625" fill="#fff"/>
<path d="m944.43 1329.8s0.1875-0.75-0.75-0.8125c0 0-0.1875-1 0.0625-1.4375s0.1875-1.5625 0.9375-2.1875 0.9375-2.5625 4.5-4.4375 10.688-2.3125 12.5 0.5625c0 0 0.4375 0.5-0.3125 0.9375s-1.25 0.375-1.5 1.625-0.375 4.375-3 8.25c0 0-0.5 1.0625-1 1.375s0 0.625 0 0.625-2.5 1.25-4.5 1.25-5.5625-0.8125-6.9375-5.75"/>
<path d="m951.81 1327.7c0.3125-2.0625-0.625-4.5625-1.4375-5.5 0 0 0.3125-0.4375 0.8125 0.125s1-0.6875 1-0.6875 1.6875-0.375 2.125-0.375 1.0625-0.0625 1.4375 0.0625 2.1875 0.375 2.625 0.625 0.5 1.125 0.25 2.4375-1.25 5.625-3.5625 8.375c0 0-1.375 0.5-1.75 1s-4.0625 0.1875-5.3125-0.625c0 0-0.3125-0.3125 0.6875-0.8125s1.4375-1 2.25-2.125z" fill="#fff"/>
<path d="m952 1328.4c0 0.8789-0.7148 1.5938-1.5937 1.5938-0.879 0-1.5938-0.7149-1.5938-1.5938 0-0.8828 0.7148-1.5937 1.5938-1.5937 0.8789 0 1.5937 0.7109 1.5937 1.5937" fill="#fff"/>
<path d="m922.41 1332.5c-0.1797-0.4844-2.461 0.5-2.543 0.707 0 0 0-0.957 0.793-1.289 0.789-0.336 3.039-1.086 3.539-1.168s1.168 0.043 0.918 0.582c-0.25 0.543-1.75 0.836-1.75 0.836s0.082 0.5 0.457 0.75 2.375 1.039 2.711 1.207l0.332 0.168s1.957 0.75 3.375 1.414c1.418 0.668 3.918 1.711 9.582 1.836 0 0 2-0.461 2.711-0.461 0.707 0 2.5-1.082 2.664-1.039 0.168 0.039 0.375 1 0.125 1.332s-2.207 1-3.289 1.957c-1.086 0.961-2.668 2.711-4.25 5.418 0 0-0.375 0.668-0.211 0.918 0 0 0.375 0.125 0.293 0.5s-0.582 0.582-2.418 0.375c-1.832-0.211-5.414-2.836-7.039-4.168s-4-4.5-6-9.875"/>
<path d="m930.91 1337.4c-0.5391-0.3047 2.457 1.918 4.289 1.961 1.836 0.039 1.543-0.711 1.543-0.711s-5.168-0.875-5.832-1.25" fill="#fff"/>
<path d="m928.37 1340.5c-0.3086-0.2813 3.207-0.418 4.082 0.25 0.875 0.664 1.25 2.039 1.5 2.25 0.25 0.207 0.461-0.461 0.293-0.918s-0.5-0.918 0.25-0.5 1.832 1 2 2.043c0 0-1.043 1.332-1.457 1.457-0.418 0.125-2.043-0.875-2.75-1.332-0.711-0.461-3.5-2.875-3.918-3.25" fill="#701c07"/>
<path d="m924.25 1334.3c-0.8242-0.5898 1.918 4.293 3.707 5.75 0 0 3.461-1.043 5.625 0.332 2.168 1.375 3.043 2.086 3.336 2.711 0 0 2.375-1.961 3.25-3.793l0.082-0.457s-1.625-0.043-2.332-0.086c0 0-1.293 1.668-2.961 1.375-1.664-0.289-4.625-2.082-6.082-3.25 0 0-3.75-1.957-4.625-2.582" fill="#230c07"/>
</g>
<use transform="translate(1725)" width="100%" height="100%" xlink:href="#g2046"/>
<g transform="matrix(-1.9961,0,0,1.9961,4098,-2475.2)" stroke-width=".50097">
<path d="m1097.5 1335.9s0.5625-0.4375 1.4375-0.4375c0 0 2.375 2.25 4.0625 3.0625s3 1.5 3 1.5 3.5 0.625 3.75 0.9375 5.0625-1.25 5.5625-1.5c0 0 0.3125-1-0.125-0.875l-0.4375 0.125s-0.9375 0.875-3.75 0.875-7.875-2.0625-8.3125-2.25-2.625-1.6875-2.875-2.0625c0 0 0.625-0.25 0.1875-0.6875s-1.125-0.4375-1.8125 0.0625-1.875 1.125-0.6875 1.25"/>
<path d="m1081.9 1311.7s0-0.5625 0.4375-0.625 1.0625-0.5 1.0625-0.5 0.5625-1.9375 0.8125-1.9375 0.5625 0.25 0.375 1.1875-0.5 1.1875-0.5 1.1875 2.25 6.375 6.125 9.25 11 2.4375 11 2.4375 0.5-2.125 0.5625-3.9375 0.6875-0.1875 0.6875-0.1875-0.125 1.5625-0.125 1.875 0.1875 3.25 0.25 3.5625-0.25 0.375-0.8125 0.0625l-4.0625 1.375 1.5-1.0625s-3.4375 0.4375-6.125-0.25-7.375-3.3125-9.375-8.5l-0.375 0.1875z"/>
<path d="m1116.1 1328s1.1875-3.4375 1.8125-4v1.3125l-0.5 1.875s1.5 1.625 5.375 2.3125 8.3125-1.5625 8.3125-1.5625l0.625-1.6875 0.625-0.75v1.5625l1.25 0.875s-2.5625 3.0625-6.8125 3.4375-5.8125-0.3125-8.5625-1.8125l0.5 1.4375-1.9375-2.125s0-0.875-0.6875-0.875"/>
</g>
<style type="text/css">.st0{fill:#45AFA8;}
	.st1{fill:#B08C2F;}
	.st2{fill:#567578;}
	.st3{fill:#D48969;}
	.st4{fill:#D45028;}
	.st5{fill:#561409;}
	.st6{fill:#F08F20;}
	.st7{fill:#F4A81C;}
	.st8{fill:#FFFFFF;}</style>
<use transform="translate(2070)" width="100%" height="100%" xlink:href="#g2046"/>
<path d="m2252.1 191.19s-1.125-0.9-2.85-0.9c0 0-4.725 4.5-8.1 6.075-3.375 1.65-6 3-6 3s-6.975 1.275-7.425 1.875-10.05-2.475-11.025-3c0 0-0.6-2.025 0.225-1.725l0.9 0.225s1.875 1.725 7.425 1.725 15.675-4.125 16.5-4.5 5.25-3.375 5.7-4.125c0 0-1.275-0.525-0.375-1.35 0.9-0.9 2.25-0.9 3.6 0.15 1.425 1.05 3.825 2.325 1.425 2.55z" stroke-width=".75"/>
<g transform="matrix(-.75 0 0 .75 3101.5 -2.6812)">
<path d="m1139.8 226.7 2.2 1.1s4.4-4.6 1.8-17.7c-2.7-13-13.7-17.2-20.3-19.7-6.6-2.4-13.5-4-25.8-2.2 0 0-5.3 0.4-1.5 6.8 0 0-4 3.3-2.7 16.1s7.3 21.1 17.9 24.4c0 0 2.2 1.1 4.9 0.4-0.1 0.2 14.9 3.2 23.5-9.2z"/>
<path class="st8" d="m1104.8 226.5c1.6 1.5 6.3 4.1 11.8 5.6s16.7-1.5 17.6-3.6c0.8-2.2 3.1-3.3 3.1-3.3-1.2-2.2 2.3-6.6 2.3-6.6-0.5-12.6-7.5-17.9-7.5-17.9-0.2-2-1.8-1.5-1.8-1.5s-1.3-1.3-4-3-8.5-1.8-11.3-2.5c0 0-12.1 0.1-14.7 1.3-2.5 1.2-6 21.8 4.5 31.5z" fill="#fff"/>
</g>
<g transform="matrix(-.75 0 0 .75 3101.5 -2.6812)">
<path d="m1184.8 242.4s0.5-2-2-2.2c0 0-0.5-2.7 0.2-3.8 0.7-1.2 0.5-4.1 2.5-5.8s2.5-6.8 11.9-11.8 28.3-6.1 33.1 1.5c0 0 1.2 1.3-0.8 2.5s-3.3 1-4 4.3-1 11.6-8 21.9c0 0-1.3 2.8-2.7 3.6-1.3 0.8 0 1.7 0 1.7s-6.6 3.3-11.9 3.3c-5.2 0.1-14.6-2.1-18.3-15.2z"/>
<path class="st8" d="m1194.3 251.2c3.3 2.2 13.1 3 14.1 1.7s4.6-2.7 4.6-2.7c6.1-7.3 8.8-18.7 9.4-22.2 0.7-3.5 0.5-5.8-0.7-6.5s-6-1.3-7-1.7c-1-0.3-2.7-0.2-3.8-0.2-1.2 0-5.6 1-5.6 1s-1.3 3.3-2.7 1.8c-1.3-1.5-2.2-0.3-2.2-0.3s-6.4 0.3-12.1 9.2c-5.5 9 6 19.9 6 19.9z" fill="#fff"/>
</g>
<path d="m2263.3 145.89a12.15 12.15 0 0 0-12.1 11.123 4.5 4.5 0 0 1 3-1.1528 4.5 4.5 0 0 1 4.5 4.5 4.5 4.5 0 0 1-4.5 4.5 4.5 4.5 0 0 1-1.0297-0.1245 12.15 12.15 0 0 0 10.129 5.4551 12.15 12.15 0 0 0 12.149-12.149 12.15 12.15 0 0 0-12.149-12.151z" stroke-width=".75"/>
<path transform="scale(.75)" d="m2937.2 220.43a13 13 0 0 0-12.936 11.832 5.5 5.5 0 0 1 3.4707-1.2383 5.5 5.5 0 0 1 5.5 5.5 5.5 5.5 0 0 1-5.5 5.5 5.5 5.5 0 0 1-0.2832-0.00976 13 13 0 0 0 9.748 4.416 13 13 0 0 0 13-13 13 13 0 0 0-13-13z"/>
</svg>
