<svg version="1.1" viewBox="0 0 200 229.94" xmlns="http://www.w3.org/2000/svg" xmlns:xlink="http://www.w3.org/1999/xlink">
<defs>
<style>.cls-1{fill:none;}.cls-2{fill:#ff6b00;}.cls-3{fill:url(#radial-gradient);}.cls-4{fill:url(#radial-gradient-2);}.cls-5{fill:url(#radial-gradient-3);}.cls-6{fill:url(#radial-gradient-4);}.cls-7{fill:url(#linear-gradient);}.cls-8{fill:#fff;}</style>
<radialGradient id="radial-gradient" cx="37.83" cy="57.48" r="44.61" gradientUnits="userSpaceOnUse">
<stop stop-color="#fb3a5c" stop-opacity="0" offset=".38"/>
<stop stop-color="#fb3a5c" stop-opacity=".02" offset=".44"/>
<stop stop-color="#fb3a5c" stop-opacity=".06" offset=".5"/>
<stop stop-color="#fb3a5c" stop-opacity=".14" offset=".55"/>
<stop stop-color="#fb3a5c" stop-opacity=".25" offset=".61"/>
<stop stop-color="#fb3a5c" stop-opacity=".39" offset=".67"/>
<stop stop-color="#fb3a5c" stop-opacity=".57" offset=".73"/>
<stop stop-color="#fb3a5c" stop-opacity=".77" offset=".78"/>
<stop stop-color="#fb3a5c" offset=".84"/>
</radialGradient>
<radialGradient id="radial-gradient-2" cx="62.83" cy="57.48" r="53.95" gradientTransform="matrix(2.0372 0 0 2.0372 0 2.8919)" xlink:href="#radial-gradient"/>
<radialGradient id="radial-gradient-3" cx="59.95" cy="67.96" r="46.6" gradientTransform="matrix(2.0372 0 0 2.0372 0 2.8919)" xlink:href="#radial-gradient"/>
<radialGradient id="radial-gradient-4" cx="67.4" cy="47.7" r="45.84" gradientTransform="matrix(2.0372 0 0 2.0372 0 2.8919)" xlink:href="#radial-gradient"/>
<linearGradient id="linear-gradient" x1="67.4" x2="67.4" y1="-9.11" y2="72.21" gradientTransform="matrix(2.0372 0 0 2.0372 0 2.8919)" gradientUnits="userSpaceOnUse">
<stop stop-color="#f92781" offset="0"/>
<stop stop-color="#f92a7c" offset=".15"/>
<stop stop-color="#fa326d" offset=".34"/>
<stop stop-color="#fb3f54" offset=".54"/>
<stop stop-color="#fd5131" offset=".75"/>
<stop stop-color="#ff6805" offset=".98"/>
<stop stop-color="#ff6b00" offset="1"/>
</linearGradient>
<radialGradient id="radialGradient1001" cx="37.83" cy="57.48" r="44.61" gradientUnits="userSpaceOnUse" xlink:href="#radial-gradient"/>
</defs>
<title>ONE</title>
<g transform="matrix(.98174 0 0 .98174 -25.66 -2.8391)">
<g stroke-width=".5" style="">
<polygon class="cls-1" transform="matrix(2.0372 0 0 2.0372 0 2.8919)" points="112.4 28.74 112.4 86.22 62.83 114.84 63.05 114.97 112.83 86.22 112.83 28.74 63.05 0 62.83 0.13" fill="none" style=""/>
<polygon class="cls-2" transform="matrix(2.0372 0 0 2.0372 0 2.8919)" points="12.83 28.74 12.83 86.22 62.61 114.97 62.83 114.84 13.27 86.22 13.27 28.74 62.83 0.13 62.61 0" fill="#ff6b00" style=""/>
<polygon class="cls-3" transform="matrix(2.0372 0 0 2.0372 0 2.8919)" points="12.83 28.74 12.83 86.22 62.61 114.97 62.83 114.84 13.27 86.22 13.27 28.74 62.83 0.13 62.61 0" fill="url(#radialGradient1001)" style=""/>
</g>
<g stroke-width="1.0186" style="">
<path class="cls-2" d="m228.98 61.441-100.98-58.284-100.96 58.284v117.12l100.96 58.284 100.98-58.284zm-201.56 116.12v-115.59l25.037-14.525 74.663-43.331 99.7 57.856v115.51l-10.003 5.7856-89.637 52.01z" fill="#ff6b00" style=""/>
<path class="cls-4" d="m228.98 61.441-100.98-58.284-100.96 58.284v117.12l100.96 58.284 100.98-58.284zm-201.56 116.12v-115.59l25.037-14.525 74.663-43.331 99.7 57.856v115.51l-10.003 5.7856-89.637 52.01z" fill="url(#radial-gradient-2)" style=""/>
<path class="cls-2" d="m163.93 196.04a116.12 116.12 0 0 1-111.48-148.72l-25.037 14.647v115.51l99.7 57.795 89.637-52.01a115.43 115.43 0 0 1-52.824 12.773z" fill="#ff6b00" style=""/>
<path class="cls-5" d="m163.93 196.04a116.12 116.12 0 0 1-111.48-148.72l-25.037 14.647v115.51l99.7 57.795 89.637-52.01a115.43 115.43 0 0 1-52.824 12.773z" fill="url(#radial-gradient-3)" style=""/>
<path class="cls-2" d="m163.93 196.04a115.43 115.43 0 0 0 52.967-12.773l10.003-5.7856v-115.51l-99.782-57.856-74.663 43.27a116.12 116.12 0 0 0 111.48 148.72z" fill="#ff6b00" style=""/>
<path class="cls-6" d="m163.93 196.04a115.43 115.43 0 0 0 52.967-12.773l10.003-5.7856v-115.51l-99.782-57.856-74.663 43.27a116.12 116.12 0 0 0 111.48 148.72z" fill="url(#radial-gradient-4)" style=""/>
<path class="cls-7" d="m163.93 196.04a115.43 115.43 0 0 0 52.967-12.773l10.003-5.7856v-115.51l-99.782-57.856-74.663 43.27a116.12 116.12 0 0 0 111.48 148.72z" fill="url(#linear-gradient)" style=""/>
</g>
<polygon class="cls-8" transform="matrix(2.0372 0 0 2.0372 0 2.8919)" points="69.99 54.78 68.47 56.75 69.94 58.77 87.97 83.48 88.49 83.19 77.78 56.85 88.49 31.79 87.97 31.48" fill="#fff" stroke-width=".5" style=""/>
<polygon class="cls-8" transform="matrix(2.0372 0 0 2.0372 0 2.8919)" points="37.17 83.19 37.7 83.48 55.72 58.77 57.2 56.75 55.67 54.78 37.69 31.48 37.17 31.79 47.88 56.85" fill="#fff" stroke-width=".5" style=""/>
</g>
</svg>
