<?xml version="1.0" encoding="UTF-8"?>
<svg width="640" height="480" version="1.1" viewBox="0 0 169.33333 127" xmlns="http://www.w3.org/2000/svg" xmlns:cc="http://creativecommons.org/ns#" xmlns:dc="http://purl.org/dc/elements/1.1/" xmlns:rdf="http://www.w3.org/1999/02/22-rdf-syntax-ns#" xmlns:xlink="http://www.w3.org/1999/xlink">
<defs>
<linearGradient id="a" x1="82.103" x2="82.087" y1="299.03" y2="168.57" gradientTransform="matrix(.9915 0 0 .99604 0 -169.36)" gradientUnits="userSpaceOnUse">
<stop stop-color="#03a892" stop-opacity=".67331" offset="0"/>
<stop stop-opacity="0" offset="1"/>
</linearGradient>
<clipPath id="g">
<path d="m302 0h37.508v86.844h-37.508z"/>
</clipPath>
<clipPath id="f">
<path d="m302 0h37.508v86.844h-37.508z"/>
</clipPath>
<clipPath id="d">
<path d="m302 0h37.508v86.844h-37.508z"/>
</clipPath>
<clipPath id="e">
<path d="m302 0h37.508v86.844h-37.508z"/>
</clipPath>
<filter id="c" color-interpolation-filters="sRGB">
<feFlood flood-color="rgb(0,0,0)" flood-opacity=".84706" result="flood"/>
<feComposite in="flood" in2="SourceGraphic" operator="in" result="composite1"/>
<feGaussianBlur in="composite1" result="blur" stdDeviation="1"/>
<feOffset dx="1" dy="1" result="offset"/>
<feComposite in="offset" in2="SourceGraphic" operator="out" result="composite2"/>
</filter>
<linearGradient id="b" x1="24.054" x2="166.02" y1="264.36" y2="264.36" gradientTransform="translate(0 -170)" gradientUnits="userSpaceOnUse">
<stop stop-color="#034192" offset="0"/>
<stop stop-color="#034192" stop-opacity="0" offset="1"/>
</linearGradient>
</defs>
<metadata>
<rdf:RDF>
<cc:Work rdf:about="">
<dc:format>image/svg+xml</dc:format>
<dc:type rdf:resource="http://purl.org/dc/dcmitype/StillImage"/>
<dc:title/>
</cc:Work>
</rdf:RDF>
</metadata>
<g transform="matrix(3.503 0 0 3.503 -289.83 -753.81)" filter="url(#c)" stroke-width=".28547">
<g transform="matrix(.35278 0 0 .35278 -23.537 218.2)" clip-path="url(#d)">
<path d="m308.12 44.512c-0.54688-0.66797-0.54688-1.6328 0-2.3008l30.75-37.453c1.3594-1.6016 0.49609-4.5625-2.2188-4.5625h-2.6875c-1.8516 0-2.2188 0.74219-2.7109 1.2344l-28.355 35.391c-0.51562 0.64453-0.79297 1.4453-0.79297 2.2695v8.543c0 0.82813 0.27735 1.625 0.79297 2.2695l28.355 35.391c0.49219 0.49219 0.85938 1.2344 2.7109 1.2344h2.6875c2.7148 0 3.5781-2.9609 2.2188-4.5625z" fill="#54ffca"/>
</g>
<g transform="matrix(-.35278 0 0 .35278 219.83 218.2)" clip-path="url(#e)">
<path d="m308.12 44.512c-0.54688-0.66797-0.54688-1.6328 0-2.3008l30.75-37.453c1.3594-1.6016 0.49609-4.5625-2.2188-4.5625h-2.6875c-1.8516 0-2.2188 0.74219-2.7109 1.2344l-28.355 35.391c-0.51562 0.64453-0.79297 1.4453-0.79297 2.2695v8.543c0 0.82813 0.27735 1.625 0.79297 2.2695l28.355 35.391c0.49219 0.49219 0.85938 1.2344 2.7109 1.2344h2.6875c2.7148 0 3.5781-2.9609 2.2188-4.5625z" fill="#54ffca"/>
</g>
</g>
<rect x="1.7111e-7" y="-5.2588e-6" width="169.33" height="127" ry="5.7078" fill="url(#a)" opacity=".98" style="paint-order:stroke fill markers"/>
<g transform="matrix(3.503 0 0 3.503 -289.83 -753.81)" stroke-width=".28547">
<g transform="matrix(.35278 0 0 .35278 -23.537 218.2)" clip-path="url(#g)">
<path d="m308.12 44.512c-0.54688-0.66797-0.54688-1.6328 0-2.3008l30.75-37.453c1.3594-1.6016 0.49609-4.5625-2.2188-4.5625h-2.6875c-1.8516 0-2.2188 0.74219-2.7109 1.2344l-28.355 35.391c-0.51562 0.64453-0.79297 1.4453-0.79297 2.2695v8.543c0 0.82813 0.27735 1.625 0.79297 2.2695l28.355 35.391c0.49219 0.49219 0.85938 1.2344 2.7109 1.2344h2.6875c2.7148 0 3.5781-2.9609 2.2188-4.5625z" fill="#54ffca"/>
</g>
<g transform="matrix(-.35278 0 0 .35278 219.83 218.2)" clip-path="url(#f)">
<path d="m308.12 44.512c-0.54688-0.66797-0.54688-1.6328 0-2.3008l30.75-37.453c1.3594-1.6016 0.49609-4.5625-2.2188-4.5625h-2.6875c-1.8516 0-2.2188 0.74219-2.7109 1.2344l-28.355 35.391c-0.51562 0.64453-0.79297 1.4453-0.79297 2.2695v8.543c0 0.82813 0.27735 1.625 0.79297 2.2695l28.355 35.391c0.49219 0.49219 0.85938 1.2344 2.7109 1.2344h2.6875c2.7148 0 3.5781-2.9609 2.2188-4.5625z" fill="#54ffca"/>
</g>
</g>
<g transform="translate(-2.6092 -8.4721)">
<path d="m73.31 82.746v7.6179c-0.40553-0.83804-0.91922-1.4584-1.5415-1.8606-0.61529-0.41064-1.3566-0.61567-2.2236-0.61567-1.4194 0-2.5767 0.67892-3.4716 2.0366-0.88798 1.3576-1.3317 3.1428-1.3317 5.3552 0 2.2125 0.44372 3.997 1.3317 5.3546 0.89497 1.3576 2.0523 2.0366 3.4716 2.0366 0.867 0 1.6083-0.20101 2.2236-0.60327 0.62228-0.41065 1.136-1.035 1.5415-1.873v2.1121h1.9296v-19.56zm82.813 0v19.56h1.9286l0.01189-19.56zm-126.09 0.7922-5.4534 21.157h1.7828l5.4539-21.157zm3.9124 0v18.768h2.0552v-16.481l4.038 12.873h2.1291l4.038-12.873v16.481h2.066v-18.768h-3.1569l-4.0168 12.772-3.9961-12.772zm56.393 0v2.1369h5.5583v16.631h2.1291v-16.631h5.5588v-2.1369zm24.783 0v18.768h2.1182v-8.9378h7.6982v8.9378h2.1187v-18.768h-2.1187v7.6928h-7.6982v-7.6928zm-58.596 4.3494c-0.62927 0-1.2757 0.08387-1.9399 0.25147-0.66424 0.15923-1.3495 0.40218-2.0557 0.72903v2.1369c0.58732-0.38549 1.1993-0.67439 1.8355-0.86715 0.63627-0.19274 1.2899-0.28924 1.9611-0.28924 1.0558 0 1.8738 0.29351 2.4541 0.88015 0.58732 0.57825 0.88108 1.3996 0.88108 2.4639v0.22607h-2.7058c-1.755 0-3.0766 0.40205-3.9646 1.2066-0.88098 0.80454-1.3214 1.9986-1.3214 3.5826 0 1.3576 0.35318 2.4432 1.0594 3.2561 0.71318 0.80452 1.6706 1.2066 2.8732 1.2066 0.9509 0 1.755-0.20101 2.4123-0.60327 0.65724-0.41065 1.2064-1.0436 1.6469-1.8984v2.1375h1.9296v-8.0329c0-2.1454-0.41929-3.7462-1.2583-4.8021-0.83903-1.056-2.1085-1.5838-3.8075-1.5838zm27.605 0c-1.762 0-3.1641 0.67892-4.2059 2.0366-1.0348 1.3493-1.5518 3.1764-1.5518 5.481 0 2.2292 0.54533 3.9971 1.6361 5.3045 1.0977 1.3074 2.5832 1.961 4.4571 1.961 0.74814 0 1.4861-0.09187 2.2133-0.27624 0.72717-0.18438 1.4369-0.45261 2.1291-0.80459v-2.1877c-0.68522 0.43579-1.3777 0.7626-2.0769 0.9805-0.6922 0.21789-1.4086 0.32704-2.1497 0.32704-1.2795 0-2.2796-0.41469-2.9998-1.2444-0.71318-0.83806-1.1119-2.0534-1.1958-3.6457h8.8728v-1.131c0-2.0951-0.46147-3.7505-1.3844-4.9657-0.91594-1.2236-2.1638-1.8352-3.744-1.8352zm22.329 0c-1.6851 0-3.0067 0.65363-3.9646 1.961-0.95091 1.3074-1.4263 3.1178-1.4263 5.4308 0 2.3046 0.47536 4.1145 1.4263 5.4302 0.95789 1.3074 2.2796 1.961 3.9646 1.961 1.6781 0 2.9959-0.65363 3.9538-1.961 0.95789-1.3158 1.4366-3.1256 1.4366-5.4302 0-2.313-0.47871-4.1235-1.4366-5.4308-0.9579-1.3074-2.2757-1.961-3.9538-1.961zm28.852 0c-0.62928 0-1.2757 0.08387-1.9399 0.25147-0.66423 0.15923-1.3495 0.40218-2.0557 0.72903v2.1369c0.58733-0.38549 1.1988-0.67439 1.835-0.86715 0.63626-0.19274 1.2904-0.28924 1.9616-0.28924 1.0558 0 1.8738 0.29351 2.4541 0.88015 0.58732 0.57825 0.88056 1.3996 0.88056 2.4639v0.22607h-2.7058c-1.755 0-3.0761 0.40205-3.9641 1.2066-0.88099 0.80454-1.3219 1.9986-1.3219 3.5826 0 1.3576 0.35318 2.4432 1.0594 3.2561 0.71318 0.80452 1.6711 1.2066 2.8737 1.2066 0.9509 0 1.755-0.20101 2.4122-0.60327 0.65724-0.41065 1.2059-1.0436 1.6464-1.8984v2.1375h1.9301v-8.0329c0-2.1454-0.41981-3.7462-1.2588-4.8021-0.83904-1.056-2.108-1.5838-3.807-1.5838zm14.117 0c-1.8319 0-3.2757 0.65763-4.3315 1.9734-1.0488 1.3158-1.5736 3.1222-1.5736 5.4184 0 2.2627 0.52089 4.0599 1.5627 5.3924 1.0418 1.3325 2.4473 1.9988 4.2163 1.9988 0.65025 0 1.2622-0.07522 1.8356-0.22608 0.58033-0.15084 1.1396-0.37715 1.6779-0.67884v-2.1369c-0.54537 0.36037-1.094 0.63261-1.6464 0.81699-0.54537 0.17599-1.0979 0.26386-1.6573 0.26386-1.2516 0-2.2234-0.47327-2.9156-1.4203-0.6922-0.95537-1.0382-2.2919-1.0382-4.0099s0.34597-3.0506 1.0382-3.9975c0.69221-0.95538 1.664-1.4333 2.9156-1.4333 0.55936 0 1.1119 0.09187 1.6573 0.27624 0.55237 0.17599 1.101 0.44422 1.6464 0.80459v-2.1617c-0.53138-0.29332-1.0801-0.51161-1.6464-0.65407-0.56635-0.15086-1.1467-0.22608-1.741-0.22608zm14.389 0.33943-4.8013 5.0629v3.2425l5.0111 5.774h2.5172l-6.4921-7.4922 6.2296-6.5872zm-93.804 1.5962c1.0208 0 1.8249 0.48652 2.4123 1.4587 0.58732 0.96375 0.88108 2.2963 0.88108 3.9975 0 1.7012-0.29376 3.0378-0.88108 4.0099-0.58732 0.96376-1.3914 1.4457-2.4123 1.4457-1.0208 0-1.8249-0.48191-2.4123-1.4457-0.58033-0.97214-0.87023-2.3087-0.87023-4.0099 0-1.7012 0.2899-3.0338 0.87023-3.9975 0.58732-0.97215 1.3914-1.4587 2.4123-1.4587zm14.138 0.0254c0.95091 0 1.7134 0.37738 2.2867 1.1316 0.58033 0.75425 0.87743 1.764 0.89141 3.0294l-6.8802 0.01239c0.09788-1.3241 0.46829-2.3505 1.1116-3.0796 0.65025-0.72911 1.5138-1.0938 2.5905-1.0938zm22.308 0c1.0278 0 1.842 0.49052 2.4433 1.471 0.60131 0.97214 0.90228 2.292 0.90228 3.9598 0 1.6761-0.30097 3-0.90228 3.9722-0.6013 0.97215-1.4154 1.4581-2.4433 1.4581-1.0418 0-1.8636-0.48191-2.465-1.4457-0.59432-0.97215-0.89142-2.3001-0.89142-3.9846 0-1.6845 0.30096-3.009 0.90227-3.9728 0.60131-0.97214 1.4193-1.458 2.4541-1.458zm-48.716 5.38h1.9193v0.51596c0 1.5085-0.3254 2.7192-0.97565 3.6327-0.64326 0.90509-1.4996 1.3577-2.5694 1.3577-0.77611 0-1.3914-0.23896-1.8459-0.71664-0.44748-0.48607-0.67128-1.1397-0.67128-1.961 0-1.0308 0.30045-1.7603 0.90176-2.1877 0.60131-0.42741 1.6819-0.64107 3.2411-0.64107zm78.785 0h1.9193v0.51596c0 1.5085-0.32488 2.7192-0.97513 3.6327-0.64326 0.90509-1.4996 1.3577-2.5694 1.3577-0.77611 0-1.3914-0.23896-1.8459-0.71664-0.44748-0.48607-0.67127-1.1397-0.67127-1.961 0-1.0308 0.30044-1.7603 0.90175-2.1877s1.6814-0.64107 3.2406-0.64107z" fill="#fff" style="font-feature-settings:normal;font-variant-caps:normal;font-variant-ligatures:normal;font-variant-numeric:normal"/>
<path d="m72.781 83.381v7.6179c-0.40553-0.83804-0.91922-1.4584-1.5415-1.8606-0.61529-0.41064-1.3566-0.61567-2.2236-0.61567-1.4194 0-2.5767 0.67891-3.4716 2.0366-0.88798 1.3576-1.3317 3.1428-1.3317 5.3552 0 2.2125 0.44372 3.997 1.3317 5.3546 0.89497 1.3576 2.0523 2.0366 3.4716 2.0366 0.867 0 1.6083-0.20103 2.2236-0.60329 0.62228-0.41065 1.136-1.035 1.5415-1.873v2.1121h1.9296v-19.56zm82.813 0v19.56h1.9286l0.01188-19.56zm-126.09 0.7922-5.4534 21.157h1.7828l5.4539-21.157zm3.9124 0v18.768h2.0552v-16.481l4.038 12.873h2.1291l4.038-12.873v16.481h2.066v-18.768h-3.1569l-4.0168 12.772-3.9961-12.772zm56.393 0v2.1369h5.5583v16.631h2.1291v-16.631h5.5588v-2.1369zm24.783 0v18.768h2.1182v-8.9378h7.6982v8.9378h2.1187v-18.768h-2.1187v7.6928h-7.6982v-7.6928zm-58.596 4.3494c-0.62928 0-1.2757 0.08386-1.9399 0.25147-0.66424 0.15923-1.3495 0.40219-2.0557 0.72902v2.1369c0.58732-0.3855 1.1993-0.67439 1.8355-0.86714 0.63627-0.19275 1.2899-0.28926 1.9611-0.28926 1.0558 0 1.8738 0.29352 2.4541 0.88016 0.58732 0.57825 0.88108 1.3996 0.88108 2.4639v0.22608h-2.7058c-1.755 0-3.0766 0.40205-3.9646 1.2066-0.88099 0.80452-1.3214 1.9986-1.3214 3.5826 0 1.3576 0.35318 2.4432 1.0594 3.2561 0.71318 0.80453 1.6706 1.2066 2.8732 1.2066 0.9509 0 1.755-0.20103 2.4123-0.60329 0.65724-0.41065 1.2064-1.0436 1.6469-1.8984v2.1375h1.9296v-8.0329c0-2.1454-0.41929-3.7462-1.2583-4.8021-0.83903-1.0559-2.1085-1.5838-3.8075-1.5838zm27.605 0c-1.762 0-3.1641 0.67891-4.2059 2.0366-1.0348 1.3493-1.5518 3.1764-1.5518 5.481 0 2.2292 0.54533 3.9971 1.6361 5.3045 1.0977 1.3074 2.5833 1.961 4.4571 1.961 0.74814 0 1.4861-0.09188 2.2133-0.27625 0.72716-0.18437 1.4369-0.45261 2.1291-0.80459v-2.1877c-0.68521 0.43578-1.3777 0.7626-2.0769 0.9805-0.6922 0.21789-1.4086 0.32703-2.1497 0.32703-1.2795 0-2.2796-0.41468-2.9998-1.2444-0.71318-0.83806-1.1119-2.0534-1.1958-3.6457h8.8728v-1.131c0-2.0951-0.46148-3.7505-1.3844-4.9656-0.91594-1.2236-2.1638-1.8353-3.744-1.8353zm22.329 0c-1.6851 0-3.0067 0.65363-3.9646 1.961-0.95091 1.3074-1.4263 3.1178-1.4263 5.4308 0 2.3046 0.47536 4.1145 1.4263 5.4302 0.9579 1.3074 2.2796 1.961 3.9646 1.961 1.6781 0 2.9959-0.65364 3.9538-1.961 0.95789-1.3157 1.4366-3.1256 1.4366-5.4302 0-2.313-0.47871-4.1235-1.4366-5.4308-0.9579-1.3074-2.2757-1.961-3.9538-1.961zm28.852 0c-0.62928 0-1.2757 0.08386-1.9399 0.25147-0.66424 0.15923-1.3495 0.40219-2.0557 0.72902v2.1369c0.58732-0.3855 1.1988-0.67439 1.835-0.86714 0.63626-0.19275 1.2904-0.28926 1.9616-0.28926 1.0558 0 1.8738 0.29352 2.4541 0.88016 0.58732 0.57825 0.88056 1.3996 0.88056 2.4639v0.22608h-2.7058c-1.755 0-3.0761 0.40205-3.9641 1.2066-0.88099 0.80452-1.3219 1.9986-1.3219 3.5826 0 1.3576 0.35318 2.4432 1.0594 3.2561 0.71318 0.80453 1.6711 1.2066 2.8737 1.2066 0.9509 0 1.755-0.20103 2.4123-0.60329 0.65724-0.41065 1.2059-1.0436 1.6464-1.8984v2.1375h1.9301v-8.0329c0-2.1454-0.41981-3.7462-1.2588-4.8021s-2.108-1.5838-3.807-1.5838zm14.117 0c-1.8319 0-3.2757 0.65764-4.3315 1.9734-1.0488 1.3157-1.5736 3.1222-1.5736 5.4184 0 2.2627 0.5209 4.0599 1.5627 5.3924s2.4473 1.9988 4.2163 1.9988c0.65025 0 1.2622-0.07523 1.8355-0.22608 0.58034-0.15085 1.1396-0.37716 1.6779-0.67885v-2.1369c-0.54537 0.36037-1.094 0.63261-1.6464 0.81698-0.54538 0.17599-1.0979 0.26386-1.6573 0.26386-1.2516 0-2.2234-0.47326-2.9156-1.4203-0.6922-0.95538-1.0382-2.2919-1.0382-4.0099 0-1.718 0.34598-3.0506 1.0382-3.9976 0.6922-0.95538 1.664-1.4333 2.9156-1.4333 0.55936 0 1.1119 0.09188 1.6573 0.27625 0.55236 0.17599 1.101 0.44423 1.6464 0.80459v-2.1617c-0.53139-0.29331-1.0801-0.51161-1.6464-0.65407-0.56635-0.15085-1.1467-0.22608-1.741-0.22608zm14.389 0.33943-4.8013 5.0629v3.2425l5.0111 5.774h2.5172l-6.4921-7.4922 6.2296-6.5872zm-93.804 1.5962c1.0208 0 1.8249 0.48652 2.4123 1.4587 0.58732 0.96376 0.88108 2.2963 0.88108 3.9976 0 1.7012-0.29376 3.0378-0.88108 4.0099-0.58732 0.96376-1.3914 1.4457-2.4123 1.4457-1.0208 0-1.8249-0.4819-2.4123-1.4457-0.58033-0.97214-0.87023-2.3087-0.87023-4.0099 0-1.7012 0.2899-3.0338 0.87023-3.9976 0.58732-0.97214 1.3914-1.4587 2.4123-1.4587zm14.138 0.02539c0.9509 0 1.7133 0.37738 2.2867 1.1316 0.58033 0.75424 0.87744 1.764 0.89142 3.0294l-6.8802 0.01239c0.097885-1.3241 0.4683-2.3505 1.1116-3.0796 0.65025-0.72911 1.5138-1.0938 2.5905-1.0938zm22.308 0c1.0278 0 1.842 0.49053 2.4433 1.471 0.6013 0.97214 0.90227 2.292 0.90227 3.9598 0 1.6761-0.30097 3-0.90227 3.9722-0.60131 0.97213-1.4154 1.458-2.4433 1.458-1.0418 0-1.8637-0.4819-2.465-1.4457-0.59432-0.97213-0.89142-2.3001-0.89142-3.9845s0.30096-3.009 0.90227-3.9728c0.60131-0.97214 1.4193-1.458 2.4541-1.458zm-48.716 5.38h1.9193v0.51596c0 1.5085-0.3254 2.7192-0.97565 3.6327-0.64326 0.9051-1.4996 1.3577-2.5694 1.3577-0.77611 0-1.3914-0.23895-1.8459-0.71664-0.44748-0.48607-0.67128-1.1397-0.67128-1.961 0-1.0308 0.30045-1.7603 0.90176-2.1877 0.6013-0.4274 1.6819-0.64107 3.2411-0.64107zm78.785 0h1.9193v0.51596c0 1.5085-0.32488 2.7192-0.97513 3.6327-0.64326 0.9051-1.4996 1.3577-2.5694 1.3577-0.77611 0-1.3914-0.23895-1.8459-0.71664-0.44749-0.48607-0.67128-1.1397-0.67128-1.961 0-1.0308 0.30045-1.7603 0.90175-2.1877 0.60131-0.4274 1.6814-0.64107 3.2406-0.64107z" fill="url(#b)" style="font-feature-settings:normal;font-variant-caps:normal;font-variant-ligatures:normal;font-variant-numeric:normal"/>
</g>
</svg>
