<?xml version="1.0" encoding="UTF-8" standalone="no"?>
<svg
   xmlns:dc="http://purl.org/dc/elements/1.1/"
   xmlns:cc="http://creativecommons.org/ns#"
   xmlns:rdf="http://www.w3.org/1999/02/22-rdf-syntax-ns#"
   xmlns:svg="http://www.w3.org/2000/svg"
   xmlns="http://www.w3.org/2000/svg"
   xmlns:sodipodi="http://sodipodi.sourceforge.net/DTD/sodipodi-0.dtd"
   xmlns:inkscape="http://www.inkscape.org/namespaces/inkscape"
   id="svg3777"
   version="1.1"
   viewBox="0 0 24 24"
   height="24"
   width="24"
   sodipodi:docname="clubhouse-prev-symbolic.svg"
   inkscape:version="0.92.4 (5da689c313, 2019-01-14)">
  <sodipodi:namedview
     pagecolor="#ffffff"
     bordercolor="#666666"
     borderopacity="1"
     objecttolerance="10"
     gridtolerance="10"
     guidetolerance="10"
     inkscape:pageopacity="0"
     inkscape:pageshadow="2"
     inkscape:window-width="774"
     inkscape:window-height="480"
     id="namedview11"
     showgrid="false"
     inkscape:zoom="9.8333333"
     inkscape:cx="12"
     inkscape:cy="12"
     inkscape:window-x="0"
     inkscape:window-y="27"
     inkscape:window-maximized="0"
     inkscape:current-layer="svg3777" />
  <metadata
     id="metadata3783">
    <rdf:RDF>
      <cc:Work
         rdf:about="">
        <dc:format>image/svg+xml</dc:format>
        <dc:type
           rdf:resource="http://purl.org/dc/dcmitype/StillImage" />
        <dc:title>Path</dc:title>
      </cc:Work>
    </rdf:RDF>
  </metadata>
  <defs
     id="defs3781" />
  <!-- Generator: Sketch 52.2 (67145) - http://www.bohemiancoding.com/sketch -->
  <title
     id="title3768">Path</title>
  <desc
     id="desc3770">Created with Sketch.</desc>
  <g
     transform="matrix(-1,0,0,1,18.892121,0)"
     style="fill:#000000;fill-rule:evenodd;stroke:none;stroke-width:1"
     id="Symbols">
    <g
       style="fill:#000000"
       transform="translate(-6)"
       id="icon_next_v02">
      <g
         id="Path"
         style="fill:#000000">
        <path
           id="path3772"
           d="M 8.754,23.778 6.1095,21.1215 C 6.038969,21.05115 5.9993297,20.95562 5.9993297,20.856 5.9993297,20.75638 6.0389687,20.660853 6.1095,20.5905 L 14.5005,12.2415 C 14.57112,12.17089 14.610799,12.075116 14.610799,11.97525 14.610799,11.87538 14.571119,11.779609 14.5005,11.709 L 6.1125,3.3585 C 6.0420594,3.2884033 6.0024572,3.1931252 6.0024572,3.09375 6.0024572,2.994375 6.0420592,2.8990967 6.1125,2.829 L 8.7555,0.171 C 8.9023648,0 9.1396352,0 9.2865,0.171 L 19.0095,9.8505 C 19.575131,10.413505 19.893121,11.178682 19.893121,11.97675 19.893121,12.774818 19.575131,13.539995 19.0095,14.103 L 9.285,23.7795 C 9.1377229,23.925153 8.9004519,23.924483 8.754,23.778 Z"
           style="fill:#000000" />
      </g>
    </g>
  </g>
</svg>
