<?xml version="1.0" encoding="UTF-8"?>
<svg width="32px" height="32px" viewBox="0 0 32 32" version="1.1" xmlns="http://www.w3.org/2000/svg" xmlns:xlink="http://www.w3.org/1999/xlink">
    <!-- Generator: Sketch 55.2 (78181) - https://sketchapp.com -->
    <title>icon/pathway/OS_temp-wire</title>
    <desc>Created with Sketch.</desc>
    <g id="icon/pathway/OS_temp-wire" stroke="none" stroke-width="1" fill="none" fill-rule="evenodd">
        <g id="fa-solid:tools" transform="translate(1.000000, 1.000000)" fill="#4387C5" fill-rule="nonzero">
            <g id="Icon">
                <path d="M28.5284091,22.4829545 L21.875,15.8295455 C20.5625,14.5170455 18.6022727,14.2613636 17.0227273,15.0397727 L10.9659091,8.98295455 L10.9659091,5.45454545 L3.69318182,0 L0.0568181818,3.63636364 L5.51136364,10.9090909 L9.03977273,10.9090909 L15.0965909,16.9659091 C14.3238636,18.5454545 14.5738636,20.5056818 15.8863636,21.8181818 L22.5397727,28.4715909 C23.3693182,29.3011364 24.7102273,29.3011364 25.5340909,28.4715909 L28.5284091,25.4772727 C29.3522727,24.6477273 29.3522727,23.3068182 28.5284091,22.4829545 L28.5284091,22.4829545 Z M18.9034091,12.7840909 C20.5113636,12.7840909 22.0227273,13.4090909 23.1590909,14.5454545 L24.2613636,15.6477273 C25.1590909,15.2556818 26.0113636,14.7102273 26.75,13.9715909 C28.8579545,11.8636364 29.5738636,8.89772727 28.9034091,6.20454545 C28.7784091,5.69318182 28.1363636,5.51704545 27.7613636,5.89204545 L23.5340909,10.1193182 L19.6761364,9.47727273 L19.0340909,5.61931818 L23.2613636,1.39204545 C23.6363636,1.01704545 23.4545455,0.375 22.9375,0.244318182 C20.2443182,-0.420454545 17.2784091,0.295454545 15.1761364,2.39772727 C13.5568182,4.01704545 12.7954545,6.15340909 12.8352273,8.28409091 L17.5,12.9488636 C17.9602273,12.8409091 18.4375,12.7840909 18.9034091,12.7840909 Z M13,17.4431818 L9.77840909,14.2215909 L1.11931818,22.8863636 C-0.301136364,24.3068182 -0.301136364,26.6079545 1.11931818,28.0284091 C2.53977273,29.4488636 4.84090909,29.4488636 6.26136364,28.0284091 L13.2840909,21.0056818 C12.8522727,19.875 12.7215909,18.6420455 13,17.4431818 L13,17.4431818 Z M3.69318182,26.8181818 C2.94318182,26.8181818 2.32954545,26.2045455 2.32954545,25.4545455 C2.32954545,24.6988636 2.9375,24.0909091 3.69318182,24.0909091 C4.44886364,24.0909091 5.05681818,24.6988636 5.05681818,25.4545455 C5.05681818,26.2045455 4.44886364,26.8181818 3.69318182,26.8181818 Z" id="Icon-Shape"></path>
            </g>
        </g>
    </g>
</svg>