<?xml version="1.0" encoding="UTF-8"?>
<svg width="32px" height="32px" viewBox="0 0 32 32" version="1.1" xmlns="http://www.w3.org/2000/svg" xmlns:xlink="http://www.w3.org/1999/xlink">
    <!-- Generator: Sketch 55.2 (78181) - https://sketchapp.com -->
    <title>icon/pathway/maker_temp-wire</title>
    <desc>Created with Sketch.</desc>
    <defs>
        <polygon id="path-1" points="0 0 32 0 32 27.5555556 0 27.5555556"></polygon>
    </defs>
    <g id="icon/pathway/maker_temp-wire" stroke="none" stroke-width="1" fill="none" fill-rule="evenodd">
        <g id="Group-3" transform="translate(0.000000, 2.000000)">
            <mask id="mask-2" fill="white">
                <use xlink:href="#path-1"></use>
            </mask>
            <g id="Clip-2"></g>
            <path d="M31.8236437,10.5896874 C31.5230625,10.2843627 31.2185221,9.97903794 30.9141094,9.67371323 C30.5749578,9.33267466 30.23587,8.98780276 29.9006137,8.64676419 C29.7850301,8.52786708 29.6684248,8.47931157 29.5043089,8.47701157 C29.4183556,8.47579768 28.6443925,8.48455045 28.4293815,8.4854449 L28.3629688,8.48448656 C27.5892612,8.47368935 27.2232252,8.0970647 27.2186913,7.303246 L27.2137104,7.10378508 C27.2083463,6.92777135 27.2068137,6.75565485 27.2170948,6.57983279 C27.2320377,6.34938578 27.1524702,6.16838873 26.9521466,5.95832226 C25.9274757,4.88824826 24.7180627,3.620055 23.5168235,2.32074789 C23.0086389,1.77009007 22.4129683,1.3238266 21.695009,0.961896381 C20.1078101,0.149805475 18.5681856,-0.141527586 16.9863507,0.0631083334 C16.2049162,0.162966573 15.4633932,0.3835747 14.7451147,0.731066042 C14.3530883,0.920751975 14.4498337,1.5131292 14.8829848,1.55823471 C15.7149312,1.64480408 16.457923,1.85889554 17.1518077,2.20427855 C18.7625703,3.00883058 19.6715938,4.51526528 19.5812342,6.23055256 C19.5388961,7.01983516 19.3054301,7.78688444 18.8888821,8.5083171 C19.3435535,8.97215 19.8058879,9.44786622 20.2605592,9.91559634 C20.6497758,10.3120265 21.0273063,10.7044317 21.3778885,11.0652119 C21.8568899,10.6300651 21.9674926,10.5456041 22.0581075,10.4921291 C22.6253611,10.1715989 23.2667543,10.1415072 23.7827935,10.4107348 C23.9496553,10.499093 24.1120471,10.6225901 24.2623057,10.7772011 C24.9445682,11.4592782 25.057342,12.3406246 24.5731043,13.1511183 C24.7311537,13.3058571 24.8892669,13.4605319 25.0473163,13.6152068 C25.67945,14.2418923 26.3387873,14.8884472 26.9986355,15.4959022 C27.0951254,15.5833021 27.1765448,15.6352438 27.2311437,15.6360177 C27.2585389,15.6363938 27.3446838,15.6219549 27.5184423,15.49143 L30.9379286,12.1609053 L31.8421626,11.2195034 C32.0246697,11.0264953 32.0857183,10.8553371 31.8236437,10.5896874 L31.8236437,10.5896874 Z M8.20570169,25.325518 C10.6067113,22.6651872 15.6625674,17.3944866 18.0714316,14.7379252 L20.5306161,12.0226499 L19.3054301,10.8026927 L18.1003594,9.56286611 L15.358027,11.9915999 C12.675019,14.3705644 7.34853124,19.3674375 4.66181943,21.7385436 C3.98536807,22.3347542 3.60279278,23.1385395 3.58280512,23.9980998 C3.54927949,25.443329 4.50038556,26.3955281 5.93400522,26.3787254 C6.79366615,26.3690143 7.60172954,25.9955202 8.20570169,25.325518 L8.20570169,25.325518 Z M14,11.18939 C13.4487413,10.6423881 12.0113419,9.07802878 11.4725203,8.54370937 C11.3781117,8.45010698 11.6626095,7.45990668 11.6626095,7.45990668 C11.6627509,7.44681062 11.6628922,7.43268066 11.6635282,7.41717216 C11.6657895,7.33783758 11.6690401,7.258503 11.6727146,7.17875487 C11.6921476,6.6962683 11.7122165,6.19827323 11.6214824,5.70854937 C11.3916088,4.47696794 10.8115894,3.39695621 9.94431626,2.58500025 C9.07986974,1.77587027 7.94731972,1.24920172 6.66919953,1.06144552 C6.42554617,1.02574151 6.17970218,1.00595956 5.93951141,1.00402961 C5.17314809,0.996516608 4.62563467,0.967636341 3.86690318,1.29875998 L3.47661967,1.46914667 L3.7341234,1.80226918 C3.80634317,1.89497553 3.8919893,1.94701515 3.95466927,1.98471803 C3.97042759,1.99471239 3.99198046,2.0076706 3.99579638,2.0104966 C5.14573002,3.14261687 6.07829772,4.06699221 6.93023652,4.91871885 C7.3400236,5.32841888 7.33288642,5.83454729 6.91221691,6.24031849 L6.71817047,6.42766113 C6.35106512,6.78139271 5.58279384,7.51945931 5.20417008,7.87126095 C5.01895678,8.0436465 4.79947089,8.13352686 4.56938523,8.13125228 C4.34120753,8.12904663 4.12264028,8.03668491 3.93763898,7.86395472 C3.83036931,7.7638043 3.72790487,7.66000076 3.61879791,7.55047631 C3.57116962,7.50208979 3.52304666,7.45328972 3.47492371,7.4053857 L0.488686031,4.43519838 L0.278739933,4.86185436 C-0.0993891718,5.62962835 -0.0427157385,6.75802658 0.15373332,7.73340764 C0.698208138,10.4400884 3.03920253,12.3498391 5.84743475,12.3774787 C5.9966795,12.3789262 6.14832687,12.3752731 6.29912625,12.365968 C6.31502591,12.3647273 6.3304309,12.3648651 6.34541191,12.3645205 C6.40314532,12.3650719 6.44307112,12.372516 6.48985143,12.4049115 C6.48985143,12.4049115 7.43704682,12.2467938 7.59300476,12.4022923 C8.12970641,12.9374388 9.54633025,14.4836704 10.064235,15 L14,11.18939 Z M21.3490246,26.3484421 C21.0280087,26.3451837 20.7251925,26.2146589 20.4978568,25.9808257 C20.2700741,25.747376 20.1474661,25.4410929 20.1528302,25.1194766 C20.1629198,24.4658299 20.7196368,23.9182388 21.3681821,23.9252027 L21.3881697,23.9253943 C22.0505723,23.9429638 22.5818098,24.4940688 22.5721671,25.1534015 C22.5625884,25.8048759 22.0045942,26.3529143 21.3490246,26.3484421 L21.3490246,26.3484421 Z M25.1883297,23.2196993 C24.4871152,22.4595044 19.6828055,17.0680824 19.619905,17 L16,21.014605 C17.2818807,22.4116704 20.6566997,26.2331753 21.5131042,27.1585318 C22.0292076,27.7163138 22.6090759,27.9916772 23.2848243,27.9998612 L23.2884813,27.9998612 C23.4723291,28.0018366 23.6645546,27.9827171 23.8597723,27.9434198 C24.8863274,27.7362799 25.5614109,27.100891 25.8662723,26.0539739 C26.1757216,24.9956274 25.9474579,24.0414859 25.1883297,23.2196993 L25.1883297,23.2196993 Z" id="Fill-1" fill="#4387C5" mask="url(#mask-2)"></path>
        </g>
    </g>
</svg>