<?xml version="1.0" encoding="UTF-8"?>
<svg width="48px" height="48px" viewBox="0 0 48 48" version="1.1" xmlns="http://www.w3.org/2000/svg" xmlns:xlink="http://www.w3.org/1999/xlink">
    <!-- Generator: Sketch 55.2 (78181) - https://sketchapp.com -->
    <title>icon/difficulty/high_temp-wire@3x</title>
    <desc>Created with Sketch.</desc>
    <defs>
        <polygon id="path-1" points="0.305907692 0.196544294 22.4612405 0.196544294 22.4612405 19.6923077 0.305907692 19.6923077"></polygon>
        <polygon id="path-3" points="0.242184615 0.302769231 8.61538462 0.302769231 8.61538462 11.0784615 0.242184615 11.0784615"></polygon>
    </defs>
    <g id="icon/difficulty/high_temp-wire" stroke="none" stroke-width="1" fill="none" fill-rule="evenodd">
        <g id="Group-9" transform="translate(4.000000, 13.000000)">
            <g id="Group-3" transform="translate(17.230769, 2.767477)">
                <mask id="mask-2" fill="white">
                    <use xlink:href="#path-1"></use>
                </mask>
                <g id="Clip-2"></g>
                <path d="M2.76744615,14.7692615 C3.05452308,14.7692615 3.32867692,14.8209538 3.58467692,14.9111077 L20.4299077,0.492338462 C20.9471385,0.0501846154 21.7237538,0.1108 22.1656,0.6268 C22.6074462,1.14341538 22.5471385,1.92033846 22.0308308,2.36249231 L5.18590769,16.7809538 C5.21298462,16.9271077 5.22898462,17.0769538 5.22898462,17.2308 C5.22898462,18.5901846 4.12713846,19.6923385 2.76744615,19.6923385 C1.40806154,19.6923385 0.305907692,18.5901846 0.305907692,17.2308 C0.305907692,15.8714154 1.40806154,14.7692615 2.76744615,14.7692615" id="Fill-1" fill="#5C5C5C" mask="url(#mask-2)"></path>
            </g>
            <g id="Group-6" transform="translate(31.384615, 8.921323)">
                <mask id="mask-4" fill="white">
                    <use xlink:href="#path-3"></use>
                </mask>
                <g id="Clip-5"></g>
                <path d="M8.61541538,11.0784615 L1.84618462,11.0784615 C1.84618462,8.79507692 1.26433846,6.64553846 0.242184615,4.76892308 L5.46003077,0.302769231 C7.45449231,3.41323077 8.61541538,7.10923077 8.61541538,11.0784615" id="Fill-4" fill="#FF3A3C" mask="url(#mask-4)"></path>
            </g>
            <path d="M20.0000308,9.23076923e-05 C25.0797231,9.23076923e-05 29.7138769,1.89732308 33.2415692,5.01732308 L28.0200308,9.48686154 C25.7932615,7.78378462 23.0135692,6.76932308 20.0000308,6.76932308 C12.7046462,6.76932308 6.76926154,12.7044 6.76926154,19.9997846 L3.07692308e-05,19.9997846 C3.07692308e-05,8.95424615 8.95449231,9.23076923e-05 20.0000308,9.23076923e-05" id="Fill-7" fill="#FF3A3C"></path>
        </g>
    </g>
</svg>