<?xml version="1.0" encoding="UTF-8"?>
<svg width="32px" height="32px" viewBox="0 0 32 32" version="1.1" xmlns="http://www.w3.org/2000/svg" xmlns:xlink="http://www.w3.org/1999/xlink">
    <!-- Generator: Sketch 55.2 (78181) - https://sketchapp.com -->
    <title>icon/pathway/art_temp-wire</title>
    <desc>Created with Sketch.</desc>
    <defs>
        <polygon id="path-1" points="0 0 30 0 30 30 0 30"></polygon>
    </defs>
    <g id="icon/pathway/art_temp-wire" stroke="none" stroke-width="1" fill="none" fill-rule="evenodd">
        <g id="Group-3" transform="translate(1.000000, 1.000000)">
            <mask id="mask-2" fill="white">
                <use xlink:href="#path-1"></use>
            </mask>
            <g id="Clip-2"></g>
            <path d="M23.9859121,1.52171016 L23.9871121,1.52171016 L28.2231036,5.75769378 L25.04611,8.93498149 L20.8089185,4.69869787 L23.9859121,1.52171016 Z M29.2821014,6.81668968 C29.8668003,6.23169194 29.8668003,5.28339561 29.2821014,4.69899787 L25.04611,0.462714259 C24.4494112,-0.133983432 23.5014131,-0.110283524 22.9281143,0.462714259 L14.5515312,9.03668109 L20.6490189,15.6525555 L29.2821014,6.81668968 Z M4.12865221,27.4701098 L2.78495492,26.126115 L3.20735407,24.4380215 L5.82244879,27.0465114 L4.12865221,27.4701098 Z M2.41025567,21.464133 L0.279359974,29.9760001 L8.73784291,27.8430083 L14.4816313,21.9645311 L8.38474362,15.3489567 L2.41025567,21.464133 Z M0.776158972,5.01519665 C-0.313438829,3.92590086 -0.247738962,2.09470795 0.922258677,0.92531247 C1.90505669,-0.0574837283 3.76055295,-0.475682111 5.01185042,0.778913036 L18.2679237,15.1674574 L14.0703321,19.4454408 L0.776158972,5.01519665 Z M23.1534138,28.5024058 C22.2171187,28.5024058 21.3627174,28.1466072 20.7171187,27.5634094 C21.9036163,27.1968108 23.1942137,26.2383146 23.2572136,24.1698226 C23.7282127,23.9991232 25.1499098,24.1008228 26.7600065,24.3975217 C26.7798065,24.5508211 26.7678065,27.0138116 27.1890057,28.5024058 L23.1534138,28.5024058 Z M28.2885035,24.8652199 C28.2885035,22.0302308 25.9434082,19.4208409 22.5108151,19.7724396 L19.2978216,16.2849531 L15.0726301,20.5332366 L18.120624,23.8410238 C17.5752251,26.5326134 19.4391213,30 23.1534138,30 L30,30 C28.2885035,30 28.2885035,24.8652199 28.2885035,24.8652199 L28.2885035,24.8652199 Z" id="Fill-1" fill="#4387C5" mask="url(#mask-2)"></path>
        </g>
    </g>
</svg>