<svg version="1.1" viewBox="0 0 16 16" xmlns="http://www.w3.org/2000/svg">
<g>
<path d="M9,12.11l-.17-.17a4,4,0,1,1,3.11-5A4.07,4.07,0,0,1,12,8.74L14.2,11c.16.17.34.12.4-.11l.65-2.44a.1.1,0,0,0-.06-.12l-1.86-.84a4.43,4.43,0,0,0-.16-.87,3.82,3.82,0,0,0-.31-.84L14.05,4.1A.1.1,0,0,0,14,4l-2-2s-.08-.05-.2,0L10.43,3A.51.51,0,0,1,10,3,5.12,5.12,0,0,0,8.77,2.7a.48.48,0,0,1-.39-.28L7.64.81A.1.1,0,0,0,7.52.75l-2.78.76a.1.1,0,0,0-.07.1c0,.28.13,1.28.18,1.77a.5.5,0,0,1-.19.44,4.72,4.72,0,0,0-.87.86.49.49,0,0,1-.44.19L1.6,4.71a.11.11,0,0,0-.11.08L.75,7.57a.11.11,0,0,0,.06.12l1.87.84a4,4,0,0,0,.15.88,4.57,4.57,0,0,0,.31.83L2,11.9A.12.12,0,0,0,2,12l2,2s.08,0,.21-.05l1.36-1A.46.46,0,0,1,6.05,13a5.24,5.24,0,0,0,1.18.3.53.53,0,0,1,.4.28l.73,1.61a.1.1,0,0,0,.12.06l2.44-.67c.22-.06.27-.24.11-.4l-.56-.56Z"/>
<path d="M11,9A3.16,3.16,0,0,0,9,5a3.37,3.37,0,0,0-2.37.14A3.13,3.13,0,0,0,5.07,6.74a.22.22,0,0,0,.21.31H7.59a.23.23,0,0,1,.22.23V8.65a.23.23,0,0,1-.23.23H5.28a.23.23,0,0,0-.22.3,3.09,3.09,0,0,0,2.42,1.95A3,3,0,0,0,9.07,11l.65.65h0L11.3,13.2h0l1.85,1.85a1.37,1.37,0,0,0,1.93,0,1.35,1.35,0,0,0,0-1.93Zm3.08,5.64a.62.62,0,0,1-.62-.62.61.61,0,0,1,.62-.61.61.61,0,0,1,.61.61A.61.61,0,0,1,14.08,14.67Z"/>
</g>
</svg>
