<?xml version="1.0" encoding="UTF-8"?>
<svg width="48px" height="48px" viewBox="0 0 48 48" version="1.1" xmlns="http://www.w3.org/2000/svg" xmlns:xlink="http://www.w3.org/1999/xlink">
    <!-- Generator: Sketch 55.2 (78181) - https://sketchapp.com -->
    <title>icon/difficulty/med_temp-wire</title>
    <desc>Created with Sketch.</desc>
    <defs>
        <polygon id="path-1" points="0 0.229876923 16.9533846 0.229876923 16.9533846 19.6923385 0 19.6923385"></polygon>
    </defs>
    <g id="icon/difficulty/med_temp-wire" stroke="none" stroke-width="1" fill="none" fill-rule="evenodd">
        <g id="Group-8" transform="translate(4.000000, 10.000000)">
            <path d="M21.2298154,22.4852923 L21.2682769,1.23298462 C21.2695077,0.553292308 20.7196615,0.00129230769 20.0396615,6.15384615e-05 L20.0375077,6.15384615e-05 C19.3587385,6.15384615e-05 18.8079692,0.5496 18.8067385,1.22867692 L18.7682769,22.4797538 C18.0310462,22.9049846 17.5328923,23.6997538 17.5328923,24.6120615 C17.5328923,25.9714462 18.6350462,27.0736 19.9944308,27.0736 C21.3541231,27.0736 22.4559692,25.9714462 22.4559692,24.6120615 C22.4559692,23.7034462 21.9624308,22.9117538 21.2298154,22.4852923" id="Fill-1" fill="#5C5C5C"></path>
            <g id="Group-5" transform="translate(0.000000, 4.919754)">
                <mask id="mask-2" fill="white">
                    <use xlink:href="#path-1"></use>
                </mask>
                <g id="Clip-4"></g>
                <path d="M16.9410769,7.12864615 L16.9533846,0.229876923 C7.44907692,1.6788 0.149692308,9.8188 -0.000153846154,19.6923385 L6.76876923,19.6923385 C6.90938462,13.5837231 11.2087692,8.48803077 16.9410769,7.12864615" id="Fill-3" fill="#FFFF3C" mask="url(#mask-2)"></path>
            </g>
            <path d="M23.1072308,5.16258462 L23.0949231,12.0601231 C28.802,13.4370462 33.0767692,18.5213538 33.2170769,24.6121231 L39.9856923,24.6121231 C39.8367692,14.7647385 32.5749231,6.6432 23.1072308,5.16258462" id="Fill-6" fill="#FFFF3C"></path>
        </g>
    </g>
</svg>