<svg version="1.1" viewBox="0 0 16 16" xmlns="http://www.w3.org/2000/svg">
<path d="M4.82,8.35l-2.7,2.71-1.19,4,4-1.17,2.71-2.71ZM4.41,13l-1.27.37-.51-.51L3,11.58l0,0L4.45,13Zm6.77-5.35,4.06-4.06a.75.75,0,0,0,0-1.06L13.47.76a.75.75,0,0,0-1.06,0L8.35,4.82Zm1.76-6,1.41,1.41L12.94,4.47,11.53,3.06ZM7.65,9.77,5.53,7.65l-4.1-4.1A1.5,1.5,0,0,1,3.55,1.43l4.1,4.1L9.77,7.65Zm6.29,1.17c-1-1-2.4-.4-3-1s-.15-1-.5-1.56L8.38,10.44c.59.36,1-.06,1.56.5s0,2,1,3,3.58.05,4,1c0,.1.08.15.1.15A7.87,7.87,0,0,0,13.94,10.94Zm-.72,2.53a5,5,0,0,1-1.32-.11l1.48-1.47a7.89,7.89,0,0,1,.5,1.59Z"/>
</svg>
