<?xml version="1.0" encoding="UTF-8"?>
<svg width="48px" height="48px" viewBox="0 0 48 48" version="1.1" xmlns="http://www.w3.org/2000/svg" xmlns:xlink="http://www.w3.org/1999/xlink">
    <!-- Generator: Sketch 55.2 (78181) - https://sketchapp.com -->
    <title>icon/difficulty/low_temp-wire</title>
    <desc>Created with Sketch.</desc>
    <defs>
        <polygon id="path-1" points="0.000113363378 0.196544294 22.1554462 0.196544294 22.1554462 19.6923077 0.000113363378 19.6923077"></polygon>
        <polygon id="path-3" points="0.296707692 0.00184615385 33.5384615 0.00184615385 33.5384615 20.0015385 0.296707692 20.0015385"></polygon>
    </defs>
    <g id="icon/difficulty/low_temp-wire" stroke="none" stroke-width="1" fill="none" fill-rule="evenodd">
        <g id="Group-9-Copy-2" transform="translate(4.000000, 11.000000)">
            <g id="Group-3" transform="translate(0.307692, 3.075169)">
                <mask id="mask-2" fill="white">
                    <use xlink:href="#path-1"></use>
                </mask>
                <g id="Clip-2"></g>
                <path d="M19.6939077,14.7692615 C19.4068308,14.7692615 19.1329846,14.8209538 18.8769846,14.9111077 L2.03144615,0.492338462 C1.51421538,0.0501846154 0.7376,0.1108 0.295753846,0.6268 C-0.146092308,1.14341538 -0.0857846154,1.92033846 0.430523077,2.36249231 L17.2754462,16.7809538 C17.2483692,16.9271077 17.2323692,17.0769538 17.2323692,17.2308 C17.2323692,18.5901846 18.3345231,19.6923385 19.6939077,19.6923385 C21.0536,19.6923385 22.1554462,18.5901846 22.1554462,17.2308 C22.1554462,15.8714154 21.0536,14.7692615 19.6939077,14.7692615" id="Fill-1" fill="#5C5C5C" mask="url(#mask-2)"></path>
            </g>
            <path d="M9.23076923e-05,20.3074769 L6.76932308,20.3074769 C6.76932308,18.0240923 7.35086154,15.8745538 8.37332308,13.9979385 L3.15516923,9.53178462 C1.16101538,12.6422462 9.23076923e-05,16.3382462 9.23076923e-05,20.3074769" id="Fill-4" fill="#00FF78"></path>
            <g id="Group-8" transform="translate(6.461538, 0.305938)">
                <mask id="mask-4" fill="white">
                    <use xlink:href="#path-3"></use>
                </mask>
                <g id="Clip-7"></g>
                <path d="M13.5385538,0.00184615385 C8.45855385,0.00184615385 3.8244,1.89907692 0.296707692,5.01907692 L5.51855385,9.48861538 C7.74532308,7.78553846 10.5250154,6.77107692 13.5385538,6.77107692 C20.8339385,6.77107692 26.7690154,12.7061538 26.7693231,20.0015385 L33.5385538,20.0015385 C33.5385538,8.956 24.5837846,0.00184615385 13.5385538,0.00184615385" id="Fill-6" fill="#00FF78" mask="url(#mask-4)"></path>
            </g>
        </g>
    </g>
</svg>