<svg data-name="Layer 1" version="1.1" viewBox="0 0 16 16" xmlns="http://www.w3.org/2000/svg">
<path d="M12.5,5.82V5.16a1.5,1.5,0,1,0-1,0v.59h-7V5.16a1.5,1.5,0,1,0-1,0v.66a3.49,3.49,0,1,0,3.64,4.93H8.86A3.49,3.49,0,1,0,12.5,5.82ZM6,9.5a.25.25,0,0,1-.25.25H4.5V11a.25.25,0,0,1-.25.25h-.5A.25.25,0,0,1,3.5,11V9.75H2.25A.25.25,0,0,1,2,9.5V9a.25.25,0,0,1,.25-.25H3.5V7.5a.25.25,0,0,1,.25-.25h.5a.25.25,0,0,1,.25.25V8.75H5.75A.25.25,0,0,1,6,9Zm6-2.24a.67.67,0,1,1-.67.67A.67.67,0,0,1,12,7.26ZM10.67,9.93a.68.68,0,0,1,0-1.35.68.68,0,1,1,0,1.35ZM12,11.26a.68.68,0,0,1-.67-.68.67.67,0,0,1,1.34,0A.68.68,0,0,1,12,11.26Zm1.33-1.33A.68.68,0,1,1,14,9.26.67.67,0,0,1,13.33,9.93Z"/>
</svg>
