<svg version="1.1" viewBox="0 0 16 16" xmlns="http://www.w3.org/2000/svg">
<g>
<path d="m12.67 14.73-3.81-4.07 1.79-1.79 4.07 3.8a1.45 1.45 0 1 1-2.05 2.06z"/>
<path d="M6,3.06a2.61,2.61,0,0,1,.57-1.21,2.55,2.55,0,0,1,1.1-.75L8,1l.33,0c.12,0,.23,0,.25-.11s0-.14-.26-.23A4.48,4.48,0,0,0,6.46.34a3.35,3.35,0,0,0-2.18,1l-1,1-1,1a.34.34,0,0,0-.09.19.55.55,0,0,0,0,.22.24.24,0,0,1,0,.15A.25.25,0,0,1,2.17,4a.28.28,0,0,1-.35.06A.71.71,0,0,1,1.64,4l0,0h0A.24.24,0,0,0,1.5,4,.23.23,0,0,0,1.33,4L.8,4.55l-.52.52a.27.27,0,0,0,0,.36l.9.91.9.91a.24.24,0,0,0,.18.07.23.23,0,0,0,.17-.07L3,6.72l.52-.53A.23.23,0,0,0,3.55,6a.24.24,0,0,0-.07-.18h0a.39.39,0,0,1-.07-.15.32.32,0,0,1,.08-.31.32.32,0,0,1,.26-.09.46.46,0,0,1,.17.07l.76.82L5.45,7l.77-.77L7,5.46H7a3.84,3.84,0,0,1-.82-1A2.61,2.61,0,0,1,6,3.06Z"/>
<path d="M14.8,5.18H12.27A.25.25,0,0,1,12,4.94V3.44a.25.25,0,0,1,.25-.25H14.8A.25.25,0,0,0,15,2.84,3.48,3.48,0,0,0,13.3,1,3.71,3.71,0,0,0,10.69.88,3.48,3.48,0,0,0,8.52,5.36L1.23,12.64a1.51,1.51,0,0,0,2.13,2.13L8.19,9.93h0L9.93,8.19h0l.71-.71a3.28,3.28,0,0,0,1.74.16A3.37,3.37,0,0,0,15,5.51.25.25,0,0,0,14.8,5.18ZM2.34,14.35a.69.69,0,0,1-.68-.68A.68.68,0,0,1,2.34,13a.67.67,0,0,1,.67.67A.68.68,0,0,1,2.34,14.35Z"/>
</g>
</svg>
