<?xml version="1.0" encoding="UTF-8" standalone="no"?>
<svg
   xmlns:dc="http://purl.org/dc/elements/1.1/"
   xmlns:cc="http://creativecommons.org/ns#"
   xmlns:rdf="http://www.w3.org/1999/02/22-rdf-syntax-ns#"
   xmlns:svg="http://www.w3.org/2000/svg"
   xmlns="http://www.w3.org/2000/svg"
   id="svg8"
   version="1.1"
   viewBox="0 0 32 32"
   height="32px"
   width="32px">
  <metadata
     id="metadata14">
    <rdf:RDF>
      <cc:Work
         rdf:about="">
        <dc:format>image/svg+xml</dc:format>
        <dc:type
           rdf:resource="http://purl.org/dc/dcmitype/StillImage" />
        <dc:title>icon/pathway/narrative_temp-wire</dc:title>
      </cc:Work>
    </rdf:RDF>
  </metadata>
  <defs
     id="defs12" />
  <!-- Generator: Sketch 55.2 (78181) - https://sketchapp.com -->
  <title
     id="title2">icon/pathway/narrative_temp-wire</title>
  <desc
     id="desc4">Created with Sketch.</desc>
  <g
     style="fill:#000000"
     fill-rule="evenodd"
     fill="none"
     stroke-width="1"
     stroke="none"
     id="icon/pathway/narrative_temp-wire">
    <path
       style="fill:#000000"
       fill="#4387C5"
       id="Fill-1"
       d="M12.4444444,15.2222222 L26.6666667,15.2222222 L26.6666667,13.4444444 L12.4444444,13.4444444 L12.4444444,15.2222222 Z M12.4444444,11.6666667 L30.2222222,11.6666667 L30.2222222,9.88888889 L12.4444444,9.88888889 L12.4444444,11.6666667 Z M12.4444444,6.33333333 L26.6666667,6.33333333 L26.6666667,4.55555556 L12.4444444,4.55555556 L12.4444444,6.33333333 Z M32,2.81087475 L32,17.2980991 C32,18.298381 31.1721683,19.1089738 30.1511296,19.1089738 L30.1511296,25.8888889 L22.7676657,19.1089738 L10.7377593,19.1089738 C9.71672061,19.1089738 8.88888889,18.298381 8.88888889,17.2980991 L8.88888889,2.81087475 C8.88888889,1.81081917 9.71672061,1 10.7377593,1 L30.1511296,1 C31.1721683,1 32,1.81081917 32,2.81087475 L32,2.81087475 Z M11.3470148,21.2283644 L21.3333333,21.2283644 L21.3333333,24.536184 C21.3333333,25.5798882 20.4865624,26.4260965 19.4421642,26.4260965 L7.48335623,26.4260965 L2.36396141,31.2222222 L2.36396141,26.4260965 L1.89116913,26.4260965 C0.846770976,26.4260965 0,25.5798882 0,24.536184 L0,11.7788015 C0,10.734861 0.846770976,9.88888889 1.89116913,9.88888889 L7.56467651,9.88888889 L7.56467651,17.4485393 C7.56467651,19.5326404 9.26152801,21.2283644 11.3470148,21.2283644 L11.3470148,21.2283644 Z" />
  </g>
</svg>
