<?xml version="1.0" encoding="UTF-8" standalone="no"?>
<svg
   xmlns:osb="http://www.openswatchbook.org/uri/2009/osb"
   xmlns:dc="http://purl.org/dc/elements/1.1/"
   xmlns:cc="http://creativecommons.org/ns#"
   xmlns:rdf="http://www.w3.org/1999/02/22-rdf-syntax-ns#"
   xmlns:svg="http://www.w3.org/2000/svg"
   xmlns="http://www.w3.org/2000/svg"
   xmlns:xlink="http://www.w3.org/1999/xlink"
   id="svg16"
   version="1.1"
   viewBox="0 0 32 32"
   height="32px"
   width="32px">
  <metadata
     id="metadata20">
    <rdf:RDF>
      <cc:Work
         rdf:about="">
        <dc:format>image/svg+xml</dc:format>
        <dc:type
           rdf:resource="http://purl.org/dc/dcmitype/StillImage" />
        <dc:title>icon/pathway/art_temp-wire</dc:title>
      </cc:Work>
    </rdf:RDF>
  </metadata>
  <!-- Generator: Sketch 55.2 (78181) - https://sketchapp.com -->
  <title
     id="title2">icon/pathway/art_temp-wire</title>
  <desc
     id="desc4">Created with Sketch.</desc>
  <defs
     id="defs7">
    <linearGradient
       osb:paint="solid"
       id="linearGradient890">
      <stop
         id="stop888"
         offset="0"
         style="stop-color:#000000;stop-opacity:1;" />
    </linearGradient>
    <polygon
       points="0 0 30 0 30 30 0 30"
       id="path-1" />
    <mask
       fill="white"
       id="mask-2">
      <use
         height="100%"
         width="100%"
         y="0"
         x="0"
         id="use9"
         xlink:href="#path-1" />
    </mask>
  </defs>
  <path
     d="M 23.985912,1.5217102 H 23.987112 L 28.223104,5.7576938 25.04611,8.9349815 20.808918,4.6986979 Z M 29.282101,6.8166897 C 29.8668,6.2316919 29.8668,5.2833956 29.282101,4.6989979 L 25.04611,0.46271426 C 24.449411,-0.13398343 23.501413,-0.11028352 22.928114,0.46271426 L 14.551531,9.0366811 20.649019,15.652556 Z M 4.1286522,27.47011 2.7849549,26.126115 3.2073541,24.438022 5.8224488,27.046511 Z M 2.4102557,21.464133 0.27935997,29.976 8.7378429,27.843008 14.481631,21.964531 8.3847436,15.348957 Z M 0.77615897,5.0151966 C -0.31343883,3.9259009 -0.24773896,2.094708 0.92225868,0.92531247 1.9050567,0 3.760553,-0.47568211 5.0118504,0.77891304 L 18.267924,15.167457 14.070332,19.445441 Z M 23.153414,28.502406 C 22.217119,28.502406 21.362717,28.146607 20.717119,27.563409 21.903616,27.196811 23.194214,26.238315 23.257214,24.169823 23.728213,23.999123 25.14991,24.100823 26.760006,24.397522 26.779806,24.550821 26.767806,27.013812 27.189006,28.502406 Z M 28.288503,24.86522 C 28.288503,22.030231 25.943408,19.420841 22.510815,19.77244 L 19.297822,16.284953 15.07263,20.533237 18.120624,23.841024 C 17.575225,26.532613 19.439121,30 23.153414,30 H 30 C 28.288503,30 28.288503,24.86522 28.288503,24.86522 Z"
     style="fill-rule:evenodd;stroke:none;stroke-width:1;fill-opacity:1;stroke-opacity:0.25595242;fill:#000000"
     transform="translate(1,1)"
     id="Fill-1" />
</svg>
