<?xml version="1.0" encoding="UTF-8"?>
<svg width="32px" height="32px" viewBox="0 0 32 32" version="1.1" xmlns="http://www.w3.org/2000/svg" xmlns:xlink="http://www.w3.org/1999/xlink">
    <!-- Generator: Sketch 55.2 (78181) - https://sketchapp.com -->
    <title>icon/pathway/web_temp-wire</title>
    <desc>Created with Sketch.</desc>
    <defs>
        <polygon id="path-1" points="0.000126315789 0 29.7822814 0 29.7822814 31.5788842 0.000126315789 31.5788842"></polygon>
    </defs>
    <g id="icon/pathway/web_temp-wire" stroke="none" stroke-width="1" fill="none" fill-rule="evenodd">
        <g id="Group-3" transform="translate(1.000000, 0.000000)">
            <mask id="mask-2" fill="white">
                <use xlink:href="#path-1"></use>
            </mask>
            <g id="Clip-2"></g>
            <path d="M20.0685474,9.72625263 C19.8866526,7.89088421 19.5645474,6.07162105 19.1050737,4.2852 C22.0302316,5.45330526 24.3478105,7.77088421 25.5159158,10.6957263 C23.7276,10.2340421 21.9061263,9.91004211 20.0685474,9.72625263 L20.0685474,9.72625263 Z M14.8896,9.45783158 C13.8032842,9.45783158 12.7453895,9.49256842 11.7159158,9.55572632 C11.9252842,7.54983158 12.3336,5.56951579 12.9348632,3.64414737 C14.2258105,3.41709474 15.5467579,3.41709474 16.8380211,3.64414737 C17.4358105,5.56983158 17.8406526,7.55014737 18.0474947,9.55572632 C17.0306526,9.49256842 15.9724421,9.45783158 14.8896,9.45783158 L14.8896,9.45783158 Z M9.70717895,9.72625263 C7.87149474,9.90877895 6.05254737,10.2318316 4.26612632,10.6925684 C5.43423158,7.76930526 7.75054737,5.45330526 10.6738105,4.2852 C10.2130737,6.07162105 9.89002105,7.89056842 9.70717895,9.72625263 L9.70717895,9.72625263 Z M4.26328421,19.1241474 C6.04938947,19.5852 7.86833684,19.9082526 9.70433684,20.0904632 C9.88686316,21.9264632 10.2099158,23.7454105 10.6706526,25.5315158 C7.74738947,24.3637263 5.43107368,22.0477263 4.26328421,19.1241474 L4.26328421,19.1241474 Z M3.45486316,14.9115158 C3.45517895,14.2530947 3.51202105,13.5959368 3.62538947,12.9473053 C5.55044211,12.3447789 7.53075789,11.9355158 9.53665263,11.7252 C9.47381053,12.7546737 9.43591579,13.8157263 9.43591579,14.9020421 C9.43591579,15.9883579 9.47033684,17.0462526 9.53665263,18.0599368 C7.53138947,17.8578316 5.55138947,17.4570947 3.62538947,16.8630947 C3.51265263,16.2188842 3.45581053,15.5658316 3.45486316,14.9115158 L3.45486316,14.9115158 Z M29.7756,14.2104632 C29.7756,14.0620421 29.7569684,13.9167789 29.7443368,13.7715158 C29.7443368,13.6957263 29.7443368,13.6167789 29.7253895,13.5409895 C29.7092842,13.3546737 29.6840211,13.1652 29.6622316,12.9820421 L29.6622316,12.8936211 C29.6369684,12.6978316 29.6050737,12.5020421 29.5706526,12.3062526 L29.5706526,12.2683579 C28.3791789,5.66204211 22.9204421,0.665936842 16.2345474,0.0630947368 L16.2064421,0.0630947368 C16.0008632,0.0441473684 15.7959158,0.0283578947 15.5748632,0.0188842105 C15.3534947,0.00941052632 15.1232842,-6.31578947e-05 14.8896,-6.31578947e-05 C14.6556,-6.31578947e-05 14.4222316,-6.31578947e-05 14.1917053,0.0188842105 C13.9611789,0.0378315789 13.7780211,0.0441473684 13.5601263,0.0630947368 L13.5443368,0.0630947368 C6.86728421,0.671621053 1.41738947,5.66141053 0.224336842,12.2588842 L0.224336842,12.2967789 C0.190547368,12.4903579 0.159915789,12.6852 0.132757895,12.8809895 L0.132757895,12.9694105 C0.107494737,13.1557263 0.0853894737,13.3420421 0.0692842105,13.5283579 C0.0692842105,13.6041474 0.0692842105,13.6830947 0.0503368421,13.7588842 C0.0503368421,13.9041474 0.0285473684,14.0525684 0.0190736842,14.1978316 C0.0190736842,14.4315158 0.000126315789,14.6683579 0.000126315789,14.9052 C0.000126315789,15.1420421 0.000126315789,15.3757263 0.0190736842,15.6062526 C0.0190736842,15.7609895 0.0380210526,15.9220421 0.0503368421,16.0673053 C0.0503368421,16.1367789 0.0503368421,16.2062526 0.0664421053,16.2757263 C0.0853894737,16.4683579 0.107494737,16.6609895 0.132757895,16.8536211 L0.132757895,16.9199368 C0.160863158,17.1283579 0.192757895,17.3336211 0.230652632,17.5515158 C1.34254737,23.6595158 6.12233684,28.4399368 12.2306526,29.5515158 L12.3632842,29.5957263 L12.7798105,29.6620421 L13.0864421,29.6841474 L13.4777053,29.7283579 L13.8632842,29.7570947 L14.1790737,29.7788842 C14.4168632,29.7915158 14.6556,29.7981474 14.8959158,29.7981474 L14.9401263,29.7981474 L14.9401263,26.3244632 L14.8959158,26.3244632 C14.2403368,26.3235158 13.5866526,26.2663579 12.9411789,26.1539368 C12.3399158,24.2285684 11.9316,22.2479368 11.7222316,20.2420421 C12.7517053,20.3052 13.8096,20.3399368 14.8959158,20.3399368 L14.9401263,20.3399368 L14.9401263,18.3757263 L14.8896,18.3757263 C13.6990737,18.3757263 12.5811789,18.3346737 11.5327579,18.2652 C11.4632842,17.2167789 11.4159158,16.1052 11.4159158,14.9115158 C11.4159158,13.7178316 11.4566526,12.5999368 11.5264421,11.5515158 C12.5748632,11.4820421 13.6927579,11.4409895 14.8832842,11.4409895 C16.0738105,11.4409895 17.1885474,11.4820421 18.2334947,11.5515158 L18.2334947,11.7283579 C18.5432842,11.8382526 18.8278105,12.0090947 19.0706526,12.2304632 L20.2927579,13.3515158 C20.2766526,12.8020421 20.2482316,12.2652 20.2169684,11.7315158 C22.2304421,11.9383579 24.2180211,12.3457263 26.1506526,12.9473053 C26.2630737,13.5927789 26.3202316,14.2467789 26.3211789,14.9020421 C26.3196,15.5554105 26.2611789,16.2072 26.1474947,16.8504632 C25.6801263,17.0020421 25.1713895,17.1662526 24.6156,17.2894105 L25.7843368,18.3630947 L28.5377053,20.8897263 C29.0041263,19.8220421 29.3442316,18.7041474 29.5513895,17.5578316 L29.5513895,17.4694105 C29.5766526,17.3178316 29.6019158,17.1536211 29.6243368,17.0146737 C29.6243368,16.9325684 29.6464421,16.8504632 29.6556,16.7683579 C29.6748632,16.6230947 29.6906526,16.4778316 29.7064421,16.3294105 C29.7219158,16.1809895 29.7253895,16.1020421 29.7345474,15.9883579 C29.7443368,15.8746737 29.7538105,15.7515158 29.7598105,15.6346737 C29.7598105,15.3946737 29.7790737,15.1546737 29.7790737,14.9115158 C29.7790737,14.6683579 29.7882316,14.4378316 29.7756,14.2104632 L29.7756,14.2104632 Z M17.4127579,14.0588842 L17.4127579,29.9434105 L21.5022316,25.8599368 L24.4703368,31.5788842 L26.6274947,30.4641474 L23.7696,24.9536211 L29.2892842,24.9536211 L17.4127579,14.0588842 Z" id="Fill-1" fill="#4387C5" mask="url(#mask-2)"></path>
        </g>
    </g>
</svg>