<svg version="1.1" viewBox="0 0 16 16" xmlns="http://www.w3.org/2000/svg">
<path d="m15.39 7.35c-0.091685-3.6856-3.0263-6.6684-6.71-6.82l-0.68-0.03h-0.65c-3.6265 0.18441-6.5098 3.1112-6.64 6.74v0.94c-0.16407 3.8448 2.8063 7.1011 6.65 7.29h0.67-0.03 0.76c-0.14377-0.32322-0.26082-0.65767-0.35-1h-0.58c-1.1863-1.4373-1.9727-3.1619-2.28-5 0.79348 0.090652 1.5914 0.13739 2.39 0.14h0.45l-0.05-1h-0.4c-0.80866-0.0011402-1.6166-0.047881-2.42-0.14 0.065612-2.5143 0.88041-4.9517 2.34-7h0.31c1.0902 1.5447 1.8183 3.3152 2.13 5.18l1.16 1.11c-0.18215-2.1677-0.86692-4.2631-2-6.12 2.8533 0.51213 4.9324 2.9911 4.94 5.89-0.76996 0.33063-1.5752 0.5722-2.4 0.72l0.86 0.83c0.53013-0.12084 1.0513-0.27788 1.56-0.47-0.04493 0.56674-0.15225 1.1268-0.32 1.67l0.8 0.77c0.35676-0.93568 0.53975-1.9286 0.54-2.93v-0.12c-0.02-0.22-0.04-0.43-0.05-0.65zm-8.92 7c-2.7332-0.54078-4.7194-2.9142-4.77-5.7 0.91442 0.32639 1.8591 0.56089 2.82 0.7 0.21059 1.8002 0.88225 3.5155 1.95 4.98zm-1.95-6c-0.97057-0.14335-1.9206-0.40184-2.83-0.77-0.017101-2.8952 2.0357-5.3896 4.88-5.93-1.2386 2.0205-1.9439 4.3224-2.05 6.69zm10.48 3.89-3.88-0.74-1.77 3.5-0.35-8c0.0056153-0.21949 0.26394-0.33363 0.43-0.19z"/>
</svg>
