<?xml version="1.0" encoding="UTF-8" standalone="no"?>
<svg
   xmlns:dc="http://purl.org/dc/elements/1.1/"
   xmlns:cc="http://creativecommons.org/ns#"
   xmlns:rdf="http://www.w3.org/1999/02/22-rdf-syntax-ns#"
   xmlns:svg="http://www.w3.org/2000/svg"
   xmlns="http://www.w3.org/2000/svg"
   xmlns:xlink="http://www.w3.org/1999/xlink"
   id="svg16"
   version="1.1"
   viewBox="0 0 32 32"
   height="32px"
   width="32px">
  <metadata
     id="metadata20">
    <rdf:RDF>
      <cc:Work
         rdf:about="">
        <dc:format>image/svg+xml</dc:format>
        <dc:type
           rdf:resource="http://purl.org/dc/dcmitype/StillImage" />
        <dc:title>icon/pathway/web_temp-wire</dc:title>
      </cc:Work>
    </rdf:RDF>
  </metadata>
  <!-- Generator: Sketch 55.2 (78181) - https://sketchapp.com -->
  <title
     id="title2">icon/pathway/web_temp-wire</title>
  <desc
     id="desc4">Created with Sketch.</desc>
  <defs
     id="defs7">
    <polygon
       points="0.000126315789 0 29.7822814 0 29.7822814 31.5788842 0.000126315789 31.5788842"
       id="path-1" />
    <mask
       fill="white"
       id="mask-2">
      <use
         height="100%"
         width="100%"
         y="0"
         x="0"
         id="use9"
         xlink:href="#path-1" />
    </mask>
  </defs>
  <path
     d="M 20.068547,9.7262526 C 19.886653,7.8908842 19.564547,6.071621 19.105074,4.2852 22.030232,5.4533053 24.347811,7.7708842 25.515916,10.695726 23.7276,10.234042 21.906126,9.9100421 20.068547,9.7262526 Z M 14.8896,9.4578316 C 13.803284,9.4578316 12.74539,9.4925684 11.715916,9.5557263 11.925284,7.5498316 12.3336,5.5695158 12.934863,3.6441474 14.225811,3.4170947 15.546758,3.4170947 16.838021,3.6441474 17.43581,5.5698316 17.840653,7.5501474 18.047495,9.5557263 17.030653,9.4925684 15.972442,9.4578316 14.8896,9.4578316 Z M 9.707179,9.7262526 C 7.8714947,9.908779 6.0525474,10.231832 4.2661263,10.692568 5.4342316,7.7693053 7.7505474,5.4533053 10.673811,4.2852 10.213074,6.071621 9.8900211,7.8905684 9.707179,9.7262526 Z M 4.2632842,19.124147 C 6.0493895,19.5852 7.8683368,19.908253 9.7043368,20.090463 9.8868632,21.926463 10.209916,23.74541 10.670653,25.531516 7.7473895,24.363726 5.4310737,22.047726 4.2632842,19.124147 Z M 3.4548632,14.911516 C 3.455179,14.253095 3.5120211,13.595937 3.6253895,12.947305 5.5504421,12.344779 7.5307579,11.935516 9.5366526,11.7252 9.4738105,12.754674 9.4359158,13.815726 9.4359158,14.902042 9.4359158,15.988358 9.4703368,17.046253 9.5366526,18.059937 7.5313895,17.857832 5.5513895,17.457095 3.6253895,16.863095 3.5126526,16.218884 3.4558105,15.565832 3.4548632,14.911516 Z M 29.7756,14.210463 C 29.7756,14.062042 29.756968,13.916779 29.744337,13.771516 29.744337,13.695726 29.744337,13.616779 29.725389,13.54099 29.709284,13.354674 29.684021,13.1652 29.662232,12.982042 V 12.893621 C 29.636968,12.697832 29.605074,12.502042 29.570653,12.306253 V 12.268358 C 28.379179,5.6620421 22.920442,0.66593684 16.234547,0 H 16.206442 C 16.000863,0 15.795916,0 15.574863,0 15.353495,0 15.123284,0 14.8896,0 14.6556,0 14.422232,0 14.191705,0 13.961179,0 13.778021,0 13.560126,0 H 13.544337 C 6.8672842,0.67162105 1.4173895,5.6614105 0.22433684,12.258884 V 12.296779 C 0.19054737,12.490358 0.15991579,12.6852 0.13275789,12.88099 V 12.969411 C 0.10749474,13.155726 0,13.342042 0,13.528358 0,13.604147 0,13.683095 0,13.758884 0,13.904147 0,14.052568 0,14.197832 0,14.431516 0,14.668358 0,14.9052 0,15.142042 0,15.375726 0,15.606253 0,15.76099 0,15.922042 0,16.067305 0,16.136779 0,16.206253 0,16.275726 0,16.468358 0.10749474,16.660989 0.13275789,16.853621 V 16.919937 C 0.16086316,17.128358 0.1927579,17.333621 0.23065263,17.551516 1.3425474,23.659516 6.1223368,28.439937 12.230653,29.551516 L 12.363284,29.595726 12.779811,29.662042 13.086442,29.684147 13.477705,29.728358 13.863284,29.757095 14.179074,29.778884 C 14.416863,29.791516 14.6556,29.798147 14.895916,29.798147 H 14.940126 V 26.324463 H 14.895916 C 14.240337,26.323516 13.586653,26.266358 12.941179,26.153937 12.339916,24.228568 11.9316,22.247937 11.722232,20.242042 12.751705,20.3052 13.8096,20.339937 14.895916,20.339937 H 14.940126 V 18.375726 H 14.8896 C 13.699074,18.375726 12.581179,18.334674 11.532758,18.2652 11.463284,17.216779 11.415916,16.1052 11.415916,14.911516 11.415916,13.717832 11.456653,12.599937 11.526442,11.551516 12.574863,11.482042 13.692758,11.44099 14.883284,11.44099 16.07381,11.44099 17.188547,11.482042 18.233495,11.551516 V 11.728358 C 18.543284,11.838253 18.82781,12.009095 19.070653,12.230463 L 20.292758,13.351516 C 20.276653,12.802042 20.248232,12.2652 20.216968,11.731516 22.230442,11.938358 24.218021,12.345726 26.150653,12.947305 26.263074,13.592779 26.320232,14.246779 26.321179,14.902042 26.3196,15.555411 26.261179,16.2072 26.147495,16.850463 25.680126,17.002042 25.171389,17.166253 24.6156,17.28941 L 25.784337,18.363095 28.537705,20.889726 C 29.004126,19.822042 29.344232,18.704147 29.551389,17.557832 V 17.46941 C 29.576653,17.317832 29.601916,17.153621 29.624337,17.014674 29.624337,16.932568 29.646442,16.850463 29.6556,16.768358 29.674863,16.623095 29.690653,16.477832 29.706442,16.329411 29.721916,16.180989 29.725389,16.102042 29.734547,15.988358 29.744337,15.874674 29.75381,15.751516 29.75981,15.634674 29.75981,15.394674 29.779074,15.154674 29.779074,14.911516 29.779074,14.668358 29.788232,14.437832 29.7756,14.210463 Z M 17.412758,14.058884 V 29.94341 L 21.502232,25.859937 24.470337,31.578884 26.627495,30.464147 23.7696,24.953621 H 29.289284 Z"
     style="fill:#000000;fill-rule:evenodd;stroke:none;stroke-width:1"
     transform="translate(1)"
     id="Fill-1" />
</svg>
