<?xml version="1.0" encoding="UTF-8"?>
<svg width="32px" height="32px" viewBox="0 0 32 32" version="1.1" xmlns="http://www.w3.org/2000/svg" xmlns:xlink="http://www.w3.org/1999/xlink">
    <!-- Generator: Sketch 55.2 (78181) - https://sketchapp.com -->
    <title>icon/pathway/game_temp-wire</title>
    <desc>Created with Sketch.</desc>
    <g id="icon/pathway/game_temp-wire" stroke="none" stroke-width="1" fill="none" fill-rule="evenodd">
        <g id="fa-solid:gamepad-copy-3" transform="translate(0.000000, 8.000000)" fill="#4387C5" fill-rule="nonzero">
            <g id="Icon">
                <path d="M24,0 L8,0 C3.58,0 0,3.58 0,8 C0,12.42 3.58,16 8,16 C10.24,16 12.26,15.08 13.71,13.6 L18.285,13.6 C19.735,15.08 21.76,16 23.995,16 C28.415,16 31.995,12.42 31.995,8 C31.995,3.58 28.42,0 24,0 Z M12.8,9 C12.8,9.33 12.53,9.6 12.2,9.6 L9.6,9.6 L9.6,12.2 C9.6,12.53 9.33,12.8 9,12.8 L7,12.8 C6.67,12.8 6.4,12.53 6.4,12.2 L6.4,9.6 L3.8,9.6 C3.47,9.6 3.2,9.33 3.2,9 L3.2,7 C3.2,6.67 3.47,6.4 3.8,6.4 L6.4,6.4 L6.4,3.8 C6.4,3.47 6.67,3.2 7,3.2 L9,3.2 C9.33,3.2 9.6,3.47 9.6,3.8 L9.6,6.4 L12.2,6.4 C12.53,6.4 12.8,6.67 12.8,7 L12.8,9 Z M22,12.4 C20.675,12.4 19.6,11.325 19.6,10 C19.6,8.675 20.675,7.6 22,7.6 C23.325,7.6 24.4,8.675 24.4,10 C24.4,11.325 23.325,12.4 22,12.4 Z M26,8.4 C24.675,8.4 23.6,7.325 23.6,6 C23.6,4.675 24.675,3.6 26,3.6 C27.325,3.6 28.4,4.675 28.4,6 C28.4,7.325 27.325,8.4 26,8.4 Z" id="Icon-Shape"></path>
            </g>
        </g>
    </g>
</svg>