<?xml version="1.0" encoding="UTF-8" standalone="no"?>
<svg
   xmlns:dc="http://purl.org/dc/elements/1.1/"
   xmlns:cc="http://creativecommons.org/ns#"
   xmlns:rdf="http://www.w3.org/1999/02/22-rdf-syntax-ns#"
   xmlns:svg="http://www.w3.org/2000/svg"
   xmlns="http://www.w3.org/2000/svg"
   xmlns:sodipodi="http://sodipodi.sourceforge.net/DTD/sodipodi-0.dtd"
   xmlns:inkscape="http://www.inkscape.org/namespaces/inkscape"
   height="90"
   width="90"
   id="svg299"
   version="1.1"
   viewBox="0 0 90 90.000004"
   sodipodi:docname="OFF-attract.svg"
   inkscape:version="0.92.4 (5da689c313, 2019-01-14)">
  <sodipodi:namedview
     pagecolor="#ffffff"
     bordercolor="#666666"
     borderopacity="1"
     objecttolerance="10"
     gridtolerance="10"
     guidetolerance="10"
     inkscape:pageopacity="0"
     inkscape:pageshadow="2"
     inkscape:window-width="1920"
     inkscape:window-height="1016"
     id="namedview113"
     showgrid="false"
     fit-margin-top="0"
     fit-margin-left="0"
     fit-margin-right="0"
     fit-margin-bottom="0"
     inkscape:zoom="2.2264151"
     inkscape:cx="37.647116"
     inkscape:cy="52.312535"
     inkscape:window-x="0"
     inkscape:window-y="27"
     inkscape:window-maximized="1"
     inkscape:current-layer="svg299" />
  <metadata
     id="metadata303">
    <rdf:RDF>
      <cc:Work
         rdf:about="">
        <dc:format>image/svg+xml</dc:format>
        <dc:type
           rdf:resource="http://purl.org/dc/dcmitype/StillImage" />
        <dc:title>OFF-attract</dc:title>
      </cc:Work>
    </rdf:RDF>
  </metadata>
  <defs
     id="defs24">
    <style
       id="style2">.cls-1{isolation:isolate;}.cls-2,.cls-9{fill:#77bee9;}.cls-19,.cls-2,.cls-3,.cls-4,.cls-5,.cls-6,.cls-7{stroke:#28284f;}.cls-19,.cls-2,.cls-25,.cls-28,.cls-3,.cls-4,.cls-5,.cls-6,.cls-7{stroke-miterlimit:10;stroke-width:3px;}.cls-3,.cls-8{fill:#3799cb;}.cls-4{fill:#e8f0f9;}.cls-12,.cls-25,.cls-28,.cls-5,.cls-6{fill:none;}.cls-25,.cls-28,.cls-6{stroke-linecap:round;}.cls-7{fill:#abdff8;}.cls-10{fill:#28284f;}.cls-11{fill:#131438;}.cls-13{opacity:0.85;}.cls-14{fill:#ff6b00;}.cls-15{mask:url(#mask);}.cls-16{fill:#f71cc4;opacity:0.7;}.cls-17{mask:url(#mask-2);}.cls-18,.cls-30{fill:#fccdac;}.cls-19,.cls-20{fill:#b3c1d2;}.cls-21{opacity:0.65;}.cls-22,.cls-24{opacity:0.5;}.cls-23,.cls-24,.cls-31{fill:#895510;}.cls-25,.cls-28{stroke:#ad1505;}.cls-26,.cls-28{mix-blend-mode:multiply;}.cls-27{fill:#753f04;}.cls-29,.cls-30{opacity:0.8;}.cls-31{opacity:0.2;}.cls-32{filter:url(#luminosity-noclip-2);}.cls-33{filter:url(#luminosity-noclip);}</style>
    <filter
       style="color-interpolation-filters:sRGB"
       filterUnits="userSpaceOnUse"
       height="96"
       width="73"
       y="752.20001"
       x="55.630001"
       id="luminosity-noclip">
      <feFlood
         id="feFlood4"
         result="bg"
         flood-color="#fff" />
      <feBlend
         mode="normal"
         id="feBlend6"
         in2="bg"
         in="SourceGraphic" />
    </filter>
    <filter
       style="color-interpolation-filters:sRGB"
       filterUnits="userSpaceOnUse"
       height="93"
       width="71"
       y="755.20001"
       x="32.630001"
       id="luminosity-noclip-2">
      <feFlood
         id="feFlood14"
         result="bg"
         flood-color="#fff" />
      <feBlend
         mode="normal"
         id="feBlend16"
         in2="bg"
         in="SourceGraphic" />
    </filter>
    <filter
       style="color-interpolation-filters:sRGB"
       filterUnits="userSpaceOnUse"
       height="96"
       width="73"
       y="752.20001"
       x="55.630001"
       id="luminosity-noclip-9">
      <feFlood
         id="feFlood4-4"
         result="bg"
         flood-color="#fff" />
      <feBlend
         mode="normal"
         id="feBlend6-7"
         in2="bg"
         in="SourceGraphic" />
    </filter>
    <filter
       style="color-interpolation-filters:sRGB"
       filterUnits="userSpaceOnUse"
       height="93"
       width="71"
       y="755.20001"
       x="32.630001"
       id="luminosity-noclip-2-0">
      <feFlood
         id="feFlood14-3"
         result="bg"
         flood-color="#fff" />
      <feBlend
         mode="normal"
         id="feBlend16-6"
         in2="bg"
         in="SourceGraphic" />
    </filter>
    <filter
       style="color-interpolation-filters:sRGB"
       id="filter1329">
      <feFlood
         flood-opacity="0.85098"
         flood-color="rgb(247,28,196)"
         result="flood"
         id="feFlood1319" />
      <feComposite
         in="flood"
         in2="SourceGraphic"
         operator="in"
         result="composite1"
         id="feComposite1321" />
      <feGaussianBlur
         in="composite1"
         stdDeviation="5"
         result="blur"
         id="feGaussianBlur1323" />
      <feOffset
         dx="0"
         dy="0"
         result="offset"
         id="feOffset1325" />
      <feComposite
         in="SourceGraphic"
         in2="offset"
         operator="over"
         result="composite2"
         id="feComposite1327" />
    </filter>
    <filter
       style="color-interpolation-filters:sRGB"
       id="filter1750">
      <feFlood
         flood-opacity="1"
         flood-color="rgb(250,37,128)"
         result="flood"
         id="feFlood1740" />
      <feComposite
         in="flood"
         in2="SourceGraphic"
         operator="in"
         result="composite1"
         id="feComposite1742" />
      <feGaussianBlur
         in="composite1"
         stdDeviation="2"
         result="blur"
         id="feGaussianBlur1744" />
      <feOffset
         dx="0"
         dy="0"
         result="offset"
         id="feOffset1746" />
      <feComposite
         in="SourceGraphic"
         in2="offset"
         operator="over"
         result="composite2"
         id="feComposite1748" />
    </filter>
    <filter
       height="1.4233851"
       y="-0.21169257"
       width="1.561021"
       x="-0.28051049"
       id="filter1084"
       style="color-interpolation-filters:sRGB">
      <feGaussianBlur
         id="feGaussianBlur1086"
         stdDeviation="7.7143097" />
    </filter>
    <filter
       id="filter1152"
       style="color-interpolation-filters:sRGB">
      <feFlood
         id="feFlood1142"
         result="flood"
         flood-color="rgb(255,0,255)"
         flood-opacity="1" />
      <feComposite
         id="feComposite1144"
         result="composite1"
         operator="in"
         in2="SourceGraphic"
         in="flood" />
      <feGaussianBlur
         id="feGaussianBlur1146"
         result="blur"
         stdDeviation="5"
         in="composite1" />
      <feOffset
         id="feOffset1148"
         result="offset"
         dy="0"
         dx="0" />
      <feComposite
         id="feComposite1150"
         result="composite2"
         operator="over"
         in2="offset"
         in="SourceGraphic" />
    </filter>
    <filter
       inkscape:collect="always"
       style="color-interpolation-filters:sRGB"
       id="filter1069"
       x="-0.22440839"
       width="1.4488168"
       y="-0.16935406"
       height="1.3387081">
      <feGaussianBlur
         inkscape:collect="always"
         stdDeviation="6.1714478"
         id="feGaussianBlur1071" />
    </filter>
    <filter
       style="color-interpolation-filters:sRGB;"
       inkscape:label="Drop Shadow"
       id="filter1259">
      <feFlood
         flood-opacity="0.847059"
         flood-color="rgb(255,0,255)"
         result="flood"
         id="feFlood1249" />
      <feComposite
         in="flood"
         in2="SourceGraphic"
         operator="in"
         result="composite1"
         id="feComposite1251" />
      <feGaussianBlur
         in="composite1"
         stdDeviation="10"
         result="blur"
         id="feGaussianBlur1253" />
      <feOffset
         dx="0"
         dy="0"
         result="offset"
         id="feOffset1255" />
      <feComposite
         in="SourceGraphic"
         in2="offset"
         operator="over"
         result="composite2"
         id="feComposite1257" />
    </filter>
  </defs>
  <title
     id="title26">OFF-attract</title>
  <g
     id="g1223"
     style="filter:url(#filter1259)">
    <rect
       width="90"
       height="90"
       y="-3.5940857e-07"
       x="0"
       id="rect1195"
       style="opacity:0.71499999;fill:none;fill-opacity:1;fill-rule:nonzero;stroke:none;stroke-width:1;stroke-linecap:round;stroke-linejoin:miter;stroke-miterlimit:4;stroke-dasharray:none;stroke-dashoffset:0;stroke-opacity:1;paint-order:stroke fill markers" />
    <g
       id="g1097">
      <path
         style="isolation:isolate;fill:none;stroke-width:1"
         id="path54"
         d="M 31.678689,62.98332 36.217413,58.68482 66.03381,30.27577"
         class="cls-12"
         inkscape:connector-curvature="0" />
      <path
         style="isolation:isolate;fill:#ff6b00;stroke-width:1"
         id="path58"
         d="M 31.42452,19.60259 C 44.738113,14.451697 59.47384,18.84761 63.909687,23.59057 68.345534,28.33353 70.669361,34.7143 71.861533,41.10725 72.73902,45.80151 73.07186,50.65406 72.14596,55.33613 71.22006,60.01821 69.186711,64.76726 65.392337,67.63495 58.608456,72.76149 44.036124,73.15724 38.535189,72.42662"
         class="cls-14"
         inkscape:connector-curvature="0" />
      <path
         style="isolation:isolate;fill:none;stroke:#28284f;stroke-width:3px;stroke-miterlimit:10"
         id="path64"
         d="M 31.42452,19.60259 C 44.738113,14.451697 59.47384,18.84761 63.909687,23.59057 68.345534,28.33353 70.669361,34.7143 71.861533,41.10725 72.73902,45.80151 73.07186,50.65406 72.14596,55.33613 71.22006,60.01821 69.186711,64.76726 65.392337,67.63495 58.608456,72.76149 44.036124,73.15724 38.535189,72.42662"
         class="cls-5"
         inkscape:connector-curvature="0" />
      <path
         style="isolation:isolate;fill:#ff6b00;stroke-width:1"
         id="path66"
         d="M 21.917404,25.80679 C 18.970259,29.80695 17.681261,34.84825 17.378679,39.8104 16.713,50.16089 20.27136,61.02282 27.975089,67.92111 A 16.944573,17.047866 0 0 0 35.237049,72.03695 C 38.68648,72.83455 43.594354,72.58492 46.644377,70.77054 A 20.75105,20.877547 0 0 0 53.791356,63.25121 C 58.348236,55.58576 58.081964,45.10133 54.801979,36.79658 51.346496,27.96213 42.964984,17.99522 32.653001,19.34078 29.282242,19.78524 23.932598,23.03652 21.917404,25.80679 Z"
         class="cls-14"
         inkscape:connector-curvature="0" />
      <g
         transform="matrix(0.44864597,0,0,0.48046237,6.8792888,-339.44375)"
         style="isolation:isolate;fill:#ff00ff;fill-opacity:0.76890755;stroke-width:2.15386486;filter:url(#filter1069)"
         id="g70"
         mask="url(#mask-2)"
         class="cls-17">
        <path
           style="opacity:0.7;fill:#ff00ff;fill-opacity:0.76890755;stroke-width:2.15386486"
           id="path68"
           d="M 42.37,769 C 37.5,775.57 35.37,783.85 34.87,792 33.77,809 39.65,826.84 52.38,838.17 A 28,28 0 0 0 64.38,844.93 C 70.08,846.24 78.19,845.83 83.23,842.85 A 34.29,34.29 0 0 0 95.04,830.5 C 102.57,817.91 102.13,800.69 96.71,787.05 91,772.54 77.15,756.17 60.11,758.38 54.54,759.11 45.7,764.45 42.37,769 Z"
           class="cls-16"
           inkscape:connector-curvature="0" />
      </g>
      <path
         style="isolation:isolate;fill:none;stroke:#28284f;stroke-width:3px;stroke-miterlimit:10"
         id="path72"
         d="M 21.917404,25.80679 C 18.970259,29.80695 17.681261,34.84825 17.378679,39.8104 16.713,50.16089 20.27136,61.02282 27.975089,67.92111 A 16.944573,17.047866 0 0 0 35.237049,72.03695 C 38.68648,72.83455 43.594354,72.58492 46.644377,70.77054 A 20.75105,20.877547 0 0 0 53.791356,63.25121 C 58.348236,55.58576 58.081964,45.10133 54.801979,36.79658 51.346496,27.96213 42.964984,17.99522 32.653001,19.34078 29.282242,19.78524 23.932598,23.03652 21.917404,25.80679 Z"
         class="cls-5"
         inkscape:connector-curvature="0" />
      <path
         style="isolation:isolate;fill:#fccdac;stroke-width:1"
         id="path74"
         d="M 47.049837,23.74887 60.684166,22.26327 C 60.684166,22.26327 64.200165,23.90718 66.632922,28.81453 L 52.447894,30.19662 C 52.447894,30.19662 49.361561,25.67894 47.049837,23.74887 Z"
         class="cls-18"
         inkscape:connector-curvature="0" />
      <path
         style="isolation:isolate;fill:#fccdac;stroke-width:1"
         id="path76"
         d="M 54.596223,34.00804 68.448412,32.50417 A 32.212844,32.409211 0 0 1 69.852391,36.49215 L 56.187803,37.98384 A 41.889405,42.14476 0 0 0 54.596223,34.00804 Z"
         class="cls-18"
         inkscape:connector-curvature="0" />
      <g
         transform="matrix(0.60516332,0,0,0.60885236,-3.7233659,-442.40067)"
         style="opacity:0.5;isolation:isolate;stroke-width:1.6474328"
         id="g268"
         class="cls-22">
        <path
           style="fill:#895510;stroke-width:1.6474328"
           id="path266"
           d="M 116.44,833.61 A 21,21 0 0 1 113.31,836.5 C 106.31,841.72 93.88,843.9 83.46,844.42 L 84.01,844.11 A 34.33,34.33 0 0 0 95.42,832.7 C 97.18,832.95 98.96,833.17 100.76,833.35 A 95,95 0 0 0 116.44,833.61 Z"
           class="cls-23"
           inkscape:connector-curvature="0" />
      </g>
      <path
         style="isolation:isolate;fill:#895510;stroke-width:1"
         id="path270"
         d="M 20.779697,55.84148 C 20.731284,55.71362 20.676819,55.59185 20.628406,55.47008 L 20.446857,55.00127 20.525529,55.22045 Q 20.652613,55.5675 20.797852,55.91454 C 20.852317,56.0424 20.906781,56.17635 20.967298,56.30421 Z"
         class="cls-23"
         inkscape:connector-curvature="0" />
      <path
         style="opacity:0.5;isolation:isolate;fill:#895510;stroke-width:1"
         id="path272"
         d="M 22.60729,54.25238 22.540722,54.3437 20.985453,56.35292 V 56.35292 56.35292 C 20.924936,56.22506 20.870472,56.09111 20.816007,55.96325 20.761542,55.83539 20.701026,55.671 20.646561,55.51879 20.592097,55.36658 20.573942,55.3544 20.543683,55.26916 L 20.465012,55.04997 A 1.6763024,1.686521 0 0 1 20.404496,54.89167 Q 20.259257,54.5081 20.132172,54.12452 C 20.053501,53.89315 19.980882,53.66788 19.908262,53.43651 19.835642,53.20515 19.763023,52.97988 19.696455,52.74851 Q 21.08833,53.46696 22.60729,54.25238 Z"
         class="cls-24"
         inkscape:connector-curvature="0" />
      <path
         style="opacity:0.5;isolation:isolate;fill:#895510;stroke-width:1"
         id="path274"
         d="M 32.973738,58.92836 Q 29.984231,62.28314 26.922105,65.56485 A 27.304969,27.471418 0 0 1 24.616433,62.77631 L 26.335096,60.75492 C 27.291254,59.62245 28.247413,58.49608 29.197519,57.36361 30.407846,57.89331 31.666585,58.41693 32.973738,58.92836 Z"
         class="cls-24"
         inkscape:connector-curvature="0" />
      <path
         style="opacity:0.5;isolation:isolate;fill:#895510;stroke-width:1"
         id="path276"
         d="M 52.048486,64.28626 A 18.687443,18.801361 0 0 1 46.190505,69.96686 C 44.108743,71.18456 41.107133,71.63511 38.414156,71.51334 A 16.690404,16.792148 0 0 1 35.454908,71.12368 14.874914,14.965591 0 0 1 29.34881,67.8724 C 31.72105,65.34567 34.069084,62.77631 36.374756,60.19478 L 36.913351,60.38352 A 93.764005,94.335585 0 0 0 52.048486,64.28626 Z"
         class="cls-24"
         inkscape:connector-curvature="0" />
      <path
         style="isolation:isolate;fill:none;stroke:#ad1505;stroke-width:3px;stroke-linecap:round;stroke-miterlimit:10"
         id="path278"
         d="M 40.011787,59.04405 A 18.481688,18.594351 0 0 0 45.131469,67.37315"
         class="cls-25"
         inkscape:connector-curvature="0" />
      <g
         transform="matrix(0.60516332,0,0,0.60885236,-3.7233659,-442.40067)"
         style="isolation:isolate;mix-blend-mode:multiply;stroke-width:1.6474328"
         id="g282"
         class="cls-26">
        <path
           style="fill:#753f04;stroke-width:1.6474328"
           id="path280"
           d="M 81.85,838.31 A 1.5,1.5 0 0 1 80.75,838.79 1.48,1.48 0 0 1 79.75,838.39 32,32 0 0 1 72.07,827.39 C 73.34,827.79 74.63,828.17 75.93,828.54 A 28.61,28.61 0 0 0 81.79,836.18 1.5,1.5 0 0 1 81.85,838.31 Z"
           class="cls-27"
           inkscape:connector-curvature="0" />
      </g>
      <path
         style="isolation:isolate;mix-blend-mode:multiply;fill:none;stroke:#ad1505;stroke-width:3px;stroke-linecap:round;stroke-miterlimit:10"
         id="path284"
         d="M 34.323252,22.85386 A 27.189988,27.355737 0 0 0 32.507762,37.66724"
         class="cls-28"
         inkscape:connector-curvature="0" />
      <g
         transform="matrix(0.60516332,0,0,0.60885236,-3.7233659,-442.40067)"
         style="opacity:0.8;isolation:isolate;stroke-width:1.6474328"
         id="g288"
         class="cls-29">
        <path
           style="fill:#fccdac;stroke-width:1.6474328"
           id="path286"
           d="M 90.6,778.24 65,808.32 Q 57.32,817.32 49.64,826.39 C 48.7,827.51 47.74,828.62 46.79,829.73 A 51.76,51.76 0 0 1 40.79,819.17 C 41.64,818.06 42.5,816.96 43.36,815.87 L 63.27,790.5 81.42,767.32 A 50,50 0 0 1 90.6,778.24 Z"
           class="cls-18"
           inkscape:connector-curvature="0" />
      </g>
      <path
         style="opacity:0.8;isolation:isolate;fill:#fccdac;stroke-width:1"
         id="path290"
         d="M 54.559914,38.70838 Q 45.900027,49.55204 36.616821,59.93297 33.040306,63.94531 29.354861,67.84805 C 29.094641,67.63495 28.840473,67.42185 28.580252,67.19049 27.975089,66.66688 27.436494,66.11891 26.90395,65.54659 Q 31.624224,60.51747 36.162949,55.31178 44.895455,45.29007 52.919921,34.70213 C 53.307226,35.49364 53.664272,36.30341 53.978957,37.10101 Q 54.299693,37.8986 54.559914,38.70838 Z"
         class="cls-30"
         inkscape:connector-curvature="0" />
      <path
         style="opacity:0.2;isolation:isolate;fill:#895510;stroke-width:1"
         id="path292"
         d="M 24.598278,62.7824 C 25.203441,62.10657 25.75414,61.43075 26.322993,60.74883 L 29.185416,57.36361 22.528619,54.31935 V 54.31935 L 20.973349,56.32856 A 31.323253,31.514198 0 0 0 24.598278,62.7824 Z"
         class="cls-31"
         inkscape:connector-curvature="0" />
      <path
         style="opacity:0.2;isolation:isolate;fill:#895510;stroke-width:1"
         id="path294"
         d="M 32.973738,58.92836 32.90717,58.98925 C 30.934338,61.19938 28.937299,63.39734 26.910002,65.55877 27.442545,66.13109 28.011399,66.67905 28.592356,67.20267 28.846524,67.43403 29.100693,67.64713 29.360913,67.86023 Q 32.90717,64.06708 36.374756,60.20086 V 60.20086 Z"
         class="cls-31"
         inkscape:connector-curvature="0" />
    </g>
  </g>
</svg>
