<?xml version="1.0" encoding="UTF-8" standalone="no"?>
<svg
   xmlns:dc="http://purl.org/dc/elements/1.1/"
   xmlns:cc="http://creativecommons.org/ns#"
   xmlns:rdf="http://www.w3.org/1999/02/22-rdf-syntax-ns#"
   xmlns:svg="http://www.w3.org/2000/svg"
   xmlns="http://www.w3.org/2000/svg"
   xmlns:sodipodi="http://sodipodi.sourceforge.net/DTD/sodipodi-0.dtd"
   xmlns:inkscape="http://www.inkscape.org/namespaces/inkscape"
   height="90"
   width="90"
   id="svg283"
   version="1.1"
   viewBox="0 0 90 90.000004"
   sodipodi:docname="ON-attract.svg"
   inkscape:version="0.92.4 (5da689c313, 2019-01-14)">
  <sodipodi:namedview
     pagecolor="#ffffff"
     bordercolor="#666666"
     borderopacity="1"
     objecttolerance="10"
     gridtolerance="10"
     guidetolerance="10"
     inkscape:pageopacity="0"
     inkscape:pageshadow="2"
     inkscape:window-width="1920"
     inkscape:window-height="1016"
     id="namedview95"
     showgrid="false"
     inkscape:zoom="3.1486264"
     inkscape:cx="101.04198"
     inkscape:cy="111.67297"
     inkscape:window-x="0"
     inkscape:window-y="27"
     inkscape:window-maximized="1"
     inkscape:current-layer="svg283" />
  <metadata
     id="metadata287">
    <rdf:RDF>
      <cc:Work
         rdf:about="">
        <dc:format>image/svg+xml</dc:format>
        <dc:type
           rdf:resource="http://purl.org/dc/dcmitype/StillImage" />
        <dc:title>ON-attract</dc:title>
      </cc:Work>
    </rdf:RDF>
  </metadata>
  <defs
     id="defs24">
    <style
       id="style2">.cls-1{isolation:isolate;}.cls-2,.cls-9{fill:#77bee9;}.cls-13,.cls-2,.cls-3,.cls-4,.cls-5,.cls-6,.cls-7{stroke:#28284f;}.cls-13,.cls-2,.cls-21,.cls-3,.cls-4,.cls-5,.cls-6,.cls-7{stroke-miterlimit:10;stroke-width:3px;}.cls-3,.cls-8{fill:#3799cb;}.cls-4{fill:#e8f0f9;}.cls-12,.cls-21,.cls-5,.cls-6{fill:none;}.cls-21,.cls-6{stroke-linecap:round;}.cls-7{fill:#abdff8;}.cls-10{fill:#28284f;}.cls-11{fill:#131438;}.cls-13,.cls-14{fill:#b3c1d2;}.cls-15{opacity:0.85;}.cls-16{fill:#37dcb1;}.cls-17{mask:url(#mask);}.cls-18{fill:#f71cc4;opacity:0.7;}.cls-19{mask:url(#mask-2);}.cls-20{fill:#7afcd6;}.cls-21{stroke:#24c99a;mix-blend-mode:multiply;}.cls-22,.cls-24,.cls-27{fill:#0d9985;}.cls-22,.cls-23{opacity:0.5;}.cls-25{opacity:0.75;mix-blend-mode:screen;}.cls-26{opacity:0.8;}.cls-27{fill-opacity:0.6;opacity:0.3;}.cls-28{filter:url(#luminosity-noclip-2);}.cls-29{filter:url(#luminosity-noclip);}</style>
    <filter
       style="color-interpolation-filters:sRGB"
       filterUnits="userSpaceOnUse"
       height="93"
       width="56"
       y="755.20001"
       x="72.629997"
       id="luminosity-noclip">
      <feFlood
         id="feFlood4"
         result="bg"
         flood-color="#fff" />
      <feBlend
         mode="normal"
         id="feBlend6"
         in2="bg"
         in="SourceGraphic" />
    </filter>
    <filter
       style="color-interpolation-filters:sRGB"
       filterUnits="userSpaceOnUse"
       height="93"
       width="71"
       y="755.20001"
       x="45.630001"
       id="luminosity-noclip-2">
      <feFlood
         id="feFlood14"
         result="bg"
         flood-color="#fff" />
      <feBlend
         mode="normal"
         id="feBlend16"
         in2="bg"
         in="SourceGraphic" />
    </filter>
    <filter
       id="filter943"
       style="color-interpolation-filters:sRGB">
      <feFlood
         id="feFlood933"
         result="flood"
         flood-color="rgb(122,252,214)"
         flood-opacity="1" />
      <feComposite
         id="feComposite935"
         result="composite1"
         operator="in"
         in2="SourceGraphic"
         in="flood" />
      <feGaussianBlur
         id="feGaussianBlur937"
         result="blur"
         stdDeviation="2"
         in="composite1" />
      <feOffset
         id="feOffset939"
         result="offset"
         dy="0"
         dx="0" />
      <feComposite
         id="feComposite941"
         result="composite2"
         operator="over"
         in2="offset"
         in="SourceGraphic" />
    </filter>
    <filter
       id="filter1084"
       style="color-interpolation-filters:sRGB">
      <feFlood
         id="feFlood1074"
         result="flood"
         flood-color="rgb(247,28,196)"
         flood-opacity="1" />
      <feComposite
         id="feComposite1076"
         result="composite1"
         operator="in"
         in2="SourceGraphic"
         in="flood" />
      <feGaussianBlur
         id="feGaussianBlur1078"
         result="blur"
         stdDeviation="5"
         in="composite1" />
      <feOffset
         id="feOffset1080"
         result="offset"
         dy="0"
         dx="0" />
      <feComposite
         id="feComposite1082"
         result="composite2"
         operator="over"
         in2="offset"
         in="SourceGraphic" />
    </filter>
    <filter
       height="1.4164084"
       y="-0.20820418"
       width="1.5533221"
       x="-0.27666107"
       id="filter2168"
       style="color-interpolation-filters:sRGB">
      <feGaussianBlur
         id="feGaussianBlur2170"
         stdDeviation="4.0649335" />
    </filter>
    <filter
       id="filter2281"
       style="color-interpolation-filters:sRGB">
      <feFlood
         id="feFlood2271"
         result="flood"
         flood-color="rgb(247,28,196)"
         flood-opacity="1" />
      <feComposite
         id="feComposite2273"
         result="composite1"
         operator="in"
         in2="SourceGraphic"
         in="flood" />
      <feGaussianBlur
         id="feGaussianBlur2275"
         result="blur"
         stdDeviation="5"
         in="composite1" />
      <feOffset
         id="feOffset2277"
         result="offset"
         dy="0"
         dx="0" />
      <feComposite
         id="feComposite2279"
         result="composite2"
         operator="over"
         in2="offset"
         in="SourceGraphic" />
    </filter>
    <filter
       inkscape:collect="always"
       style="color-interpolation-filters:sRGB"
       id="filter1037"
       x="-0.2235645"
       width="1.447129"
       y="-0.16824581"
       height="1.3364916">
      <feGaussianBlur
         inkscape:collect="always"
         stdDeviation="3.2847948"
         id="feGaussianBlur1039" />
    </filter>
    <filter
       style="color-interpolation-filters:sRGB;"
       inkscape:label="Drop Shadow"
       id="filter1074">
      <feFlood
         flood-opacity="1"
         flood-color="rgb(255,0,255)"
         result="flood"
         id="feFlood1064" />
      <feComposite
         in="flood"
         in2="SourceGraphic"
         operator="in"
         result="composite1"
         id="feComposite1066" />
      <feGaussianBlur
         in="composite1"
         stdDeviation="10"
         result="blur"
         id="feGaussianBlur1068" />
      <feOffset
         dx="0"
         dy="0"
         result="offset"
         id="feOffset1070" />
      <feComposite
         in="SourceGraphic"
         in2="offset"
         operator="over"
         result="composite2"
         id="feComposite1072" />
    </filter>
  </defs>
  <title
     id="title26">ON-attract</title>
  <g
     id="g1062"
     style="filter:url(#filter1074)">
    <path
       class="cls-12"
       d="M 27.73605,62.335845 32.274774,58.037345 62.091171,29.628295"
       id="path54"
       style="isolation:isolate;fill:none;stroke-width:1"
       inkscape:connector-curvature="0" />
    <path
       class="cls-16"
       d="M 37.59416,18.601975 C 48.11795,17.104205 56.777837,19.533525 59.985203,22.943095 64.42105,27.679965 66.744877,34.066825 67.937049,40.459775 68.814536,45.154035 69.147376,50.006585 68.221476,54.688655 67.295576,59.370735 65.262227,64.119785 61.467853,66.987475 57.673479,69.855175 51.270851,71.145935 45.479438,71.669555"
       id="path156"
       style="isolation:isolate;fill:#37dcb1;stroke-width:1"
       inkscape:connector-curvature="0" />
    <path
       class="cls-5"
       d="M 37.59416,18.601975 C 48.11795,17.104205 56.777837,19.533525 59.985203,22.943095 64.42105,27.679965 66.744877,34.066825 67.937049,40.459775 68.814536,45.154035 69.147376,50.006585 68.221476,54.688655 67.295576,59.370735 65.262227,64.119785 61.467853,66.987475 57.673479,69.855175 51.270851,71.145935 45.479438,71.669555"
       id="path162"
       style="isolation:isolate;fill:none;stroke:#28284f;stroke-width:3px;stroke-miterlimit:10"
       inkscape:connector-curvature="0" />
    <path
       class="cls-16"
       d="M 25.841888,25.159315 C 22.894743,29.159475 21.605745,34.200775 21.303163,39.162925 20.637484,49.513415 24.195844,60.375345 31.899573,67.273635 A 16.944573,17.047866 0 0 0 39.161533,71.389475 C 42.610964,72.187075 47.518838,71.937445 50.568862,70.123065 A 20.75105,20.877547 0 0 0 57.71584,62.603735 C 62.27272,54.938285 62.006448,44.453855 58.726463,36.149105 55.240722,27.339015 46.877365,17.372095 36.565382,18.717665 33.206726,19.137765 27.857082,22.389045 25.841888,25.159315 Z"
       id="path164"
       style="isolation:isolate;fill:#37dcb1;stroke-width:1"
       inkscape:connector-curvature="0" />
    <path
       class="cls-16"
       d="M 28.411768,28.156805 C 25.817238,31.678375 24.682458,36.116525 24.291888,40.484985 23.830038,49.597125 26.962668,59.159505 33.744698,65.232475 A 14.917288,15.008222 0 0 0 40.137818,68.855885 C 43.174568,69.558055 47.495248,69.338295 50.180358,67.740995 A 18.268349,18.379712 0 0 0 56.472258,61.121285 C 60.483938,54.372955 60.249528,45.142905 57.361958,37.831745 54.293258,30.075715 46.930518,21.301265 37.852278,22.485845 34.895468,22.855685 30.185858,25.717975 28.411768,28.156805 Z"
       id="path164-3-6"
       style="opacity:0.71499999;isolation:isolate;fill:#f61cc5;fill-opacity:0.94957981;stroke:none;stroke-width:1;stroke-opacity:1;filter:url(#filter1037)"
       inkscape:connector-curvature="0" />
    <path
       class="cls-5"
       d="M 25.841888,25.159315 C 22.894743,29.159475 21.605745,34.200775 21.303163,39.162925 20.637484,49.513415 24.195844,60.375345 31.899573,67.273635 A 16.944573,17.047866 0 0 0 39.161533,71.389475 C 42.610964,72.187075 47.518838,71.937445 50.568862,70.123065 A 20.75105,20.877547 0 0 0 57.71584,62.603735 C 62.27272,54.938285 62.006448,44.453855 58.726463,36.149105 55.240722,27.339015 46.877365,17.372095 36.565382,18.717665 33.206726,19.137765 27.857082,22.389045 25.841888,25.159315 Z"
       id="path170"
       style="isolation:isolate;fill:none;stroke:#28284f;stroke-width:3px;stroke-miterlimit:10"
       inkscape:connector-curvature="0" />
    <path
       class="cls-20"
       d="M 50.974321,23.101395 57.855028,22.352515 C 57.855028,22.352515 60.596418,23.990325 63.035226,28.897675 L 56.378429,29.549145 C 56.378429,29.549145 53.286045,25.031465 50.974321,23.101395 Z"
       id="path172"
       style="isolation:isolate;fill:#7afcd6;stroke-width:1"
       inkscape:connector-curvature="0" />
    <path
       class="cls-20"
       d="M 58.520708,33.360565 64.838613,32.672555 C 64.838613,32.672555 65.764513,35.107965 66.151817,36.666625 L 60.112287,37.336365 A 41.889405,42.14476 0 0 0 58.520708,33.360565 Z"
       id="path174"
       style="isolation:isolate;fill:#7afcd6;stroke-width:1"
       inkscape:connector-curvature="0" />
    <path
       class="cls-21"
       d="M 36.432246,22.815235 A 27.189988,27.355737 0 0 0 34.616756,37.628615"
       id="path176"
       style="isolation:isolate;mix-blend-mode:multiply;fill:none;stroke:#24c99a;stroke-width:3px;stroke-linecap:round;stroke-miterlimit:10"
       inkscape:connector-curvature="0" />
    <path
       class="cls-22"
       d="M 62.82947,64.479005 A 12.70843,12.7859 0 0 1 60.935309,66.238585 C 59.0472,67.663305 56.372378,68.783595 52.941102,69.587275 A 21.616434,21.748206 0 0 0 57.546395,64.582515 Q 60.245423,64.655575 62.82947,64.479005 Z"
       id="path178"
       style="opacity:0.5;isolation:isolate;fill:#0d9985;stroke-width:1"
       inkscape:connector-curvature="0" />
    <g
       class="cls-23"
       id="g184"
       style="opacity:0.5;isolation:isolate;stroke-width:1.6474328"
       transform="matrix(0.60516332,0,0,0.60885236,-7.6660049,-443.04814)">
      <path
         class="cls-24"
         d="M 70.53,826.86 C 68.27,829.35 65.96,831.86 63.65,834.29 A 46.69,46.69 0 0 1 59.83,829.72 L 62.7,826.37 64.14,824.67 Q 67.26,825.81 70.53,826.86 Z"
         id="path180"
         style="fill:#0d9985;stroke-width:1.6474328"
         inkscape:connector-curvature="0" />
      <path
         class="cls-24"
         d="M 104.19,833.59 A 30.36,30.36 0 0 1 95.53,841.5 20.13,20.13 0 0 1 88,843.84 H 87.75 87.66 A 30.35,30.35 0 0 1 77.83,843.36 24.64,24.64 0 0 1 67.74,838.02 Q 72.15,833.36 76.48,828.59 C 79.48,829.44 82.57,830.21 85.73,830.89 A 137.6,137.6 0 0 0 100.86,833.28 C 101.94,833.43 103.07,833.53 104.19,833.59 Z"
         id="path182"
         style="fill:#0d9985;stroke-width:1.6474328"
         inkscape:connector-curvature="0" />
    </g>
    <path
       class="cls-21"
       d="M 42.120782,60.223125 A 18.481688,18.594351 0 0 0 47.240463,68.552225"
       id="path186"
       style="isolation:isolate;mix-blend-mode:multiply;fill:none;stroke:#24c99a;stroke-width:3px;stroke-linecap:round;stroke-miterlimit:10"
       inkscape:connector-curvature="0" />
    <g
       class="cls-26"
       id="g270"
       style="opacity:0.8;isolation:isolate;stroke-width:1.6474328"
       transform="matrix(0.60516332,0,0,0.60885236,-7.6660049,-443.04814)">
      <path
         class="cls-20"
         d="M 103.6,778.24 78,808.32 Q 70.32,817.32 62.64,826.39 C 61.7,827.51 60.74,828.62 59.79,829.73 A 51.76,51.76 0 0 1 53.79,819.17 C 54.64,818.06 55.5,816.96 56.36,815.87 L 76.27,790.5 94.42,767.32 A 50,50 0 0 1 103.6,778.24 Z"
         id="path268"
         style="fill:#7afcd6;stroke-width:1.6474328"
         inkscape:connector-curvature="0" />
    </g>
    <g
       class="cls-26"
       id="g274"
       style="opacity:0.8;isolation:isolate;stroke-width:1.6474328"
       transform="matrix(0.60516332,0,0,0.60885236,-7.6660049,-443.04814)">
      <path
         class="cls-20"
         d="M 109.31,790.19 Q 95,808 79.66,825.05 73.75,831.64 67.66,838.05 C 67.23,837.7 66.81,837.35 66.38,836.97 65.38,836.11 64.49,835.21 63.61,834.27 Q 71.41,826.01 78.91,817.46 93.34,801 106.6,783.61 C 107.24,784.91 107.83,786.24 108.35,787.55 Q 108.88,788.86 109.31,790.19 Z"
         id="path272"
         style="fill:#7afcd6;stroke-width:1.6474328"
         inkscape:connector-curvature="0" />
    </g>
    <path
       class="cls-27"
       d="M 30.247477,60.101355 31.143119,59.048045 25.394067,56.777025 A 31.686351,31.87951 0 0 0 28.522762,62.134925 C 29.097667,61.459095 29.678624,60.783275 30.247477,60.101355 Z"
       id="path276"
       style="opacity:0.3;isolation:isolate;fill:#0d9985;fill-opacity:0.6;stroke-width:1"
       inkscape:connector-curvature="0" />
    <path
       class="cls-27"
       d="M 34.931441,60.472755 Q 32.898093,62.719425 30.834486,64.923465 C 31.367029,65.495785 31.935883,66.043755 32.51684,66.567365 32.771008,66.798735 33.025177,67.011835 33.285397,67.224925 35.100887,65.325315 36.825603,63.401335 38.574525,61.471275 L 35.016164,60.399695 Z"
       id="path278"
       style="opacity:0.3;isolation:isolate;fill:#0d9985;fill-opacity:0.6;stroke-width:1"
       inkscape:connector-curvature="0" />
    <rect
       y="-1.9001754e-07"
       x="0"
       height="90"
       width="90"
       id="rect945"
       style="opacity:0.71499999;fill:none;fill-opacity:1;fill-rule:nonzero;stroke:none;stroke-width:0.99999994;stroke-linecap:round;stroke-linejoin:miter;stroke-miterlimit:4;stroke-dasharray:none;stroke-dashoffset:0;stroke-opacity:1;paint-order:stroke fill markers" />
  </g>
</svg>
