<?xml version="1.0" encoding="UTF-8" standalone="no"?>
<svg
   xmlns:dc="http://purl.org/dc/elements/1.1/"
   xmlns:cc="http://creativecommons.org/ns#"
   xmlns:rdf="http://www.w3.org/1999/02/22-rdf-syntax-ns#"
   xmlns:svg="http://www.w3.org/2000/svg"
   xmlns="http://www.w3.org/2000/svg"
   xmlns:sodipodi="http://sodipodi.sourceforge.net/DTD/sodipodi-0.dtd"
   xmlns:inkscape="http://www.inkscape.org/namespaces/inkscape"
   height="90"
   width="90"
   id="svg241"
   version="1.1"
   viewBox="0 0 90 90.000004"
   sodipodi:docname="ON-hover.svg"
   inkscape:version="0.92.4 (5da689c313, 2019-01-14)">
  <sodipodi:namedview
     pagecolor="#ffffff"
     bordercolor="#666666"
     borderopacity="1"
     objecttolerance="10"
     gridtolerance="10"
     guidetolerance="10"
     inkscape:pageopacity="0"
     inkscape:pageshadow="2"
     inkscape:window-width="1920"
     inkscape:window-height="1016"
     id="namedview81"
     showgrid="false"
     inkscape:zoom="3.1486264"
     inkscape:cx="-9.239602"
     inkscape:cy="59.972348"
     inkscape:window-x="0"
     inkscape:window-y="27"
     inkscape:window-maximized="1"
     inkscape:current-layer="svg241" />
  <metadata
     id="metadata245">
    <rdf:RDF>
      <cc:Work
         rdf:about="">
        <dc:format>image/svg+xml</dc:format>
        <dc:type
           rdf:resource="http://purl.org/dc/dcmitype/StillImage" />
        <dc:title>ON-static</dc:title>
      </cc:Work>
    </rdf:RDF>
  </metadata>
  <defs
     id="defs4">
    <style
       id="style2">.cls-1{isolation:isolate;}.cls-2,.cls-9{fill:#77bee9;}.cls-12,.cls-14,.cls-2,.cls-3,.cls-4,.cls-5,.cls-6,.cls-7{stroke:#28284f;}.cls-12,.cls-14,.cls-16,.cls-2,.cls-3,.cls-4,.cls-5,.cls-6,.cls-7{stroke-miterlimit:10;stroke-width:3px;}.cls-3,.cls-8{fill:#3799cb;}.cls-4{fill:#e8f0f9;}.cls-16,.cls-5,.cls-6{fill:none;}.cls-16,.cls-6{stroke-linecap:round;}.cls-7{fill:#abdff8;}.cls-10{fill:#28284f;}.cls-11{fill:#131438;}.cls-12,.cls-13{fill:#b3c1d2;}.cls-14{fill:#37dcb1;}.cls-15{fill:#7afcd6;}.cls-16{stroke:#24c99a;mix-blend-mode:multiply;}.cls-17,.cls-19{fill:#0d9985;}.cls-18{opacity:0.75;mix-blend-mode:screen;}.cls-19{fill-opacity:0.6;opacity:0.3;}</style>
    <filter
       id="filter1211"
       style="color-interpolation-filters:sRGB">
      <feFlood
         id="feFlood1201"
         result="flood"
         flood-color="rgb(122,252,214)"
         flood-opacity="1" />
      <feComposite
         id="feComposite1203"
         result="composite1"
         operator="in"
         in2="SourceGraphic"
         in="flood" />
      <feGaussianBlur
         id="feGaussianBlur1205"
         result="blur"
         stdDeviation="2"
         in="composite1" />
      <feOffset
         id="feOffset1207"
         result="offset"
         dy="0"
         dx="0" />
      <feComposite
         id="feComposite1209"
         result="composite2"
         operator="over"
         in2="offset"
         in="SourceGraphic" />
    </filter>
    <filter
       id="filter1333"
       style="color-interpolation-filters:sRGB">
      <feFlood
         id="feFlood1323"
         result="flood"
         flood-color="rgb(0,0,0)"
         flood-opacity="0.643137" />
      <feComposite
         id="feComposite1325"
         result="composite1"
         operator="in"
         in2="SourceGraphic"
         in="flood" />
      <feGaussianBlur
         id="feGaussianBlur1327"
         result="blur"
         stdDeviation="5"
         in="composite1" />
      <feOffset
         id="feOffset1329"
         result="offset"
         dy="0"
         dx="0" />
      <feComposite
         id="feComposite1331"
         result="composite2"
         operator="over"
         in2="offset"
         in="SourceGraphic" />
    </filter>
    <filter
       id="filter1608"
       style="color-interpolation-filters:sRGB">
      <feFlood
         id="feFlood1598"
         result="flood"
         flood-color="rgb(122,252,214)"
         flood-opacity="1" />
      <feComposite
         id="feComposite1600"
         result="composite1"
         operator="in"
         in2="SourceGraphic"
         in="flood" />
      <feGaussianBlur
         id="feGaussianBlur1602"
         result="blur"
         stdDeviation="2"
         in="composite1" />
      <feOffset
         id="feOffset1604"
         result="offset"
         dy="0"
         dx="0" />
      <feComposite
         id="feComposite1606"
         result="composite2"
         operator="over"
         in2="offset"
         in="SourceGraphic" />
    </filter>
    <filter
       style="color-interpolation-filters:sRGB;"
       inkscape:label="Drop Shadow"
       id="filter932">
      <feFlood
         flood-opacity="1"
         flood-color="rgb(55,220,177)"
         result="flood"
         id="feFlood922" />
      <feComposite
         in="flood"
         in2="SourceGraphic"
         operator="in"
         result="composite1"
         id="feComposite924" />
      <feGaussianBlur
         in="composite1"
         stdDeviation="10"
         result="blur"
         id="feGaussianBlur926" />
      <feOffset
         dx="0"
         dy="0"
         result="offset"
         id="feOffset928" />
      <feComposite
         in="SourceGraphic"
         in2="offset"
         operator="over"
         result="composite2"
         id="feComposite930" />
    </filter>
  </defs>
  <title
     id="title6">ON-static</title>
  <g
     id="g920"
     style="filter:url(#filter932)">
    <rect
       y="6.2255867e-11"
       x="0"
       height="90"
       width="90"
       id="rect903"
       style="opacity:0.71499999;fill:none;fill-opacity:1;fill-rule:nonzero;stroke:none;stroke-width:1;stroke-linecap:round;stroke-linejoin:miter;stroke-miterlimit:4;stroke-dasharray:none;stroke-dashoffset:0;stroke-opacity:1;paint-order:stroke fill markers" />
    <g
       transform="translate(-8.2640618,-85.527839)"
       id="g933">
      <path
         style="isolation:isolate;fill:#37dcb1;stroke:#28284f;stroke-width:3px;stroke-miterlimit:10"
         id="path132"
         d="M 45.857746,104.12815 C 56.382212,102.63028 65.042655,105.05975 68.250226,108.46954 72.686358,113.20671 75.010334,119.59398 76.202583,125.98733 77.080126,130.68188 77.412987,135.53474 76.487028,140.21711 75.561068,144.89948 73.527589,149.64883 69.732972,152.51671 65.938354,155.38458 59.535315,156.67543 53.743531,157.19908"
         class="cls-14"
         inkscape:connector-curvature="0" />
      <path
         style="isolation:isolate;fill:#37dcb1;stroke:#28284f;stroke-width:3px;stroke-miterlimit:10"
         id="path134"
         d="M 34.10472,110.68591 C 31.157386,114.68632 29.868305,119.72793 29.565704,124.6904 28.899982,135.04154 32.458571,145.90415 40.162794,152.80289 A 16.94566,17.048944 0 0 0 47.42522,156.91899 C 50.874872,157.71663 55.783062,157.46699 58.833281,155.65249 A 20.752382,20.878867 0 0 0 65.980718,148.13269 C 70.53789,140.46676 70.271601,129.98166 66.991406,121.67639 63.505441,112.86574 55.141547,102.89819 44.828903,104.24384 41.470031,104.66398 36.120044,107.91545 34.10472,110.68591 Z"
         class="cls-14"
         inkscape:connector-curvature="0" />
      <path
         style="isolation:isolate;fill:#7afcd6;stroke-width:1"
         id="path136"
         d="M 59.238766,108.62785 66.119915,107.87892 C 66.119915,107.87892 68.86148,109.51684 71.300445,114.4245 L 64.643221,115.07601 C 64.643221,115.07601 61.550638,110.55804 59.238766,108.62785 Z"
         class="cls-15"
         inkscape:connector-curvature="0" />
      <path
         style="isolation:isolate;fill:#7afcd6;stroke-width:1"
         id="path138"
         d="M 66.785637,118.88767 73.103948,118.19962 C 73.103948,118.19962 74.029907,120.63518 74.417236,122.19394 L 68.377319,122.86372 A 41.892094,42.147424 0 0 0 66.785637,118.88767 Z"
         class="cls-15"
         inkscape:connector-curvature="0" />
      <path
         style="isolation:isolate;mix-blend-mode:multiply;fill:none;stroke:#24c99a;stroke-width:3px;stroke-linecap:round;stroke-miterlimit:10"
         id="path140"
         d="M 44.695758,108.34168 A 27.191733,27.357465 0 0 0 42.880152,123.15599"
         class="cls-16"
         inkscape:connector-curvature="0" />
      <path
         style="isolation:isolate;fill:#0d9985;stroke-width:1"
         id="path142"
         d="M 71.094676,150.00808 A 12.709245,12.786708 0 0 1 69.200394,151.76777 C 67.312163,153.19258 64.637169,154.31293 61.205673,155.11667 A 21.617821,21.749581 0 0 0 65.811262,150.11159 Q 68.510463,150.18465 71.094676,150.00808 Z"
         class="cls-17"
         inkscape:connector-curvature="0" />
      <path
         style="isolation:isolate;fill:#0d9985;stroke-width:1"
         id="path144"
         d="M 43.279585,145.91633 C 41.911828,147.43247 40.513811,148.96078 39.115794,150.44039 A 28.256889,28.429113 0 0 1 36.803922,147.65776 L 38.540852,145.61797 39.412343,144.58286 Q 41.300574,145.27699 43.279585,145.91633 Z"
         class="cls-17"
         inkscape:connector-curvature="0" />
      <path
         style="isolation:isolate;fill:#0d9985;stroke-width:1"
         id="path146"
         d="M 63.65069,150.01417 A 18.373938,18.485926 0 0 1 58.409639,154.83049 12.182719,12.256973 0 0 1 53.852467,156.2553 H 53.701166 53.646698 A 18.367886,18.479837 0 0 1 47.697561,155.96303 14.912181,15.00307 0 0 1 41.591071,152.71155 Q 44.260013,149.87412 46.880538,146.96971 C 48.696144,147.48727 50.566219,147.95611 52.478658,148.37016 A 83.275817,83.78338 0 0 0 61.635367,149.82541 C 62.288985,149.91674 62.972863,149.97763 63.65069,150.01417 Z"
         class="cls-17"
         inkscape:connector-curvature="0" />
      <path
         style="isolation:isolate;mix-blend-mode:multiply;fill:none;stroke:#24c99a;stroke-width:3px;stroke-linecap:round;stroke-miterlimit:10"
         id="path148"
         d="M 50.384659,145.75193 A 18.482874,18.595526 0 0 0 55.504669,154.08156"
         class="cls-16"
         inkscape:connector-curvature="0" />
      <path
         style="isolation:isolate;fill:#7afcd6;stroke-width:1"
         id="path230"
         d="M 63.293621,116.31206 47.800445,134.62749 Q 43.152493,140.10751 38.50454,145.63015 C 37.93565,146.31211 37.354656,146.98798 36.779714,147.66385 A 31.325264,31.51619 0 0 1 33.148501,141.23396 C 33.662923,140.55809 34.183397,139.88831 34.703871,139.22462 L 46.753446,123.77706 57.737865,109.66297 A 30.260108,30.444542 0 0 1 63.293621,116.31206 Z"
         class="cls-15"
         inkscape:connector-curvature="0" />
      <path
         style="isolation:isolate;fill:#7afcd6;stroke-width:1"
         id="path232"
         d="M 66.749325,123.5883 Q 58.088882,134.43265 48.805081,144.81424 45.228336,148.82683 41.542655,152.72982 C 41.282418,152.51671 41.028233,152.30359 40.767996,152.07222 40.162794,151.54857 39.624164,151.00057 39.091586,150.42821 Q 43.812163,145.39877 48.351179,140.19276 57.084246,130.17041 65.109227,119.5818 C 65.496556,120.37336 65.853626,121.18318 66.168331,121.98083 Q 66.489088,122.77848 66.749325,123.5883 Z"
         class="cls-15"
         inkscape:connector-curvature="0" />
      <path
         style="opacity:0.3;isolation:isolate;fill:#0d9985;fill-opacity:0.6;stroke-width:1"
         id="path234"
         d="M 38.510592,145.63015 39.406291,144.57677 33.656871,142.30561 A 31.688385,31.881524 0 0 0 36.785766,147.66385 C 37.360708,146.98798 37.941702,146.31211 38.510592,145.63015 Z"
         class="cls-19"
         inkscape:connector-curvature="0" />
      <path
         style="opacity:0.3;isolation:isolate;fill:#0d9985;fill-opacity:0.6;stroke-width:1"
         id="path236"
         d="M 43.194857,146.00157 Q 41.161378,148.24838 39.097638,150.45257 C 39.630216,151.02492 40.199106,151.57293 40.7801,152.09657 41.034285,152.32795 41.28847,152.54106 41.548707,152.75417 43.364313,150.85443 45.08914,148.93034 46.838174,147.00016 L 43.279585,145.92851 Z"
         class="cls-19"
         inkscape:connector-curvature="0" />
    </g>
  </g>
</svg>
