<svg xmlns="http://www.w3.org/2000/svg" viewBox="0 0 144.63 565.93"><defs><style>.cls-1{fill:#77bee9;}.cls-2{fill:#abdff8;}.cls-3{fill:#3799cb;}.cls-4{fill:#28284f;}.cls-5{fill:#e8f0f9;}.cls-6{fill:#131438;}.cls-7{fill:#b3c1d2;}</style></defs><title>Hack_Asset 3</title><g id="Layer_2" data-name="Layer 2"><g id="SWITCH_BASE"><path class="cls-1" d="M3.11,355.82l48.05-22.09a3.93,3.93,0,0,1,2.68-.2l87.88,23.35a4,4,0,0,1,2.91,4l-7,168.47a3.94,3.94,0,0,1-.72,2.12l-24.39,33.22Z"/><path class="cls-2" d="M1,356.93,15.13,527.24a1.16,1.16,0,0,0,.75,1l94.79,36.52a1.19,1.19,0,0,0,1.62-1.1V384.84a1.2,1.2,0,0,0-.89-1.15l-108.92-28A1.19,1.19,0,0,0,1,356.93Z"/><path class="cls-3" d="M141.83,411.9l-.64,19.16a109.32,109.32,0,0,1-28,33.15V445.33C125.24,438.34,135.94,424.21,141.83,411.9Z"/><path class="cls-3" d="M140.07,454.46,137,529.34a3,3,0,0,1-.55,1.62L112.24,563.8v-76c.46-.35,2.59-1.95,3-2.32A103.13,103.13,0,0,0,140.07,454.46Z"/><path class="cls-1" d="M111.34,487.94v75.93l-.14.18a.29.29,0,0,1-.23,0l-94.8-36.52a.26.26,0,0,1-.18-.23l-3.46-41.63S34,502,61,504.72C89.57,507.58,111.34,487.94,111.34,487.94Z"/><path class="cls-3" d="M55.25,341.89C51.86,342.77,36.4,350,34.32,352a1.72,1.72,0,0,0,.33,3c6.81,3.61,46.29,14,60,17.3,2.81.67,9.48,2,11.76,1.21,1.87-.66,6.06-4.68,9-8.51,1.79-2.35,3.73-4.52,2.51-6.1C116.34,356.81,59.24,340.84,55.25,341.89Z"/><path class="cls-4" d="M55.41,342.52a51.48,51.48,0,0,0-5.3,2.09q-2.65,1.17-5.26,2.42t-5.18,2.58c-.85.44-1.7.9-2.53,1.37a16.6,16.6,0,0,0-2.3,1.48c-.56.51-.65,1.12-.24,1.52a1.47,1.47,0,0,0,.39.29l.61.3c.43.19.86.38,1.31.55,1.77.7,3.6,1.32,5.43,1.91,3.66,1.2,7.37,2.29,11.09,3.36,7.43,2.14,14.91,4.12,22.39,6.1l11.24,2.9,5.63,1.39c1.88.47,3.73.91,5.62,1.25a38.86,38.86,0,0,0,5.61.74,5.71,5.71,0,0,0,2.44-.27,11.83,11.83,0,0,0,2.2-1.53,43.4,43.4,0,0,0,4.07-4c.65-.7,1.26-1.43,1.86-2.17s1.21-1.52,1.78-2.26a7.24,7.24,0,0,0,1.27-2.27,1.24,1.24,0,0,0-.08-.92l-.06-.09,0-.05h0l-.05,0a.41.41,0,0,0-.12-.08,5.41,5.41,0,0,0-.59-.29c-1.72-.74-3.57-1.36-5.39-2q-5.52-1.78-11.09-3.41Q89,350.22,77.77,347.28c-3.74-1-7.5-1.92-11.26-2.8-1.88-.43-3.76-.86-5.65-1.23-.94-.19-1.89-.37-2.83-.52-.47-.07-.94-.14-1.4-.19A5.65,5.65,0,0,0,55.41,342.52Zm-.33-1.27a5.91,5.91,0,0,1,1.68,0c.5.05,1,.12,1.47.2,1,.15,1.93.33,2.89.52,1.91.38,3.8.81,5.69,1.25,3.78.88,7.54,1.83,11.29,2.8q11.25,2.94,22.41,6.21c3.71,1.1,7.43,2.21,11.11,3.44,1.85.62,3.69,1.21,5.53,2,.23.1.46.2.71.33l.2.12a1.22,1.22,0,0,1,.23.18l.14.14.08.1a1.37,1.37,0,0,1,.13.2,2.61,2.61,0,0,1,.26,1.9,8.35,8.35,0,0,1-1.45,2.82,51.31,51.31,0,0,1-7.78,8.84,13.34,13.34,0,0,1-2.55,1.81,7.17,7.17,0,0,1-3.25.49A42.41,42.41,0,0,1,98,373.9c-1.93-.35-3.85-.82-5.72-1.29L86.6,371.2l-11.25-2.94Q64.12,365.26,53,362c-3.72-1.11-7.43-2.24-11.12-3.47-1.84-.62-3.68-1.26-5.5-2-.46-.18-.91-.38-1.37-.59l-.69-.34a3,3,0,0,1-.76-.58,2.34,2.34,0,0,1-.62-1.95,2.86,2.86,0,0,1,1-1.65,16.63,16.63,0,0,1,2.57-1.66c.85-.48,1.72-.94,2.58-1.38,1.73-.89,3.48-1.74,5.24-2.57s3.52-1.63,5.31-2.4A52.94,52.94,0,0,1,55.08,341.25Z"/><path class="cls-5" d="M58.57,352.55a3.89,3.89,0,0,0-.77-3.75,4.5,4.5,0,0,0-3.6-1.45c-2.64.16-5,3.38-3,5.66C53.13,355.1,57.45,355.78,58.57,352.55Z"/><path class="cls-4" d="M55.27,355.69a6.59,6.59,0,0,1-4.72-2.07,3.75,3.75,0,0,1-.71-4.05,5.18,5.18,0,0,1,4.31-3.13,5.36,5.36,0,0,1,4.33,1.76,4.81,4.81,0,0,1,1,4.65h0a4,4,0,0,1-3.11,2.73A5.19,5.19,0,0,1,55.27,355.69Zm-.79-7.44h-.22a3.4,3.4,0,0,0-2.74,2,1.94,1.94,0,0,0,.38,2.14A4.68,4.68,0,0,0,56,353.8a2.22,2.22,0,0,0,1.76-1.55,3,3,0,0,0-.6-2.85A3.53,3.53,0,0,0,54.48,348.25Z"/><path class="cls-4" d="M51,352.36l-.25-1.22c1.1-.23,2.36-.46,3.61-.69s2.49-.45,3.59-.68l.25,1.23c-1.1.22-2.36.45-3.62.68S52.09,352.13,51,352.36Z"/><path class="cls-5" d="M93.31,362.06a3.88,3.88,0,0,0,1.59,3.48,4.47,4.47,0,0,0,3.83.61c2.54-.75,4.15-4.43,1.63-6.18C98,358.35,93.68,358.66,93.31,362.06Z"/><path class="cls-4" d="M97.43,367.24a5.2,5.2,0,0,1-3.06-1,4.8,4.8,0,0,1-2-4.31h0a4.05,4.05,0,0,1,2.42-3.36,6.44,6.44,0,0,1,6.06.62,3.74,3.74,0,0,1,1.6,3.79,5.17,5.17,0,0,1-3.5,4A5.48,5.48,0,0,1,97.43,367.24Zm-.24-7.31a4,4,0,0,0-1.61.32,2.25,2.25,0,0,0-1.37,1.91h0a3,3,0,0,0,1.22,2.64,3.56,3.56,0,0,0,3,.48,3.39,3.39,0,0,0,2.22-2.56,2,2,0,0,0-.85-2A4.74,4.74,0,0,0,97.19,359.93Z"/><rect class="cls-4" x="93.63" y="362.18" width="7.2" height="1.25" transform="translate(-59.29 21.36) rotate(-9.62)"/><path class="cls-4" d="M117.07,378.31l20.66-14.7a.62.62,0,0,1,.73,1l-20.32,15.16a.91.91,0,0,1-1.09-1.45Z"/><path class="cls-4" d="M1.3,355,42.93,336.4l5.21-2.32,1.3-.58a11.25,11.25,0,0,1,1.4-.57,4.73,4.73,0,0,1,1.63-.15,4.29,4.29,0,0,1,.81.14l.7.18L65,336l22,5.87,44.05,11.73,5.5,1.46,2.76.74,1.37.36a6.51,6.51,0,0,1,1.47.52,4.54,4.54,0,0,1,2.11,2.41,4.42,4.42,0,0,1,.3,1.61c0,.52,0,1,0,1.45l-.24,5.69-.94,22.77-3.78,91.08-1.89,45.55-.06,1.42,0,.72a4.55,4.55,0,0,1-.76,2.32l-.84,1.18-3.34,4.61L126,546.75l-13.37,18.46-1.46-1.07,13.6-18.28,6.81-9.14,3.4-4.57.84-1.13a3.5,3.5,0,0,0,.48-1.08,4.14,4.14,0,0,0,.09-.6l0-.7,0-1.42,1.89-45.55,3.78-91.08.94-22.77.24-5.7,0-1.4a3.39,3.39,0,0,0-.19-1.18,3.34,3.34,0,0,0-1.53-1.8,4.63,4.63,0,0,0-1.21-.44l-1.38-.36-2.75-.73-5.51-1.46L86.69,343.07l-22-5.84-11-2.92-.69-.18a2.93,2.93,0,0,0-.59-.11,3.43,3.43,0,0,0-1.19.12,11.37,11.37,0,0,0-1.22.52l-1.3.59-5.18,2.38L2,356.61Z"/><path class="cls-4" d="M111.05,565.93a2,2,0,0,1-.76-.14l-94.8-36.52a2.14,2.14,0,0,1-1.36-1.82L0,357.15a2.12,2.12,0,0,1,.75-1.81,2.13,2.13,0,0,1,1.91-.44l108.92,28a2.13,2.13,0,0,1,1.6,2.07V563.8a2.15,2.15,0,0,1-.93,1.76A2.18,2.18,0,0,1,111.05,565.93ZM1.9,357,16,527.3a.21.21,0,0,0,.15.2L111,564a.26.26,0,0,0,.22,0,.23.23,0,0,0,.1-.19V385a.23.23,0,0,0-.18-.23l-108.92-28a.28.28,0,0,0-.21.05.23.23,0,0,0-.08.2Z"/><path class="cls-4" d="M10,378.13,14.86,436a.57.57,0,0,0,.41.51l88.11,25.62a.57.57,0,0,0,.73-.56l-1.36-60a.59.59,0,0,0-.43-.55L10.69,377.54A.56.56,0,0,0,10,378.13Z"/><path class="cls-6" d="M104.11,461.6a.57.57,0,0,1-.73.56L15.27,436.54a.57.57,0,0,1-.41-.51l-1-14a56.09,56.09,0,0,0,12.89,7.06A96.23,96.23,0,0,0,56,436.43c10,.85,20.47-.08,29.57-4.42a40,40,0,0,0,17.53-16.26Z"/><path class="cls-5" d="M7.9,366.52a6.13,6.13,0,0,0-.53,2.25A3.94,3.94,0,0,0,11.86,373c3-.48,4.29-4,3-6.57a4.07,4.07,0,0,0-4.14-2.15A3.57,3.57,0,0,0,7.9,366.52Z"/><path class="cls-4" d="M11.24,374a4.69,4.69,0,0,1-3.14-1.21,5,5,0,0,1-1.64-4,7.35,7.35,0,0,1,.61-2.58h0a4.49,4.49,0,0,1,3.56-2.75,5,5,0,0,1,5.08,2.66,5.88,5.88,0,0,1-.08,5.19A5,5,0,0,1,12,373.91,4.87,4.87,0,0,1,11.24,374Zm-2.52-7.08a5.58,5.58,0,0,0-.45,1.93,3.31,3.31,0,0,0,1,2.59,2.82,2.82,0,0,0,2.4.7,3.12,3.12,0,0,0,2.31-1.7,4,4,0,0,0,.05-3.57,3.18,3.18,0,0,0-3.21-1.65,2.67,2.67,0,0,0-2.14,1.7Z"/><path class="cls-5" d="M105.73,394.59a6.55,6.55,0,0,0,.79-2.18,3.94,3.94,0,0,0-4-4.72c-3,.13-4.72,3.47-3.76,6.17a4.08,4.08,0,0,0,3.87,2.62A3.59,3.59,0,0,0,105.73,394.59Z"/><path class="cls-4" d="M102.59,397.38a5,5,0,0,1-4.67-3.22,5.88,5.88,0,0,1,.67-5.15,5,5,0,0,1,3.91-2.23,4.7,4.7,0,0,1,3.75,1.59,5,5,0,0,1,1.16,4.19,7.24,7.24,0,0,1-.9,2.49h0a4.47,4.47,0,0,1-3.85,2.33Zm.13-8.79h-.14A3.14,3.14,0,0,0,100.1,390a4,4,0,0,0-.47,3.54,3.15,3.15,0,0,0,3,2,2.65,2.65,0,0,0,2.31-1.45h0a5.39,5.39,0,0,0,.67-1.87,3.23,3.23,0,0,0-.74-2.68A2.8,2.8,0,0,0,102.72,388.59Z"/><path class="cls-7" d="M27,522.2a6.47,6.47,0,0,0-.17-2.31,3.94,3.94,0,0,0-5.55-2.7c-2.73,1.36-2.91,5.08-.94,7.17a4.08,4.08,0,0,0,4.6.82A3.58,3.58,0,0,0,27,522.2Z"/><path class="cls-4" d="M23.16,526.46A4.84,4.84,0,0,1,19.63,525a5.92,5.92,0,0,1-1.48-5,5,5,0,0,1,2.67-3.62,4.65,4.65,0,0,1,4.07-.07,5,5,0,0,1,2.77,3.36,7.26,7.26,0,0,1,.19,2.64A4.48,4.48,0,0,1,25.27,526,5,5,0,0,1,23.16,526.46Zm-.23-8.77a2.89,2.89,0,0,0-1.3.31,3.13,3.13,0,0,0-1.69,2.32,4.06,4.06,0,0,0,1,3.42,3.19,3.19,0,0,0,3.56.61A2.64,2.64,0,0,0,26,522.09h0a5.41,5.41,0,0,0-.14-2A3.27,3.27,0,0,0,24.13,518,3,3,0,0,0,22.93,517.69Z"/><path class="cls-7" d="M106.34,552.13a6.6,6.6,0,0,0-.49-2.26A4,4,0,0,0,100,548c-2.51,1.73-2.16,5.44.09,7.23a4.06,4.06,0,0,0,4.67.16A3.6,3.6,0,0,0,106.34,552.13Z"/><path class="cls-4" d="M102.47,556.94a4.76,4.76,0,0,1-3-1,5.87,5.87,0,0,1-2.17-4.72,5,5,0,0,1,2.13-4,4.67,4.67,0,0,1,4-.64,5,5,0,0,1,3.22,2.94,7.13,7.13,0,0,1,.55,2.59h0a4.45,4.45,0,0,1-2,4A5.09,5.09,0,0,1,102.47,556.94Zm-.35-8.74a2.84,2.84,0,0,0-1.64.53,3.09,3.09,0,0,0-1.34,2.53,4,4,0,0,0,1.48,3.24,3.17,3.17,0,0,0,3.61.11,2.66,2.66,0,0,0,1.2-2.46h0a5.36,5.36,0,0,0-.43-1.94,3.22,3.22,0,0,0-2-1.88A3,3,0,0,0,102.12,548.2Z"/><path class="cls-4" d="M7.88,371.47l-.55-1.12.44-.22a50.39,50.39,0,0,0,6.35-4l.72,1a51.5,51.5,0,0,1-6.51,4.08Z"/><path class="cls-4" d="M99.06,395l-.76-1a63.24,63.24,0,0,1,6.85-4.57l.62,1.08A62.65,62.65,0,0,0,99.06,395Z"/><path class="cls-4" d="M98.78,554.16,98.3,553a36.07,36.07,0,0,0,6.52-3.54l.71,1A36.74,36.74,0,0,1,98.78,554.16Z"/><path class="cls-4" d="M19.36,523.83l-.6-1.1c2.31-1.26,4.61-2.63,6.82-4.09l.69,1.05C24,521.17,21.71,522.56,19.36,523.83Z"/><path class="cls-2" d="M87.8,356.86c0,.58-4,4.58-13.15,4.58-7.36,0-12.93-5.46-13-6l-.56-23.34c0-2.12-.07-4.39,1.09-6.16s3.47-2.78,5.65-3.23c5.77-1.2,13.23-.7,18.37,2.45a4.75,4.75,0,0,1,2.23,4.14C88.31,337.63,87.93,348.93,87.8,356.86Z"/><path class="cls-1" d="M87.82,336.71l-.15,5.34c-.14,5.07-.28,10.32-.36,14.6a.84.84,0,0,1-.31.64,20.14,20.14,0,0,1-12.35,4.15c-3.72,0-8.73-2.1-12.59-5.49a.83.83,0,0,1-.29-.62l0-5.57a28,28,0,0,0,16.78-3.61A27,27,0,0,0,87.82,336.71Z"/><path class="cls-4" d="M88.55,356.87a1.21,1.21,0,0,1-.08.37l-.09.19a2.11,2.11,0,0,1-.18.27,4.78,4.78,0,0,1-.34.42,8,8,0,0,1-.72.71,11.59,11.59,0,0,1-1.6,1.13A15.49,15.49,0,0,1,82,361.5a21.59,21.59,0,0,1-7.53.8,21.15,21.15,0,0,1-7.37-1.8,18.41,18.41,0,0,1-3.29-1.93,18.77,18.77,0,0,1-1.48-1.22c-.24-.22-.47-.44-.7-.69s-.23-.26-.34-.41a2,2,0,0,1-.18-.26l-.11-.21a1.43,1.43,0,0,1-.06-.26c0-.13,0-.07,0-.11l-.29-14.63-.17-7.31c0-1.22-.08-2.44,0-3.71a8.84,8.84,0,0,1,1-3.8,6.92,6.92,0,0,1,2.9-2.73A12.86,12.86,0,0,1,68,322a30.39,30.39,0,0,1,7.43-.51,27.58,27.58,0,0,1,7.35,1.32,19,19,0,0,1,3.45,1.53,5.35,5.35,0,0,1,2.64,3.05,5.49,5.49,0,0,1,.29,2l0,1.83L89,334.93l-.15,7.31Zm-1.5,0,.4-14.62.2-7.31.1-3.66,0-1.83a4.33,4.33,0,0,0-.21-1.57,4.09,4.09,0,0,0-2-2.34,17.61,17.61,0,0,0-3.22-1.45,25,25,0,0,0-7-1.29,29.29,29.29,0,0,0-7.12.52c-2.28.44-4.59,1.4-5.63,3.31s-.79,4.41-.75,6.84l.19,7.31.41,14.62c-.07-.31,0-.11,0-.05l.26.29c.19.19.4.38.62.57a15.65,15.65,0,0,0,1.4,1,23.41,23.41,0,0,0,3.08,1.65,19.49,19.49,0,0,0,6.75,1.72,20.52,20.52,0,0,0,7-.63,14.21,14.21,0,0,0,3.19-1.32,11.53,11.53,0,0,0,1.4-1,7.91,7.91,0,0,0,.59-.56l.24-.28.08-.12h0A.32.32,0,0,0,87.05,356.84Z"/><path class="cls-4" d="M65.25,329.08a6.36,6.36,0,0,0,1.6,1.85,11,11,0,0,0,2.19,1.4,15,15,0,0,0,5.07,1.43,16.66,16.66,0,0,0,5.31-.37,10.06,10.06,0,0,0,4.65-2.16l0,0a.63.63,0,0,1,.88,0,.65.65,0,0,1,0,.87,8.3,8.3,0,0,1-2.49,1.72,14.53,14.53,0,0,1-2.76.95,18,18,0,0,1-5.76.46,15.56,15.56,0,0,1-5.61-1.55A11.29,11.29,0,0,1,65.92,332a6.76,6.76,0,0,1-1.85-2.48.62.62,0,0,1,1.14-.5Z"/><path class="cls-5" d="M79.38,327a.75.75,0,0,1-.27.54,6.87,6.87,0,0,1-4.48,1.21,6.77,6.77,0,0,1-4.42-1.64.69.69,0,0,1-.24-.51c-.07-2.81-.14-319.33-.21-322.13a3.84,3.84,0,0,1,.4-2.23,3.07,3.07,0,0,1,2-1.16A9.76,9.76,0,0,1,78.82,2a1.73,1.73,0,0,1,.8,1.5C79.56,6.5,79.42,324.18,79.38,327Z"/><path class="cls-7" d="M79.59,310.75c0,9.68,0,15.41,0,16.73a8.82,8.82,0,0,1-4.7,1.31,8.53,8.53,0,0,1-4.65-1.74c0-1.07,0-5,0-11.15A22,22,0,0,0,79.59,310.75Z"/><path class="cls-4" d="M70.26,322.89a27.64,27.64,0,0,0,4.47-.67,10.77,10.77,0,0,0,3.89-1.9h0a.79.79,0,0,1,1.06.15.75.75,0,0,1,0,1A8.29,8.29,0,0,1,75.51,324a18.19,18.19,0,0,1-5.14.4.79.79,0,0,1-.76-.76.73.73,0,0,1,.64-.74Z"/><path class="cls-4" d="M70.25,315a12.57,12.57,0,0,0,2.4-.47,15.88,15.88,0,0,0,2.3-.85A18.08,18.08,0,0,0,79.18,311h0a.75.75,0,0,1,1,1.07A12,12,0,0,1,76,315.36a12.72,12.72,0,0,1-5.6,1.14.8.8,0,0,1-.78-.75.71.71,0,0,1,.64-.75Z"/><path class="cls-4" d="M70.25,306.76a13.37,13.37,0,0,0,2.39-.44,15.69,15.69,0,0,0,2.32-.85,17.18,17.18,0,0,0,4.23-2.76h0a.73.73,0,0,1,1,.06.77.77,0,0,1,0,1A11.65,11.65,0,0,1,76,307.14a12.49,12.49,0,0,1-5.63,1.12.81.81,0,0,1-.77-.76.7.7,0,0,1,.63-.74Z"/><path class="cls-4" d="M70.24,298.52a12.58,12.58,0,0,0,2.4-.42,16.24,16.24,0,0,0,2.33-.85,16.5,16.5,0,0,0,4.24-2.8h0a.71.71,0,0,1,1,0,.8.8,0,0,1,0,1A11.36,11.36,0,0,1,76,298.92a12,12,0,0,1-5.64,1.1.82.82,0,0,1-.77-.77.69.69,0,0,1,.63-.73Z"/><path class="cls-4" d="M70.24,290.28a11.91,11.91,0,0,0,2.4-.4A15.23,15.23,0,0,0,75,289a15.87,15.87,0,0,0,4.24-2.85h0a.71.71,0,0,1,1,0,.81.81,0,0,1,0,1A11.26,11.26,0,0,1,76,290.7a11.94,11.94,0,0,1-5.67,1.09.84.84,0,0,1-.76-.79.68.68,0,0,1,.62-.72Z"/><path class="cls-4" d="M70.23,282a11.86,11.86,0,0,0,2.4-.38A13.63,13.63,0,0,0,75,280.8a15.14,15.14,0,0,0,4.25-2.9h0a.69.69,0,0,1,1,0,.81.81,0,0,1,0,1A11,11,0,0,1,76,282.47a11.58,11.58,0,0,1-5.68,1.08.83.83,0,0,1-.76-.79.65.65,0,0,1,.62-.71Z"/><path class="cls-4" d="M70.23,273.81a11.4,11.4,0,0,0,2.4-.38,14.57,14.57,0,0,0,2.37-.85,14.87,14.87,0,0,0,4.25-3h0a.67.67,0,0,1,1,0,.84.84,0,0,1,0,1,10.86,10.86,0,0,1-4.2,3.67,11.5,11.5,0,0,1-5.71,1.08.86.86,0,0,1-.75-.8.65.65,0,0,1,.61-.71Z"/><path class="cls-4" d="M70.23,265.57a10.11,10.11,0,0,0,2.39-.36,13.93,13.93,0,0,0,2.39-.86,14.44,14.44,0,0,0,4.25-3h0a.66.66,0,0,1,1-.06.84.84,0,0,1,0,1A10.61,10.61,0,0,1,76.06,266a11.05,11.05,0,0,1-5.72,1.08.85.85,0,0,1-.75-.8.64.64,0,0,1,.61-.7Z"/><path class="cls-4" d="M70.22,257.34a10.26,10.26,0,0,0,2.4-.36,12.81,12.81,0,0,0,2.4-.87A13.87,13.87,0,0,0,79.27,253h0a.66.66,0,0,1,1-.08.84.84,0,0,1,0,1,10.49,10.49,0,0,1-4.17,3.83,11,11,0,0,1-5.75,1.09.86.86,0,0,1-.74-.81.64.64,0,0,1,.6-.7Z"/><path class="cls-4" d="M70.22,249.11a10.87,10.87,0,0,0,2.4-.35,13.69,13.69,0,0,0,2.41-.88,13.87,13.87,0,0,0,4.26-3.15h0a.65.65,0,0,1,.95-.11.87.87,0,0,1,0,1,10.4,10.4,0,0,1-4.16,3.91,10.69,10.69,0,0,1-5.76,1.11.86.86,0,0,1-.74-.82.63.63,0,0,1,.6-.69Z"/><path class="cls-4" d="M70.21,240.88a10.31,10.31,0,0,0,2.4-.35,13.17,13.17,0,0,0,2.43-.89,13.41,13.41,0,0,0,4.26-3.22h0a.64.64,0,0,1,.93-.14.87.87,0,0,1,0,1,10.35,10.35,0,0,1-4.15,4,10.52,10.52,0,0,1-5.78,1.13.88.88,0,0,1-.73-.82.62.62,0,0,1,.6-.69Z"/><path class="cls-4" d="M70.21,232.65a9.88,9.88,0,0,0,2.4-.35,13.29,13.29,0,0,0,6.7-4.19h0a.63.63,0,0,1,.92-.17.87.87,0,0,1,0,1,10.14,10.14,0,0,1-9.93,5.23.85.85,0,0,1-.73-.82.61.61,0,0,1,.59-.68Z"/><path class="cls-4" d="M70.2,224.42a9.85,9.85,0,0,0,2.4-.34,13.21,13.21,0,0,0,2.45-.92,12.86,12.86,0,0,0,4.27-3.37h0c.28-.34.69-.43.91-.2a.9.9,0,0,1,0,1,10.05,10.05,0,0,1-9.94,5.34.86.86,0,0,1-.72-.82.61.61,0,0,1,.59-.68Z"/><path class="cls-4" d="M70.2,216.19a10,10,0,0,0,2.4-.34,13,13,0,0,0,2.46-.94,12.77,12.77,0,0,0,4.28-3.44h0c.28-.35.68-.45.9-.23a.9.9,0,0,1,0,1,10,10,0,0,1-9.94,5.47.88.88,0,0,1-.72-.84.59.59,0,0,1,.58-.67Z"/><path class="cls-4" d="M70.19,208a9.58,9.58,0,0,0,2.41-.34,12.68,12.68,0,0,0,2.47-1,12.5,12.5,0,0,0,4.28-3.52h0c.28-.36.67-.48.89-.27a1,1,0,0,1,0,1,9.92,9.92,0,0,1-10,5.59.87.87,0,0,1-.71-.84.59.59,0,0,1,.58-.67Z"/><path class="cls-4" d="M70.19,199.73a9.08,9.08,0,0,0,2.4-.34,12.73,12.73,0,0,0,6.77-4.56h0c.27-.36.66-.49.87-.29a.93.93,0,0,1,0,1A10.09,10.09,0,0,1,76.17,200a9.91,9.91,0,0,1-5.87,1.25.87.87,0,0,1-.71-.84.59.59,0,0,1,.57-.67Z"/><path class="cls-4" d="M70.18,191.5a9.2,9.2,0,0,0,2.41-.34,13.08,13.08,0,0,0,2.5-1,12.39,12.39,0,0,0,4.28-3.68h0c.27-.36.65-.51.86-.32a1,1,0,0,1,0,1,10.14,10.14,0,0,1-4.06,4.57,9.82,9.82,0,0,1-5.9,1.28.87.87,0,0,1-.7-.84.59.59,0,0,1,.57-.67Z"/><path class="cls-4" d="M70.18,183.27a8.79,8.79,0,0,0,2.4-.34,12.71,12.71,0,0,0,2.52-1,12.15,12.15,0,0,0,4.28-3.76h0c.27-.38.64-.54.85-.36a1,1,0,0,1,0,1,10.15,10.15,0,0,1-4,4.67,9.7,9.7,0,0,1-5.91,1.31.86.86,0,0,1-.7-.84.59.59,0,0,1,.57-.67Z"/><path class="cls-4" d="M70.18,175a8.47,8.47,0,0,0,2.4-.34,12.39,12.39,0,0,0,6.81-4.85h0c.27-.39.64-.56.84-.39s.17.59,0,1a10.09,10.09,0,0,1-4,4.77,9.63,9.63,0,0,1-5.94,1.34.87.87,0,0,1-.69-.84.59.59,0,0,1,.56-.67Z"/><path class="cls-4" d="M70.17,166.81a8.58,8.58,0,0,0,2.41-.34,12.39,12.39,0,0,0,2.53-1,12,12,0,0,0,4.3-3.91h0c.26-.4.63-.58.82-.42s.18.58,0,1a10,10,0,0,1-4,4.86,9.59,9.59,0,0,1-6,1.39.89.89,0,0,1-.69-.85.59.59,0,0,1,.56-.67Z"/><path class="cls-4" d="M70.17,158.59a8.6,8.6,0,0,0,2.4-.35,12.27,12.27,0,0,0,6.85-5.05h0c.26-.4.62-.61.81-.45s.18.58,0,1a10.07,10.07,0,0,1-4,5,9.43,9.43,0,0,1-6,1.42.88.88,0,0,1-.68-.85c0-.39.22-.67.55-.66Z"/><path class="cls-4" d="M70.16,150.36a8.36,8.36,0,0,0,2.41-.35,12.26,12.26,0,0,0,2.56-1.08,11.76,11.76,0,0,0,4.3-4.07h0c.25-.41.61-.63.79-.48s.17.57,0,1a10.1,10.1,0,0,1-4,5.06,9.37,9.37,0,0,1-6,1.45.88.88,0,0,1-.68-.85c0-.39.21-.67.55-.66Z"/><path class="cls-4" d="M70.16,142.13a8.29,8.29,0,0,0,2.4-.35,12.46,12.46,0,0,0,2.58-1.09,11.71,11.71,0,0,0,4.3-4.16h0c.25-.42.6-.65.78-.51s.17.55,0,1a10.15,10.15,0,0,1-4,5.15,9.33,9.33,0,0,1-6,1.48.89.89,0,0,1-.67-.85c0-.39.21-.67.54-.66Z"/><path class="cls-4" d="M70.15,133.9a8,8,0,0,0,2.41-.35,12.33,12.33,0,0,0,2.59-1.11,11.68,11.68,0,0,0,4.3-4.23h0c.25-.43.6-.67.77-.54s.16.55,0,1a10.15,10.15,0,0,1-4,5.25,9.18,9.18,0,0,1-6,1.51.87.87,0,0,1-.67-.85c0-.39.21-.67.54-.66Z"/><path class="cls-4" d="M70.15,125.67a8,8,0,0,0,2.4-.35,12.27,12.27,0,0,0,2.6-1.13,11.71,11.71,0,0,0,4.32-4.3h0c.25-.44.59-.7.76-.57s.16.54,0,1a10.2,10.2,0,0,1-3.94,5.34,9.27,9.27,0,0,1-6,1.55.89.89,0,0,1-.66-.86c0-.39.21-.67.53-.66Z"/><path class="cls-4" d="M70.14,117.44a7.8,7.8,0,0,0,2.41-.35A12.4,12.4,0,0,0,75.16,116a11.58,11.58,0,0,0,4.32-4.38h0c.25-.45.58-.72.75-.6s.15.53,0,1a10.18,10.18,0,0,1-3.93,5.43A9.16,9.16,0,0,1,70.25,119a.89.89,0,0,1-.66-.86c0-.39.2-.67.53-.66Z"/><path class="cls-4" d="M70.14,109.21a7.55,7.55,0,0,0,2.41-.35,11.8,11.8,0,0,0,2.62-1.16,11.43,11.43,0,0,0,4.32-4.45h0c.25-.45.58-.74.74-.63s.15.53,0,1a10.27,10.27,0,0,1-3.91,5.53,9.14,9.14,0,0,1-6.09,1.6.88.88,0,0,1-.65-.87c0-.38.2-.66.53-.65Z"/><path class="cls-4" d="M70.13,101a7.55,7.55,0,0,0,2.41-.35,12,12,0,0,0,2.64-1.17,11.43,11.43,0,0,0,4.32-4.52h0c.24-.46.56-.76.72-.66s.14.52,0,1a10.32,10.32,0,0,1-3.9,5.61,9,9,0,0,1-6.1,1.63.88.88,0,0,1-.65-.87c0-.39.2-.66.52-.65Z"/><path class="cls-4" d="M70.13,92.75a7.35,7.35,0,0,0,2.41-.35,11.65,11.65,0,0,0,2.65-1.18,11.36,11.36,0,0,0,4.32-4.59h0c.24-.47.56-.78.71-.69s.14.51,0,1a10.29,10.29,0,0,1-3.88,5.7,9,9,0,0,1-6.13,1.65.91.91,0,0,1-.64-.87c0-.39.2-.66.52-.65Z"/><path class="cls-4" d="M70.13,84.52a7,7,0,0,0,2.4-.35,11.66,11.66,0,0,0,7-5.84h0c.24-.48.55-.8.7-.72s.14.5,0,1a10.29,10.29,0,0,1-3.87,5.79A8.92,8.92,0,0,1,70.23,86a.9.9,0,0,1-.64-.88c0-.39.19-.66.51-.64Z"/><path class="cls-4" d="M70.12,76.29A7.06,7.06,0,0,0,72.53,76a11.51,11.51,0,0,0,2.68-1.2A11.3,11.3,0,0,0,79.54,70h0c.24-.48.54-.82.69-.74s.13.49,0,1a10.27,10.27,0,0,1-3.86,5.86,8.84,8.84,0,0,1-6.16,1.69.91.91,0,0,1-.63-.89c0-.38.19-.65.51-.63Z"/><path class="cls-4" d="M70.12,68.06a7.12,7.12,0,0,0,2.41-.34,11.4,11.4,0,0,0,2.69-1.21,11.19,11.19,0,0,0,4.33-4.77h0c.23-.49.53-.84.67-.77s.13.48,0,1a10.28,10.28,0,0,1-3.84,5.94,8.78,8.78,0,0,1-6.18,1.69.9.9,0,0,1-.63-.88c0-.39.19-.66.5-.63Z"/><path class="cls-4" d="M70.11,59.82a6.82,6.82,0,0,0,2.41-.32,11.57,11.57,0,0,0,7-6h0c.23-.49.52-.85.66-.79s.13.48,0,1a10.3,10.3,0,0,1-3.83,6,8.65,8.65,0,0,1-6.2,1.7.9.9,0,0,1-.62-.89c0-.39.19-.65.5-.63Z"/><path class="cls-4" d="M70.11,51.59a6.62,6.62,0,0,0,2.41-.32,11.45,11.45,0,0,0,7.06-6.1h0c.23-.5.52-.87.65-.82s.12.47,0,1a10.27,10.27,0,0,1-3.81,6.09,8.64,8.64,0,0,1-6.22,1.7.92.92,0,0,1-.62-.9c0-.39.18-.65.49-.62Z"/><path class="cls-4" d="M70.1,43.35a6.43,6.43,0,0,0,2.42-.3,11.07,11.07,0,0,0,2.72-1.22,10.92,10.92,0,0,0,4.35-4.93h0c.22-.51.51-.89.63-.84s.12.46,0,1a10.23,10.23,0,0,1-3.8,6.16,8.54,8.54,0,0,1-6.24,1.69.93.93,0,0,1-.61-.91c0-.38.18-.64.49-.61Z"/><path class="cls-4" d="M70.1,35.12a6.58,6.58,0,0,0,2.41-.29,11.25,11.25,0,0,0,7.1-6.19v0c.22-.51.5-.9.63-.86s.11.46,0,1A10.21,10.21,0,0,1,76.46,35c-1.9,1.37-4.47,2.12-6.26,1.69a.94.94,0,0,1-.61-.92c0-.39.18-.64.49-.61Z"/><path class="cls-4" d="M70.09,26.88a6.34,6.34,0,0,0,2.42-.27,10.89,10.89,0,0,0,2.75-1.22,10.72,10.72,0,0,0,4.36-5h0c.22-.52.49-.92.61-.88s.11.45,0,1a10.11,10.11,0,0,1-3.77,6.27c-1.9,1.38-4.5,2.12-6.28,1.67a1,1,0,0,1-.6-.93c0-.39.18-.64.48-.6Z"/><path class="cls-4" d="M70.09,18.64a6.07,6.07,0,0,0,2.41-.25,10.62,10.62,0,0,0,2.77-1.21,10.69,10.69,0,0,0,4.37-5h0c.22-.52.48-.93.6-.9s.11.44,0,1a10.13,10.13,0,0,1-3.76,6.32c-1.91,1.39-4.53,2.13-6.3,1.65a1,1,0,0,1-.6-.93c0-.39.17-.64.48-.6Z"/><path class="cls-4" d="M70.09,10.4a6,6,0,0,0,2.41-.22A11,11,0,0,0,75.28,9,10.54,10.54,0,0,0,79.65,3.9h0c.22-.53.48-1,.59-.93s.11.44,0,1A10.05,10.05,0,0,1,76.5,10.3c-1.91,1.39-4.55,2.13-6.32,1.62a1,1,0,0,1-.59-.94c0-.39.17-.64.47-.59Z"/><path class="cls-4" d="M80.33,327.05a1.53,1.53,0,0,1-.57,1.14,7,7,0,0,1-.62.45,6,6,0,0,1-1.36.63,8.68,8.68,0,0,1-2.82.41,7.24,7.24,0,0,1-2.86-.55,7.64,7.64,0,0,1-1.29-.7,6.55,6.55,0,0,1-.59-.45l-.27-.24a1.45,1.45,0,0,1-.53-1.12V316.47l0-20.93-.05-41.86L69.24,170l-.08-83.71,0-41.86,0-20.93,0-10.46V5.17a7.29,7.29,0,0,1,.32-3A3,3,0,0,1,70.6.84,4.84,4.84,0,0,1,72.09.26,11.8,11.8,0,0,1,74.92,0a11.36,11.36,0,0,1,2.81.45A9.39,9.39,0,0,1,79.1,1a4.85,4.85,0,0,1,.72.46,2.7,2.7,0,0,1,.61.78,2.48,2.48,0,0,1,.28,1,6.73,6.73,0,0,1,0,.76v9.16l0,20.93,0,41.85-.11,83.72Zm-1.5,0,0-167.43,0-83.72V3.93c0-.54,0-.65-.09-.85s-.92-.67-1.63-.9a9.53,9.53,0,0,0-2.34-.37c-1.53,0-3.52.24-3.82,1.12a6.33,6.33,0,0,0-.17,2.2V316.47l0,10.13h0l.23.17a5,5,0,0,0,.49.31,5.67,5.67,0,0,0,1,.46,7.22,7.22,0,0,0,2.27.34,10.07,10.07,0,0,0,2.36-.21,4.54,4.54,0,0,0,1-.38,5.35,5.35,0,0,0,.47-.29S78.82,327,78.83,327Z"/></g></g></svg>